M48
; DRILL file {KiCad (5.1.6)-1} date 08/30/20 16:27:37
; FORMAT={-:-/ absolute / inch / decimal}
; #@! TF.CreationDate,2020-08-30T16:27:37-04:00
; #@! TF.GenerationSoftware,Kicad,Pcbnew,(5.1.6)-1
FMAT,2
INCH
T1C0.0579
T2C0.0689
T3C0.1200
T4C0.1570
%
G90
G05
T1
X19.6405Y-10.8412
X19.6921Y-10.7837
X19.8889Y-10.764
X19.8905Y-10.7412
X15.8905Y-10.0912
X15.9421Y-10.0337
X16.1389Y-10.014
X16.1405Y-9.9912
X8.203Y-7.8412
X8.2546Y-7.7837
X8.4514Y-7.764
X8.453Y-7.7412
X1.857Y-8.7801
X1.9086Y-8.7227
X2.1054Y-8.703
X2.107Y-8.6801
X5.7867Y-7.5288
X5.8383Y-7.4714
X6.0351Y-7.4517
X6.0367Y-7.4288
X17.0155Y-9.3412
X17.0671Y-9.2837
X17.2639Y-9.264
X17.2655Y-9.2412
X5.13Y-8.8807
X5.1816Y-8.8232
X5.3784Y-8.8035
X5.38Y-8.7807
X12.9843Y-10.8412
X13.0358Y-10.7837
X13.2327Y-10.764
X13.2343Y-10.7412
X6.5111Y-7.723
X6.5627Y-7.6655
X6.7596Y-7.6458
X6.7611Y-7.623
X11.953Y-7.8412
X12.0046Y-7.7837
X12.2014Y-7.764
X12.203Y-7.7412
X10.828Y-8.5912
X10.8796Y-8.5337
X11.0764Y-8.514
X11.078Y-8.4912
X5.5666Y-9.7992
X5.6181Y-9.7418
X5.815Y-9.7221
X5.8166Y-9.6992
X2.8889Y-6.7524
X2.9405Y-6.6949
X3.1373Y-6.6752
X3.1389Y-6.6524
X18.0468Y-10.0912
X18.0983Y-10.0337
X18.2952Y-10.014
X18.2968Y-9.9912
X19.6405Y-8.5912
X19.6921Y-8.5337
X19.8889Y-8.514
X19.8905Y-8.4912
X6.317Y-8.4474
X6.3686Y-8.3899
X6.5654Y-8.3702
X6.567Y-8.3474
X17.578Y-8.5912
X17.6296Y-8.5337
X17.8264Y-8.514
X17.828Y-8.4912
X4.1697Y-6.3191
X4.2213Y-6.2616
X4.4181Y-6.2419
X4.4197Y-6.2191
X17.203Y-7.8412
X17.2546Y-7.7837
X17.4514Y-7.764
X17.453Y-7.7412
X11.953Y-6.9037
X12.0046Y-6.8462
X12.2014Y-6.8265
X12.203Y-6.8037
X13.828Y-6.9037
X13.8796Y-6.8462
X14.0764Y-6.8265
X14.078Y-6.8037
X14.3905Y-10.0912
X14.4421Y-10.0337
X14.6389Y-10.014
X14.6405Y-9.9912
X15.1405Y-10.0912
X15.1921Y-10.0337
X15.3889Y-10.014
X15.3905Y-9.9912
X21.1405Y-9.3412
X21.1921Y-9.2837
X21.3889Y-9.264
X21.3905Y-9.2412
X18.6093Y-10.8412
X18.6608Y-10.7837
X18.8577Y-10.764
X18.8593Y-10.7412
X2.5137Y-7.4283
X2.5653Y-7.3708
X2.7621Y-7.3511
X2.7637Y-7.3283
X9.703Y-7.8412
X9.7546Y-7.7837
X9.9514Y-7.764
X9.953Y-7.7412
X15.5155Y-9.3412
X15.5671Y-9.2837
X15.7639Y-9.264
X15.7655Y-9.2412
X21.1405Y-10.8412
X21.1921Y-10.7837
X21.3889Y-10.764
X21.3905Y-10.7412
X10.453Y-7.8412
X10.5046Y-7.7837
X10.7014Y-7.764
X10.703Y-7.7412
X14.0155Y-9.3412
X14.0671Y-9.2837
X14.2639Y-9.264
X14.2655Y-9.2412
X14.203Y-7.8412
X14.2546Y-7.7837
X14.4514Y-7.764
X14.453Y-7.7412
X8.3905Y-8.5912
X8.4421Y-8.5337
X8.6389Y-8.514
X8.6405Y-8.4912
X13.2655Y-9.3412
X13.3171Y-9.2837
X13.5139Y-9.264
X13.5155Y-9.2412
X21.1405Y-10.0912
X21.1921Y-10.0337
X21.3889Y-10.014
X21.3905Y-9.9912
X14.578Y-8.5912
X14.6296Y-8.5337
X14.8264Y-8.514
X14.828Y-8.4912
X11.0155Y-9.3412
X11.0671Y-9.2837
X11.2639Y-9.264
X11.2655Y-9.2412
X15.328Y-8.5912
X15.3796Y-8.5337
X15.5764Y-8.514
X15.578Y-8.4912
X3.4452Y-6.125
X3.4968Y-6.0675
X3.6937Y-6.0478
X3.6952Y-6.025
X19.6405Y-7.8412
X19.6921Y-7.7837
X19.8889Y-7.764
X19.8905Y-7.7412
X16.453Y-6.9037
X16.5046Y-6.8462
X16.7014Y-6.8265
X16.703Y-6.8037
X17.953Y-6.9037
X18.0046Y-6.8462
X18.2014Y-6.8265
X18.203Y-6.8037
X13.6405Y-10.0912
X13.6921Y-10.0337
X13.8889Y-10.014
X13.8905Y-9.9912
X12.1405Y-10.0912
X12.1921Y-10.0337
X12.3889Y-10.014
X12.3905Y-9.9912
X7.0995Y-10.5982
X7.1511Y-10.5407
X7.3479Y-10.521
X7.3495Y-10.4982
X11.3905Y-10.0912
X11.4421Y-10.0337
X11.6389Y-10.014
X11.6405Y-9.9912
X21.1405Y-8.5912
X21.1921Y-8.5337
X21.3889Y-8.514
X21.3905Y-8.4912
X6.343Y-6.9015
X6.3946Y-6.844
X6.5914Y-6.8243
X6.593Y-6.8015
X11.203Y-7.8412
X11.2546Y-7.7837
X11.4514Y-7.764
X11.453Y-7.7412
X3.6133Y-6.9465
X3.6649Y-6.889
X3.8618Y-6.8693
X3.8633Y-6.8465
X10.1718Y-10.8412
X10.2233Y-10.7837
X10.4202Y-10.764
X10.4218Y-10.7412
X15.703Y-7.8412
X15.7546Y-7.7837
X15.9514Y-7.764
X15.953Y-7.7412
X10.078Y-8.5912
X10.1296Y-8.5337
X10.3264Y-8.514
X10.328Y-8.4912
X13.828Y-8.5912
X13.8796Y-8.5337
X14.0764Y-8.514
X14.078Y-8.4912
X16.453Y-7.8412
X16.5046Y-7.7837
X16.7014Y-7.764
X16.703Y-7.7412
X8.203Y-6.9037
X8.2546Y-6.8462
X8.4514Y-6.8265
X8.453Y-6.8037
X20.3905Y-7.8412
X20.4421Y-7.7837
X20.6389Y-7.764
X20.6405Y-7.7412
X13.078Y-6.9037
X13.1296Y-6.8462
X13.3264Y-6.8265
X13.328Y-6.8037
X17.203Y-6.9037
X17.2546Y-6.8462
X17.4514Y-6.8265
X17.453Y-6.8037
X1.6629Y-9.5046
X1.7144Y-9.4471
X1.9113Y-9.4274
X1.9129Y-9.4046
X21.8905Y-10.0912
X21.9421Y-10.0337
X22.1389Y-10.014
X22.1405Y-9.9912
X16.2655Y-9.3412
X16.3171Y-9.2837
X16.5139Y-9.264
X16.5155Y-9.2412
X19.6405Y-10.0912
X19.6921Y-10.0337
X19.8889Y-10.014
X19.8905Y-9.9912
X10.6405Y-10.0912
X10.6921Y-10.0337
X10.8889Y-10.014
X10.8905Y-9.9912
X6.1939Y-10.3556
X6.2455Y-10.2981
X6.4424Y-10.2784
X6.4439Y-10.2556
X17.6718Y-10.8412
X17.7233Y-10.7837
X17.9202Y-10.764
X17.9218Y-10.7412
X12.703Y-7.8412
X12.7546Y-7.7837
X12.9514Y-7.764
X12.953Y-7.7412
X20.3905Y-6.1537
X20.4421Y-6.0962
X20.6389Y-6.0765
X20.6405Y-6.0537
X9.2343Y-10.8412
X9.2858Y-10.7837
X9.4827Y-10.764
X9.4843Y-10.7412
X6.3748Y-11.08
X6.4264Y-11.0225
X6.6233Y-11.0029
X6.6248Y-10.98
X11.7655Y-9.3412
X11.8171Y-9.2837
X12.0139Y-9.264
X12.0155Y-9.2412
X8.2968Y-10.8412
X8.3483Y-10.7837
X8.5452Y-10.764
X8.5468Y-10.7412
X7.0415Y-8.6415
X7.093Y-8.584
X7.2899Y-8.5644
X7.2915Y-8.5415
X12.328Y-8.5912
X12.3796Y-8.5337
X12.5764Y-8.514
X12.578Y-8.4912
X12.5155Y-9.3412
X12.5671Y-9.2837
X12.7639Y-9.264
X12.7655Y-9.2412
X13.078Y-8.5912
X13.1296Y-8.5337
X13.3264Y-8.514
X13.328Y-8.4912
X3.3189Y-8.3954
X3.3704Y-8.3379
X3.5673Y-8.3182
X3.5689Y-8.2954
X7.2655Y-7.0912
X7.3171Y-7.0337
X7.5139Y-7.014
X7.5155Y-6.9912
X21.8905Y-7.8412
X21.9421Y-7.7837
X22.1389Y-7.764
X22.1405Y-7.7412
X18.703Y-6.9037
X18.7546Y-6.8462
X18.9514Y-6.8265
X18.953Y-6.8037
X21.1405Y-6.9037
X21.1921Y-6.8462
X21.3889Y-6.8265
X21.3905Y-6.8037
X19.6405Y-9.3412
X19.6921Y-9.2837
X19.8889Y-9.264
X19.8905Y-9.2412
X20.3905Y-10.8412
X20.4421Y-10.7837
X20.6389Y-10.764
X20.6405Y-10.7412
X3.513Y-7.6709
X3.5646Y-7.6135
X3.7614Y-7.5938
X3.763Y-7.5709
X9.5155Y-9.3412
X9.5671Y-9.2837
X9.7639Y-9.264
X9.7655Y-9.2412
X21.1405Y-6.1537
X21.1921Y-6.0962
X21.3889Y-6.0765
X21.3905Y-6.0537
X15.7968Y-10.8412
X15.8483Y-10.7837
X16.0452Y-10.764
X16.0468Y-10.7412
X7.2655Y-7.8412
X7.3171Y-7.7837
X7.5139Y-7.764
X7.5155Y-7.7412
X9.8905Y-10.0912
X9.9421Y-10.0337
X10.1389Y-10.014
X10.1405Y-9.9912
X18.5155Y-8.5912
X18.5671Y-8.5337
X18.7639Y-8.514
X18.7655Y-8.4912
X6.1229Y-9.1718
X6.1745Y-9.1144
X6.3713Y-9.0947
X6.3729Y-9.0718
X5.3241Y-8.1562
X5.3757Y-8.0988
X5.5725Y-8.0791
X5.5741Y-8.0562
X16.078Y-8.5912
X16.1296Y-8.5337
X16.3264Y-8.514
X16.328Y-8.4912
X7.078Y-6.3412
X7.1296Y-6.2837
X7.3264Y-6.264
X7.328Y-6.2412
X2.2322Y-8.1042
X2.2838Y-8.0467
X2.4806Y-8.0271
X2.4822Y-8.0042
X11.203Y-6.9037
X11.2546Y-6.8462
X11.4514Y-6.8265
X11.453Y-6.8037
X20.3905Y-6.9037
X20.4421Y-6.8462
X20.6389Y-6.8265
X20.6405Y-6.8037
X21.8905Y-6.9037
X21.9421Y-6.8462
X22.1389Y-6.8265
X22.1405Y-6.8037
X18.2343Y-9.3412
X18.2858Y-9.2837
X18.4827Y-9.264
X18.4843Y-9.2412
X8.953Y-7.8412
X9.0046Y-7.7837
X9.2014Y-7.764
X9.203Y-7.7412
X8.2968Y-9.3412
X8.3483Y-9.2837
X8.5452Y-9.264
X8.5468Y-9.2412
X4.8941Y-6.5132
X4.9457Y-6.4557
X5.1426Y-6.4361
X5.1441Y-6.4132
X5.0622Y-7.3347
X5.1138Y-7.2772
X5.3107Y-7.2576
X5.3122Y-7.2347
X21.8905Y-9.3412
X21.9421Y-9.2837
X22.1389Y-9.264
X22.1405Y-9.2412
X14.7655Y-9.3412
X14.8171Y-9.2837
X15.0139Y-9.264
X15.0155Y-9.2412
X1.7892Y-7.2342
X1.8408Y-7.1767
X2.0377Y-7.157
X2.0392Y-7.1342
X4.4185Y-7.9136
X4.4701Y-7.8561
X4.667Y-7.8364
X4.6685Y-7.8136
X19.6405Y-6.1537
X19.6921Y-6.0962
X19.8889Y-6.0765
X19.8905Y-6.0537
X20.3905Y-10.0912
X20.4421Y-10.0337
X20.6389Y-10.014
X20.6405Y-9.9912
X14.953Y-7.8412
X15.0046Y-7.7837
X15.2014Y-7.764
X15.203Y-7.7412
X9.328Y-8.5912
X9.3796Y-8.5337
X9.5764Y-8.514
X9.578Y-8.4912
X11.578Y-8.5912
X11.6296Y-8.5337
X11.8264Y-8.514
X11.828Y-8.4912
X10.2655Y-9.3412
X10.3171Y-9.2837
X10.5139Y-9.264
X10.5155Y-9.2412
X20.3905Y-8.5912
X20.4421Y-8.5337
X20.6389Y-8.514
X20.6405Y-8.4912
X10.453Y-6.9037
X10.5046Y-6.8462
X10.7014Y-6.8265
X10.703Y-6.8037
X21.1405Y-7.8412
X21.1921Y-7.7837
X21.3889Y-7.764
X21.3905Y-7.7412
X9.703Y-6.9037
X9.7546Y-6.8462
X9.9514Y-6.8265
X9.953Y-6.8037
X19.6405Y-6.9037
X19.6921Y-6.8462
X19.8889Y-6.8265
X19.8905Y-6.8037
X16.6405Y-10.0912
X16.6921Y-10.0337
X16.8889Y-10.014
X16.8905Y-9.9912
X12.8905Y-10.0912
X12.9421Y-10.0337
X13.1389Y-10.014
X13.1405Y-9.9912
X21.8905Y-8.5912
X21.9421Y-8.5337
X22.1389Y-8.514
X22.1405Y-8.4912
X16.7343Y-10.8412
X16.7858Y-10.7837
X16.9827Y-10.764
X16.9843Y-10.7412
X13.453Y-7.8412
X13.5046Y-7.7837
X13.7014Y-7.764
X13.703Y-7.7412
X20.3905Y-9.3412
X20.4421Y-9.2837
X20.6389Y-9.264
X20.6405Y-9.2412
X5.6186Y-6.7073
X5.6701Y-6.6499
X5.867Y-6.6302
X5.8686Y-6.6073
X4.2244Y-8.638
X4.276Y-8.5806
X4.4729Y-8.5609
X4.4744Y-8.538
X8.6718Y-10.0912
X8.7233Y-10.0337
X8.9202Y-10.014
X8.9218Y-9.9912
X6.8473Y-9.366
X6.8989Y-9.3085
X7.0958Y-9.2888
X7.0973Y-9.266
X4.3378Y-7.1406
X4.3894Y-7.0831
X4.5862Y-7.0635
X4.5878Y-7.0406
X5.188Y-10.8374
X5.2396Y-10.7799
X5.4365Y-10.7602
X5.438Y-10.7374
X16.828Y-8.5912
X16.8796Y-8.5337
X17.0764Y-8.514
X17.078Y-8.4912
X18.328Y-7.8412
X18.3796Y-7.7837
X18.5764Y-7.764
X18.578Y-7.7412
X14.578Y-6.9037
X14.6296Y-6.8462
X14.8264Y-6.8265
X14.828Y-6.8037
X15.328Y-6.9037
X15.3796Y-6.8462
X15.5764Y-6.8265
X15.578Y-6.8037
T2
X21.0905Y-7.0037
X21.4905Y-7.0037
X19.5905Y-9.4412
X19.9905Y-9.4412
X20.3405Y-10.9412
X20.7405Y-10.9412
X3.463Y-7.7709
X3.863Y-7.7709
X9.4655Y-9.4412
X9.8655Y-9.4412
X21.0905Y-6.2537
X21.4905Y-6.2537
X15.7468Y-10.9412
X16.1468Y-10.9412
X7.2155Y-7.9412
X7.6155Y-7.9412
X9.8405Y-10.1912
X10.2405Y-10.1912
X18.4655Y-8.6912
X18.8655Y-8.6912
X6.0729Y-9.2718
X6.4729Y-9.2718
X5.2741Y-8.2562
X5.6741Y-8.2562
X16.028Y-8.6912
X16.428Y-8.6912
X7.028Y-6.4412
X7.428Y-6.4412
X2.1822Y-8.2042
X2.5822Y-8.2042
X11.153Y-7.0037
X11.553Y-7.0037
X20.3405Y-7.0037
X20.7405Y-7.0037
X21.8405Y-7.0037
X22.2405Y-7.0037
X18.1843Y-9.4412
X18.5843Y-9.4412
X8.903Y-7.9412
X9.303Y-7.9412
X8.2468Y-9.4412
X8.6468Y-9.4412
X4.8441Y-6.6132
X5.2441Y-6.6132
X5.0122Y-7.4347
X5.4122Y-7.4347
X21.8405Y-9.4412
X22.2405Y-9.4412
X14.7155Y-9.4412
X15.1155Y-9.4412
X1.7392Y-7.3342
X2.1392Y-7.3342
X4.3685Y-8.0136
X4.7685Y-8.0136
X19.5905Y-6.2537
X19.9905Y-6.2537
X20.3405Y-10.1912
X20.7405Y-10.1912
X14.903Y-7.9412
X15.303Y-7.9412
X9.278Y-8.6912
X9.678Y-8.6912
X11.528Y-8.6912
X11.928Y-8.6912
X10.2155Y-9.4412
X10.6155Y-9.4412
X20.3405Y-8.6912
X20.7405Y-8.6912
X10.403Y-7.0037
X10.803Y-7.0037
X21.0905Y-7.9412
X21.4905Y-7.9412
X9.653Y-7.0037
X10.053Y-7.0037
X19.5905Y-7.0037
X19.9905Y-7.0037
X16.5905Y-10.1912
X16.9905Y-10.1912
X12.8405Y-10.1912
X13.2405Y-10.1912
X21.8405Y-8.6912
X22.2405Y-8.6912
X16.6843Y-10.9412
X17.0843Y-10.9412
X13.403Y-7.9412
X13.803Y-7.9412
X20.3405Y-9.4412
X20.7405Y-9.4412
X5.5686Y-6.8073
X5.9686Y-6.8073
X4.1744Y-8.738
X4.5744Y-8.738
X8.6218Y-10.1912
X9.0218Y-10.1912
X6.7973Y-9.466
X7.1973Y-9.466
X4.2878Y-7.2406
X4.6878Y-7.2406
X5.138Y-10.9374
X5.538Y-10.9374
X16.778Y-8.6912
X17.178Y-8.6912
X18.278Y-7.9412
X18.678Y-7.9412
X14.528Y-7.0037
X14.928Y-7.0037
X15.278Y-7.0037
X15.678Y-7.0037
X19.5905Y-10.9412
X19.9905Y-10.9412
X15.8405Y-10.1912
X16.2405Y-10.1912
X8.153Y-7.9412
X8.553Y-7.9412
X1.807Y-8.8801
X2.207Y-8.8801
X5.7367Y-7.6288
X6.1367Y-7.6288
X16.9655Y-9.4412
X17.3655Y-9.4412
X5.08Y-8.9807
X5.48Y-8.9807
X12.9343Y-10.9412
X13.3343Y-10.9412
X6.4611Y-7.823
X6.8611Y-7.823
X11.903Y-7.9412
X12.303Y-7.9412
X10.778Y-8.6912
X11.178Y-8.6912
X5.5166Y-9.8992
X5.9166Y-9.8992
X2.8389Y-6.8524
X3.2389Y-6.8524
X17.9968Y-10.1912
X18.3968Y-10.1912
X19.5905Y-8.6912
X19.9905Y-8.6912
X6.267Y-8.5474
X6.667Y-8.5474
X17.528Y-8.6912
X17.928Y-8.6912
X4.1197Y-6.4191
X4.5197Y-6.4191
X17.153Y-7.9412
X17.553Y-7.9412
X11.903Y-7.0037
X12.303Y-7.0037
X13.778Y-7.0037
X14.178Y-7.0037
X14.3405Y-10.1912
X14.7405Y-10.1912
X15.0905Y-10.1912
X15.4905Y-10.1912
X21.0905Y-9.4412
X21.4905Y-9.4412
X18.5593Y-10.9412
X18.9593Y-10.9412
X2.4637Y-7.5283
X2.8637Y-7.5283
X9.653Y-7.9412
X10.053Y-7.9412
X15.4655Y-9.4412
X15.8655Y-9.4412
X21.0905Y-10.9412
X21.4905Y-10.9412
X10.403Y-7.9412
X10.803Y-7.9412
X13.9655Y-9.4412
X14.3655Y-9.4412
X14.153Y-7.9412
X14.553Y-7.9412
X8.3405Y-8.6912
X8.7405Y-8.6912
X13.2155Y-9.4412
X13.6155Y-9.4412
X21.0905Y-10.1912
X21.4905Y-10.1912
X14.528Y-8.6912
X14.928Y-8.6912
X10.9655Y-9.4412
X11.3655Y-9.4412
X15.278Y-8.6912
X15.678Y-8.6912
X3.3952Y-6.225
X3.7952Y-6.225
X19.5905Y-7.9412
X19.9905Y-7.9412
X16.403Y-7.0037
X16.803Y-7.0037
X17.903Y-7.0037
X18.303Y-7.0037
X13.5905Y-10.1912
X13.9905Y-10.1912
X12.0905Y-10.1912
X12.4905Y-10.1912
X7.0495Y-10.6982
X7.4495Y-10.6982
X11.3405Y-10.1912
X11.7405Y-10.1912
X21.0905Y-8.6912
X21.4905Y-8.6912
X6.293Y-7.0015
X6.693Y-7.0015
X11.153Y-7.9412
X11.553Y-7.9412
X3.5633Y-7.0465
X3.9633Y-7.0465
X10.1218Y-10.9412
X10.5218Y-10.9412
X15.653Y-7.9412
X16.053Y-7.9412
X10.028Y-8.6912
X10.428Y-8.6912
X13.778Y-8.6912
X14.178Y-8.6912
X16.403Y-7.9412
X16.803Y-7.9412
X8.153Y-7.0037
X8.553Y-7.0037
X20.3405Y-7.9412
X20.7405Y-7.9412
X13.028Y-7.0037
X13.428Y-7.0037
X17.153Y-7.0037
X17.553Y-7.0037
X1.6129Y-9.6046
X2.0129Y-9.6046
X21.8405Y-10.1912
X22.2405Y-10.1912
X16.2155Y-9.4412
X16.6155Y-9.4412
X19.5905Y-10.1912
X19.9905Y-10.1912
X10.5905Y-10.1912
X10.9905Y-10.1912
X6.1439Y-10.4556
X6.5439Y-10.4556
X17.6218Y-10.9412
X18.0218Y-10.9412
X12.653Y-7.9412
X13.053Y-7.9412
X20.3405Y-6.2537
X20.7405Y-6.2537
X9.1843Y-10.9412
X9.5843Y-10.9412
X6.3248Y-11.18
X6.7248Y-11.18
X11.7155Y-9.4412
X12.1155Y-9.4412
X8.2468Y-10.9412
X8.6468Y-10.9412
X6.9915Y-8.7415
X7.3915Y-8.7415
X12.278Y-8.6912
X12.678Y-8.6912
X12.4655Y-9.4412
X12.8655Y-9.4412
X13.028Y-8.6912
X13.428Y-8.6912
X3.2689Y-8.4954
X3.6689Y-8.4954
X7.2155Y-7.1912
X7.6155Y-7.1912
X21.8405Y-7.9412
X22.2405Y-7.9412
X18.653Y-7.0037
X19.053Y-7.0037
T3
X6.0548Y-10.905
X6.9948Y-10.905
X17.9143Y-9.1662
X18.8543Y-9.1662
X8.3518Y-9.9162
X9.2918Y-9.9162
X18.008Y-7.6662
X18.948Y-7.6662
X11.1658Y-10.6662
X15.1028Y-10.6662
X17.7268Y-9.9162
X18.6668Y-9.9162
T4
X19.7905Y-10.9412
X16.0405Y-10.1912
X8.353Y-7.9412
X2.007Y-8.8801
X5.9367Y-7.6288
X17.1655Y-9.4412
X5.28Y-8.9807
X11.1658Y-11.2662
X13.1343Y-10.9412
X15.1028Y-11.2662
X6.6611Y-7.823
X12.103Y-7.9412
X10.978Y-8.6912
X5.7166Y-9.8992
X3.0389Y-6.8524
X17.7268Y-10.5162
X18.1968Y-10.1912
X18.6668Y-10.5162
X19.7905Y-8.6912
X6.467Y-8.5474
X17.728Y-8.6912
X4.3197Y-6.4191
X17.353Y-7.9412
X12.103Y-7.0037
X13.978Y-7.0037
X14.5405Y-10.1912
X15.2905Y-10.1912
X21.2905Y-9.4412
X18.7593Y-10.9412
X2.6637Y-7.5283
X9.853Y-7.9412
X15.6655Y-9.4412
X21.2905Y-10.9412
X10.603Y-7.9412
X14.1655Y-9.4412
X14.353Y-7.9412
X8.5405Y-8.6912
X13.4155Y-9.4412
X21.2905Y-10.1912
X14.728Y-8.6912
X11.1655Y-9.4412
X15.478Y-8.6912
X3.5952Y-6.225
X19.7905Y-7.9412
X16.603Y-7.0037
X18.103Y-7.0037
X13.7905Y-10.1912
X12.2905Y-10.1912
X7.2495Y-10.6982
X11.5405Y-10.1912
X21.2905Y-8.6912
X6.493Y-7.0015
X11.353Y-7.9412
X3.7633Y-7.0465
X10.3218Y-10.9412
X15.853Y-7.9412
X10.228Y-8.6912
X13.978Y-8.6912
X16.603Y-7.9412
X8.353Y-7.0037
X20.5405Y-7.9412
X13.228Y-7.0037
X17.353Y-7.0037
X1.8129Y-9.6046
X22.0405Y-10.1912
X16.4155Y-9.4412
X19.7905Y-10.1912
X10.7905Y-10.1912
X6.3439Y-10.4556
X17.8218Y-10.9412
X12.853Y-7.9412
X20.5405Y-6.2537
X9.3843Y-10.9412
X6.0548Y-11.505
X6.5248Y-11.18
X6.9948Y-11.505
X11.9155Y-9.4412
X8.4468Y-10.9412
X7.1915Y-8.7415
X12.478Y-8.6912
X12.6655Y-9.4412
X13.228Y-8.6912
X3.4689Y-8.4954
X7.4155Y-7.1912
X22.0405Y-7.9412
X18.853Y-7.0037
X21.2905Y-7.0037
X19.7905Y-9.4412
X20.5405Y-10.9412
X3.663Y-7.7709
X9.6655Y-9.4412
X21.2905Y-6.2537
X15.9468Y-10.9412
X7.4155Y-7.9412
X10.0405Y-10.1912
X18.6655Y-8.6912
X6.2729Y-9.2718
X5.4741Y-8.2562
X16.228Y-8.6912
X7.228Y-6.4412
X2.3822Y-8.2042
X11.353Y-7.0037
X20.5405Y-7.0037
X22.0405Y-7.0037
X17.9143Y-9.7662
X18.3843Y-9.4412
X18.8543Y-9.7662
X9.103Y-7.9412
X8.4468Y-9.4412
X5.0441Y-6.6132
X5.2122Y-7.4347
X22.0405Y-9.4412
X14.9155Y-9.4412
X1.9392Y-7.3342
X4.5685Y-8.0136
X19.7905Y-6.2537
X20.5405Y-10.1912
X15.103Y-7.9412
X9.478Y-8.6912
X11.728Y-8.6912
X10.4155Y-9.4412
X20.5405Y-8.6912
X10.603Y-7.0037
X21.2905Y-7.9412
X9.853Y-7.0037
X19.7905Y-7.0037
X16.7905Y-10.1912
X13.0405Y-10.1912
X22.0405Y-8.6912
X16.8843Y-10.9412
X13.603Y-7.9412
X20.5405Y-9.4412
X5.7686Y-6.8073
X4.3744Y-8.738
X8.3518Y-10.5162
X8.8218Y-10.1912
X9.2918Y-10.5162
X6.9973Y-9.466
X4.4878Y-7.2406
X5.338Y-10.9374
X16.978Y-8.6912
X18.008Y-8.2662
X18.478Y-7.9412
X18.948Y-8.2662
X14.728Y-7.0037
X15.478Y-7.0037
T0
M30
