G04 #@! TF.GenerationSoftware,KiCad,Pcbnew,(5.1.6)-1*
G04 #@! TF.CreationDate,2020-08-30T16:27:27-04:00*
G04 #@! TF.ProjectId,keyboard,6b657962-6f61-4726-942e-6b696361645f,rev?*
G04 #@! TF.SameCoordinates,Original*
G04 #@! TF.FileFunction,Soldermask,Top*
G04 #@! TF.FilePolarity,Negative*
%FSLAX46Y46*%
G04 Gerber Fmt 4.6, Leading zero omitted, Abs format (unit mm)*
G04 Created by KiCad (PCBNEW (5.1.6)-1) date 2020-08-30 16:27:27*
%MOMM*%
%LPD*%
G01*
G04 APERTURE LIST*
%ADD10C,3.987800*%
%ADD11C,1.750000*%
%ADD12C,3.048000*%
G04 APERTURE END LIST*
D10*
X91319126Y-158115000D03*
D11*
X86239126Y-158115000D03*
X96399126Y-158115000D03*
D10*
X109720013Y-163045503D03*
D11*
X104640013Y-163045503D03*
X114800013Y-163045503D03*
D10*
X183591686Y-163606117D03*
D11*
X178511686Y-163606117D03*
X188671686Y-163606117D03*
D10*
X502679186Y-158843617D03*
D11*
X497599186Y-158843617D03*
X507759186Y-158843617D03*
D10*
X521729186Y-158843617D03*
D11*
X516649186Y-158843617D03*
X526809186Y-158843617D03*
D10*
X540779186Y-158843617D03*
D11*
X535699186Y-158843617D03*
X545859186Y-158843617D03*
D10*
X77188179Y-174050636D03*
D11*
X72108179Y-174050636D03*
X82268179Y-174050636D03*
D10*
X95589066Y-178981138D03*
D11*
X90509066Y-178981138D03*
X100669066Y-178981138D03*
D10*
X113989953Y-183911641D03*
D11*
X108909953Y-183911641D03*
X119069953Y-183911641D03*
D10*
X128120900Y-167976006D03*
D11*
X123040900Y-167976006D03*
X133200900Y-167976006D03*
D10*
X146521787Y-172906508D03*
D11*
X141441787Y-172906508D03*
X151601787Y-172906508D03*
D10*
X164922674Y-177837011D03*
D11*
X159842674Y-177837011D03*
X170002674Y-177837011D03*
D10*
X188354186Y-182656117D03*
D11*
X183274186Y-182656117D03*
X193434186Y-182656117D03*
D10*
X212166686Y-177893617D03*
D11*
X207086686Y-177893617D03*
X217246686Y-177893617D03*
D10*
X250266686Y-177893617D03*
D11*
X245186686Y-177893617D03*
X255346686Y-177893617D03*
D10*
X269316686Y-177893617D03*
D11*
X264236686Y-177893617D03*
X274396686Y-177893617D03*
D10*
X288366686Y-177893617D03*
D11*
X283286686Y-177893617D03*
X293446686Y-177893617D03*
D10*
X307416686Y-177893617D03*
D11*
X302336686Y-177893617D03*
X312496686Y-177893617D03*
D10*
X335991686Y-177893617D03*
D11*
X330911686Y-177893617D03*
X341071686Y-177893617D03*
D10*
X355041686Y-177893617D03*
D11*
X349961686Y-177893617D03*
X360121686Y-177893617D03*
D10*
X374091686Y-177893617D03*
D11*
X369011686Y-177893617D03*
X379171686Y-177893617D03*
D10*
X393141686Y-177893617D03*
D11*
X388061686Y-177893617D03*
X398221686Y-177893617D03*
D10*
X421716686Y-177893617D03*
D11*
X416636686Y-177893617D03*
X426796686Y-177893617D03*
D10*
X440766686Y-177893617D03*
D11*
X435686686Y-177893617D03*
X445846686Y-177893617D03*
D10*
X459816686Y-177893617D03*
D11*
X454736686Y-177893617D03*
X464896686Y-177893617D03*
D10*
X478866686Y-177893617D03*
D11*
X473786686Y-177893617D03*
X483946686Y-177893617D03*
D10*
X502679186Y-177893617D03*
D11*
X497599186Y-177893617D03*
X507759186Y-177893617D03*
D10*
X521729186Y-177893617D03*
D11*
X516649186Y-177893617D03*
X526809186Y-177893617D03*
D10*
X540779186Y-177893617D03*
D11*
X535699186Y-177893617D03*
X545859186Y-177893617D03*
D10*
X559829186Y-177893617D03*
D11*
X554749186Y-177893617D03*
X564909186Y-177893617D03*
D10*
X49256568Y-186288394D03*
D11*
X44176568Y-186288394D03*
X54336568Y-186288394D03*
D10*
X67657455Y-191218897D03*
D11*
X62577455Y-191218897D03*
X72737455Y-191218897D03*
D10*
X93039813Y-197382025D03*
D11*
X87959813Y-197382025D03*
X98119813Y-197382025D03*
D10*
X132390840Y-188842144D03*
D11*
X127310840Y-188842144D03*
X137470840Y-188842144D03*
D10*
X150791727Y-193772647D03*
D11*
X145711727Y-193772647D03*
X155871727Y-193772647D03*
D10*
X169192614Y-198703150D03*
D11*
X164112614Y-198703150D03*
X174272614Y-198703150D03*
D10*
X188354186Y-201706117D03*
D11*
X183274186Y-201706117D03*
X193434186Y-201706117D03*
D10*
X212166686Y-201706117D03*
D11*
X207086686Y-201706117D03*
X217246686Y-201706117D03*
D10*
X231216686Y-201706117D03*
D11*
X226136686Y-201706117D03*
X236296686Y-201706117D03*
D10*
X250266686Y-201706117D03*
D11*
X245186686Y-201706117D03*
X255346686Y-201706117D03*
D10*
X269316686Y-201706117D03*
D11*
X264236686Y-201706117D03*
X274396686Y-201706117D03*
D10*
X288366686Y-201706117D03*
D11*
X283286686Y-201706117D03*
X293446686Y-201706117D03*
D10*
X307416686Y-201706117D03*
D11*
X302336686Y-201706117D03*
X312496686Y-201706117D03*
D10*
X326466686Y-201706117D03*
D11*
X321386686Y-201706117D03*
X331546686Y-201706117D03*
D10*
X345516686Y-201706117D03*
D11*
X340436686Y-201706117D03*
X350596686Y-201706117D03*
D10*
X364566686Y-201706117D03*
D11*
X359486686Y-201706117D03*
X369646686Y-201706117D03*
D10*
X383616686Y-201706117D03*
D11*
X378536686Y-201706117D03*
X388696686Y-201706117D03*
D10*
X402666686Y-201706117D03*
D11*
X397586686Y-201706117D03*
X407746686Y-201706117D03*
D10*
X421716686Y-201706117D03*
D11*
X416636686Y-201706117D03*
X426796686Y-201706117D03*
D10*
X440766686Y-201706117D03*
D11*
X435686686Y-201706117D03*
X445846686Y-201706117D03*
D10*
X469341686Y-201706117D03*
D11*
X464261686Y-201706117D03*
X474421686Y-201706117D03*
D12*
X457403686Y-194721117D03*
X481279686Y-194721117D03*
D10*
X457403686Y-209961117D03*
X481279686Y-209961117D03*
X502679186Y-201706117D03*
D11*
X497599186Y-201706117D03*
X507759186Y-201706117D03*
D10*
X521729186Y-201706117D03*
D11*
X516649186Y-201706117D03*
X526809186Y-201706117D03*
D10*
X540779186Y-201706117D03*
D11*
X535699186Y-201706117D03*
X545859186Y-201706117D03*
D10*
X559829186Y-201706117D03*
D11*
X554749186Y-201706117D03*
X564909186Y-201706117D03*
D10*
X60507980Y-208387158D03*
D11*
X55427980Y-208387158D03*
X65587980Y-208387158D03*
D10*
X88109311Y-215782912D03*
D11*
X83029311Y-215782912D03*
X93189311Y-215782912D03*
D10*
X116040922Y-203545154D03*
D11*
X110960922Y-203545154D03*
X121120922Y-203545154D03*
D10*
X111110419Y-221946041D03*
D11*
X106030419Y-221946041D03*
X116190419Y-221946041D03*
D10*
X139042031Y-209708282D03*
D11*
X133962031Y-209708282D03*
X144122031Y-209708282D03*
D10*
X164262111Y-217104037D03*
D11*
X159182111Y-217104037D03*
X169342111Y-217104037D03*
D10*
X182662998Y-222034539D03*
D11*
X177582998Y-222034539D03*
X187742998Y-222034539D03*
D10*
X216929186Y-220756117D03*
D11*
X211849186Y-220756117D03*
X222009186Y-220756117D03*
D10*
X240741686Y-220756117D03*
D11*
X235661686Y-220756117D03*
X245821686Y-220756117D03*
D10*
X259791686Y-220756117D03*
D11*
X254711686Y-220756117D03*
X264871686Y-220756117D03*
D10*
X278841686Y-220756117D03*
D11*
X273761686Y-220756117D03*
X283921686Y-220756117D03*
D10*
X297891686Y-220756117D03*
D11*
X292811686Y-220756117D03*
X302971686Y-220756117D03*
D10*
X316941686Y-220756117D03*
D11*
X311861686Y-220756117D03*
X322021686Y-220756117D03*
D10*
X335991686Y-220756117D03*
D11*
X330911686Y-220756117D03*
X341071686Y-220756117D03*
D10*
X355041686Y-220756117D03*
D11*
X349961686Y-220756117D03*
X360121686Y-220756117D03*
D10*
X374091686Y-220756117D03*
D11*
X369011686Y-220756117D03*
X379171686Y-220756117D03*
D10*
X393141686Y-220756117D03*
D11*
X388061686Y-220756117D03*
X398221686Y-220756117D03*
D10*
X412191686Y-220756117D03*
D11*
X407111686Y-220756117D03*
X417271686Y-220756117D03*
D10*
X431241686Y-220756117D03*
D11*
X426161686Y-220756117D03*
X436321686Y-220756117D03*
D10*
X450291686Y-220756117D03*
D11*
X445211686Y-220756117D03*
X455371686Y-220756117D03*
D10*
X474104186Y-220756117D03*
D11*
X469024186Y-220756117D03*
X479184186Y-220756117D03*
D10*
X502679186Y-220756117D03*
D11*
X497599186Y-220756117D03*
X507759186Y-220756117D03*
D10*
X521729186Y-220756117D03*
D11*
X516649186Y-220756117D03*
X526809186Y-220756117D03*
D10*
X540779186Y-220756117D03*
D11*
X535699186Y-220756117D03*
X545859186Y-220756117D03*
D10*
X559829186Y-220756117D03*
D11*
X554749186Y-220756117D03*
X564909186Y-220756117D03*
D10*
X50977256Y-225555419D03*
D11*
X45897256Y-225555419D03*
X56057256Y-225555419D03*
D10*
X134111528Y-228109169D03*
D11*
X129031528Y-228109169D03*
X139191528Y-228109169D03*
D10*
X159331609Y-235504924D03*
D11*
X154251609Y-235504924D03*
X164411609Y-235504924D03*
D10*
X177732496Y-240435426D03*
D11*
X172652496Y-240435426D03*
X182812496Y-240435426D03*
D10*
X214547936Y-239806117D03*
D11*
X209467936Y-239806117D03*
X219627936Y-239806117D03*
D10*
X245504186Y-239806117D03*
D11*
X240424186Y-239806117D03*
X250584186Y-239806117D03*
D10*
X264554186Y-239806117D03*
D11*
X259474186Y-239806117D03*
X269634186Y-239806117D03*
D10*
X283604186Y-239806117D03*
D11*
X278524186Y-239806117D03*
X288684186Y-239806117D03*
D10*
X302654186Y-239806117D03*
D11*
X297574186Y-239806117D03*
X307734186Y-239806117D03*
D10*
X321704186Y-239806117D03*
D11*
X316624186Y-239806117D03*
X326784186Y-239806117D03*
D10*
X340754186Y-239806117D03*
D11*
X335674186Y-239806117D03*
X345834186Y-239806117D03*
D10*
X359804186Y-239806117D03*
D11*
X354724186Y-239806117D03*
X364884186Y-239806117D03*
D10*
X378854186Y-239806117D03*
D11*
X373774186Y-239806117D03*
X383934186Y-239806117D03*
D10*
X397904186Y-239806117D03*
D11*
X392824186Y-239806117D03*
X402984186Y-239806117D03*
D10*
X416954186Y-239806117D03*
D11*
X411874186Y-239806117D03*
X422034186Y-239806117D03*
D10*
X436004186Y-239806117D03*
D11*
X430924186Y-239806117D03*
X441084186Y-239806117D03*
D10*
X466960436Y-239806117D03*
D11*
X461880436Y-239806117D03*
X472040436Y-239806117D03*
D12*
X455022436Y-232821117D03*
X478898436Y-232821117D03*
D10*
X455022436Y-248061117D03*
X478898436Y-248061117D03*
X502679186Y-239806117D03*
D11*
X497599186Y-239806117D03*
X507759186Y-239806117D03*
D10*
X521729186Y-239806117D03*
D11*
X516649186Y-239806117D03*
X526809186Y-239806117D03*
D10*
X540779186Y-239806117D03*
D11*
X535699186Y-239806117D03*
X545859186Y-239806117D03*
D10*
X559829186Y-239806117D03*
D11*
X554749186Y-239806117D03*
X564909186Y-239806117D03*
D10*
X46046753Y-243956306D03*
D11*
X40966753Y-243956306D03*
X51126753Y-243956306D03*
D10*
X145200662Y-251440559D03*
D11*
X140120662Y-251440559D03*
X150280662Y-251440559D03*
D10*
X224072936Y-258856117D03*
D11*
X218992936Y-258856117D03*
X229152936Y-258856117D03*
D12*
X212134936Y-251871117D03*
X236010936Y-251871117D03*
D10*
X212134936Y-267111117D03*
X236010936Y-267111117D03*
X255029186Y-258856117D03*
D11*
X249949186Y-258856117D03*
X260109186Y-258856117D03*
D10*
X274079186Y-258856117D03*
D11*
X268999186Y-258856117D03*
X279159186Y-258856117D03*
D10*
X293129186Y-258856117D03*
D11*
X288049186Y-258856117D03*
X298209186Y-258856117D03*
D10*
X312179186Y-258856117D03*
D11*
X307099186Y-258856117D03*
X317259186Y-258856117D03*
D10*
X331229186Y-258856117D03*
D11*
X326149186Y-258856117D03*
X336309186Y-258856117D03*
D10*
X350279186Y-258856117D03*
D11*
X345199186Y-258856117D03*
X355359186Y-258856117D03*
D10*
X369329186Y-258856117D03*
D11*
X364249186Y-258856117D03*
X374409186Y-258856117D03*
D10*
X388379186Y-258856117D03*
D11*
X383299186Y-258856117D03*
X393459186Y-258856117D03*
D10*
X407429186Y-258856117D03*
D11*
X402349186Y-258856117D03*
X412509186Y-258856117D03*
D10*
X426479186Y-258856117D03*
D11*
X421399186Y-258856117D03*
X431559186Y-258856117D03*
D10*
X462197936Y-258856117D03*
D11*
X457117936Y-258856117D03*
X467277936Y-258856117D03*
D12*
X450259936Y-251871117D03*
X474135936Y-251871117D03*
D10*
X450259936Y-267111117D03*
X474135936Y-267111117D03*
X502679186Y-258856117D03*
D11*
X497599186Y-258856117D03*
X507759186Y-258856117D03*
D10*
X521729186Y-258856117D03*
D11*
X516649186Y-258856117D03*
X526809186Y-258856117D03*
D10*
X540779186Y-258856117D03*
D11*
X535699186Y-258856117D03*
X545859186Y-258856117D03*
D10*
X135585936Y-277809264D03*
D11*
X130505936Y-277809264D03*
X140665936Y-277809264D03*
D10*
X161136298Y-265571506D03*
D11*
X156056298Y-265571506D03*
X166216298Y-265571506D03*
D10*
X184137407Y-271734634D03*
D11*
X179057407Y-271734634D03*
X189217407Y-271734634D03*
D10*
X214547936Y-277906117D03*
D11*
X209467936Y-277906117D03*
X219627936Y-277906117D03*
D10*
X238360436Y-277906117D03*
D11*
X233280436Y-277906117D03*
X243440436Y-277906117D03*
D10*
X262172936Y-277906117D03*
D11*
X257092936Y-277906117D03*
X267252936Y-277906117D03*
D10*
X333610436Y-277906117D03*
D11*
X328530436Y-277906117D03*
X338690436Y-277906117D03*
D12*
X283610536Y-270921117D03*
X383610336Y-270921117D03*
D10*
X283610536Y-286161117D03*
X383610336Y-286161117D03*
X405047936Y-277906117D03*
D11*
X399967936Y-277906117D03*
X410127936Y-277906117D03*
D10*
X428860436Y-277906117D03*
D11*
X423780436Y-277906117D03*
X433940436Y-277906117D03*
D10*
X452672936Y-277906117D03*
D11*
X447592936Y-277906117D03*
X457752936Y-277906117D03*
D10*
X476485436Y-277906117D03*
D11*
X471405436Y-277906117D03*
X481565436Y-277906117D03*
D10*
X502679186Y-277906117D03*
D11*
X497599186Y-277906117D03*
X507759186Y-277906117D03*
D10*
X521729186Y-277906117D03*
D11*
X516649186Y-277906117D03*
X526809186Y-277906117D03*
D10*
X540779186Y-277906117D03*
D11*
X535699186Y-277906117D03*
X545859186Y-277906117D03*
D10*
X559829186Y-258856117D03*
D11*
X554749186Y-258856117D03*
X564909186Y-258856117D03*
D10*
X165730795Y-283972392D03*
D11*
X160650795Y-283972392D03*
X170810795Y-283972392D03*
D12*
X153792795Y-276987392D03*
X177668795Y-276987392D03*
D10*
X153792795Y-292227392D03*
X177668795Y-292227392D03*
M02*
