  0
SECTION
  2
HEADER
  9
$ACADVER
  1
AC1024
  9
$ACADMAINTVER
 70
6
  9
$DWGCODEPAGE
  3
ANSI_1252
  9
$LASTSAVEDBY
  1
unknown
  9
$INSBASE
 10
0.0
 20
0.0
 30
0.0
  9
$EXTMIN
 10
1e+20
 20
1e+20
 30
1e+20
  9
$EXTMAX
 10
-1e+20
 20
-1e+20
 30
-1e+20
  9
$LIMMIN
 10
0.0
 20
0.0
  9
$LIMMAX
 10
12.0
 20
9.0
  9
$ORTHOMODE
 70
0
  9
$REGENMODE
 70
1
  9
$FILLMODE
 70
1
  9
$QTEXTMODE
 70
0
  9
$MIRRTEXT
 70
0
  9
$LTSCALE
 40
1.0
  9
$ATTMODE
 70
1
  9
$TEXTSIZE
 40
0.2
  9
$TRACEWID
 40
0.05
  9
$TEXTSTYLE
  7
Notes
  9
$CLAYER
  8
0
  9
$CELTYPE
  6
ByLayer
  9
$CECOLOR
 62
256
  9
$CELTSCALE
 40
1.0
  9
$DISPSILH
 70
0
  9
$DIMSCALE
 40
1.0
  9
$DIMASZ
 40
3.0
  9
$DIMEXO
 40
1.5
  9
$DIMDLI
 40
6.0
  9
$DIMRND
 40
0.0
  9
$DIMDLE
 40
0.0
  9
$DIMEXE
 40
3.0
  9
$DIMTP
 40
0.0
  9
$DIMTM
 40
0.0
  9
$DIMTXT
 40
3.0
  9
$DIMCEN
 40
3.0
  9
$DIMTSZ
 40
0.0
  9
$DIMTOL
 70
0
  9
$DIMLIM
 70
0
  9
$DIMTIH
 70
0
  9
$DIMTOH
 70
0
  9
$DIMSE1
 70
0
  9
$DIMSE2
 70
0
  9
$DIMTAD
 70
1
  9
$DIMZIN
 70
3
  9
$DIMBLK
  1

  9
$DIMASO
 70
1
  9
$DIMSHO
 70
1
  9
$DIMPOST
  1

  9
$DIMAPOST
  1

  9
$DIMALT
 70
0
  9
$DIMALTD
 70
2
  9
$DIMALTF
 40
25.4
  9
$DIMLFAC
 40
1.0
  9
$DIMTOFL
 70
0
  9
$DIMTVP
 40
0.0
  9
$DIMTIX
 70
0
  9
$DIMSOXD
 70
0
  9
$DIMSAH
 70
0
  9
$DIMBLK1
  1

  9
$DIMBLK2
  1

  9
$DIMSTYLE
  2
Civil-Metric
  9
$DIMCLRD
 70
0
  9
$DIMCLRE
 70
0
  9
$DIMCLRT
 70
0
  9
$DIMTFAC
 40
1.0
  9
$DIMGAP
 40
2.0
  9
$DIMJUST
 70
0
  9
$DIMSD1
 70
0
  9
$DIMSD2
 70
0
  9
$DIMTOLJ
 70
1
  9
$DIMTZIN
 70
0
  9
$DIMALTZ
 70
0
  9
$DIMALTTZ
 70
0
  9
$DIMUPT
 70
0
  9
$DIMDEC
 70
2
  9
$DIMTDEC
 70
2
  9
$DIMALTU
 70
2
  9
$DIMALTTD
 70
2
  9
$DIMTXSTY
  7
Standard
  9
$DIMAUNIT
 70
0
  9
$DIMADEC
 70
2
  9
$DIMALTRND
 40
0.0
  9
$DIMAZIN
 70
2
  9
$DIMDSEP
 70
46
  9
$DIMATFIT
 70
3
  9
$DIMFRAC
 70
1
  9
$DIMLDRBLK
  1

  9
$DIMLUNIT
 70
2
  9
$DIMLWD
 70
-2
  9
$DIMLWE
 70
-2
  9
$DIMTMOVE
 70
0
  9
$DIMFXL
 40
1.0
  9
$DIMFXLON
 70
0
  9
$DIMJOGANG
 40
0.7853981633974483
  9
$DIMTFILL
 70
0
  9
$DIMTFILLCLR
 70
0
  9
$DIMARCSYM
 70
0
  9
$DIMLTYPE
  6

  9
$DIMLTEX1
  6

  9
$DIMLTEX2
  6

  9
$DIMTXTDIRECTION
 70
0
  9
$LUNITS
 70
2
  9
$LUPREC
 70
4
  9
$SKETCHINC
 40
0.1
  9
$FILLETRAD
 40
0.0
  9
$AUNITS
 70
4
  9
$AUPREC
 70
5
  9
$MENU
  1
.
  9
$ELEVATION
 40
0.0
  9
$PELEVATION
 40
0.0
  9
$THICKNESS
 40
0.0
  9
$LIMCHECK
 70
0
  9
$CHAMFERA
 40
0.0
  9
$CHAMFERB
 40
0.0
  9
$CHAMFERC
 40
0.0
  9
$CHAMFERD
 40
0.0
  9
$SKPOLY
 70
0
  9
$TDCREATE
 40
2459091.403576389
  9
$TDUPDATE
 40
2459091.403576389
  9
$TDINDWG
 40
0.0
  9
$TDUSRTIMER
 40
0.0
  9
$USRTIMER
 70
1
  9
$ANGBASE
 50
0.0
  9
$ANGDIR
 70
0
  9
$PDMODE
 70
0
  9
$PDSIZE
 40
0.0
  9
$PLINEWID
 40
0.0
  9
$SPLFRAME
 70
0
  9
$SPLINETYPE
 70
6
  9
$SPLINESEGS
 70
8
  9
$HANDSEED
  5
9F7
  9
$SURFTAB1
 70
6
  9
$SURFTAB2
 70
6
  9
$SURFTYPE
 70
6
  9
$SURFU
 70
6
  9
$SURFV
 70
6
  9
$UCSBASE
  2

  9
$UCSNAME
  2

  9
$UCSORG
 10
0.0
 20
0.0
 30
0.0
  9
$UCSXDIR
 10
1.0
 20
0.0
 30
0.0
  9
$UCSYDIR
 10
0.0
 20
1.0
 30
0.0
  9
$UCSORTHOREF
  2

  9
$UCSORTHOVIEW
 70
0
  9
$UCSORGTOP
 10
0.0
 20
0.0
 30
0.0
  9
$UCSORGBOTTOM
 10
0.0
 20
0.0
 30
0.0
  9
$UCSORGLEFT
 10
0.0
 20
0.0
 30
0.0
  9
$UCSORGRIGHT
 10
0.0
 20
0.0
 30
0.0
  9
$UCSORGFRONT
 10
0.0
 20
0.0
 30
0.0
  9
$UCSORGBACK
 10
0.0
 20
0.0
 30
0.0
  9
$PUCSBASE
  2

  9
$PUCSNAME
  2

  9
$PUCSORG
 10
0.0
 20
0.0
 30
0.0
  9
$PUCSXDIR
 10
1.0
 20
0.0
 30
0.0
  9
$PUCSYDIR
 10
0.0
 20
1.0
 30
0.0
  9
$PUCSORTHOREF
  2

  9
$PUCSORTHOVIEW
 70
0
  9
$PUCSORGTOP
 10
0.0
 20
0.0
 30
0.0
  9
$PUCSORGBOTTOM
 10
0.0
 20
0.0
 30
0.0
  9
$PUCSORGLEFT
 10
0.0
 20
0.0
 30
0.0
  9
$PUCSORGRIGHT
 10
0.0
 20
0.0
 30
0.0
  9
$PUCSORGFRONT
 10
0.0
 20
0.0
 30
0.0
  9
$PUCSORGBACK
 10
0.0
 20
0.0
 30
0.0
  9
$USERI1
 70
0
  9
$USERI2
 70
0
  9
$USERI3
 70
0
  9
$USERI4
 70
0
  9
$USERI5
 70
0
  9
$USERR1
 40
0.0
  9
$USERR2
 40
0.0
  9
$USERR3
 40
0.0
  9
$USERR4
 40
0.0
  9
$USERR5
 40
0.0
  9
$WORLDVIEW
 70
1
  9
$SHADEDGE
 70
3
  9
$SHADEDIF
 70
70
  9
$TILEMODE
 70
1
  9
$MAXACTVP
 70
64
  9
$PINSBASE
 10
0.0
 20
0.0
 30
0.0
  9
$PLIMCHECK
 70
0
  9
$PEXTMIN
 10
0.62886676639706
 20
0.7999999523162842
 30
0.0
  9
$PEXTMAX
 10
9.028866384927335
 20
7.199999570846558
 30
0.0
  9
$PLIMMIN
 10
-0.7005418191744587
 20
-0.2281003861915408
  9
$PLIMMAX
 10
10.29945794052965
 20
8.27189937351257
  9
$UNITMODE
 70
0
  9
$VISRETAIN
 70
1
  9
$PLINEGEN
 70
0
  9
$PSLTSCALE
 70
1
  9
$TREEDEPTH
 70
3020
  9
$CMLSTYLE
  2
Standard
  9
$CMLJUST
 70
0
  9
$CMLSCALE
 40
1.0
  9
$PROXYGRAPHICS
 70
1
  9
$MEASUREMENT
 70
1
  9
$CELWEIGHT
370
-1
  9
$ENDCAPS
280
0
  9
$JOINSTYLE
280
0
  9
$LWDISPLAY
290
0
  9
$INSUNITS
 70
4
  9
$HYPERLINKBASE
  1

  9
$STYLESHEET
  1

  9
$XEDIT
290
1
  9
$CEPSNTYPE
380
0
  9
$PSTYLEMODE
290
1
  9
$FINGERPRINTGUID
  2
70D780AE-EA16-11EA-8407-A2E09655AA3B
  9
$VERSIONGUID
  2
713CAF24-EA16-11EA-8407-A2E09655AA3B
  9
$EXTNAMES
290
1
  9
$PSVPSCALE
 40
0.0
  9
$OLESTARTUP
290
0
  9
$SORTENTS
280
127
  9
$INDEXCTL
280
0
  9
$HIDETEXT
280
1
  9
$XCLIPFRAME
280
0
  9
$HALOGAP
280
0
  9
$OBSCOLOR
 70
257
  9
$OBSLTYPE
280
0
  9
$INTERSECTIONDISPLAY
280
0
  9
$INTERSECTIONCOLOR
 70
257
  9
$DIMASSOC
280
2
  9
$PROJECTNAME
  1

  9
$CAMERADISPLAY
290
0
  9
$LENSLENGTH
 40
50.0
  9
$CAMERAHEIGHT
 40
0.0
  9
$STEPSPERSEC
 40
2.0
  9
$STEPSIZE
 40
6.0
  9
$3DDWFPREC
 40
2.0
  9
$PSOLWIDTH
 40
0.25
  9
$PSOLHEIGHT
 40
4.0
  9
$LOFTANG1
 40
1.570796326794896
  9
$LOFTANG2
 40
1.570796326794896
  9
$LOFTMAG1
 40
0.0
  9
$LOFTMAG2
 40
0.0
  9
$LOFTPARAM
 70
7
  9
$LOFTNORMALS
280
1
  9
$LATITUDE
 40
37.795
  9
$LONGITUDE
 40
-122.394
  9
$NORTHDIRECTION
 40
0.0
  9
$TIMEZONE
 70
-8000
  9
$LIGHTGLYPHDISPLAY
280
1
  9
$TILEMODELIGHTSYNCH
280
1
  9
$CMATERIAL
347
96
  9
$SOLIDHIST
280
1
  9
$SHOWHIST
280
1
  9
$DWFFRAME
280
2
  9
$DGNFRAME
280
0
  9
$REALWORLDSCALE
290
1
  9
$INTERFERECOLOR
 62
1
  9
$INTERFEREOBJVS
345
A3
  9
$INTERFEREVPVS
346
A0
  9
$CSHADOW
280
0
  9
$SHADOWPLANELOCATION
 40
0.0
  0
ENDSEC
  0
SECTION
  2
CLASSES
  0
CLASS
  1
ACDBDICTIONARYWDFLT
  2
AcDbDictionaryWithDefault
  3
ObjectDBX Classes
 90
0
 91
0
280
0
281
0
  0
CLASS
  1
DICTIONARYVAR
  2
AcDbDictionaryVar
  3
ObjectDBX Classes
 90
0
 91
0
280
0
281
0
  0
CLASS
  1
TABLESTYLE
  2
AcDbTableStyle
  3
ObjectDBX Classes
 90
4095
 91
0
280
0
281
0
  0
CLASS
  1
MATERIAL
  2
AcDbMaterial
  3
ObjectDBX Classes
 90
1153
 91
0
280
0
281
0
  0
CLASS
  1
VISUALSTYLE
  2
AcDbVisualStyle
  3
ObjectDBX Classes
 90
4095
 91
0
280
0
281
0
  0
CLASS
  1
SCALE
  2
AcDbScale
  3
ObjectDBX Classes
 90
1153
 91
0
280
0
281
0
  0
CLASS
  1
MLEADERSTYLE
  2
AcDbMLeaderStyle
  3
ACDB_MLEADERSTYLE_CLASS
 90
4095
 91
0
280
0
281
0
  0
CLASS
  1
CELLSTYLEMAP
  2
AcDbCellStyleMap
  3
ObjectDBX Classes
 90
1152
 91
0
280
0
281
0
  0
CLASS
  1
EXACXREFPANELOBJECT
  2
ExAcXREFPanelObject
  3
EXAC_ESW
 90
1025
 91
0
280
0
281
0
  0
CLASS
  1
NPOCOLLECTION
  2
AcDbImpNonPersistentObjectsCollection
  3
ObjectDBX Classes
 90
1153
 91
0
280
0
281
0
  0
CLASS
  1
LAYER_INDEX
  2
AcDbLayerIndex
  3
ObjectDBX Classes
 90
0
 91
0
280
0
281
0
  0
CLASS
  1
SPATIAL_INDEX
  2
AcDbSpatialIndex
  3
ObjectDBX Classes
 90
0
 91
0
280
0
281
0
  0
CLASS
  1
IDBUFFER
  2
AcDbIdBuffer
  3
ObjectDBX Classes
 90
0
 91
0
280
0
281
0
  0
CLASS
  1
DIMASSOC
  2
AcDbDimAssoc
  3
"AcDbDimAssoc|Product Desc:     AcDim ARX App For Dimension|Company:          Autodesk, Inc.|WEB Address:      www.autodesk.com"
 90
0
 91
0
280
0
281
0
  0
CLASS
  1
IMAGEDEF
  2
AcDbRasterImageDef
  3
ISM
 90
0
 91
0
280
0
281
0
  0
CLASS
  1
RASTERVARIABLES
  2
AcDbRasterVariables
  3
ISM
 90
0
 91
0
280
0
281
0
  0
CLASS
  1
IMAGEDEF_REACTOR
  2
AcDbRasterImageDefReactor
  3
ISM
 90
1
 91
0
280
0
281
0
  0
CLASS
  1
IMAGE
  2
AcDbRasterImage
  3
ISM
 90
2175
 91
0
280
0
281
1
  0
CLASS
  1
PDFDEFINITION
  2
AcDbPdfDefinition
  3
ObjectDBX Classes
 90
1153
 91
0
280
0
281
0
  0
CLASS
  1
PDFUNDERLAY
  2
AcDbPdfReference
  3
ObjectDBX Classes
 90
4095
 91
0
280
0
281
1
  0
CLASS
  1
DWFDEFINITION
  2
AcDbDwfDefinition
  3
ObjectDBX Classes
 90
1153
 91
0
280
0
281
0
  0
CLASS
  1
DWFUNDERLAY
  2
AcDbDwfReference
  3
ObjectDBX Classes
 90
1153
 91
0
280
0
281
1
  0
CLASS
  1
DGNDEFINITION
  2
AcDbDgnDefinition
  3
ObjectDBX Classes
 90
1153
 91
0
280
0
281
0
  0
CLASS
  1
DGNUNDERLAY
  2
AcDbDgnReference
  3
ObjectDBX Classes
 90
1153
 91
0
280
0
281
1
  0
ENDSEC
  0
SECTION
  2
TABLES
  0
TABLE
  2
VPORT
  5
8
330
0
100
AcDbSymbolTable
 70
0
  0
ENDTAB
  0
TABLE
  2
LTYPE
  5
5F
330
0
100
AcDbSymbolTable
 70
7
  0
LTYPE
  5
14
330
5F
100
AcDbSymbolTableRecord
100
AcDbLinetypeTableRecord
  2
ByBlock
 70
0
  3

 72
65
 73
0
 40
0.0
  0
LTYPE
  5
15
330
5F
100
AcDbSymbolTableRecord
100
AcDbLinetypeTableRecord
  2
ByLayer
 70
0
  3

 72
65
 73
0
 40
0.0
  0
LTYPE
  5
16
330
5F
100
AcDbSymbolTableRecord
100
AcDbLinetypeTableRecord
  2
Continuous
 70
0
  3
Solid line
 72
65
 73
0
 40
0.0
  0
LTYPE
  5
1B1
330
5F
100
AcDbSymbolTableRecord
100
AcDbLinetypeTableRecord
  2
CENTER
 70
0
  3
Center ____ _ ____ _ ____ _ ____ _ ____ _ ____
 72
65
 73
4
 40
2.0
 49
1.25
 74
0
 49
-0.25
 74
0
 49
0.25
 74
0
 49
-0.25
 74
0
  0
LTYPE
  5
1B2
330
5F
100
AcDbSymbolTableRecord
100
AcDbLinetypeTableRecord
  2
DASHED
 70
0
  3
Dashed __ __ __ __ __ __ __ __ __ __ __ __ __ _
 72
65
 73
2
 40
0.75
 49
0.5
 74
0
 49
-0.25
 74
0
  0
LTYPE
  5
1B3
330
5F
100
AcDbSymbolTableRecord
100
AcDbLinetypeTableRecord
  2
PHANTOM
 70
0
  3
Phantom ______  __  __  ______  __  __  ______
 72
65
 73
6
 40
2.5
 49
1.25
 74
0
 49
-0.25
 74
0
 49
0.25
 74
0
 49
-0.25
 74
0
 49
0.25
 74
0
 49
-0.25
 74
0
  0
LTYPE
  5
39E
330
5F
100
AcDbSymbolTableRecord
100
AcDbLinetypeTableRecord
  2
HIDDEN
 70
0
  3
Hidden __ __ __ __ __ __ __ __ __ __ __ __ __ __
 72
65
 73
2
 40
9.525
 49
6.35
 74
0
 49
-3.175
 74
0
  0
ENDTAB
  0
TABLE
  2
LAYER
  5
2
330
0
100
AcDbSymbolTable
 70
3
  0
LAYER
  5
10
330
2
100
AcDbSymbolTableRecord
100
AcDbLayerTableRecord
  2
0
 70
0
 62
7
  6
Continuous
370
-3
390
4E8
  0
LAYER
  5
1B4
330
2
100
AcDbSymbolTableRecord
100
AcDbLayerTableRecord
  2
View Port
 70
0
 62
7
  6
Continuous
290
0
370
-3
390
4E8
  0
LAYER
  5
21D
330
2
100
AcDbSymbolTableRecord
100
AcDbLayerTableRecord
  2
Defpoints
 70
0
 62
7
  6
Continuous
290
0
370
-3
390
4E8
  0
ENDTAB
  0
TABLE
  2
STYLE
  5
3
330
0
100
AcDbSymbolTable
 70
3
  0
STYLE
  5
11
330
3
100
AcDbSymbolTableRecord
100
AcDbTextStyleTableRecord
  2
Standard
 70
0
 40
0.0
 41
1.0
 50
0.0
 71
0
 42
0.2
  3
arial.ttf
  4

  0
STYLE
  5
DC
330
3
100
AcDbSymbolTableRecord
100
AcDbTextStyleTableRecord
  2
Annotative
 70
0
 40
0.0
 41
1.0
 50
0.0
 71
0
 42
0.2
  3
arial.ttf
  4

  0
STYLE
  5
178
330
3
100
AcDbSymbolTableRecord
100
AcDbTextStyleTableRecord
  2
Notes
 70
0
 40
3.0
 41
1.0
 50
0.0
 71
0
 42
0.2
  3
arial.ttf
  4

  0
ENDTAB
  0
TABLE
  2
VIEW
  5
6
330
0
100
AcDbSymbolTable
 70
0
  0
ENDTAB
  0
TABLE
  2
UCS
  5
7
330
0
100
AcDbSymbolTable
 70
0
  0
ENDTAB
  0
TABLE
  2
APPID
  5
9
330
0
100
AcDbSymbolTable
 70
11
  0
APPID
  5
12
330
9
100
AcDbSymbolTableRecord
100
AcDbRegAppTableRecord
  2
ACAD
 70
0
  0
APPID
  5
DD
330
9
100
AcDbSymbolTableRecord
100
AcDbRegAppTableRecord
  2
AcadAnnoPO
 70
0
  0
APPID
  5
DE
330
9
100
AcDbSymbolTableRecord
100
AcDbRegAppTableRecord
  2
AcadAnnotative
 70
0
  0
APPID
  5
DF
330
9
100
AcDbSymbolTableRecord
100
AcDbRegAppTableRecord
  2
ACAD_DSTYLE_DIMJAG
 70
0
  0
APPID
  5
E0
330
9
100
AcDbSymbolTableRecord
100
AcDbRegAppTableRecord
  2
ACAD_DSTYLE_DIMTALN
 70
0
  0
APPID
  5
107
330
9
100
AcDbSymbolTableRecord
100
AcDbRegAppTableRecord
  2
ACAD_MLEADERVER
 70
0
  0
APPID
  5
1B5
330
9
100
AcDbSymbolTableRecord
100
AcDbRegAppTableRecord
  2
AcAecLayerStandard
 70
0
  0
APPID
  5
1BA
330
9
100
AcDbSymbolTableRecord
100
AcDbRegAppTableRecord
  2
ACAD_EXEMPT_FROM_CAD_STANDARDS
 70
0
  0
APPID
  5
237
330
9
100
AcDbSymbolTableRecord
100
AcDbRegAppTableRecord
  2
ACAD_DSTYLE_DIMBREAK
 70
0
  0
APPID
  5
28E
330
9
100
AcDbSymbolTableRecord
100
AcDbRegAppTableRecord
  2
ACAD_PSEXT
 70
0
  0
APPID
  5
4C4
330
9
100
AcDbSymbolTableRecord
100
AcDbRegAppTableRecord
  2
HATCHBACKGROUNDCOLOR
 70
0
  0
ENDTAB
  0
TABLE
  2
DIMSTYLE
  5
A
330
0
100
AcDbSymbolTable
 70
3
100
AcDbDimStyleTable
 71
3
340
242
340
27
340
E1
  0
DIMSTYLE
105
27
330
A
100
AcDbSymbolTableRecord
100
AcDbDimStyleTableRecord
  2
Standard
 70
0
 41
3.0
 42
2.0
 43
9.0
 44
5.0
140
3.0
141
2.0
147
2.0
340
11
1001
ACAD_DSTYLE_DIMJAG
1070
388
1040
38.0
1001
ACAD_DSTYLE_DIMBREAK
1070
391
1040
90.0
1001
ACAD_DSTYLE_DIMTALN
1070
392
1070
0
  0
DIMSTYLE
105
E1
330
A
100
AcDbSymbolTableRecord
100
AcDbDimStyleTableRecord
  2
Annotative
 70
0
 40
0.0
 41
3.0
 42
2.5
 43
10.0
 44
5.0
140
3.0
141
2.0
147
2.0
340
11
1001
AcadAnnotative
1000
AnnotativeData
1002
{
1070
1
1070
1
1002
}
1001
ACAD_DSTYLE_DIMJAG
1070
388
1040
38.0
1001
ACAD_DSTYLE_DIMBREAK
1070
391
1040
90.0
1001
ACAD_DSTYLE_DIMTALN
1070
392
1070
0
  0
DIMSTYLE
105
242
330
A
100
AcDbSymbolTableRecord
100
AcDbDimStyleTableRecord
  2
Civil-Metric
 70
0
 41
3.0
 42
1.5
 43
6.0
 44
3.0
 73
0
 74
0
 77
1
 78
3
 79
2
140
3.0
141
3.0
147
2.0
179
2
271
2
272
2
276
1
340
11
1001
ACAD_DSTYLE_DIMBREAK
1070
391
1040
3.0
1001
ACAD_DSTYLE_DIMJAG
1070
388
1040
38.0
1001
ACAD_DSTYLE_DIMTALN
1070
392
1070
0
  0
ENDTAB
  0
TABLE
  2
BLOCK_RECORD
  5
1
330
0
100
AcDbSymbolTable
 70
4
  0
BLOCK_RECORD
  5
1F
330
1
100
AcDbSymbolTableRecord
100
AcDbBlockTableRecord
  2
*Model_Space
340
4ED
 70
0
280
1
281
0
  0
BLOCK_RECORD
  5
58
330
1
100
AcDbSymbolTableRecord
100
AcDbBlockTableRecord
  2
*Paper_Space
340
4EE
 70
0
280
1
281
0
  0
BLOCK_RECORD
  5
238
330
1
100
AcDbSymbolTableRecord
100
AcDbBlockTableRecord
  2
_ArchTick
340
0
 70
0
280
1
281
0
  0
BLOCK_RECORD
  5
23C
330
1
100
AcDbSymbolTableRecord
100
AcDbBlockTableRecord
  2
_Open30
340
0
 70
0
280
1
281
0
  0
ENDTAB
  0
ENDSEC
  0
SECTION
  2
BLOCKS
  0
BLOCK
  5
5A
330
58
100
AcDbEntity
 67
1
  8
0
100
AcDbBlockBegin
  2
*Paper_Space
 70
0
 10
0.0
 20
0.0
 30
0.0
  3
*Paper_Space
  1

  0
ENDBLK
  5
5B
330
58
100
AcDbEntity
 67
1
  8
0
100
AcDbBlockEnd
  0
BLOCK
  5
20
330
1F
100
AcDbEntity
  8
0
100
AcDbBlockBegin
  2
*Model_Space
 70
0
 10
0.0
 20
0.0
 30
0.0
  3
*Model_Space
  1

  0
ENDBLK
  5
21
330
1F
100
AcDbEntity
  8
0
100
AcDbBlockEnd
  0
BLOCK
  5
23A
330
238
100
AcDbEntity
  8
0
100
AcDbBlockBegin
  2
_ArchTick
 70
0
 10
0.0
 20
0.0
 30
0.0
  3
_ArchTick
  1

  0
LWPOLYLINE
  5
239
330
238
100
AcDbEntity
  8
0
  6
ByBlock
 62
0
100
AcDbPolyline
 90
2
 70
0
 43
0.15
 10
-0.5
 20
-0.5
 10
0.5
 20
0.5
  0
ENDBLK
  5
23B
330
238
100
AcDbEntity
  8
0
100
AcDbBlockEnd
  0
BLOCK
  5
240
330
23C
100
AcDbEntity
  8
0
100
AcDbBlockBegin
  2
_Open30
 70
0
 10
0.0
 20
0.0
 30
0.0
  3
_Open30
  1

  0
LINE
  5
23D
330
23C
100
AcDbEntity
  8
0
  6
ByBlock
 62
0
370
-2
100
AcDbLine
 10
-1.0
 20
0.26794919
 30
0.0
 11
0.0
 21
0.0
 31
0.0
  0
LINE
  5
23E
330
23C
100
AcDbEntity
  8
0
  6
ByBlock
 62
0
370
-2
100
AcDbLine
 10
0.0
 20
0.0
 30
0.0
 11
-1.0
 21
-0.26794919
 31
0.0
  0
LINE
  5
23F
330
23C
100
AcDbEntity
  8
0
  6
ByBlock
 62
0
370
-2
100
AcDbLine
 10
0.0
 20
0.0
 30
0.0
 11
-1.0
 21
0.0
 31
0.0
  0
ENDBLK
  5
241
330
23C
100
AcDbEntity
  8
0
100
AcDbBlockEnd
  0
ENDSEC
  0
SECTION
  2
ENTITIES
  0
LINE
  5
56B
330
1F
100
AcDbEntity
  8
0
 67
0
100
AcDbLine
 10
145.9
 20
-7.2875
 11
158.9
 21
-7.2875
  0
LINE
  5
56C
330
1F
100
AcDbEntity
  8
0
 67
0
100
AcDbLine
 10
145.9
 20
-21.2875
 11
158.9
 21
-21.2875
  0
LINE
  5
56D
330
1F
100
AcDbEntity
  8
0
 67
0
100
AcDbLine
 10
145.4
 20
-7.7875
 11
145.4
 21
-20.7875
  0
LINE
  5
56E
330
1F
100
AcDbEntity
  8
0
 67
0
100
AcDbLine
 10
159.4
 20
-7.7875
 11
159.4
 21
-20.7875
  0
ARC
  5
56F
330
1F
100
AcDbEntity
  8
0
 67
0
100
AcDbCircle
 10
145.9
 20
-7.7875
 40
0.5
100
AcDbArc
 50
90.0
 51
180.0
  0
ARC
  5
570
330
1F
100
AcDbEntity
  8
0
 67
0
100
AcDbCircle
 10
158.9
 20
-7.7875
 40
0.5
100
AcDbArc
 50
0.0
 51
90.0
  0
ARC
  5
571
330
1F
100
AcDbEntity
  8
0
 67
0
100
AcDbCircle
 10
145.9
 20
-20.7875
 40
0.5
100
AcDbArc
 50
180.0
 51
270.0
  0
ARC
  5
572
330
1F
100
AcDbEntity
  8
0
 67
0
100
AcDbCircle
 10
158.9
 20
-20.7875
 40
0.5
100
AcDbArc
 50
270.0
 51
360.0
  0
LINE
  5
573
330
1F
100
AcDbEntity
  8
0
 67
0
100
AcDbLine
 10
174.475
 20
-21.575
 11
187.475
 21
-21.575
  0
LINE
  5
574
330
1F
100
AcDbEntity
  8
0
 67
0
100
AcDbLine
 10
174.475
 20
-35.575
 11
187.475
 21
-35.575
  0
LINE
  5
575
330
1F
100
AcDbEntity
  8
0
 67
0
100
AcDbLine
 10
173.975
 20
-22.075
 11
173.975
 21
-35.075
  0
LINE
  5
576
330
1F
100
AcDbEntity
  8
0
 67
0
100
AcDbLine
 10
187.975
 20
-22.075
 11
187.975
 21
-35.075
  0
ARC
  5
577
330
1F
100
AcDbEntity
  8
0
 67
0
100
AcDbCircle
 10
174.475
 20
-22.075
 40
0.5
100
AcDbArc
 50
90.0
 51
180.0
  0
ARC
  5
578
330
1F
100
AcDbEntity
  8
0
 67
0
100
AcDbCircle
 10
187.475
 20
-22.075
 40
0.5
100
AcDbArc
 50
0.0
 51
90.0
  0
ARC
  5
579
330
1F
100
AcDbEntity
  8
0
 67
0
100
AcDbCircle
 10
174.475
 20
-35.075
 40
0.5
100
AcDbArc
 50
180.0
 51
270.0
  0
ARC
  5
57A
330
1F
100
AcDbEntity
  8
0
 67
0
100
AcDbCircle
 10
187.475
 20
-35.075
 40
0.5
100
AcDbArc
 50
270.0
 51
360.0
  0
LINE
  5
57B
330
1F
100
AcDbEntity
  8
0
 67
0
100
AcDbLine
 10
212.575
 20
-21.575
 11
225.575
 21
-21.575
  0
LINE
  5
57C
330
1F
100
AcDbEntity
  8
0
 67
0
100
AcDbLine
 10
212.575
 20
-35.575
 11
225.575
 21
-35.575
  0
LINE
  5
57D
330
1F
100
AcDbEntity
  8
0
 67
0
100
AcDbLine
 10
212.075
 20
-22.075
 11
212.075
 21
-35.075
  0
LINE
  5
57E
330
1F
100
AcDbEntity
  8
0
 67
0
100
AcDbLine
 10
226.075
 20
-22.075
 11
226.075
 21
-35.075
  0
ARC
  5
57F
330
1F
100
AcDbEntity
  8
0
 67
0
100
AcDbCircle
 10
212.575
 20
-22.075
 40
0.5
100
AcDbArc
 50
90.0
 51
180.0
  0
ARC
  5
580
330
1F
100
AcDbEntity
  8
0
 67
0
100
AcDbCircle
 10
225.575
 20
-22.075
 40
0.5
100
AcDbArc
 50
0.0
 51
90.0
  0
ARC
  5
581
330
1F
100
AcDbEntity
  8
0
 67
0
100
AcDbCircle
 10
212.575
 20
-35.075
 40
0.5
100
AcDbArc
 50
180.0
 51
270.0
  0
ARC
  5
582
330
1F
100
AcDbEntity
  8
0
 67
0
100
AcDbCircle
 10
225.575
 20
-35.075
 40
0.5
100
AcDbArc
 50
270.0
 51
360.0
  0
LINE
  5
583
330
1F
100
AcDbEntity
  8
0
 67
0
100
AcDbLine
 10
231.625
 20
-21.575
 11
244.625
 21
-21.575
  0
LINE
  5
584
330
1F
100
AcDbEntity
  8
0
 67
0
100
AcDbLine
 10
231.625
 20
-35.575
 11
244.625
 21
-35.575
  0
LINE
  5
585
330
1F
100
AcDbEntity
  8
0
 67
0
100
AcDbLine
 10
231.125
 20
-22.075
 11
231.125
 21
-35.075
  0
LINE
  5
586
330
1F
100
AcDbEntity
  8
0
 67
0
100
AcDbLine
 10
245.125
 20
-22.075
 11
245.125
 21
-35.075
  0
ARC
  5
587
330
1F
100
AcDbEntity
  8
0
 67
0
100
AcDbCircle
 10
231.625
 20
-22.075
 40
0.5
100
AcDbArc
 50
90.0
 51
180.0
  0
ARC
  5
588
330
1F
100
AcDbEntity
  8
0
 67
0
100
AcDbCircle
 10
244.625
 20
-22.075
 40
0.5
100
AcDbArc
 50
0.0
 51
90.0
  0
ARC
  5
589
330
1F
100
AcDbEntity
  8
0
 67
0
100
AcDbCircle
 10
231.625
 20
-35.075
 40
0.5
100
AcDbArc
 50
180.0
 51
270.0
  0
ARC
  5
58A
330
1F
100
AcDbEntity
  8
0
 67
0
100
AcDbCircle
 10
244.625
 20
-35.075
 40
0.5
100
AcDbArc
 50
270.0
 51
360.0
  0
LINE
  5
58B
330
1F
100
AcDbEntity
  8
0
 67
0
100
AcDbLine
 10
250.675
 20
-21.575
 11
263.675
 21
-21.575
  0
LINE
  5
58C
330
1F
100
AcDbEntity
  8
0
 67
0
100
AcDbLine
 10
250.675
 20
-35.575
 11
263.675
 21
-35.575
  0
LINE
  5
58D
330
1F
100
AcDbEntity
  8
0
 67
0
100
AcDbLine
 10
250.175
 20
-22.075
 11
250.175
 21
-35.075
  0
LINE
  5
58E
330
1F
100
AcDbEntity
  8
0
 67
0
100
AcDbLine
 10
264.175
 20
-22.075
 11
264.175
 21
-35.075
  0
ARC
  5
58F
330
1F
100
AcDbEntity
  8
0
 67
0
100
AcDbCircle
 10
250.675
 20
-22.075
 40
0.5
100
AcDbArc
 50
90.0
 51
180.0
  0
ARC
  5
590
330
1F
100
AcDbEntity
  8
0
 67
0
100
AcDbCircle
 10
263.675
 20
-22.075
 40
0.5
100
AcDbArc
 50
0.0
 51
90.0
  0
ARC
  5
591
330
1F
100
AcDbEntity
  8
0
 67
0
100
AcDbCircle
 10
250.675
 20
-35.075
 40
0.5
100
AcDbArc
 50
180.0
 51
270.0
  0
ARC
  5
592
330
1F
100
AcDbEntity
  8
0
 67
0
100
AcDbCircle
 10
263.675
 20
-35.075
 40
0.5
100
AcDbArc
 50
270.0
 51
360.0
  0
LINE
  5
593
330
1F
100
AcDbEntity
  8
0
 67
0
100
AcDbLine
 10
269.725
 20
-21.575
 11
282.725
 21
-21.575
  0
LINE
  5
594
330
1F
100
AcDbEntity
  8
0
 67
0
100
AcDbLine
 10
269.725
 20
-35.575
 11
282.725
 21
-35.575
  0
LINE
  5
595
330
1F
100
AcDbEntity
  8
0
 67
0
100
AcDbLine
 10
269.225
 20
-22.075
 11
269.225
 21
-35.075
  0
LINE
  5
596
330
1F
100
AcDbEntity
  8
0
 67
0
100
AcDbLine
 10
283.225
 20
-22.075
 11
283.225
 21
-35.075
  0
ARC
  5
597
330
1F
100
AcDbEntity
  8
0
 67
0
100
AcDbCircle
 10
269.725
 20
-22.075
 40
0.5
100
AcDbArc
 50
90.0
 51
180.0
  0
ARC
  5
598
330
1F
100
AcDbEntity
  8
0
 67
0
100
AcDbCircle
 10
282.725
 20
-22.075
 40
0.5
100
AcDbArc
 50
0.0
 51
90.0
  0
ARC
  5
599
330
1F
100
AcDbEntity
  8
0
 67
0
100
AcDbCircle
 10
269.725
 20
-35.075
 40
0.5
100
AcDbArc
 50
180.0
 51
270.0
  0
ARC
  5
59A
330
1F
100
AcDbEntity
  8
0
 67
0
100
AcDbCircle
 10
282.725
 20
-35.075
 40
0.5
100
AcDbArc
 50
270.0
 51
360.0
  0
LINE
  5
59B
330
1F
100
AcDbEntity
  8
0
 67
0
100
AcDbLine
 10
298.3
 20
-21.575
 11
311.3
 21
-21.575
  0
LINE
  5
59C
330
1F
100
AcDbEntity
  8
0
 67
0
100
AcDbLine
 10
298.3
 20
-35.575
 11
311.3
 21
-35.575
  0
LINE
  5
59D
330
1F
100
AcDbEntity
  8
0
 67
0
100
AcDbLine
 10
297.8
 20
-22.075
 11
297.8
 21
-35.075
  0
LINE
  5
59E
330
1F
100
AcDbEntity
  8
0
 67
0
100
AcDbLine
 10
311.8
 20
-22.075
 11
311.8
 21
-35.075
  0
ARC
  5
59F
330
1F
100
AcDbEntity
  8
0
 67
0
100
AcDbCircle
 10
298.3
 20
-22.075
 40
0.5
100
AcDbArc
 50
90.0
 51
180.0
  0
ARC
  5
5A0
330
1F
100
AcDbEntity
  8
0
 67
0
100
AcDbCircle
 10
311.3
 20
-22.075
 40
0.5
100
AcDbArc
 50
0.0
 51
90.0
  0
ARC
  5
5A1
330
1F
100
AcDbEntity
  8
0
 67
0
100
AcDbCircle
 10
298.3
 20
-35.075
 40
0.5
100
AcDbArc
 50
180.0
 51
270.0
  0
ARC
  5
5A2
330
1F
100
AcDbEntity
  8
0
 67
0
100
AcDbCircle
 10
311.3
 20
-35.075
 40
0.5
100
AcDbArc
 50
270.0
 51
360.0
  0
LINE
  5
5A3
330
1F
100
AcDbEntity
  8
0
 67
0
100
AcDbLine
 10
317.35
 20
-21.575
 11
330.35
 21
-21.575
  0
LINE
  5
5A4
330
1F
100
AcDbEntity
  8
0
 67
0
100
AcDbLine
 10
317.35
 20
-35.575
 11
330.35
 21
-35.575
  0
LINE
  5
5A5
330
1F
100
AcDbEntity
  8
0
 67
0
100
AcDbLine
 10
316.85
 20
-22.075
 11
316.85
 21
-35.075
  0
LINE
  5
5A6
330
1F
100
AcDbEntity
  8
0
 67
0
100
AcDbLine
 10
330.85
 20
-22.075
 11
330.85
 21
-35.075
  0
ARC
  5
5A7
330
1F
100
AcDbEntity
  8
0
 67
0
100
AcDbCircle
 10
317.35
 20
-22.075
 40
0.5
100
AcDbArc
 50
90.0
 51
180.0
  0
ARC
  5
5A8
330
1F
100
AcDbEntity
  8
0
 67
0
100
AcDbCircle
 10
330.35
 20
-22.075
 40
0.5
100
AcDbArc
 50
0.0
 51
90.0
  0
ARC
  5
5A9
330
1F
100
AcDbEntity
  8
0
 67
0
100
AcDbCircle
 10
317.35
 20
-35.075
 40
0.5
100
AcDbArc
 50
180.0
 51
270.0
  0
ARC
  5
5AA
330
1F
100
AcDbEntity
  8
0
 67
0
100
AcDbCircle
 10
330.35
 20
-35.075
 40
0.5
100
AcDbArc
 50
270.0
 51
360.0
  0
LINE
  5
5AB
330
1F
100
AcDbEntity
  8
0
 67
0
100
AcDbLine
 10
336.4
 20
-21.575
 11
349.4
 21
-21.575
  0
LINE
  5
5AC
330
1F
100
AcDbEntity
  8
0
 67
0
100
AcDbLine
 10
336.4
 20
-35.575
 11
349.4
 21
-35.575
  0
LINE
  5
5AD
330
1F
100
AcDbEntity
  8
0
 67
0
100
AcDbLine
 10
335.9
 20
-22.075
 11
335.9
 21
-35.075
  0
LINE
  5
5AE
330
1F
100
AcDbEntity
  8
0
 67
0
100
AcDbLine
 10
349.9
 20
-22.075
 11
349.9
 21
-35.075
  0
ARC
  5
5AF
330
1F
100
AcDbEntity
  8
0
 67
0
100
AcDbCircle
 10
336.4
 20
-22.075
 40
0.5
100
AcDbArc
 50
90.0
 51
180.0
  0
ARC
  5
5B0
330
1F
100
AcDbEntity
  8
0
 67
0
100
AcDbCircle
 10
349.4
 20
-22.075
 40
0.5
100
AcDbArc
 50
0.0
 51
90.0
  0
ARC
  5
5B1
330
1F
100
AcDbEntity
  8
0
 67
0
100
AcDbCircle
 10
336.4
 20
-35.075
 40
0.5
100
AcDbArc
 50
180.0
 51
270.0
  0
ARC
  5
5B2
330
1F
100
AcDbEntity
  8
0
 67
0
100
AcDbCircle
 10
349.4
 20
-35.075
 40
0.5
100
AcDbArc
 50
270.0
 51
360.0
  0
LINE
  5
5B3
330
1F
100
AcDbEntity
  8
0
 67
0
100
AcDbLine
 10
355.45
 20
-21.575
 11
368.45
 21
-21.575
  0
LINE
  5
5B4
330
1F
100
AcDbEntity
  8
0
 67
0
100
AcDbLine
 10
355.45
 20
-35.575
 11
368.45
 21
-35.575
  0
LINE
  5
5B5
330
1F
100
AcDbEntity
  8
0
 67
0
100
AcDbLine
 10
354.95
 20
-22.075
 11
354.95
 21
-35.075
  0
LINE
  5
5B6
330
1F
100
AcDbEntity
  8
0
 67
0
100
AcDbLine
 10
368.95
 20
-22.075
 11
368.95
 21
-35.075
  0
ARC
  5
5B7
330
1F
100
AcDbEntity
  8
0
 67
0
100
AcDbCircle
 10
355.45
 20
-22.075
 40
0.5
100
AcDbArc
 50
90.0
 51
180.0
  0
ARC
  5
5B8
330
1F
100
AcDbEntity
  8
0
 67
0
100
AcDbCircle
 10
368.45
 20
-22.075
 40
0.5
100
AcDbArc
 50
0.0
 51
90.0
  0
ARC
  5
5B9
330
1F
100
AcDbEntity
  8
0
 67
0
100
AcDbCircle
 10
355.45
 20
-35.075
 40
0.5
100
AcDbArc
 50
180.0
 51
270.0
  0
ARC
  5
5BA
330
1F
100
AcDbEntity
  8
0
 67
0
100
AcDbCircle
 10
368.45
 20
-35.075
 40
0.5
100
AcDbArc
 50
270.0
 51
360.0
  0
LINE
  5
5BB
330
1F
100
AcDbEntity
  8
0
 67
0
100
AcDbLine
 10
384.025
 20
-21.575
 11
397.025
 21
-21.575
  0
LINE
  5
5BC
330
1F
100
AcDbEntity
  8
0
 67
0
100
AcDbLine
 10
384.025
 20
-35.575
 11
397.025
 21
-35.575
  0
LINE
  5
5BD
330
1F
100
AcDbEntity
  8
0
 67
0
100
AcDbLine
 10
383.525
 20
-22.075
 11
383.525
 21
-35.075
  0
LINE
  5
5BE
330
1F
100
AcDbEntity
  8
0
 67
0
100
AcDbLine
 10
397.525
 20
-22.075
 11
397.525
 21
-35.075
  0
ARC
  5
5BF
330
1F
100
AcDbEntity
  8
0
 67
0
100
AcDbCircle
 10
384.025
 20
-22.075
 40
0.5
100
AcDbArc
 50
90.0
 51
180.0
  0
ARC
  5
5C0
330
1F
100
AcDbEntity
  8
0
 67
0
100
AcDbCircle
 10
397.025
 20
-22.075
 40
0.5
100
AcDbArc
 50
0.0
 51
90.0
  0
ARC
  5
5C1
330
1F
100
AcDbEntity
  8
0
 67
0
100
AcDbCircle
 10
384.025
 20
-35.075
 40
0.5
100
AcDbArc
 50
180.0
 51
270.0
  0
ARC
  5
5C2
330
1F
100
AcDbEntity
  8
0
 67
0
100
AcDbCircle
 10
397.025
 20
-35.075
 40
0.5
100
AcDbArc
 50
270.0
 51
360.0
  0
LINE
  5
5C3
330
1F
100
AcDbEntity
  8
0
 67
0
100
AcDbLine
 10
403.075
 20
-21.575
 11
416.075
 21
-21.575
  0
LINE
  5
5C4
330
1F
100
AcDbEntity
  8
0
 67
0
100
AcDbLine
 10
403.075
 20
-35.575
 11
416.075
 21
-35.575
  0
LINE
  5
5C5
330
1F
100
AcDbEntity
  8
0
 67
0
100
AcDbLine
 10
402.575
 20
-22.075
 11
402.575
 21
-35.075
  0
LINE
  5
5C6
330
1F
100
AcDbEntity
  8
0
 67
0
100
AcDbLine
 10
416.575
 20
-22.075
 11
416.575
 21
-35.075
  0
ARC
  5
5C7
330
1F
100
AcDbEntity
  8
0
 67
0
100
AcDbCircle
 10
403.075
 20
-22.075
 40
0.5
100
AcDbArc
 50
90.0
 51
180.0
  0
ARC
  5
5C8
330
1F
100
AcDbEntity
  8
0
 67
0
100
AcDbCircle
 10
416.075
 20
-22.075
 40
0.5
100
AcDbArc
 50
0.0
 51
90.0
  0
ARC
  5
5C9
330
1F
100
AcDbEntity
  8
0
 67
0
100
AcDbCircle
 10
403.075
 20
-35.075
 40
0.5
100
AcDbArc
 50
180.0
 51
270.0
  0
ARC
  5
5CA
330
1F
100
AcDbEntity
  8
0
 67
0
100
AcDbCircle
 10
416.075
 20
-35.075
 40
0.5
100
AcDbArc
 50
270.0
 51
360.0
  0
LINE
  5
5CB
330
1F
100
AcDbEntity
  8
0
 67
0
100
AcDbLine
 10
422.125
 20
-21.575
 11
435.125
 21
-21.575
  0
LINE
  5
5CC
330
1F
100
AcDbEntity
  8
0
 67
0
100
AcDbLine
 10
422.125
 20
-35.575
 11
435.125
 21
-35.575
  0
LINE
  5
5CD
330
1F
100
AcDbEntity
  8
0
 67
0
100
AcDbLine
 10
421.625
 20
-22.075
 11
421.625
 21
-35.075
  0
LINE
  5
5CE
330
1F
100
AcDbEntity
  8
0
 67
0
100
AcDbLine
 10
435.625
 20
-22.075
 11
435.625
 21
-35.075
  0
ARC
  5
5CF
330
1F
100
AcDbEntity
  8
0
 67
0
100
AcDbCircle
 10
422.125
 20
-22.075
 40
0.5
100
AcDbArc
 50
90.0
 51
180.0
  0
ARC
  5
5D0
330
1F
100
AcDbEntity
  8
0
 67
0
100
AcDbCircle
 10
435.125
 20
-22.075
 40
0.5
100
AcDbArc
 50
0.0
 51
90.0
  0
ARC
  5
5D1
330
1F
100
AcDbEntity
  8
0
 67
0
100
AcDbCircle
 10
422.125
 20
-35.075
 40
0.5
100
AcDbArc
 50
180.0
 51
270.0
  0
ARC
  5
5D2
330
1F
100
AcDbEntity
  8
0
 67
0
100
AcDbCircle
 10
435.125
 20
-35.075
 40
0.5
100
AcDbArc
 50
270.0
 51
360.0
  0
LINE
  5
5D3
330
1F
100
AcDbEntity
  8
0
 67
0
100
AcDbLine
 10
441.175
 20
-21.575
 11
454.175
 21
-21.575
  0
LINE
  5
5D4
330
1F
100
AcDbEntity
  8
0
 67
0
100
AcDbLine
 10
441.175
 20
-35.575
 11
454.175
 21
-35.575
  0
LINE
  5
5D5
330
1F
100
AcDbEntity
  8
0
 67
0
100
AcDbLine
 10
440.675
 20
-22.075
 11
440.675
 21
-35.075
  0
LINE
  5
5D6
330
1F
100
AcDbEntity
  8
0
 67
0
100
AcDbLine
 10
454.675
 20
-22.075
 11
454.675
 21
-35.075
  0
ARC
  5
5D7
330
1F
100
AcDbEntity
  8
0
 67
0
100
AcDbCircle
 10
441.175
 20
-22.075
 40
0.5
100
AcDbArc
 50
90.0
 51
180.0
  0
ARC
  5
5D8
330
1F
100
AcDbEntity
  8
0
 67
0
100
AcDbCircle
 10
454.175
 20
-22.075
 40
0.5
100
AcDbArc
 50
0.0
 51
90.0
  0
ARC
  5
5D9
330
1F
100
AcDbEntity
  8
0
 67
0
100
AcDbCircle
 10
441.175
 20
-35.075
 40
0.5
100
AcDbArc
 50
180.0
 51
270.0
  0
ARC
  5
5DA
330
1F
100
AcDbEntity
  8
0
 67
0
100
AcDbCircle
 10
454.175
 20
-35.075
 40
0.5
100
AcDbArc
 50
270.0
 51
360.0
  0
LINE
  5
5DB
330
1F
100
AcDbEntity
  8
0
 67
0
100
AcDbLine
 10
464.9875
 20
-21.575
 11
477.9875
 21
-21.575
  0
LINE
  5
5DC
330
1F
100
AcDbEntity
  8
0
 67
0
100
AcDbLine
 10
464.9875
 20
-35.575
 11
477.9875
 21
-35.575
  0
LINE
  5
5DD
330
1F
100
AcDbEntity
  8
0
 67
0
100
AcDbLine
 10
464.4875
 20
-22.075
 11
464.4875
 21
-35.075
  0
LINE
  5
5DE
330
1F
100
AcDbEntity
  8
0
 67
0
100
AcDbLine
 10
478.4875
 20
-22.075
 11
478.4875
 21
-35.075
  0
ARC
  5
5DF
330
1F
100
AcDbEntity
  8
0
 67
0
100
AcDbCircle
 10
464.9875
 20
-22.075
 40
0.5
100
AcDbArc
 50
90.0
 51
180.0
  0
ARC
  5
5E0
330
1F
100
AcDbEntity
  8
0
 67
0
100
AcDbCircle
 10
477.9875
 20
-22.075
 40
0.5
100
AcDbArc
 50
0.0
 51
90.0
  0
ARC
  5
5E1
330
1F
100
AcDbEntity
  8
0
 67
0
100
AcDbCircle
 10
464.9875
 20
-35.075
 40
0.5
100
AcDbArc
 50
180.0
 51
270.0
  0
ARC
  5
5E2
330
1F
100
AcDbEntity
  8
0
 67
0
100
AcDbCircle
 10
477.9875
 20
-35.075
 40
0.5
100
AcDbArc
 50
270.0
 51
360.0
  0
LINE
  5
5E3
330
1F
100
AcDbEntity
  8
0
 67
0
100
AcDbLine
 10
484.0375
 20
-21.575
 11
497.0375
 21
-21.575
  0
LINE
  5
5E4
330
1F
100
AcDbEntity
  8
0
 67
0
100
AcDbLine
 10
484.0375
 20
-35.575
 11
497.0375
 21
-35.575
  0
LINE
  5
5E5
330
1F
100
AcDbEntity
  8
0
 67
0
100
AcDbLine
 10
483.5375
 20
-22.075
 11
483.5375
 21
-35.075
  0
LINE
  5
5E6
330
1F
100
AcDbEntity
  8
0
 67
0
100
AcDbLine
 10
497.5375
 20
-22.075
 11
497.5375
 21
-35.075
  0
ARC
  5
5E7
330
1F
100
AcDbEntity
  8
0
 67
0
100
AcDbCircle
 10
484.0375
 20
-22.075
 40
0.5
100
AcDbArc
 50
90.0
 51
180.0
  0
ARC
  5
5E8
330
1F
100
AcDbEntity
  8
0
 67
0
100
AcDbCircle
 10
497.0375
 20
-22.075
 40
0.5
100
AcDbArc
 50
0.0
 51
90.0
  0
ARC
  5
5E9
330
1F
100
AcDbEntity
  8
0
 67
0
100
AcDbCircle
 10
484.0375
 20
-35.075
 40
0.5
100
AcDbArc
 50
180.0
 51
270.0
  0
ARC
  5
5EA
330
1F
100
AcDbEntity
  8
0
 67
0
100
AcDbCircle
 10
497.0375
 20
-35.075
 40
0.5
100
AcDbArc
 50
270.0
 51
360.0
  0
LINE
  5
5EB
330
1F
100
AcDbEntity
  8
0
 67
0
100
AcDbLine
 10
503.0875
 20
-21.575
 11
516.0875
 21
-21.575
  0
LINE
  5
5EC
330
1F
100
AcDbEntity
  8
0
 67
0
100
AcDbLine
 10
503.0875
 20
-35.575
 11
516.0875
 21
-35.575
  0
LINE
  5
5ED
330
1F
100
AcDbEntity
  8
0
 67
0
100
AcDbLine
 10
502.5875
 20
-22.075
 11
502.5875
 21
-35.075
  0
LINE
  5
5EE
330
1F
100
AcDbEntity
  8
0
 67
0
100
AcDbLine
 10
516.5875
 20
-22.075
 11
516.5875
 21
-35.075
  0
ARC
  5
5EF
330
1F
100
AcDbEntity
  8
0
 67
0
100
AcDbCircle
 10
503.0875
 20
-22.075
 40
0.5
100
AcDbArc
 50
90.0
 51
180.0
  0
ARC
  5
5F0
330
1F
100
AcDbEntity
  8
0
 67
0
100
AcDbCircle
 10
516.0875
 20
-22.075
 40
0.5
100
AcDbArc
 50
0.0
 51
90.0
  0
ARC
  5
5F1
330
1F
100
AcDbEntity
  8
0
 67
0
100
AcDbCircle
 10
503.0875
 20
-35.075
 40
0.5
100
AcDbArc
 50
180.0
 51
270.0
  0
ARC
  5
5F2
330
1F
100
AcDbEntity
  8
0
 67
0
100
AcDbCircle
 10
516.0875
 20
-35.075
 40
0.5
100
AcDbArc
 50
270.0
 51
360.0
  0
LINE
  5
5F3
330
1F
100
AcDbEntity
  8
0
 67
0
100
AcDbLine
 10
522.1375
 20
-21.575
 11
535.1375
 21
-21.575
  0
LINE
  5
5F4
330
1F
100
AcDbEntity
  8
0
 67
0
100
AcDbLine
 10
522.1375
 20
-35.575
 11
535.1375
 21
-35.575
  0
LINE
  5
5F5
330
1F
100
AcDbEntity
  8
0
 67
0
100
AcDbLine
 10
521.6375
 20
-22.075
 11
521.6375
 21
-35.075
  0
LINE
  5
5F6
330
1F
100
AcDbEntity
  8
0
 67
0
100
AcDbLine
 10
535.6375
 20
-22.075
 11
535.6375
 21
-35.075
  0
ARC
  5
5F7
330
1F
100
AcDbEntity
  8
0
 67
0
100
AcDbCircle
 10
522.1375
 20
-22.075
 40
0.5
100
AcDbArc
 50
90.0
 51
180.0
  0
ARC
  5
5F8
330
1F
100
AcDbEntity
  8
0
 67
0
100
AcDbCircle
 10
535.1375
 20
-22.075
 40
0.5
100
AcDbArc
 50
0.0
 51
90.0
  0
ARC
  5
5F9
330
1F
100
AcDbEntity
  8
0
 67
0
100
AcDbCircle
 10
522.1375
 20
-35.075
 40
0.5
100
AcDbArc
 50
180.0
 51
270.0
  0
ARC
  5
5FA
330
1F
100
AcDbEntity
  8
0
 67
0
100
AcDbCircle
 10
535.1375
 20
-35.075
 40
0.5
100
AcDbArc
 50
270.0
 51
360.0
  0
LINE
  5
5FB
330
1F
100
AcDbEntity
  8
0
 67
0
100
AcDbLine
 10
150.6625
 20
-26.3375
 11
163.6625
 21
-26.3375
  0
LINE
  5
5FC
330
1F
100
AcDbEntity
  8
0
 67
0
100
AcDbLine
 10
150.6625
 20
-40.3375
 11
163.6625
 21
-40.3375
  0
LINE
  5
5FD
330
1F
100
AcDbEntity
  8
0
 67
0
100
AcDbLine
 10
150.1625
 20
-26.8375
 11
150.1625
 21
-39.8375
  0
LINE
  5
5FE
330
1F
100
AcDbEntity
  8
0
 67
0
100
AcDbLine
 10
164.1625
 20
-26.8375
 11
164.1625
 21
-39.8375
  0
ARC
  5
5FF
330
1F
100
AcDbEntity
  8
0
 67
0
100
AcDbCircle
 10
150.6625
 20
-26.8375
 40
0.5
100
AcDbArc
 50
90.0
 51
180.0
  0
ARC
  5
600
330
1F
100
AcDbEntity
  8
0
 67
0
100
AcDbCircle
 10
163.6625
 20
-26.8375
 40
0.5
100
AcDbArc
 50
0.0
 51
90.0
  0
ARC
  5
601
330
1F
100
AcDbEntity
  8
0
 67
0
100
AcDbCircle
 10
150.6625
 20
-39.8375
 40
0.5
100
AcDbArc
 50
180.0
 51
270.0
  0
ARC
  5
602
330
1F
100
AcDbEntity
  8
0
 67
0
100
AcDbCircle
 10
163.6625
 20
-39.8375
 40
0.5
100
AcDbArc
 50
270.0
 51
360.0
  0
LINE
  5
603
330
1F
100
AcDbEntity
  8
0
 67
0
100
AcDbLine
 10
150.6625
 20
-45.3875
 11
163.6625
 21
-45.3875
  0
LINE
  5
604
330
1F
100
AcDbEntity
  8
0
 67
0
100
AcDbLine
 10
150.6625
 20
-59.3875
 11
163.6625
 21
-59.3875
  0
LINE
  5
605
330
1F
100
AcDbEntity
  8
0
 67
0
100
AcDbLine
 10
150.1625
 20
-45.8875
 11
150.1625
 21
-58.8875
  0
LINE
  5
606
330
1F
100
AcDbEntity
  8
0
 67
0
100
AcDbLine
 10
164.1625
 20
-45.8875
 11
164.1625
 21
-58.8875
  0
ARC
  5
607
330
1F
100
AcDbEntity
  8
0
 67
0
100
AcDbCircle
 10
150.6625
 20
-45.8875
 40
0.5
100
AcDbArc
 50
90.0
 51
180.0
  0
ARC
  5
608
330
1F
100
AcDbEntity
  8
0
 67
0
100
AcDbCircle
 10
163.6625
 20
-45.8875
 40
0.5
100
AcDbArc
 50
0.0
 51
90.0
  0
ARC
  5
609
330
1F
100
AcDbEntity
  8
0
 67
0
100
AcDbCircle
 10
150.6625
 20
-58.8875
 40
0.5
100
AcDbArc
 50
180.0
 51
270.0
  0
ARC
  5
60A
330
1F
100
AcDbEntity
  8
0
 67
0
100
AcDbCircle
 10
163.6625
 20
-58.8875
 40
0.5
100
AcDbArc
 50
270.0
 51
360.0
  0
LINE
  5
60B
330
1F
100
AcDbEntity
  8
0
 67
0
100
AcDbLine
 10
174.475
 20
-45.3875
 11
187.475
 21
-45.3875
  0
LINE
  5
60C
330
1F
100
AcDbEntity
  8
0
 67
0
100
AcDbLine
 10
174.475
 20
-59.3875
 11
187.475
 21
-59.3875
  0
LINE
  5
60D
330
1F
100
AcDbEntity
  8
0
 67
0
100
AcDbLine
 10
173.975
 20
-45.8875
 11
173.975
 21
-58.8875
  0
LINE
  5
60E
330
1F
100
AcDbEntity
  8
0
 67
0
100
AcDbLine
 10
187.975
 20
-45.8875
 11
187.975
 21
-58.8875
  0
ARC
  5
60F
330
1F
100
AcDbEntity
  8
0
 67
0
100
AcDbCircle
 10
174.475
 20
-45.8875
 40
0.5
100
AcDbArc
 50
90.0
 51
180.0
  0
ARC
  5
610
330
1F
100
AcDbEntity
  8
0
 67
0
100
AcDbCircle
 10
187.475
 20
-45.8875
 40
0.5
100
AcDbArc
 50
0.0
 51
90.0
  0
ARC
  5
611
330
1F
100
AcDbEntity
  8
0
 67
0
100
AcDbCircle
 10
174.475
 20
-58.8875
 40
0.5
100
AcDbArc
 50
180.0
 51
270.0
  0
ARC
  5
612
330
1F
100
AcDbEntity
  8
0
 67
0
100
AcDbCircle
 10
187.475
 20
-58.8875
 40
0.5
100
AcDbArc
 50
270.0
 51
360.0
  0
LINE
  5
613
330
1F
100
AcDbEntity
  8
0
 67
0
100
AcDbLine
 10
193.525
 20
-45.3875
 11
206.525
 21
-45.3875
  0
LINE
  5
614
330
1F
100
AcDbEntity
  8
0
 67
0
100
AcDbLine
 10
193.525
 20
-59.3875
 11
206.525
 21
-59.3875
  0
LINE
  5
615
330
1F
100
AcDbEntity
  8
0
 67
0
100
AcDbLine
 10
193.025
 20
-45.8875
 11
193.025
 21
-58.8875
  0
LINE
  5
616
330
1F
100
AcDbEntity
  8
0
 67
0
100
AcDbLine
 10
207.025
 20
-45.8875
 11
207.025
 21
-58.8875
  0
ARC
  5
617
330
1F
100
AcDbEntity
  8
0
 67
0
100
AcDbCircle
 10
193.525
 20
-45.8875
 40
0.5
100
AcDbArc
 50
90.0
 51
180.0
  0
ARC
  5
618
330
1F
100
AcDbEntity
  8
0
 67
0
100
AcDbCircle
 10
206.525
 20
-45.8875
 40
0.5
100
AcDbArc
 50
0.0
 51
90.0
  0
ARC
  5
619
330
1F
100
AcDbEntity
  8
0
 67
0
100
AcDbCircle
 10
193.525
 20
-58.8875
 40
0.5
100
AcDbArc
 50
180.0
 51
270.0
  0
ARC
  5
61A
330
1F
100
AcDbEntity
  8
0
 67
0
100
AcDbCircle
 10
206.525
 20
-58.8875
 40
0.5
100
AcDbArc
 50
270.0
 51
360.0
  0
LINE
  5
61B
330
1F
100
AcDbEntity
  8
0
 67
0
100
AcDbLine
 10
212.575
 20
-45.3875
 11
225.575
 21
-45.3875
  0
LINE
  5
61C
330
1F
100
AcDbEntity
  8
0
 67
0
100
AcDbLine
 10
212.575
 20
-59.3875
 11
225.575
 21
-59.3875
  0
LINE
  5
61D
330
1F
100
AcDbEntity
  8
0
 67
0
100
AcDbLine
 10
212.075
 20
-45.8875
 11
212.075
 21
-58.8875
  0
LINE
  5
61E
330
1F
100
AcDbEntity
  8
0
 67
0
100
AcDbLine
 10
226.075
 20
-45.8875
 11
226.075
 21
-58.8875
  0
ARC
  5
61F
330
1F
100
AcDbEntity
  8
0
 67
0
100
AcDbCircle
 10
212.575
 20
-45.8875
 40
0.5
100
AcDbArc
 50
90.0
 51
180.0
  0
ARC
  5
620
330
1F
100
AcDbEntity
  8
0
 67
0
100
AcDbCircle
 10
225.575
 20
-45.8875
 40
0.5
100
AcDbArc
 50
0.0
 51
90.0
  0
ARC
  5
621
330
1F
100
AcDbEntity
  8
0
 67
0
100
AcDbCircle
 10
212.575
 20
-58.8875
 40
0.5
100
AcDbArc
 50
180.0
 51
270.0
  0
ARC
  5
622
330
1F
100
AcDbEntity
  8
0
 67
0
100
AcDbCircle
 10
225.575
 20
-58.8875
 40
0.5
100
AcDbArc
 50
270.0
 51
360.0
  0
LINE
  5
623
330
1F
100
AcDbEntity
  8
0
 67
0
100
AcDbLine
 10
231.625
 20
-45.3875
 11
244.625
 21
-45.3875
  0
LINE
  5
624
330
1F
100
AcDbEntity
  8
0
 67
0
100
AcDbLine
 10
231.625
 20
-59.3875
 11
244.625
 21
-59.3875
  0
LINE
  5
625
330
1F
100
AcDbEntity
  8
0
 67
0
100
AcDbLine
 10
231.125
 20
-45.8875
 11
231.125
 21
-58.8875
  0
LINE
  5
626
330
1F
100
AcDbEntity
  8
0
 67
0
100
AcDbLine
 10
245.125
 20
-45.8875
 11
245.125
 21
-58.8875
  0
ARC
  5
627
330
1F
100
AcDbEntity
  8
0
 67
0
100
AcDbCircle
 10
231.625
 20
-45.8875
 40
0.5
100
AcDbArc
 50
90.0
 51
180.0
  0
ARC
  5
628
330
1F
100
AcDbEntity
  8
0
 67
0
100
AcDbCircle
 10
244.625
 20
-45.8875
 40
0.5
100
AcDbArc
 50
0.0
 51
90.0
  0
ARC
  5
629
330
1F
100
AcDbEntity
  8
0
 67
0
100
AcDbCircle
 10
231.625
 20
-58.8875
 40
0.5
100
AcDbArc
 50
180.0
 51
270.0
  0
ARC
  5
62A
330
1F
100
AcDbEntity
  8
0
 67
0
100
AcDbCircle
 10
244.625
 20
-58.8875
 40
0.5
100
AcDbArc
 50
270.0
 51
360.0
  0
LINE
  5
62B
330
1F
100
AcDbEntity
  8
0
 67
0
100
AcDbLine
 10
250.675
 20
-45.3875
 11
263.675
 21
-45.3875
  0
LINE
  5
62C
330
1F
100
AcDbEntity
  8
0
 67
0
100
AcDbLine
 10
250.675
 20
-59.3875
 11
263.675
 21
-59.3875
  0
LINE
  5
62D
330
1F
100
AcDbEntity
  8
0
 67
0
100
AcDbLine
 10
250.175
 20
-45.8875
 11
250.175
 21
-58.8875
  0
LINE
  5
62E
330
1F
100
AcDbEntity
  8
0
 67
0
100
AcDbLine
 10
264.175
 20
-45.8875
 11
264.175
 21
-58.8875
  0
ARC
  5
62F
330
1F
100
AcDbEntity
  8
0
 67
0
100
AcDbCircle
 10
250.675
 20
-45.8875
 40
0.5
100
AcDbArc
 50
90.0
 51
180.0
  0
ARC
  5
630
330
1F
100
AcDbEntity
  8
0
 67
0
100
AcDbCircle
 10
263.675
 20
-45.8875
 40
0.5
100
AcDbArc
 50
0.0
 51
90.0
  0
ARC
  5
631
330
1F
100
AcDbEntity
  8
0
 67
0
100
AcDbCircle
 10
250.675
 20
-58.8875
 40
0.5
100
AcDbArc
 50
180.0
 51
270.0
  0
ARC
  5
632
330
1F
100
AcDbEntity
  8
0
 67
0
100
AcDbCircle
 10
263.675
 20
-58.8875
 40
0.5
100
AcDbArc
 50
270.0
 51
360.0
  0
LINE
  5
633
330
1F
100
AcDbEntity
  8
0
 67
0
100
AcDbLine
 10
269.725
 20
-45.3875
 11
282.725
 21
-45.3875
  0
LINE
  5
634
330
1F
100
AcDbEntity
  8
0
 67
0
100
AcDbLine
 10
269.725
 20
-59.3875
 11
282.725
 21
-59.3875
  0
LINE
  5
635
330
1F
100
AcDbEntity
  8
0
 67
0
100
AcDbLine
 10
269.225
 20
-45.8875
 11
269.225
 21
-58.8875
  0
LINE
  5
636
330
1F
100
AcDbEntity
  8
0
 67
0
100
AcDbLine
 10
283.225
 20
-45.8875
 11
283.225
 21
-58.8875
  0
ARC
  5
637
330
1F
100
AcDbEntity
  8
0
 67
0
100
AcDbCircle
 10
269.725
 20
-45.8875
 40
0.5
100
AcDbArc
 50
90.0
 51
180.0
  0
ARC
  5
638
330
1F
100
AcDbEntity
  8
0
 67
0
100
AcDbCircle
 10
282.725
 20
-45.8875
 40
0.5
100
AcDbArc
 50
0.0
 51
90.0
  0
ARC
  5
639
330
1F
100
AcDbEntity
  8
0
 67
0
100
AcDbCircle
 10
269.725
 20
-58.8875
 40
0.5
100
AcDbArc
 50
180.0
 51
270.0
  0
ARC
  5
63A
330
1F
100
AcDbEntity
  8
0
 67
0
100
AcDbCircle
 10
282.725
 20
-58.8875
 40
0.5
100
AcDbArc
 50
270.0
 51
360.0
  0
LINE
  5
63B
330
1F
100
AcDbEntity
  8
0
 67
0
100
AcDbLine
 10
288.775
 20
-45.3875
 11
301.775
 21
-45.3875
  0
LINE
  5
63C
330
1F
100
AcDbEntity
  8
0
 67
0
100
AcDbLine
 10
288.775
 20
-59.3875
 11
301.775
 21
-59.3875
  0
LINE
  5
63D
330
1F
100
AcDbEntity
  8
0
 67
0
100
AcDbLine
 10
288.275
 20
-45.8875
 11
288.275
 21
-58.8875
  0
LINE
  5
63E
330
1F
100
AcDbEntity
  8
0
 67
0
100
AcDbLine
 10
302.275
 20
-45.8875
 11
302.275
 21
-58.8875
  0
ARC
  5
63F
330
1F
100
AcDbEntity
  8
0
 67
0
100
AcDbCircle
 10
288.775
 20
-45.8875
 40
0.5
100
AcDbArc
 50
90.0
 51
180.0
  0
ARC
  5
640
330
1F
100
AcDbEntity
  8
0
 67
0
100
AcDbCircle
 10
301.775
 20
-45.8875
 40
0.5
100
AcDbArc
 50
0.0
 51
90.0
  0
ARC
  5
641
330
1F
100
AcDbEntity
  8
0
 67
0
100
AcDbCircle
 10
288.775
 20
-58.8875
 40
0.5
100
AcDbArc
 50
180.0
 51
270.0
  0
ARC
  5
642
330
1F
100
AcDbEntity
  8
0
 67
0
100
AcDbCircle
 10
301.775
 20
-58.8875
 40
0.5
100
AcDbArc
 50
270.0
 51
360.0
  0
LINE
  5
643
330
1F
100
AcDbEntity
  8
0
 67
0
100
AcDbLine
 10
307.825
 20
-45.3875
 11
320.825
 21
-45.3875
  0
LINE
  5
644
330
1F
100
AcDbEntity
  8
0
 67
0
100
AcDbLine
 10
307.825
 20
-59.3875
 11
320.825
 21
-59.3875
  0
LINE
  5
645
330
1F
100
AcDbEntity
  8
0
 67
0
100
AcDbLine
 10
307.325
 20
-45.8875
 11
307.325
 21
-58.8875
  0
LINE
  5
646
330
1F
100
AcDbEntity
  8
0
 67
0
100
AcDbLine
 10
321.325
 20
-45.8875
 11
321.325
 21
-58.8875
  0
ARC
  5
647
330
1F
100
AcDbEntity
  8
0
 67
0
100
AcDbCircle
 10
307.825
 20
-45.8875
 40
0.5
100
AcDbArc
 50
90.0
 51
180.0
  0
ARC
  5
648
330
1F
100
AcDbEntity
  8
0
 67
0
100
AcDbCircle
 10
320.825
 20
-45.8875
 40
0.5
100
AcDbArc
 50
0.0
 51
90.0
  0
ARC
  5
649
330
1F
100
AcDbEntity
  8
0
 67
0
100
AcDbCircle
 10
307.825
 20
-58.8875
 40
0.5
100
AcDbArc
 50
180.0
 51
270.0
  0
ARC
  5
64A
330
1F
100
AcDbEntity
  8
0
 67
0
100
AcDbCircle
 10
320.825
 20
-58.8875
 40
0.5
100
AcDbArc
 50
270.0
 51
360.0
  0
LINE
  5
64B
330
1F
100
AcDbEntity
  8
0
 67
0
100
AcDbLine
 10
326.875
 20
-45.3875
 11
339.875
 21
-45.3875
  0
LINE
  5
64C
330
1F
100
AcDbEntity
  8
0
 67
0
100
AcDbLine
 10
326.875
 20
-59.3875
 11
339.875
 21
-59.3875
  0
LINE
  5
64D
330
1F
100
AcDbEntity
  8
0
 67
0
100
AcDbLine
 10
326.375
 20
-45.8875
 11
326.375
 21
-58.8875
  0
LINE
  5
64E
330
1F
100
AcDbEntity
  8
0
 67
0
100
AcDbLine
 10
340.375
 20
-45.8875
 11
340.375
 21
-58.8875
  0
ARC
  5
64F
330
1F
100
AcDbEntity
  8
0
 67
0
100
AcDbCircle
 10
326.875
 20
-45.8875
 40
0.5
100
AcDbArc
 50
90.0
 51
180.0
  0
ARC
  5
650
330
1F
100
AcDbEntity
  8
0
 67
0
100
AcDbCircle
 10
339.875
 20
-45.8875
 40
0.5
100
AcDbArc
 50
0.0
 51
90.0
  0
ARC
  5
651
330
1F
100
AcDbEntity
  8
0
 67
0
100
AcDbCircle
 10
326.875
 20
-58.8875
 40
0.5
100
AcDbArc
 50
180.0
 51
270.0
  0
ARC
  5
652
330
1F
100
AcDbEntity
  8
0
 67
0
100
AcDbCircle
 10
339.875
 20
-58.8875
 40
0.5
100
AcDbArc
 50
270.0
 51
360.0
  0
LINE
  5
653
330
1F
100
AcDbEntity
  8
0
 67
0
100
AcDbLine
 10
345.925
 20
-45.3875
 11
358.925
 21
-45.3875
  0
LINE
  5
654
330
1F
100
AcDbEntity
  8
0
 67
0
100
AcDbLine
 10
345.925
 20
-59.3875
 11
358.925
 21
-59.3875
  0
LINE
  5
655
330
1F
100
AcDbEntity
  8
0
 67
0
100
AcDbLine
 10
345.425
 20
-45.8875
 11
345.425
 21
-58.8875
  0
LINE
  5
656
330
1F
100
AcDbEntity
  8
0
 67
0
100
AcDbLine
 10
359.425
 20
-45.8875
 11
359.425
 21
-58.8875
  0
ARC
  5
657
330
1F
100
AcDbEntity
  8
0
 67
0
100
AcDbCircle
 10
345.925
 20
-45.8875
 40
0.5
100
AcDbArc
 50
90.0
 51
180.0
  0
ARC
  5
658
330
1F
100
AcDbEntity
  8
0
 67
0
100
AcDbCircle
 10
358.925
 20
-45.8875
 40
0.5
100
AcDbArc
 50
0.0
 51
90.0
  0
ARC
  5
659
330
1F
100
AcDbEntity
  8
0
 67
0
100
AcDbCircle
 10
345.925
 20
-58.8875
 40
0.5
100
AcDbArc
 50
180.0
 51
270.0
  0
ARC
  5
65A
330
1F
100
AcDbEntity
  8
0
 67
0
100
AcDbCircle
 10
358.925
 20
-58.8875
 40
0.5
100
AcDbArc
 50
270.0
 51
360.0
  0
LINE
  5
65B
330
1F
100
AcDbEntity
  8
0
 67
0
100
AcDbLine
 10
364.975
 20
-45.3875
 11
377.975
 21
-45.3875
  0
LINE
  5
65C
330
1F
100
AcDbEntity
  8
0
 67
0
100
AcDbLine
 10
364.975
 20
-59.3875
 11
377.975
 21
-59.3875
  0
LINE
  5
65D
330
1F
100
AcDbEntity
  8
0
 67
0
100
AcDbLine
 10
364.475
 20
-45.8875
 11
364.475
 21
-58.8875
  0
LINE
  5
65E
330
1F
100
AcDbEntity
  8
0
 67
0
100
AcDbLine
 10
378.475
 20
-45.8875
 11
378.475
 21
-58.8875
  0
ARC
  5
65F
330
1F
100
AcDbEntity
  8
0
 67
0
100
AcDbCircle
 10
364.975
 20
-45.8875
 40
0.5
100
AcDbArc
 50
90.0
 51
180.0
  0
ARC
  5
660
330
1F
100
AcDbEntity
  8
0
 67
0
100
AcDbCircle
 10
377.975
 20
-45.8875
 40
0.5
100
AcDbArc
 50
0.0
 51
90.0
  0
ARC
  5
661
330
1F
100
AcDbEntity
  8
0
 67
0
100
AcDbCircle
 10
364.975
 20
-58.8875
 40
0.5
100
AcDbArc
 50
180.0
 51
270.0
  0
ARC
  5
662
330
1F
100
AcDbEntity
  8
0
 67
0
100
AcDbCircle
 10
377.975
 20
-58.8875
 40
0.5
100
AcDbArc
 50
270.0
 51
360.0
  0
LINE
  5
663
330
1F
100
AcDbEntity
  8
0
 67
0
100
AcDbLine
 10
384.025
 20
-45.3875
 11
397.025
 21
-45.3875
  0
LINE
  5
664
330
1F
100
AcDbEntity
  8
0
 67
0
100
AcDbLine
 10
384.025
 20
-59.3875
 11
397.025
 21
-59.3875
  0
LINE
  5
665
330
1F
100
AcDbEntity
  8
0
 67
0
100
AcDbLine
 10
383.525
 20
-45.8875
 11
383.525
 21
-58.8875
  0
LINE
  5
666
330
1F
100
AcDbEntity
  8
0
 67
0
100
AcDbLine
 10
397.525
 20
-45.8875
 11
397.525
 21
-58.8875
  0
ARC
  5
667
330
1F
100
AcDbEntity
  8
0
 67
0
100
AcDbCircle
 10
384.025
 20
-45.8875
 40
0.5
100
AcDbArc
 50
90.0
 51
180.0
  0
ARC
  5
668
330
1F
100
AcDbEntity
  8
0
 67
0
100
AcDbCircle
 10
397.025
 20
-45.8875
 40
0.5
100
AcDbArc
 50
0.0
 51
90.0
  0
ARC
  5
669
330
1F
100
AcDbEntity
  8
0
 67
0
100
AcDbCircle
 10
384.025
 20
-58.8875
 40
0.5
100
AcDbArc
 50
180.0
 51
270.0
  0
ARC
  5
66A
330
1F
100
AcDbEntity
  8
0
 67
0
100
AcDbCircle
 10
397.025
 20
-58.8875
 40
0.5
100
AcDbArc
 50
270.0
 51
360.0
  0
LINE
  5
66B
330
1F
100
AcDbEntity
  8
0
 67
0
100
AcDbLine
 10
403.075
 20
-45.3875
 11
416.075
 21
-45.3875
  0
LINE
  5
66C
330
1F
100
AcDbEntity
  8
0
 67
0
100
AcDbLine
 10
403.075
 20
-59.3875
 11
416.075
 21
-59.3875
  0
LINE
  5
66D
330
1F
100
AcDbEntity
  8
0
 67
0
100
AcDbLine
 10
402.575
 20
-45.8875
 11
402.575
 21
-58.8875
  0
LINE
  5
66E
330
1F
100
AcDbEntity
  8
0
 67
0
100
AcDbLine
 10
416.575
 20
-45.8875
 11
416.575
 21
-58.8875
  0
ARC
  5
66F
330
1F
100
AcDbEntity
  8
0
 67
0
100
AcDbCircle
 10
403.075
 20
-45.8875
 40
0.5
100
AcDbArc
 50
90.0
 51
180.0
  0
ARC
  5
670
330
1F
100
AcDbEntity
  8
0
 67
0
100
AcDbCircle
 10
416.075
 20
-45.8875
 40
0.5
100
AcDbArc
 50
0.0
 51
90.0
  0
ARC
  5
671
330
1F
100
AcDbEntity
  8
0
 67
0
100
AcDbCircle
 10
403.075
 20
-58.8875
 40
0.5
100
AcDbArc
 50
180.0
 51
270.0
  0
ARC
  5
672
330
1F
100
AcDbEntity
  8
0
 67
0
100
AcDbCircle
 10
416.075
 20
-58.8875
 40
0.5
100
AcDbArc
 50
270.0
 51
360.0
  0
LINE
  5
673
330
1F
100
AcDbEntity
  8
0
 67
0
100
AcDbLine
 10
431.65
 20
-45.3875
 11
444.65
 21
-45.3875
  0
LINE
  5
674
330
1F
100
AcDbEntity
  8
0
 67
0
100
AcDbLine
 10
431.65
 20
-59.3875
 11
444.65
 21
-59.3875
  0
LINE
  5
675
330
1F
100
AcDbEntity
  8
0
 67
0
100
AcDbLine
 10
431.15
 20
-45.8875
 11
431.15
 21
-58.8875
  0
LINE
  5
676
330
1F
100
AcDbEntity
  8
0
 67
0
100
AcDbLine
 10
445.15
 20
-45.8875
 11
445.15
 21
-58.8875
  0
ARC
  5
677
330
1F
100
AcDbEntity
  8
0
 67
0
100
AcDbCircle
 10
431.65
 20
-45.8875
 40
0.5
100
AcDbArc
 50
90.0
 51
180.0
  0
ARC
  5
678
330
1F
100
AcDbEntity
  8
0
 67
0
100
AcDbCircle
 10
444.65
 20
-45.8875
 40
0.5
100
AcDbArc
 50
0.0
 51
90.0
  0
ARC
  5
679
330
1F
100
AcDbEntity
  8
0
 67
0
100
AcDbCircle
 10
431.65
 20
-58.8875
 40
0.5
100
AcDbArc
 50
180.0
 51
270.0
  0
ARC
  5
67A
330
1F
100
AcDbEntity
  8
0
 67
0
100
AcDbCircle
 10
444.65
 20
-58.8875
 40
0.5
100
AcDbArc
 50
270.0
 51
360.0
  0
LINE
  5
67B
330
1F
100
AcDbEntity
  8
0
 67
0
100
AcDbLine
 10
447.213
 20
-46.3875
 11
452.963
 21
-46.3875
  0
LINE
  5
67C
330
1F
100
AcDbEntity
  8
0
 67
0
100
AcDbLine
 10
447.213
 20
-60.3875
 11
452.963
 21
-60.3875
  0
LINE
  5
67D
330
1F
100
AcDbEntity
  8
0
 67
0
100
AcDbLine
 10
446.713
 20
-46.8875
 11
446.713
 21
-59.8875
  0
LINE
  5
67E
330
1F
100
AcDbEntity
  8
0
 67
0
100
AcDbLine
 10
453.463
 20
-46.8875
 11
453.463
 21
-59.8875
  0
ARC
  5
67F
330
1F
100
AcDbEntity
  8
0
 67
0
100
AcDbCircle
 10
447.213
 20
-46.8875
 40
0.5
100
AcDbArc
 50
90.0
 51
180.0
  0
ARC
  5
680
330
1F
100
AcDbEntity
  8
0
 67
0
100
AcDbCircle
 10
452.963
 20
-46.8875
 40
0.5
100
AcDbArc
 50
0.0
 51
90.0
  0
ARC
  5
681
330
1F
100
AcDbEntity
  8
0
 67
0
100
AcDbCircle
 10
447.213
 20
-59.8875
 40
0.5
100
AcDbArc
 50
180.0
 51
270.0
  0
ARC
  5
682
330
1F
100
AcDbEntity
  8
0
 67
0
100
AcDbCircle
 10
452.963
 20
-59.8875
 40
0.5
100
AcDbArc
 50
270.0
 51
360.0
  0
LINE
  5
683
330
1F
100
AcDbEntity
  8
0
 67
0
100
AcDbLine
 10
423.337
 20
-46.3875
 11
429.087
 21
-46.3875
  0
LINE
  5
684
330
1F
100
AcDbEntity
  8
0
 67
0
100
AcDbLine
 10
423.337
 20
-60.3875
 11
429.087
 21
-60.3875
  0
LINE
  5
685
330
1F
100
AcDbEntity
  8
0
 67
0
100
AcDbLine
 10
422.837
 20
-46.8875
 11
422.837
 21
-59.8875
  0
LINE
  5
686
330
1F
100
AcDbEntity
  8
0
 67
0
100
AcDbLine
 10
429.587
 20
-46.8875
 11
429.587
 21
-59.8875
  0
ARC
  5
687
330
1F
100
AcDbEntity
  8
0
 67
0
100
AcDbCircle
 10
423.337
 20
-46.8875
 40
0.5
100
AcDbArc
 50
90.0
 51
180.0
  0
ARC
  5
688
330
1F
100
AcDbEntity
  8
0
 67
0
100
AcDbCircle
 10
429.087
 20
-46.8875
 40
0.5
100
AcDbArc
 50
0.0
 51
90.0
  0
ARC
  5
689
330
1F
100
AcDbEntity
  8
0
 67
0
100
AcDbCircle
 10
423.337
 20
-59.8875
 40
0.5
100
AcDbArc
 50
180.0
 51
270.0
  0
ARC
  5
68A
330
1F
100
AcDbEntity
  8
0
 67
0
100
AcDbCircle
 10
429.087
 20
-59.8875
 40
0.5
100
AcDbArc
 50
270.0
 51
360.0
  0
LINE
  5
68B
330
1F
100
AcDbEntity
  8
0
 67
0
100
AcDbLine
 10
464.9875
 20
-45.3875
 11
477.9875
 21
-45.3875
  0
LINE
  5
68C
330
1F
100
AcDbEntity
  8
0
 67
0
100
AcDbLine
 10
464.9875
 20
-59.3875
 11
477.9875
 21
-59.3875
  0
LINE
  5
68D
330
1F
100
AcDbEntity
  8
0
 67
0
100
AcDbLine
 10
464.4875
 20
-45.8875
 11
464.4875
 21
-58.8875
  0
LINE
  5
68E
330
1F
100
AcDbEntity
  8
0
 67
0
100
AcDbLine
 10
478.4875
 20
-45.8875
 11
478.4875
 21
-58.8875
  0
ARC
  5
68F
330
1F
100
AcDbEntity
  8
0
 67
0
100
AcDbCircle
 10
464.9875
 20
-45.8875
 40
0.5
100
AcDbArc
 50
90.0
 51
180.0
  0
ARC
  5
690
330
1F
100
AcDbEntity
  8
0
 67
0
100
AcDbCircle
 10
477.9875
 20
-45.8875
 40
0.5
100
AcDbArc
 50
0.0
 51
90.0
  0
ARC
  5
691
330
1F
100
AcDbEntity
  8
0
 67
0
100
AcDbCircle
 10
464.9875
 20
-58.8875
 40
0.5
100
AcDbArc
 50
180.0
 51
270.0
  0
ARC
  5
692
330
1F
100
AcDbEntity
  8
0
 67
0
100
AcDbCircle
 10
477.9875
 20
-58.8875
 40
0.5
100
AcDbArc
 50
270.0
 51
360.0
  0
LINE
  5
693
330
1F
100
AcDbEntity
  8
0
 67
0
100
AcDbLine
 10
484.0375
 20
-45.3875
 11
497.0375
 21
-45.3875
  0
LINE
  5
694
330
1F
100
AcDbEntity
  8
0
 67
0
100
AcDbLine
 10
484.0375
 20
-59.3875
 11
497.0375
 21
-59.3875
  0
LINE
  5
695
330
1F
100
AcDbEntity
  8
0
 67
0
100
AcDbLine
 10
483.5375
 20
-45.8875
 11
483.5375
 21
-58.8875
  0
LINE
  5
696
330
1F
100
AcDbEntity
  8
0
 67
0
100
AcDbLine
 10
497.5375
 20
-45.8875
 11
497.5375
 21
-58.8875
  0
ARC
  5
697
330
1F
100
AcDbEntity
  8
0
 67
0
100
AcDbCircle
 10
484.0375
 20
-45.8875
 40
0.5
100
AcDbArc
 50
90.0
 51
180.0
  0
ARC
  5
698
330
1F
100
AcDbEntity
  8
0
 67
0
100
AcDbCircle
 10
497.0375
 20
-45.8875
 40
0.5
100
AcDbArc
 50
0.0
 51
90.0
  0
ARC
  5
699
330
1F
100
AcDbEntity
  8
0
 67
0
100
AcDbCircle
 10
484.0375
 20
-58.8875
 40
0.5
100
AcDbArc
 50
180.0
 51
270.0
  0
ARC
  5
69A
330
1F
100
AcDbEntity
  8
0
 67
0
100
AcDbCircle
 10
497.0375
 20
-58.8875
 40
0.5
100
AcDbArc
 50
270.0
 51
360.0
  0
LINE
  5
69B
330
1F
100
AcDbEntity
  8
0
 67
0
100
AcDbLine
 10
503.0875
 20
-45.3875
 11
516.0875
 21
-45.3875
  0
LINE
  5
69C
330
1F
100
AcDbEntity
  8
0
 67
0
100
AcDbLine
 10
503.0875
 20
-59.3875
 11
516.0875
 21
-59.3875
  0
LINE
  5
69D
330
1F
100
AcDbEntity
  8
0
 67
0
100
AcDbLine
 10
502.5875
 20
-45.8875
 11
502.5875
 21
-58.8875
  0
LINE
  5
69E
330
1F
100
AcDbEntity
  8
0
 67
0
100
AcDbLine
 10
516.5875
 20
-45.8875
 11
516.5875
 21
-58.8875
  0
ARC
  5
69F
330
1F
100
AcDbEntity
  8
0
 67
0
100
AcDbCircle
 10
503.0875
 20
-45.8875
 40
0.5
100
AcDbArc
 50
90.0
 51
180.0
  0
ARC
  5
6A0
330
1F
100
AcDbEntity
  8
0
 67
0
100
AcDbCircle
 10
516.0875
 20
-45.8875
 40
0.5
100
AcDbArc
 50
0.0
 51
90.0
  0
ARC
  5
6A1
330
1F
100
AcDbEntity
  8
0
 67
0
100
AcDbCircle
 10
503.0875
 20
-58.8875
 40
0.5
100
AcDbArc
 50
180.0
 51
270.0
  0
ARC
  5
6A2
330
1F
100
AcDbEntity
  8
0
 67
0
100
AcDbCircle
 10
516.0875
 20
-58.8875
 40
0.5
100
AcDbArc
 50
270.0
 51
360.0
  0
LINE
  5
6A3
330
1F
100
AcDbEntity
  8
0
 67
0
100
AcDbLine
 10
522.1375
 20
-45.3875
 11
535.1375
 21
-45.3875
  0
LINE
  5
6A4
330
1F
100
AcDbEntity
  8
0
 67
0
100
AcDbLine
 10
522.1375
 20
-59.3875
 11
535.1375
 21
-59.3875
  0
LINE
  5
6A5
330
1F
100
AcDbEntity
  8
0
 67
0
100
AcDbLine
 10
521.6375
 20
-45.8875
 11
521.6375
 21
-58.8875
  0
LINE
  5
6A6
330
1F
100
AcDbEntity
  8
0
 67
0
100
AcDbLine
 10
535.6375
 20
-45.8875
 11
535.6375
 21
-58.8875
  0
ARC
  5
6A7
330
1F
100
AcDbEntity
  8
0
 67
0
100
AcDbCircle
 10
522.1375
 20
-45.8875
 40
0.5
100
AcDbArc
 50
90.0
 51
180.0
  0
ARC
  5
6A8
330
1F
100
AcDbEntity
  8
0
 67
0
100
AcDbCircle
 10
535.1375
 20
-45.8875
 40
0.5
100
AcDbArc
 50
0.0
 51
90.0
  0
ARC
  5
6A9
330
1F
100
AcDbEntity
  8
0
 67
0
100
AcDbCircle
 10
522.1375
 20
-58.8875
 40
0.5
100
AcDbArc
 50
180.0
 51
270.0
  0
ARC
  5
6AA
330
1F
100
AcDbEntity
  8
0
 67
0
100
AcDbCircle
 10
535.1375
 20
-58.8875
 40
0.5
100
AcDbArc
 50
270.0
 51
360.0
  0
LINE
  5
6AB
330
1F
100
AcDbEntity
  8
0
 67
0
100
AcDbLine
 10
179.2375
 20
-64.4375
 11
192.2375
 21
-64.4375
  0
LINE
  5
6AC
330
1F
100
AcDbEntity
  8
0
 67
0
100
AcDbLine
 10
179.2375
 20
-78.4375
 11
192.2375
 21
-78.4375
  0
LINE
  5
6AD
330
1F
100
AcDbEntity
  8
0
 67
0
100
AcDbLine
 10
178.7375
 20
-64.9375
 11
178.7375
 21
-77.9375
  0
LINE
  5
6AE
330
1F
100
AcDbEntity
  8
0
 67
0
100
AcDbLine
 10
192.7375
 20
-64.9375
 11
192.7375
 21
-77.9375
  0
ARC
  5
6AF
330
1F
100
AcDbEntity
  8
0
 67
0
100
AcDbCircle
 10
179.2375
 20
-64.9375
 40
0.5
100
AcDbArc
 50
90.0
 51
180.0
  0
ARC
  5
6B0
330
1F
100
AcDbEntity
  8
0
 67
0
100
AcDbCircle
 10
192.2375
 20
-64.9375
 40
0.5
100
AcDbArc
 50
0.0
 51
90.0
  0
ARC
  5
6B1
330
1F
100
AcDbEntity
  8
0
 67
0
100
AcDbCircle
 10
179.2375
 20
-77.9375
 40
0.5
100
AcDbArc
 50
180.0
 51
270.0
  0
ARC
  5
6B2
330
1F
100
AcDbEntity
  8
0
 67
0
100
AcDbCircle
 10
192.2375
 20
-77.9375
 40
0.5
100
AcDbArc
 50
270.0
 51
360.0
  0
LINE
  5
6B3
330
1F
100
AcDbEntity
  8
0
 67
0
100
AcDbLine
 10
203.05
 20
-64.4375
 11
216.05
 21
-64.4375
  0
LINE
  5
6B4
330
1F
100
AcDbEntity
  8
0
 67
0
100
AcDbLine
 10
203.05
 20
-78.4375
 11
216.05
 21
-78.4375
  0
LINE
  5
6B5
330
1F
100
AcDbEntity
  8
0
 67
0
100
AcDbLine
 10
202.55
 20
-64.9375
 11
202.55
 21
-77.9375
  0
LINE
  5
6B6
330
1F
100
AcDbEntity
  8
0
 67
0
100
AcDbLine
 10
216.55
 20
-64.9375
 11
216.55
 21
-77.9375
  0
ARC
  5
6B7
330
1F
100
AcDbEntity
  8
0
 67
0
100
AcDbCircle
 10
203.05
 20
-64.9375
 40
0.5
100
AcDbArc
 50
90.0
 51
180.0
  0
ARC
  5
6B8
330
1F
100
AcDbEntity
  8
0
 67
0
100
AcDbCircle
 10
216.05
 20
-64.9375
 40
0.5
100
AcDbArc
 50
0.0
 51
90.0
  0
ARC
  5
6B9
330
1F
100
AcDbEntity
  8
0
 67
0
100
AcDbCircle
 10
203.05
 20
-77.9375
 40
0.5
100
AcDbArc
 50
180.0
 51
270.0
  0
ARC
  5
6BA
330
1F
100
AcDbEntity
  8
0
 67
0
100
AcDbCircle
 10
216.05
 20
-77.9375
 40
0.5
100
AcDbArc
 50
270.0
 51
360.0
  0
LINE
  5
6BB
330
1F
100
AcDbEntity
  8
0
 67
0
100
AcDbLine
 10
222.1
 20
-64.4375
 11
235.1
 21
-64.4375
  0
LINE
  5
6BC
330
1F
100
AcDbEntity
  8
0
 67
0
100
AcDbLine
 10
222.1
 20
-78.4375
 11
235.1
 21
-78.4375
  0
LINE
  5
6BD
330
1F
100
AcDbEntity
  8
0
 67
0
100
AcDbLine
 10
221.6
 20
-64.9375
 11
221.6
 21
-77.9375
  0
LINE
  5
6BE
330
1F
100
AcDbEntity
  8
0
 67
0
100
AcDbLine
 10
235.6
 20
-64.9375
 11
235.6
 21
-77.9375
  0
ARC
  5
6BF
330
1F
100
AcDbEntity
  8
0
 67
0
100
AcDbCircle
 10
222.1
 20
-64.9375
 40
0.5
100
AcDbArc
 50
90.0
 51
180.0
  0
ARC
  5
6C0
330
1F
100
AcDbEntity
  8
0
 67
0
100
AcDbCircle
 10
235.1
 20
-64.9375
 40
0.5
100
AcDbArc
 50
0.0
 51
90.0
  0
ARC
  5
6C1
330
1F
100
AcDbEntity
  8
0
 67
0
100
AcDbCircle
 10
222.1
 20
-77.9375
 40
0.5
100
AcDbArc
 50
180.0
 51
270.0
  0
ARC
  5
6C2
330
1F
100
AcDbEntity
  8
0
 67
0
100
AcDbCircle
 10
235.1
 20
-77.9375
 40
0.5
100
AcDbArc
 50
270.0
 51
360.0
  0
LINE
  5
6C3
330
1F
100
AcDbEntity
  8
0
 67
0
100
AcDbLine
 10
241.15
 20
-64.4375
 11
254.15
 21
-64.4375
  0
LINE
  5
6C4
330
1F
100
AcDbEntity
  8
0
 67
0
100
AcDbLine
 10
241.15
 20
-78.4375
 11
254.15
 21
-78.4375
  0
LINE
  5
6C5
330
1F
100
AcDbEntity
  8
0
 67
0
100
AcDbLine
 10
240.65
 20
-64.9375
 11
240.65
 21
-77.9375
  0
LINE
  5
6C6
330
1F
100
AcDbEntity
  8
0
 67
0
100
AcDbLine
 10
254.65
 20
-64.9375
 11
254.65
 21
-77.9375
  0
ARC
  5
6C7
330
1F
100
AcDbEntity
  8
0
 67
0
100
AcDbCircle
 10
241.15
 20
-64.9375
 40
0.5
100
AcDbArc
 50
90.0
 51
180.0
  0
ARC
  5
6C8
330
1F
100
AcDbEntity
  8
0
 67
0
100
AcDbCircle
 10
254.15
 20
-64.9375
 40
0.5
100
AcDbArc
 50
0.0
 51
90.0
  0
ARC
  5
6C9
330
1F
100
AcDbEntity
  8
0
 67
0
100
AcDbCircle
 10
241.15
 20
-77.9375
 40
0.5
100
AcDbArc
 50
180.0
 51
270.0
  0
ARC
  5
6CA
330
1F
100
AcDbEntity
  8
0
 67
0
100
AcDbCircle
 10
254.15
 20
-77.9375
 40
0.5
100
AcDbArc
 50
270.0
 51
360.0
  0
LINE
  5
6CB
330
1F
100
AcDbEntity
  8
0
 67
0
100
AcDbLine
 10
260.2
 20
-64.4375
 11
273.2
 21
-64.4375
  0
LINE
  5
6CC
330
1F
100
AcDbEntity
  8
0
 67
0
100
AcDbLine
 10
260.2
 20
-78.4375
 11
273.2
 21
-78.4375
  0
LINE
  5
6CD
330
1F
100
AcDbEntity
  8
0
 67
0
100
AcDbLine
 10
259.7
 20
-64.9375
 11
259.7
 21
-77.9375
  0
LINE
  5
6CE
330
1F
100
AcDbEntity
  8
0
 67
0
100
AcDbLine
 10
273.7
 20
-64.9375
 11
273.7
 21
-77.9375
  0
ARC
  5
6CF
330
1F
100
AcDbEntity
  8
0
 67
0
100
AcDbCircle
 10
260.2
 20
-64.9375
 40
0.5
100
AcDbArc
 50
90.0
 51
180.0
  0
ARC
  5
6D0
330
1F
100
AcDbEntity
  8
0
 67
0
100
AcDbCircle
 10
273.2
 20
-64.9375
 40
0.5
100
AcDbArc
 50
0.0
 51
90.0
  0
ARC
  5
6D1
330
1F
100
AcDbEntity
  8
0
 67
0
100
AcDbCircle
 10
260.2
 20
-77.9375
 40
0.5
100
AcDbArc
 50
180.0
 51
270.0
  0
ARC
  5
6D2
330
1F
100
AcDbEntity
  8
0
 67
0
100
AcDbCircle
 10
273.2
 20
-77.9375
 40
0.5
100
AcDbArc
 50
270.0
 51
360.0
  0
LINE
  5
6D3
330
1F
100
AcDbEntity
  8
0
 67
0
100
AcDbLine
 10
279.25
 20
-64.4375
 11
292.25
 21
-64.4375
  0
LINE
  5
6D4
330
1F
100
AcDbEntity
  8
0
 67
0
100
AcDbLine
 10
279.25
 20
-78.4375
 11
292.25
 21
-78.4375
  0
LINE
  5
6D5
330
1F
100
AcDbEntity
  8
0
 67
0
100
AcDbLine
 10
278.75
 20
-64.9375
 11
278.75
 21
-77.9375
  0
LINE
  5
6D6
330
1F
100
AcDbEntity
  8
0
 67
0
100
AcDbLine
 10
292.75
 20
-64.9375
 11
292.75
 21
-77.9375
  0
ARC
  5
6D7
330
1F
100
AcDbEntity
  8
0
 67
0
100
AcDbCircle
 10
279.25
 20
-64.9375
 40
0.5
100
AcDbArc
 50
90.0
 51
180.0
  0
ARC
  5
6D8
330
1F
100
AcDbEntity
  8
0
 67
0
100
AcDbCircle
 10
292.25
 20
-64.9375
 40
0.5
100
AcDbArc
 50
0.0
 51
90.0
  0
ARC
  5
6D9
330
1F
100
AcDbEntity
  8
0
 67
0
100
AcDbCircle
 10
279.25
 20
-77.9375
 40
0.5
100
AcDbArc
 50
180.0
 51
270.0
  0
ARC
  5
6DA
330
1F
100
AcDbEntity
  8
0
 67
0
100
AcDbCircle
 10
292.25
 20
-77.9375
 40
0.5
100
AcDbArc
 50
270.0
 51
360.0
  0
LINE
  5
6DB
330
1F
100
AcDbEntity
  8
0
 67
0
100
AcDbLine
 10
298.3
 20
-64.4375
 11
311.3
 21
-64.4375
  0
LINE
  5
6DC
330
1F
100
AcDbEntity
  8
0
 67
0
100
AcDbLine
 10
298.3
 20
-78.4375
 11
311.3
 21
-78.4375
  0
LINE
  5
6DD
330
1F
100
AcDbEntity
  8
0
 67
0
100
AcDbLine
 10
297.8
 20
-64.9375
 11
297.8
 21
-77.9375
  0
LINE
  5
6DE
330
1F
100
AcDbEntity
  8
0
 67
0
100
AcDbLine
 10
311.8
 20
-64.9375
 11
311.8
 21
-77.9375
  0
ARC
  5
6DF
330
1F
100
AcDbEntity
  8
0
 67
0
100
AcDbCircle
 10
298.3
 20
-64.9375
 40
0.5
100
AcDbArc
 50
90.0
 51
180.0
  0
ARC
  5
6E0
330
1F
100
AcDbEntity
  8
0
 67
0
100
AcDbCircle
 10
311.3
 20
-64.9375
 40
0.5
100
AcDbArc
 50
0.0
 51
90.0
  0
ARC
  5
6E1
330
1F
100
AcDbEntity
  8
0
 67
0
100
AcDbCircle
 10
298.3
 20
-77.9375
 40
0.5
100
AcDbArc
 50
180.0
 51
270.0
  0
ARC
  5
6E2
330
1F
100
AcDbEntity
  8
0
 67
0
100
AcDbCircle
 10
311.3
 20
-77.9375
 40
0.5
100
AcDbArc
 50
270.0
 51
360.0
  0
LINE
  5
6E3
330
1F
100
AcDbEntity
  8
0
 67
0
100
AcDbLine
 10
317.35
 20
-64.4375
 11
330.35
 21
-64.4375
  0
LINE
  5
6E4
330
1F
100
AcDbEntity
  8
0
 67
0
100
AcDbLine
 10
317.35
 20
-78.4375
 11
330.35
 21
-78.4375
  0
LINE
  5
6E5
330
1F
100
AcDbEntity
  8
0
 67
0
100
AcDbLine
 10
316.85
 20
-64.9375
 11
316.85
 21
-77.9375
  0
LINE
  5
6E6
330
1F
100
AcDbEntity
  8
0
 67
0
100
AcDbLine
 10
330.85
 20
-64.9375
 11
330.85
 21
-77.9375
  0
ARC
  5
6E7
330
1F
100
AcDbEntity
  8
0
 67
0
100
AcDbCircle
 10
317.35
 20
-64.9375
 40
0.5
100
AcDbArc
 50
90.0
 51
180.0
  0
ARC
  5
6E8
330
1F
100
AcDbEntity
  8
0
 67
0
100
AcDbCircle
 10
330.35
 20
-64.9375
 40
0.5
100
AcDbArc
 50
0.0
 51
90.0
  0
ARC
  5
6E9
330
1F
100
AcDbEntity
  8
0
 67
0
100
AcDbCircle
 10
317.35
 20
-77.9375
 40
0.5
100
AcDbArc
 50
180.0
 51
270.0
  0
ARC
  5
6EA
330
1F
100
AcDbEntity
  8
0
 67
0
100
AcDbCircle
 10
330.35
 20
-77.9375
 40
0.5
100
AcDbArc
 50
270.0
 51
360.0
  0
LINE
  5
6EB
330
1F
100
AcDbEntity
  8
0
 67
0
100
AcDbLine
 10
336.4
 20
-64.4375
 11
349.4
 21
-64.4375
  0
LINE
  5
6EC
330
1F
100
AcDbEntity
  8
0
 67
0
100
AcDbLine
 10
336.4
 20
-78.4375
 11
349.4
 21
-78.4375
  0
LINE
  5
6ED
330
1F
100
AcDbEntity
  8
0
 67
0
100
AcDbLine
 10
335.9
 20
-64.9375
 11
335.9
 21
-77.9375
  0
LINE
  5
6EE
330
1F
100
AcDbEntity
  8
0
 67
0
100
AcDbLine
 10
349.9
 20
-64.9375
 11
349.9
 21
-77.9375
  0
ARC
  5
6EF
330
1F
100
AcDbEntity
  8
0
 67
0
100
AcDbCircle
 10
336.4
 20
-64.9375
 40
0.5
100
AcDbArc
 50
90.0
 51
180.0
  0
ARC
  5
6F0
330
1F
100
AcDbEntity
  8
0
 67
0
100
AcDbCircle
 10
349.4
 20
-64.9375
 40
0.5
100
AcDbArc
 50
0.0
 51
90.0
  0
ARC
  5
6F1
330
1F
100
AcDbEntity
  8
0
 67
0
100
AcDbCircle
 10
336.4
 20
-77.9375
 40
0.5
100
AcDbArc
 50
180.0
 51
270.0
  0
ARC
  5
6F2
330
1F
100
AcDbEntity
  8
0
 67
0
100
AcDbCircle
 10
349.4
 20
-77.9375
 40
0.5
100
AcDbArc
 50
270.0
 51
360.0
  0
LINE
  5
6F3
330
1F
100
AcDbEntity
  8
0
 67
0
100
AcDbLine
 10
355.45
 20
-64.4375
 11
368.45
 21
-64.4375
  0
LINE
  5
6F4
330
1F
100
AcDbEntity
  8
0
 67
0
100
AcDbLine
 10
355.45
 20
-78.4375
 11
368.45
 21
-78.4375
  0
LINE
  5
6F5
330
1F
100
AcDbEntity
  8
0
 67
0
100
AcDbLine
 10
354.95
 20
-64.9375
 11
354.95
 21
-77.9375
  0
LINE
  5
6F6
330
1F
100
AcDbEntity
  8
0
 67
0
100
AcDbLine
 10
368.95
 20
-64.9375
 11
368.95
 21
-77.9375
  0
ARC
  5
6F7
330
1F
100
AcDbEntity
  8
0
 67
0
100
AcDbCircle
 10
355.45
 20
-64.9375
 40
0.5
100
AcDbArc
 50
90.0
 51
180.0
  0
ARC
  5
6F8
330
1F
100
AcDbEntity
  8
0
 67
0
100
AcDbCircle
 10
368.45
 20
-64.9375
 40
0.5
100
AcDbArc
 50
0.0
 51
90.0
  0
ARC
  5
6F9
330
1F
100
AcDbEntity
  8
0
 67
0
100
AcDbCircle
 10
355.45
 20
-77.9375
 40
0.5
100
AcDbArc
 50
180.0
 51
270.0
  0
ARC
  5
6FA
330
1F
100
AcDbEntity
  8
0
 67
0
100
AcDbCircle
 10
368.45
 20
-77.9375
 40
0.5
100
AcDbArc
 50
270.0
 51
360.0
  0
LINE
  5
6FB
330
1F
100
AcDbEntity
  8
0
 67
0
100
AcDbLine
 10
374.5
 20
-64.4375
 11
387.5
 21
-64.4375
  0
LINE
  5
6FC
330
1F
100
AcDbEntity
  8
0
 67
0
100
AcDbLine
 10
374.5
 20
-78.4375
 11
387.5
 21
-78.4375
  0
LINE
  5
6FD
330
1F
100
AcDbEntity
  8
0
 67
0
100
AcDbLine
 10
374.0
 20
-64.9375
 11
374.0
 21
-77.9375
  0
LINE
  5
6FE
330
1F
100
AcDbEntity
  8
0
 67
0
100
AcDbLine
 10
388.0
 20
-64.9375
 11
388.0
 21
-77.9375
  0
ARC
  5
6FF
330
1F
100
AcDbEntity
  8
0
 67
0
100
AcDbCircle
 10
374.5
 20
-64.9375
 40
0.5
100
AcDbArc
 50
90.0
 51
180.0
  0
ARC
  5
700
330
1F
100
AcDbEntity
  8
0
 67
0
100
AcDbCircle
 10
387.5
 20
-64.9375
 40
0.5
100
AcDbArc
 50
0.0
 51
90.0
  0
ARC
  5
701
330
1F
100
AcDbEntity
  8
0
 67
0
100
AcDbCircle
 10
374.5
 20
-77.9375
 40
0.5
100
AcDbArc
 50
180.0
 51
270.0
  0
ARC
  5
702
330
1F
100
AcDbEntity
  8
0
 67
0
100
AcDbCircle
 10
387.5
 20
-77.9375
 40
0.5
100
AcDbArc
 50
270.0
 51
360.0
  0
LINE
  5
703
330
1F
100
AcDbEntity
  8
0
 67
0
100
AcDbLine
 10
393.55
 20
-64.4375
 11
406.55
 21
-64.4375
  0
LINE
  5
704
330
1F
100
AcDbEntity
  8
0
 67
0
100
AcDbLine
 10
393.55
 20
-78.4375
 11
406.55
 21
-78.4375
  0
LINE
  5
705
330
1F
100
AcDbEntity
  8
0
 67
0
100
AcDbLine
 10
393.05
 20
-64.9375
 11
393.05
 21
-77.9375
  0
LINE
  5
706
330
1F
100
AcDbEntity
  8
0
 67
0
100
AcDbLine
 10
407.05
 20
-64.9375
 11
407.05
 21
-77.9375
  0
ARC
  5
707
330
1F
100
AcDbEntity
  8
0
 67
0
100
AcDbCircle
 10
393.55
 20
-64.9375
 40
0.5
100
AcDbArc
 50
90.0
 51
180.0
  0
ARC
  5
708
330
1F
100
AcDbEntity
  8
0
 67
0
100
AcDbCircle
 10
406.55
 20
-64.9375
 40
0.5
100
AcDbArc
 50
0.0
 51
90.0
  0
ARC
  5
709
330
1F
100
AcDbEntity
  8
0
 67
0
100
AcDbCircle
 10
393.55
 20
-77.9375
 40
0.5
100
AcDbArc
 50
180.0
 51
270.0
  0
ARC
  5
70A
330
1F
100
AcDbEntity
  8
0
 67
0
100
AcDbCircle
 10
406.55
 20
-77.9375
 40
0.5
100
AcDbArc
 50
270.0
 51
360.0
  0
LINE
  5
70B
330
1F
100
AcDbEntity
  8
0
 67
0
100
AcDbLine
 10
412.6
 20
-64.4375
 11
425.6
 21
-64.4375
  0
LINE
  5
70C
330
1F
100
AcDbEntity
  8
0
 67
0
100
AcDbLine
 10
412.6
 20
-78.4375
 11
425.6
 21
-78.4375
  0
LINE
  5
70D
330
1F
100
AcDbEntity
  8
0
 67
0
100
AcDbLine
 10
412.1
 20
-64.9375
 11
412.1
 21
-77.9375
  0
LINE
  5
70E
330
1F
100
AcDbEntity
  8
0
 67
0
100
AcDbLine
 10
426.1
 20
-64.9375
 11
426.1
 21
-77.9375
  0
ARC
  5
70F
330
1F
100
AcDbEntity
  8
0
 67
0
100
AcDbCircle
 10
412.6
 20
-64.9375
 40
0.5
100
AcDbArc
 50
90.0
 51
180.0
  0
ARC
  5
710
330
1F
100
AcDbEntity
  8
0
 67
0
100
AcDbCircle
 10
425.6
 20
-64.9375
 40
0.5
100
AcDbArc
 50
0.0
 51
90.0
  0
ARC
  5
711
330
1F
100
AcDbEntity
  8
0
 67
0
100
AcDbCircle
 10
412.6
 20
-77.9375
 40
0.5
100
AcDbArc
 50
180.0
 51
270.0
  0
ARC
  5
712
330
1F
100
AcDbEntity
  8
0
 67
0
100
AcDbCircle
 10
425.6
 20
-77.9375
 40
0.5
100
AcDbArc
 50
270.0
 51
360.0
  0
LINE
  5
713
330
1F
100
AcDbEntity
  8
0
 67
0
100
AcDbLine
 10
436.4125
 20
-64.4375
 11
449.4125
 21
-64.4375
  0
LINE
  5
714
330
1F
100
AcDbEntity
  8
0
 67
0
100
AcDbLine
 10
436.4125
 20
-78.4375
 11
449.4125
 21
-78.4375
  0
LINE
  5
715
330
1F
100
AcDbEntity
  8
0
 67
0
100
AcDbLine
 10
435.9125
 20
-64.9375
 11
435.9125
 21
-77.9375
  0
LINE
  5
716
330
1F
100
AcDbEntity
  8
0
 67
0
100
AcDbLine
 10
449.9125
 20
-64.9375
 11
449.9125
 21
-77.9375
  0
ARC
  5
717
330
1F
100
AcDbEntity
  8
0
 67
0
100
AcDbCircle
 10
436.4125
 20
-64.9375
 40
0.5
100
AcDbArc
 50
90.0
 51
180.0
  0
ARC
  5
718
330
1F
100
AcDbEntity
  8
0
 67
0
100
AcDbCircle
 10
449.4125
 20
-64.9375
 40
0.5
100
AcDbArc
 50
0.0
 51
90.0
  0
ARC
  5
719
330
1F
100
AcDbEntity
  8
0
 67
0
100
AcDbCircle
 10
436.4125
 20
-77.9375
 40
0.5
100
AcDbArc
 50
180.0
 51
270.0
  0
ARC
  5
71A
330
1F
100
AcDbEntity
  8
0
 67
0
100
AcDbCircle
 10
449.4125
 20
-77.9375
 40
0.5
100
AcDbArc
 50
270.0
 51
360.0
  0
LINE
  5
71B
330
1F
100
AcDbEntity
  8
0
 67
0
100
AcDbLine
 10
464.9875
 20
-64.4375
 11
477.9875
 21
-64.4375
  0
LINE
  5
71C
330
1F
100
AcDbEntity
  8
0
 67
0
100
AcDbLine
 10
464.9875
 20
-78.4375
 11
477.9875
 21
-78.4375
  0
LINE
  5
71D
330
1F
100
AcDbEntity
  8
0
 67
0
100
AcDbLine
 10
464.4875
 20
-64.9375
 11
464.4875
 21
-77.9375
  0
LINE
  5
71E
330
1F
100
AcDbEntity
  8
0
 67
0
100
AcDbLine
 10
478.4875
 20
-64.9375
 11
478.4875
 21
-77.9375
  0
ARC
  5
71F
330
1F
100
AcDbEntity
  8
0
 67
0
100
AcDbCircle
 10
464.9875
 20
-64.9375
 40
0.5
100
AcDbArc
 50
90.0
 51
180.0
  0
ARC
  5
720
330
1F
100
AcDbEntity
  8
0
 67
0
100
AcDbCircle
 10
477.9875
 20
-64.9375
 40
0.5
100
AcDbArc
 50
0.0
 51
90.0
  0
ARC
  5
721
330
1F
100
AcDbEntity
  8
0
 67
0
100
AcDbCircle
 10
464.9875
 20
-77.9375
 40
0.5
100
AcDbArc
 50
180.0
 51
270.0
  0
ARC
  5
722
330
1F
100
AcDbEntity
  8
0
 67
0
100
AcDbCircle
 10
477.9875
 20
-77.9375
 40
0.5
100
AcDbArc
 50
270.0
 51
360.0
  0
LINE
  5
723
330
1F
100
AcDbEntity
  8
0
 67
0
100
AcDbLine
 10
484.0375
 20
-64.4375
 11
497.0375
 21
-64.4375
  0
LINE
  5
724
330
1F
100
AcDbEntity
  8
0
 67
0
100
AcDbLine
 10
484.0375
 20
-78.4375
 11
497.0375
 21
-78.4375
  0
LINE
  5
725
330
1F
100
AcDbEntity
  8
0
 67
0
100
AcDbLine
 10
483.5375
 20
-64.9375
 11
483.5375
 21
-77.9375
  0
LINE
  5
726
330
1F
100
AcDbEntity
  8
0
 67
0
100
AcDbLine
 10
497.5375
 20
-64.9375
 11
497.5375
 21
-77.9375
  0
ARC
  5
727
330
1F
100
AcDbEntity
  8
0
 67
0
100
AcDbCircle
 10
484.0375
 20
-64.9375
 40
0.5
100
AcDbArc
 50
90.0
 51
180.0
  0
ARC
  5
728
330
1F
100
AcDbEntity
  8
0
 67
0
100
AcDbCircle
 10
497.0375
 20
-64.9375
 40
0.5
100
AcDbArc
 50
0.0
 51
90.0
  0
ARC
  5
729
330
1F
100
AcDbEntity
  8
0
 67
0
100
AcDbCircle
 10
484.0375
 20
-77.9375
 40
0.5
100
AcDbArc
 50
180.0
 51
270.0
  0
ARC
  5
72A
330
1F
100
AcDbEntity
  8
0
 67
0
100
AcDbCircle
 10
497.0375
 20
-77.9375
 40
0.5
100
AcDbArc
 50
270.0
 51
360.0
  0
LINE
  5
72B
330
1F
100
AcDbEntity
  8
0
 67
0
100
AcDbLine
 10
503.0875
 20
-64.4375
 11
516.0875
 21
-64.4375
  0
LINE
  5
72C
330
1F
100
AcDbEntity
  8
0
 67
0
100
AcDbLine
 10
503.0875
 20
-78.4375
 11
516.0875
 21
-78.4375
  0
LINE
  5
72D
330
1F
100
AcDbEntity
  8
0
 67
0
100
AcDbLine
 10
502.5875
 20
-64.9375
 11
502.5875
 21
-77.9375
  0
LINE
  5
72E
330
1F
100
AcDbEntity
  8
0
 67
0
100
AcDbLine
 10
516.5875
 20
-64.9375
 11
516.5875
 21
-77.9375
  0
ARC
  5
72F
330
1F
100
AcDbEntity
  8
0
 67
0
100
AcDbCircle
 10
503.0875
 20
-64.9375
 40
0.5
100
AcDbArc
 50
90.0
 51
180.0
  0
ARC
  5
730
330
1F
100
AcDbEntity
  8
0
 67
0
100
AcDbCircle
 10
516.0875
 20
-64.9375
 40
0.5
100
AcDbArc
 50
0.0
 51
90.0
  0
ARC
  5
731
330
1F
100
AcDbEntity
  8
0
 67
0
100
AcDbCircle
 10
503.0875
 20
-77.9375
 40
0.5
100
AcDbArc
 50
180.0
 51
270.0
  0
ARC
  5
732
330
1F
100
AcDbEntity
  8
0
 67
0
100
AcDbCircle
 10
516.0875
 20
-77.9375
 40
0.5
100
AcDbArc
 50
270.0
 51
360.0
  0
LINE
  5
733
330
1F
100
AcDbEntity
  8
0
 67
0
100
AcDbLine
 10
522.1375
 20
-64.4375
 11
535.1375
 21
-64.4375
  0
LINE
  5
734
330
1F
100
AcDbEntity
  8
0
 67
0
100
AcDbLine
 10
522.1375
 20
-78.4375
 11
535.1375
 21
-78.4375
  0
LINE
  5
735
330
1F
100
AcDbEntity
  8
0
 67
0
100
AcDbLine
 10
521.6375
 20
-64.9375
 11
521.6375
 21
-77.9375
  0
LINE
  5
736
330
1F
100
AcDbEntity
  8
0
 67
0
100
AcDbLine
 10
535.6375
 20
-64.9375
 11
535.6375
 21
-77.9375
  0
ARC
  5
737
330
1F
100
AcDbEntity
  8
0
 67
0
100
AcDbCircle
 10
522.1375
 20
-64.9375
 40
0.5
100
AcDbArc
 50
90.0
 51
180.0
  0
ARC
  5
738
330
1F
100
AcDbEntity
  8
0
 67
0
100
AcDbCircle
 10
535.1375
 20
-64.9375
 40
0.5
100
AcDbArc
 50
0.0
 51
90.0
  0
ARC
  5
739
330
1F
100
AcDbEntity
  8
0
 67
0
100
AcDbCircle
 10
522.1375
 20
-77.9375
 40
0.5
100
AcDbArc
 50
180.0
 51
270.0
  0
ARC
  5
73A
330
1F
100
AcDbEntity
  8
0
 67
0
100
AcDbCircle
 10
535.1375
 20
-77.9375
 40
0.5
100
AcDbArc
 50
270.0
 51
360.0
  0
LINE
  5
73B
330
1F
100
AcDbEntity
  8
0
 67
0
100
AcDbLine
 10
176.85625
 20
-83.4875
 11
189.85625
 21
-83.4875
  0
LINE
  5
73C
330
1F
100
AcDbEntity
  8
0
 67
0
100
AcDbLine
 10
176.85625
 20
-97.4875
 11
189.85625
 21
-97.4875
  0
LINE
  5
73D
330
1F
100
AcDbEntity
  8
0
 67
0
100
AcDbLine
 10
176.35625
 20
-83.9875
 11
176.35625
 21
-96.9875
  0
LINE
  5
73E
330
1F
100
AcDbEntity
  8
0
 67
0
100
AcDbLine
 10
190.35625
 20
-83.9875
 11
190.35625
 21
-96.9875
  0
ARC
  5
73F
330
1F
100
AcDbEntity
  8
0
 67
0
100
AcDbCircle
 10
176.85625
 20
-83.9875
 40
0.5
100
AcDbArc
 50
90.0
 51
180.0
  0
ARC
  5
740
330
1F
100
AcDbEntity
  8
0
 67
0
100
AcDbCircle
 10
189.85625
 20
-83.9875
 40
0.5
100
AcDbArc
 50
0.0
 51
90.0
  0
ARC
  5
741
330
1F
100
AcDbEntity
  8
0
 67
0
100
AcDbCircle
 10
176.85625
 20
-96.9875
 40
0.5
100
AcDbArc
 50
180.0
 51
270.0
  0
ARC
  5
742
330
1F
100
AcDbEntity
  8
0
 67
0
100
AcDbCircle
 10
189.85625
 20
-96.9875
 40
0.5
100
AcDbArc
 50
270.0
 51
360.0
  0
LINE
  5
743
330
1F
100
AcDbEntity
  8
0
 67
0
100
AcDbLine
 10
207.8125
 20
-83.4875
 11
220.8125
 21
-83.4875
  0
LINE
  5
744
330
1F
100
AcDbEntity
  8
0
 67
0
100
AcDbLine
 10
207.8125
 20
-97.4875
 11
220.8125
 21
-97.4875
  0
LINE
  5
745
330
1F
100
AcDbEntity
  8
0
 67
0
100
AcDbLine
 10
207.3125
 20
-83.9875
 11
207.3125
 21
-96.9875
  0
LINE
  5
746
330
1F
100
AcDbEntity
  8
0
 67
0
100
AcDbLine
 10
221.3125
 20
-83.9875
 11
221.3125
 21
-96.9875
  0
ARC
  5
747
330
1F
100
AcDbEntity
  8
0
 67
0
100
AcDbCircle
 10
207.8125
 20
-83.9875
 40
0.5
100
AcDbArc
 50
90.0
 51
180.0
  0
ARC
  5
748
330
1F
100
AcDbEntity
  8
0
 67
0
100
AcDbCircle
 10
220.8125
 20
-83.9875
 40
0.5
100
AcDbArc
 50
0.0
 51
90.0
  0
ARC
  5
749
330
1F
100
AcDbEntity
  8
0
 67
0
100
AcDbCircle
 10
207.8125
 20
-96.9875
 40
0.5
100
AcDbArc
 50
180.0
 51
270.0
  0
ARC
  5
74A
330
1F
100
AcDbEntity
  8
0
 67
0
100
AcDbCircle
 10
220.8125
 20
-96.9875
 40
0.5
100
AcDbArc
 50
270.0
 51
360.0
  0
LINE
  5
74B
330
1F
100
AcDbEntity
  8
0
 67
0
100
AcDbLine
 10
226.8625
 20
-83.4875
 11
239.8625
 21
-83.4875
  0
LINE
  5
74C
330
1F
100
AcDbEntity
  8
0
 67
0
100
AcDbLine
 10
226.8625
 20
-97.4875
 11
239.8625
 21
-97.4875
  0
LINE
  5
74D
330
1F
100
AcDbEntity
  8
0
 67
0
100
AcDbLine
 10
226.3625
 20
-83.9875
 11
226.3625
 21
-96.9875
  0
LINE
  5
74E
330
1F
100
AcDbEntity
  8
0
 67
0
100
AcDbLine
 10
240.3625
 20
-83.9875
 11
240.3625
 21
-96.9875
  0
ARC
  5
74F
330
1F
100
AcDbEntity
  8
0
 67
0
100
AcDbCircle
 10
226.8625
 20
-83.9875
 40
0.5
100
AcDbArc
 50
90.0
 51
180.0
  0
ARC
  5
750
330
1F
100
AcDbEntity
  8
0
 67
0
100
AcDbCircle
 10
239.8625
 20
-83.9875
 40
0.5
100
AcDbArc
 50
0.0
 51
90.0
  0
ARC
  5
751
330
1F
100
AcDbEntity
  8
0
 67
0
100
AcDbCircle
 10
226.8625
 20
-96.9875
 40
0.5
100
AcDbArc
 50
180.0
 51
270.0
  0
ARC
  5
752
330
1F
100
AcDbEntity
  8
0
 67
0
100
AcDbCircle
 10
239.8625
 20
-96.9875
 40
0.5
100
AcDbArc
 50
270.0
 51
360.0
  0
LINE
  5
753
330
1F
100
AcDbEntity
  8
0
 67
0
100
AcDbLine
 10
245.9125
 20
-83.4875
 11
258.9125
 21
-83.4875
  0
LINE
  5
754
330
1F
100
AcDbEntity
  8
0
 67
0
100
AcDbLine
 10
245.9125
 20
-97.4875
 11
258.9125
 21
-97.4875
  0
LINE
  5
755
330
1F
100
AcDbEntity
  8
0
 67
0
100
AcDbLine
 10
245.4125
 20
-83.9875
 11
245.4125
 21
-96.9875
  0
LINE
  5
756
330
1F
100
AcDbEntity
  8
0
 67
0
100
AcDbLine
 10
259.4125
 20
-83.9875
 11
259.4125
 21
-96.9875
  0
ARC
  5
757
330
1F
100
AcDbEntity
  8
0
 67
0
100
AcDbCircle
 10
245.9125
 20
-83.9875
 40
0.5
100
AcDbArc
 50
90.0
 51
180.0
  0
ARC
  5
758
330
1F
100
AcDbEntity
  8
0
 67
0
100
AcDbCircle
 10
258.9125
 20
-83.9875
 40
0.5
100
AcDbArc
 50
0.0
 51
90.0
  0
ARC
  5
759
330
1F
100
AcDbEntity
  8
0
 67
0
100
AcDbCircle
 10
245.9125
 20
-96.9875
 40
0.5
100
AcDbArc
 50
180.0
 51
270.0
  0
ARC
  5
75A
330
1F
100
AcDbEntity
  8
0
 67
0
100
AcDbCircle
 10
258.9125
 20
-96.9875
 40
0.5
100
AcDbArc
 50
270.0
 51
360.0
  0
LINE
  5
75B
330
1F
100
AcDbEntity
  8
0
 67
0
100
AcDbLine
 10
264.9625
 20
-83.4875
 11
277.9625
 21
-83.4875
  0
LINE
  5
75C
330
1F
100
AcDbEntity
  8
0
 67
0
100
AcDbLine
 10
264.9625
 20
-97.4875
 11
277.9625
 21
-97.4875
  0
LINE
  5
75D
330
1F
100
AcDbEntity
  8
0
 67
0
100
AcDbLine
 10
264.4625
 20
-83.9875
 11
264.4625
 21
-96.9875
  0
LINE
  5
75E
330
1F
100
AcDbEntity
  8
0
 67
0
100
AcDbLine
 10
278.4625
 20
-83.9875
 11
278.4625
 21
-96.9875
  0
ARC
  5
75F
330
1F
100
AcDbEntity
  8
0
 67
0
100
AcDbCircle
 10
264.9625
 20
-83.9875
 40
0.5
100
AcDbArc
 50
90.0
 51
180.0
  0
ARC
  5
760
330
1F
100
AcDbEntity
  8
0
 67
0
100
AcDbCircle
 10
277.9625
 20
-83.9875
 40
0.5
100
AcDbArc
 50
0.0
 51
90.0
  0
ARC
  5
761
330
1F
100
AcDbEntity
  8
0
 67
0
100
AcDbCircle
 10
264.9625
 20
-96.9875
 40
0.5
100
AcDbArc
 50
180.0
 51
270.0
  0
ARC
  5
762
330
1F
100
AcDbEntity
  8
0
 67
0
100
AcDbCircle
 10
277.9625
 20
-96.9875
 40
0.5
100
AcDbArc
 50
270.0
 51
360.0
  0
LINE
  5
763
330
1F
100
AcDbEntity
  8
0
 67
0
100
AcDbLine
 10
284.0125
 20
-83.4875
 11
297.0125
 21
-83.4875
  0
LINE
  5
764
330
1F
100
AcDbEntity
  8
0
 67
0
100
AcDbLine
 10
284.0125
 20
-97.4875
 11
297.0125
 21
-97.4875
  0
LINE
  5
765
330
1F
100
AcDbEntity
  8
0
 67
0
100
AcDbLine
 10
283.5125
 20
-83.9875
 11
283.5125
 21
-96.9875
  0
LINE
  5
766
330
1F
100
AcDbEntity
  8
0
 67
0
100
AcDbLine
 10
297.5125
 20
-83.9875
 11
297.5125
 21
-96.9875
  0
ARC
  5
767
330
1F
100
AcDbEntity
  8
0
 67
0
100
AcDbCircle
 10
284.0125
 20
-83.9875
 40
0.5
100
AcDbArc
 50
90.0
 51
180.0
  0
ARC
  5
768
330
1F
100
AcDbEntity
  8
0
 67
0
100
AcDbCircle
 10
297.0125
 20
-83.9875
 40
0.5
100
AcDbArc
 50
0.0
 51
90.0
  0
ARC
  5
769
330
1F
100
AcDbEntity
  8
0
 67
0
100
AcDbCircle
 10
284.0125
 20
-96.9875
 40
0.5
100
AcDbArc
 50
180.0
 51
270.0
  0
ARC
  5
76A
330
1F
100
AcDbEntity
  8
0
 67
0
100
AcDbCircle
 10
297.0125
 20
-96.9875
 40
0.5
100
AcDbArc
 50
270.0
 51
360.0
  0
LINE
  5
76B
330
1F
100
AcDbEntity
  8
0
 67
0
100
AcDbLine
 10
303.0625
 20
-83.4875
 11
316.0625
 21
-83.4875
  0
LINE
  5
76C
330
1F
100
AcDbEntity
  8
0
 67
0
100
AcDbLine
 10
303.0625
 20
-97.4875
 11
316.0625
 21
-97.4875
  0
LINE
  5
76D
330
1F
100
AcDbEntity
  8
0
 67
0
100
AcDbLine
 10
302.5625
 20
-83.9875
 11
302.5625
 21
-96.9875
  0
LINE
  5
76E
330
1F
100
AcDbEntity
  8
0
 67
0
100
AcDbLine
 10
316.5625
 20
-83.9875
 11
316.5625
 21
-96.9875
  0
ARC
  5
76F
330
1F
100
AcDbEntity
  8
0
 67
0
100
AcDbCircle
 10
303.0625
 20
-83.9875
 40
0.5
100
AcDbArc
 50
90.0
 51
180.0
  0
ARC
  5
770
330
1F
100
AcDbEntity
  8
0
 67
0
100
AcDbCircle
 10
316.0625
 20
-83.9875
 40
0.5
100
AcDbArc
 50
0.0
 51
90.0
  0
ARC
  5
771
330
1F
100
AcDbEntity
  8
0
 67
0
100
AcDbCircle
 10
303.0625
 20
-96.9875
 40
0.5
100
AcDbArc
 50
180.0
 51
270.0
  0
ARC
  5
772
330
1F
100
AcDbEntity
  8
0
 67
0
100
AcDbCircle
 10
316.0625
 20
-96.9875
 40
0.5
100
AcDbArc
 50
270.0
 51
360.0
  0
LINE
  5
773
330
1F
100
AcDbEntity
  8
0
 67
0
100
AcDbLine
 10
322.1125
 20
-83.4875
 11
335.1125
 21
-83.4875
  0
LINE
  5
774
330
1F
100
AcDbEntity
  8
0
 67
0
100
AcDbLine
 10
322.1125
 20
-97.4875
 11
335.1125
 21
-97.4875
  0
LINE
  5
775
330
1F
100
AcDbEntity
  8
0
 67
0
100
AcDbLine
 10
321.6125
 20
-83.9875
 11
321.6125
 21
-96.9875
  0
LINE
  5
776
330
1F
100
AcDbEntity
  8
0
 67
0
100
AcDbLine
 10
335.6125
 20
-83.9875
 11
335.6125
 21
-96.9875
  0
ARC
  5
777
330
1F
100
AcDbEntity
  8
0
 67
0
100
AcDbCircle
 10
322.1125
 20
-83.9875
 40
0.5
100
AcDbArc
 50
90.0
 51
180.0
  0
ARC
  5
778
330
1F
100
AcDbEntity
  8
0
 67
0
100
AcDbCircle
 10
335.1125
 20
-83.9875
 40
0.5
100
AcDbArc
 50
0.0
 51
90.0
  0
ARC
  5
779
330
1F
100
AcDbEntity
  8
0
 67
0
100
AcDbCircle
 10
322.1125
 20
-96.9875
 40
0.5
100
AcDbArc
 50
180.0
 51
270.0
  0
ARC
  5
77A
330
1F
100
AcDbEntity
  8
0
 67
0
100
AcDbCircle
 10
335.1125
 20
-96.9875
 40
0.5
100
AcDbArc
 50
270.0
 51
360.0
  0
LINE
  5
77B
330
1F
100
AcDbEntity
  8
0
 67
0
100
AcDbLine
 10
341.1625
 20
-83.4875
 11
354.1625
 21
-83.4875
  0
LINE
  5
77C
330
1F
100
AcDbEntity
  8
0
 67
0
100
AcDbLine
 10
341.1625
 20
-97.4875
 11
354.1625
 21
-97.4875
  0
LINE
  5
77D
330
1F
100
AcDbEntity
  8
0
 67
0
100
AcDbLine
 10
340.6625
 20
-83.9875
 11
340.6625
 21
-96.9875
  0
LINE
  5
77E
330
1F
100
AcDbEntity
  8
0
 67
0
100
AcDbLine
 10
354.6625
 20
-83.9875
 11
354.6625
 21
-96.9875
  0
ARC
  5
77F
330
1F
100
AcDbEntity
  8
0
 67
0
100
AcDbCircle
 10
341.1625
 20
-83.9875
 40
0.5
100
AcDbArc
 50
90.0
 51
180.0
  0
ARC
  5
780
330
1F
100
AcDbEntity
  8
0
 67
0
100
AcDbCircle
 10
354.1625
 20
-83.9875
 40
0.5
100
AcDbArc
 50
0.0
 51
90.0
  0
ARC
  5
781
330
1F
100
AcDbEntity
  8
0
 67
0
100
AcDbCircle
 10
341.1625
 20
-96.9875
 40
0.5
100
AcDbArc
 50
180.0
 51
270.0
  0
ARC
  5
782
330
1F
100
AcDbEntity
  8
0
 67
0
100
AcDbCircle
 10
354.1625
 20
-96.9875
 40
0.5
100
AcDbArc
 50
270.0
 51
360.0
  0
LINE
  5
783
330
1F
100
AcDbEntity
  8
0
 67
0
100
AcDbLine
 10
360.2125
 20
-83.4875
 11
373.2125
 21
-83.4875
  0
LINE
  5
784
330
1F
100
AcDbEntity
  8
0
 67
0
100
AcDbLine
 10
360.2125
 20
-97.4875
 11
373.2125
 21
-97.4875
  0
LINE
  5
785
330
1F
100
AcDbEntity
  8
0
 67
0
100
AcDbLine
 10
359.7125
 20
-83.9875
 11
359.7125
 21
-96.9875
  0
LINE
  5
786
330
1F
100
AcDbEntity
  8
0
 67
0
100
AcDbLine
 10
373.7125
 20
-83.9875
 11
373.7125
 21
-96.9875
  0
ARC
  5
787
330
1F
100
AcDbEntity
  8
0
 67
0
100
AcDbCircle
 10
360.2125
 20
-83.9875
 40
0.5
100
AcDbArc
 50
90.0
 51
180.0
  0
ARC
  5
788
330
1F
100
AcDbEntity
  8
0
 67
0
100
AcDbCircle
 10
373.2125
 20
-83.9875
 40
0.5
100
AcDbArc
 50
0.0
 51
90.0
  0
ARC
  5
789
330
1F
100
AcDbEntity
  8
0
 67
0
100
AcDbCircle
 10
360.2125
 20
-96.9875
 40
0.5
100
AcDbArc
 50
180.0
 51
270.0
  0
ARC
  5
78A
330
1F
100
AcDbEntity
  8
0
 67
0
100
AcDbCircle
 10
373.2125
 20
-96.9875
 40
0.5
100
AcDbArc
 50
270.0
 51
360.0
  0
LINE
  5
78B
330
1F
100
AcDbEntity
  8
0
 67
0
100
AcDbLine
 10
379.2625
 20
-83.4875
 11
392.2625
 21
-83.4875
  0
LINE
  5
78C
330
1F
100
AcDbEntity
  8
0
 67
0
100
AcDbLine
 10
379.2625
 20
-97.4875
 11
392.2625
 21
-97.4875
  0
LINE
  5
78D
330
1F
100
AcDbEntity
  8
0
 67
0
100
AcDbLine
 10
378.7625
 20
-83.9875
 11
378.7625
 21
-96.9875
  0
LINE
  5
78E
330
1F
100
AcDbEntity
  8
0
 67
0
100
AcDbLine
 10
392.7625
 20
-83.9875
 11
392.7625
 21
-96.9875
  0
ARC
  5
78F
330
1F
100
AcDbEntity
  8
0
 67
0
100
AcDbCircle
 10
379.2625
 20
-83.9875
 40
0.5
100
AcDbArc
 50
90.0
 51
180.0
  0
ARC
  5
790
330
1F
100
AcDbEntity
  8
0
 67
0
100
AcDbCircle
 10
392.2625
 20
-83.9875
 40
0.5
100
AcDbArc
 50
0.0
 51
90.0
  0
ARC
  5
791
330
1F
100
AcDbEntity
  8
0
 67
0
100
AcDbCircle
 10
379.2625
 20
-96.9875
 40
0.5
100
AcDbArc
 50
180.0
 51
270.0
  0
ARC
  5
792
330
1F
100
AcDbEntity
  8
0
 67
0
100
AcDbCircle
 10
392.2625
 20
-96.9875
 40
0.5
100
AcDbArc
 50
270.0
 51
360.0
  0
LINE
  5
793
330
1F
100
AcDbEntity
  8
0
 67
0
100
AcDbLine
 10
398.3125
 20
-83.4875
 11
411.3125
 21
-83.4875
  0
LINE
  5
794
330
1F
100
AcDbEntity
  8
0
 67
0
100
AcDbLine
 10
398.3125
 20
-97.4875
 11
411.3125
 21
-97.4875
  0
LINE
  5
795
330
1F
100
AcDbEntity
  8
0
 67
0
100
AcDbLine
 10
397.8125
 20
-83.9875
 11
397.8125
 21
-96.9875
  0
LINE
  5
796
330
1F
100
AcDbEntity
  8
0
 67
0
100
AcDbLine
 10
411.8125
 20
-83.9875
 11
411.8125
 21
-96.9875
  0
ARC
  5
797
330
1F
100
AcDbEntity
  8
0
 67
0
100
AcDbCircle
 10
398.3125
 20
-83.9875
 40
0.5
100
AcDbArc
 50
90.0
 51
180.0
  0
ARC
  5
798
330
1F
100
AcDbEntity
  8
0
 67
0
100
AcDbCircle
 10
411.3125
 20
-83.9875
 40
0.5
100
AcDbArc
 50
0.0
 51
90.0
  0
ARC
  5
799
330
1F
100
AcDbEntity
  8
0
 67
0
100
AcDbCircle
 10
398.3125
 20
-96.9875
 40
0.5
100
AcDbArc
 50
180.0
 51
270.0
  0
ARC
  5
79A
330
1F
100
AcDbEntity
  8
0
 67
0
100
AcDbCircle
 10
411.3125
 20
-96.9875
 40
0.5
100
AcDbArc
 50
270.0
 51
360.0
  0
LINE
  5
79B
330
1F
100
AcDbEntity
  8
0
 67
0
100
AcDbLine
 10
429.26875
 20
-83.4875
 11
442.26875
 21
-83.4875
  0
LINE
  5
79C
330
1F
100
AcDbEntity
  8
0
 67
0
100
AcDbLine
 10
429.26875
 20
-97.4875
 11
442.26875
 21
-97.4875
  0
LINE
  5
79D
330
1F
100
AcDbEntity
  8
0
 67
0
100
AcDbLine
 10
428.76875
 20
-83.9875
 11
428.76875
 21
-96.9875
  0
LINE
  5
79E
330
1F
100
AcDbEntity
  8
0
 67
0
100
AcDbLine
 10
442.76875
 20
-83.9875
 11
442.76875
 21
-96.9875
  0
ARC
  5
79F
330
1F
100
AcDbEntity
  8
0
 67
0
100
AcDbCircle
 10
429.26875
 20
-83.9875
 40
0.5
100
AcDbArc
 50
90.0
 51
180.0
  0
ARC
  5
7A0
330
1F
100
AcDbEntity
  8
0
 67
0
100
AcDbCircle
 10
442.26875
 20
-83.9875
 40
0.5
100
AcDbArc
 50
0.0
 51
90.0
  0
ARC
  5
7A1
330
1F
100
AcDbEntity
  8
0
 67
0
100
AcDbCircle
 10
429.26875
 20
-96.9875
 40
0.5
100
AcDbArc
 50
180.0
 51
270.0
  0
ARC
  5
7A2
330
1F
100
AcDbEntity
  8
0
 67
0
100
AcDbCircle
 10
442.26875
 20
-96.9875
 40
0.5
100
AcDbArc
 50
270.0
 51
360.0
  0
LINE
  5
7A3
330
1F
100
AcDbEntity
  8
0
 67
0
100
AcDbLine
 10
444.83175
 20
-84.4875
 11
450.58175
 21
-84.4875
  0
LINE
  5
7A4
330
1F
100
AcDbEntity
  8
0
 67
0
100
AcDbLine
 10
444.83175
 20
-98.4875
 11
450.58175
 21
-98.4875
  0
LINE
  5
7A5
330
1F
100
AcDbEntity
  8
0
 67
0
100
AcDbLine
 10
444.33175
 20
-84.9875
 11
444.33175
 21
-97.9875
  0
LINE
  5
7A6
330
1F
100
AcDbEntity
  8
0
 67
0
100
AcDbLine
 10
451.08175
 20
-84.9875
 11
451.08175
 21
-97.9875
  0
ARC
  5
7A7
330
1F
100
AcDbEntity
  8
0
 67
0
100
AcDbCircle
 10
444.83175
 20
-84.9875
 40
0.5
100
AcDbArc
 50
90.0
 51
180.0
  0
ARC
  5
7A8
330
1F
100
AcDbEntity
  8
0
 67
0
100
AcDbCircle
 10
450.58175
 20
-84.9875
 40
0.5
100
AcDbArc
 50
0.0
 51
90.0
  0
ARC
  5
7A9
330
1F
100
AcDbEntity
  8
0
 67
0
100
AcDbCircle
 10
444.83175
 20
-97.9875
 40
0.5
100
AcDbArc
 50
180.0
 51
270.0
  0
ARC
  5
7AA
330
1F
100
AcDbEntity
  8
0
 67
0
100
AcDbCircle
 10
450.58175
 20
-97.9875
 40
0.5
100
AcDbArc
 50
270.0
 51
360.0
  0
LINE
  5
7AB
330
1F
100
AcDbEntity
  8
0
 67
0
100
AcDbLine
 10
420.95575
 20
-84.4875
 11
426.70575
 21
-84.4875
  0
LINE
  5
7AC
330
1F
100
AcDbEntity
  8
0
 67
0
100
AcDbLine
 10
420.95575
 20
-98.4875
 11
426.70575
 21
-98.4875
  0
LINE
  5
7AD
330
1F
100
AcDbEntity
  8
0
 67
0
100
AcDbLine
 10
420.45575
 20
-84.9875
 11
420.45575
 21
-97.9875
  0
LINE
  5
7AE
330
1F
100
AcDbEntity
  8
0
 67
0
100
AcDbLine
 10
427.20575
 20
-84.9875
 11
427.20575
 21
-97.9875
  0
ARC
  5
7AF
330
1F
100
AcDbEntity
  8
0
 67
0
100
AcDbCircle
 10
420.95575
 20
-84.9875
 40
0.5
100
AcDbArc
 50
90.0
 51
180.0
  0
ARC
  5
7B0
330
1F
100
AcDbEntity
  8
0
 67
0
100
AcDbCircle
 10
426.70575
 20
-84.9875
 40
0.5
100
AcDbArc
 50
0.0
 51
90.0
  0
ARC
  5
7B1
330
1F
100
AcDbEntity
  8
0
 67
0
100
AcDbCircle
 10
420.95575
 20
-97.9875
 40
0.5
100
AcDbArc
 50
180.0
 51
270.0
  0
ARC
  5
7B2
330
1F
100
AcDbEntity
  8
0
 67
0
100
AcDbCircle
 10
426.70575
 20
-97.9875
 40
0.5
100
AcDbArc
 50
270.0
 51
360.0
  0
LINE
  5
7B3
330
1F
100
AcDbEntity
  8
0
 67
0
100
AcDbLine
 10
464.9875
 20
-83.4875
 11
477.9875
 21
-83.4875
  0
LINE
  5
7B4
330
1F
100
AcDbEntity
  8
0
 67
0
100
AcDbLine
 10
464.9875
 20
-97.4875
 11
477.9875
 21
-97.4875
  0
LINE
  5
7B5
330
1F
100
AcDbEntity
  8
0
 67
0
100
AcDbLine
 10
464.4875
 20
-83.9875
 11
464.4875
 21
-96.9875
  0
LINE
  5
7B6
330
1F
100
AcDbEntity
  8
0
 67
0
100
AcDbLine
 10
478.4875
 20
-83.9875
 11
478.4875
 21
-96.9875
  0
ARC
  5
7B7
330
1F
100
AcDbEntity
  8
0
 67
0
100
AcDbCircle
 10
464.9875
 20
-83.9875
 40
0.5
100
AcDbArc
 50
90.0
 51
180.0
  0
ARC
  5
7B8
330
1F
100
AcDbEntity
  8
0
 67
0
100
AcDbCircle
 10
477.9875
 20
-83.9875
 40
0.5
100
AcDbArc
 50
0.0
 51
90.0
  0
ARC
  5
7B9
330
1F
100
AcDbEntity
  8
0
 67
0
100
AcDbCircle
 10
464.9875
 20
-96.9875
 40
0.5
100
AcDbArc
 50
180.0
 51
270.0
  0
ARC
  5
7BA
330
1F
100
AcDbEntity
  8
0
 67
0
100
AcDbCircle
 10
477.9875
 20
-96.9875
 40
0.5
100
AcDbArc
 50
270.0
 51
360.0
  0
LINE
  5
7BB
330
1F
100
AcDbEntity
  8
0
 67
0
100
AcDbLine
 10
484.0375
 20
-83.4875
 11
497.0375
 21
-83.4875
  0
LINE
  5
7BC
330
1F
100
AcDbEntity
  8
0
 67
0
100
AcDbLine
 10
484.0375
 20
-97.4875
 11
497.0375
 21
-97.4875
  0
LINE
  5
7BD
330
1F
100
AcDbEntity
  8
0
 67
0
100
AcDbLine
 10
483.5375
 20
-83.9875
 11
483.5375
 21
-96.9875
  0
LINE
  5
7BE
330
1F
100
AcDbEntity
  8
0
 67
0
100
AcDbLine
 10
497.5375
 20
-83.9875
 11
497.5375
 21
-96.9875
  0
ARC
  5
7BF
330
1F
100
AcDbEntity
  8
0
 67
0
100
AcDbCircle
 10
484.0375
 20
-83.9875
 40
0.5
100
AcDbArc
 50
90.0
 51
180.0
  0
ARC
  5
7C0
330
1F
100
AcDbEntity
  8
0
 67
0
100
AcDbCircle
 10
497.0375
 20
-83.9875
 40
0.5
100
AcDbArc
 50
0.0
 51
90.0
  0
ARC
  5
7C1
330
1F
100
AcDbEntity
  8
0
 67
0
100
AcDbCircle
 10
484.0375
 20
-96.9875
 40
0.5
100
AcDbArc
 50
180.0
 51
270.0
  0
ARC
  5
7C2
330
1F
100
AcDbEntity
  8
0
 67
0
100
AcDbCircle
 10
497.0375
 20
-96.9875
 40
0.5
100
AcDbArc
 50
270.0
 51
360.0
  0
LINE
  5
7C3
330
1F
100
AcDbEntity
  8
0
 67
0
100
AcDbLine
 10
503.0875
 20
-83.4875
 11
516.0875
 21
-83.4875
  0
LINE
  5
7C4
330
1F
100
AcDbEntity
  8
0
 67
0
100
AcDbLine
 10
503.0875
 20
-97.4875
 11
516.0875
 21
-97.4875
  0
LINE
  5
7C5
330
1F
100
AcDbEntity
  8
0
 67
0
100
AcDbLine
 10
502.5875
 20
-83.9875
 11
502.5875
 21
-96.9875
  0
LINE
  5
7C6
330
1F
100
AcDbEntity
  8
0
 67
0
100
AcDbLine
 10
516.5875
 20
-83.9875
 11
516.5875
 21
-96.9875
  0
ARC
  5
7C7
330
1F
100
AcDbEntity
  8
0
 67
0
100
AcDbCircle
 10
503.0875
 20
-83.9875
 40
0.5
100
AcDbArc
 50
90.0
 51
180.0
  0
ARC
  5
7C8
330
1F
100
AcDbEntity
  8
0
 67
0
100
AcDbCircle
 10
516.0875
 20
-83.9875
 40
0.5
100
AcDbArc
 50
0.0
 51
90.0
  0
ARC
  5
7C9
330
1F
100
AcDbEntity
  8
0
 67
0
100
AcDbCircle
 10
503.0875
 20
-96.9875
 40
0.5
100
AcDbArc
 50
180.0
 51
270.0
  0
ARC
  5
7CA
330
1F
100
AcDbEntity
  8
0
 67
0
100
AcDbCircle
 10
516.0875
 20
-96.9875
 40
0.5
100
AcDbArc
 50
270.0
 51
360.0
  0
LINE
  5
7CB
330
1F
100
AcDbEntity
  8
0
 67
0
100
AcDbLine
 10
522.1375
 20
-83.4875
 11
535.1375
 21
-83.4875
  0
LINE
  5
7CC
330
1F
100
AcDbEntity
  8
0
 67
0
100
AcDbLine
 10
522.1375
 20
-97.4875
 11
535.1375
 21
-97.4875
  0
LINE
  5
7CD
330
1F
100
AcDbEntity
  8
0
 67
0
100
AcDbLine
 10
521.6375
 20
-83.9875
 11
521.6375
 21
-96.9875
  0
LINE
  5
7CE
330
1F
100
AcDbEntity
  8
0
 67
0
100
AcDbLine
 10
535.6375
 20
-83.9875
 11
535.6375
 21
-96.9875
  0
ARC
  5
7CF
330
1F
100
AcDbEntity
  8
0
 67
0
100
AcDbCircle
 10
522.1375
 20
-83.9875
 40
0.5
100
AcDbArc
 50
90.0
 51
180.0
  0
ARC
  5
7D0
330
1F
100
AcDbEntity
  8
0
 67
0
100
AcDbCircle
 10
535.1375
 20
-83.9875
 40
0.5
100
AcDbArc
 50
0.0
 51
90.0
  0
ARC
  5
7D1
330
1F
100
AcDbEntity
  8
0
 67
0
100
AcDbCircle
 10
522.1375
 20
-96.9875
 40
0.5
100
AcDbArc
 50
180.0
 51
270.0
  0
ARC
  5
7D2
330
1F
100
AcDbEntity
  8
0
 67
0
100
AcDbCircle
 10
535.1375
 20
-96.9875
 40
0.5
100
AcDbArc
 50
270.0
 51
360.0
  0
LINE
  5
7D3
330
1F
100
AcDbEntity
  8
0
 67
0
100
AcDbLine
 10
186.38125
 20
-102.5375
 11
199.38125
 21
-102.5375
  0
LINE
  5
7D4
330
1F
100
AcDbEntity
  8
0
 67
0
100
AcDbLine
 10
186.38125
 20
-116.5375
 11
199.38125
 21
-116.5375
  0
LINE
  5
7D5
330
1F
100
AcDbEntity
  8
0
 67
0
100
AcDbLine
 10
185.88125
 20
-103.0375
 11
185.88125
 21
-116.0375
  0
LINE
  5
7D6
330
1F
100
AcDbEntity
  8
0
 67
0
100
AcDbLine
 10
199.88125
 20
-103.0375
 11
199.88125
 21
-116.0375
  0
ARC
  5
7D7
330
1F
100
AcDbEntity
  8
0
 67
0
100
AcDbCircle
 10
186.38125
 20
-103.0375
 40
0.5
100
AcDbArc
 50
90.0
 51
180.0
  0
ARC
  5
7D8
330
1F
100
AcDbEntity
  8
0
 67
0
100
AcDbCircle
 10
199.38125
 20
-103.0375
 40
0.5
100
AcDbArc
 50
0.0
 51
90.0
  0
ARC
  5
7D9
330
1F
100
AcDbEntity
  8
0
 67
0
100
AcDbCircle
 10
186.38125
 20
-116.0375
 40
0.5
100
AcDbArc
 50
180.0
 51
270.0
  0
ARC
  5
7DA
330
1F
100
AcDbEntity
  8
0
 67
0
100
AcDbCircle
 10
199.38125
 20
-116.0375
 40
0.5
100
AcDbArc
 50
270.0
 51
360.0
  0
LINE
  5
7DB
330
1F
100
AcDbEntity
  8
0
 67
0
100
AcDbLine
 10
201.94425
 20
-103.5375
 11
207.69425
 21
-103.5375
  0
LINE
  5
7DC
330
1F
100
AcDbEntity
  8
0
 67
0
100
AcDbLine
 10
201.94425
 20
-117.5375
 11
207.69425
 21
-117.5375
  0
LINE
  5
7DD
330
1F
100
AcDbEntity
  8
0
 67
0
100
AcDbLine
 10
201.44425
 20
-104.0375
 11
201.44425
 21
-117.0375
  0
LINE
  5
7DE
330
1F
100
AcDbEntity
  8
0
 67
0
100
AcDbLine
 10
208.19425
 20
-104.0375
 11
208.19425
 21
-117.0375
  0
ARC
  5
7DF
330
1F
100
AcDbEntity
  8
0
 67
0
100
AcDbCircle
 10
201.94425
 20
-104.0375
 40
0.5
100
AcDbArc
 50
90.0
 51
180.0
  0
ARC
  5
7E0
330
1F
100
AcDbEntity
  8
0
 67
0
100
AcDbCircle
 10
207.69425
 20
-104.0375
 40
0.5
100
AcDbArc
 50
0.0
 51
90.0
  0
ARC
  5
7E1
330
1F
100
AcDbEntity
  8
0
 67
0
100
AcDbCircle
 10
201.94425
 20
-117.0375
 40
0.5
100
AcDbArc
 50
180.0
 51
270.0
  0
ARC
  5
7E2
330
1F
100
AcDbEntity
  8
0
 67
0
100
AcDbCircle
 10
207.69425
 20
-117.0375
 40
0.5
100
AcDbArc
 50
270.0
 51
360.0
  0
LINE
  5
7E3
330
1F
100
AcDbEntity
  8
0
 67
0
100
AcDbLine
 10
178.06825
 20
-103.5375
 11
183.81825
 21
-103.5375
  0
LINE
  5
7E4
330
1F
100
AcDbEntity
  8
0
 67
0
100
AcDbLine
 10
178.06825
 20
-117.5375
 11
183.81825
 21
-117.5375
  0
LINE
  5
7E5
330
1F
100
AcDbEntity
  8
0
 67
0
100
AcDbLine
 10
177.56825
 20
-104.0375
 11
177.56825
 21
-117.0375
  0
LINE
  5
7E6
330
1F
100
AcDbEntity
  8
0
 67
0
100
AcDbLine
 10
184.31825
 20
-104.0375
 11
184.31825
 21
-117.0375
  0
ARC
  5
7E7
330
1F
100
AcDbEntity
  8
0
 67
0
100
AcDbCircle
 10
178.06825
 20
-104.0375
 40
0.5
100
AcDbArc
 50
90.0
 51
180.0
  0
ARC
  5
7E8
330
1F
100
AcDbEntity
  8
0
 67
0
100
AcDbCircle
 10
183.81825
 20
-104.0375
 40
0.5
100
AcDbArc
 50
0.0
 51
90.0
  0
ARC
  5
7E9
330
1F
100
AcDbEntity
  8
0
 67
0
100
AcDbCircle
 10
178.06825
 20
-117.0375
 40
0.5
100
AcDbArc
 50
180.0
 51
270.0
  0
ARC
  5
7EA
330
1F
100
AcDbEntity
  8
0
 67
0
100
AcDbCircle
 10
183.81825
 20
-117.0375
 40
0.5
100
AcDbArc
 50
270.0
 51
360.0
  0
LINE
  5
7EB
330
1F
100
AcDbEntity
  8
0
 67
0
100
AcDbLine
 10
217.3375
 20
-102.5375
 11
230.3375
 21
-102.5375
  0
LINE
  5
7EC
330
1F
100
AcDbEntity
  8
0
 67
0
100
AcDbLine
 10
217.3375
 20
-116.5375
 11
230.3375
 21
-116.5375
  0
LINE
  5
7ED
330
1F
100
AcDbEntity
  8
0
 67
0
100
AcDbLine
 10
216.8375
 20
-103.0375
 11
216.8375
 21
-116.0375
  0
LINE
  5
7EE
330
1F
100
AcDbEntity
  8
0
 67
0
100
AcDbLine
 10
230.8375
 20
-103.0375
 11
230.8375
 21
-116.0375
  0
ARC
  5
7EF
330
1F
100
AcDbEntity
  8
0
 67
0
100
AcDbCircle
 10
217.3375
 20
-103.0375
 40
0.5
100
AcDbArc
 50
90.0
 51
180.0
  0
ARC
  5
7F0
330
1F
100
AcDbEntity
  8
0
 67
0
100
AcDbCircle
 10
230.3375
 20
-103.0375
 40
0.5
100
AcDbArc
 50
0.0
 51
90.0
  0
ARC
  5
7F1
330
1F
100
AcDbEntity
  8
0
 67
0
100
AcDbCircle
 10
217.3375
 20
-116.0375
 40
0.5
100
AcDbArc
 50
180.0
 51
270.0
  0
ARC
  5
7F2
330
1F
100
AcDbEntity
  8
0
 67
0
100
AcDbCircle
 10
230.3375
 20
-116.0375
 40
0.5
100
AcDbArc
 50
270.0
 51
360.0
  0
LINE
  5
7F3
330
1F
100
AcDbEntity
  8
0
 67
0
100
AcDbLine
 10
236.3875
 20
-102.5375
 11
249.3875
 21
-102.5375
  0
LINE
  5
7F4
330
1F
100
AcDbEntity
  8
0
 67
0
100
AcDbLine
 10
236.3875
 20
-116.5375
 11
249.3875
 21
-116.5375
  0
LINE
  5
7F5
330
1F
100
AcDbEntity
  8
0
 67
0
100
AcDbLine
 10
235.8875
 20
-103.0375
 11
235.8875
 21
-116.0375
  0
LINE
  5
7F6
330
1F
100
AcDbEntity
  8
0
 67
0
100
AcDbLine
 10
249.8875
 20
-103.0375
 11
249.8875
 21
-116.0375
  0
ARC
  5
7F7
330
1F
100
AcDbEntity
  8
0
 67
0
100
AcDbCircle
 10
236.3875
 20
-103.0375
 40
0.5
100
AcDbArc
 50
90.0
 51
180.0
  0
ARC
  5
7F8
330
1F
100
AcDbEntity
  8
0
 67
0
100
AcDbCircle
 10
249.3875
 20
-103.0375
 40
0.5
100
AcDbArc
 50
0.0
 51
90.0
  0
ARC
  5
7F9
330
1F
100
AcDbEntity
  8
0
 67
0
100
AcDbCircle
 10
236.3875
 20
-116.0375
 40
0.5
100
AcDbArc
 50
180.0
 51
270.0
  0
ARC
  5
7FA
330
1F
100
AcDbEntity
  8
0
 67
0
100
AcDbCircle
 10
249.3875
 20
-116.0375
 40
0.5
100
AcDbArc
 50
270.0
 51
360.0
  0
LINE
  5
7FB
330
1F
100
AcDbEntity
  8
0
 67
0
100
AcDbLine
 10
255.4375
 20
-102.5375
 11
268.4375
 21
-102.5375
  0
LINE
  5
7FC
330
1F
100
AcDbEntity
  8
0
 67
0
100
AcDbLine
 10
255.4375
 20
-116.5375
 11
268.4375
 21
-116.5375
  0
LINE
  5
7FD
330
1F
100
AcDbEntity
  8
0
 67
0
100
AcDbLine
 10
254.9375
 20
-103.0375
 11
254.9375
 21
-116.0375
  0
LINE
  5
7FE
330
1F
100
AcDbEntity
  8
0
 67
0
100
AcDbLine
 10
268.9375
 20
-103.0375
 11
268.9375
 21
-116.0375
  0
ARC
  5
7FF
330
1F
100
AcDbEntity
  8
0
 67
0
100
AcDbCircle
 10
255.4375
 20
-103.0375
 40
0.5
100
AcDbArc
 50
90.0
 51
180.0
  0
ARC
  5
800
330
1F
100
AcDbEntity
  8
0
 67
0
100
AcDbCircle
 10
268.4375
 20
-103.0375
 40
0.5
100
AcDbArc
 50
0.0
 51
90.0
  0
ARC
  5
801
330
1F
100
AcDbEntity
  8
0
 67
0
100
AcDbCircle
 10
255.4375
 20
-116.0375
 40
0.5
100
AcDbArc
 50
180.0
 51
270.0
  0
ARC
  5
802
330
1F
100
AcDbEntity
  8
0
 67
0
100
AcDbCircle
 10
268.4375
 20
-116.0375
 40
0.5
100
AcDbArc
 50
270.0
 51
360.0
  0
LINE
  5
803
330
1F
100
AcDbEntity
  8
0
 67
0
100
AcDbLine
 10
274.4875
 20
-102.5375
 11
287.4875
 21
-102.5375
  0
LINE
  5
804
330
1F
100
AcDbEntity
  8
0
 67
0
100
AcDbLine
 10
274.4875
 20
-116.5375
 11
287.4875
 21
-116.5375
  0
LINE
  5
805
330
1F
100
AcDbEntity
  8
0
 67
0
100
AcDbLine
 10
273.9875
 20
-103.0375
 11
273.9875
 21
-116.0375
  0
LINE
  5
806
330
1F
100
AcDbEntity
  8
0
 67
0
100
AcDbLine
 10
287.9875
 20
-103.0375
 11
287.9875
 21
-116.0375
  0
ARC
  5
807
330
1F
100
AcDbEntity
  8
0
 67
0
100
AcDbCircle
 10
274.4875
 20
-103.0375
 40
0.5
100
AcDbArc
 50
90.0
 51
180.0
  0
ARC
  5
808
330
1F
100
AcDbEntity
  8
0
 67
0
100
AcDbCircle
 10
287.4875
 20
-103.0375
 40
0.5
100
AcDbArc
 50
0.0
 51
90.0
  0
ARC
  5
809
330
1F
100
AcDbEntity
  8
0
 67
0
100
AcDbCircle
 10
274.4875
 20
-116.0375
 40
0.5
100
AcDbArc
 50
180.0
 51
270.0
  0
ARC
  5
80A
330
1F
100
AcDbEntity
  8
0
 67
0
100
AcDbCircle
 10
287.4875
 20
-116.0375
 40
0.5
100
AcDbArc
 50
270.0
 51
360.0
  0
LINE
  5
80B
330
1F
100
AcDbEntity
  8
0
 67
0
100
AcDbLine
 10
293.5375
 20
-102.5375
 11
306.5375
 21
-102.5375
  0
LINE
  5
80C
330
1F
100
AcDbEntity
  8
0
 67
0
100
AcDbLine
 10
293.5375
 20
-116.5375
 11
306.5375
 21
-116.5375
  0
LINE
  5
80D
330
1F
100
AcDbEntity
  8
0
 67
0
100
AcDbLine
 10
293.0375
 20
-103.0375
 11
293.0375
 21
-116.0375
  0
LINE
  5
80E
330
1F
100
AcDbEntity
  8
0
 67
0
100
AcDbLine
 10
307.0375
 20
-103.0375
 11
307.0375
 21
-116.0375
  0
ARC
  5
80F
330
1F
100
AcDbEntity
  8
0
 67
0
100
AcDbCircle
 10
293.5375
 20
-103.0375
 40
0.5
100
AcDbArc
 50
90.0
 51
180.0
  0
ARC
  5
810
330
1F
100
AcDbEntity
  8
0
 67
0
100
AcDbCircle
 10
306.5375
 20
-103.0375
 40
0.5
100
AcDbArc
 50
0.0
 51
90.0
  0
ARC
  5
811
330
1F
100
AcDbEntity
  8
0
 67
0
100
AcDbCircle
 10
293.5375
 20
-116.0375
 40
0.5
100
AcDbArc
 50
180.0
 51
270.0
  0
ARC
  5
812
330
1F
100
AcDbEntity
  8
0
 67
0
100
AcDbCircle
 10
306.5375
 20
-116.0375
 40
0.5
100
AcDbArc
 50
270.0
 51
360.0
  0
LINE
  5
813
330
1F
100
AcDbEntity
  8
0
 67
0
100
AcDbLine
 10
312.5875
 20
-102.5375
 11
325.5875
 21
-102.5375
  0
LINE
  5
814
330
1F
100
AcDbEntity
  8
0
 67
0
100
AcDbLine
 10
312.5875
 20
-116.5375
 11
325.5875
 21
-116.5375
  0
LINE
  5
815
330
1F
100
AcDbEntity
  8
0
 67
0
100
AcDbLine
 10
312.0875
 20
-103.0375
 11
312.0875
 21
-116.0375
  0
LINE
  5
816
330
1F
100
AcDbEntity
  8
0
 67
0
100
AcDbLine
 10
326.0875
 20
-103.0375
 11
326.0875
 21
-116.0375
  0
ARC
  5
817
330
1F
100
AcDbEntity
  8
0
 67
0
100
AcDbCircle
 10
312.5875
 20
-103.0375
 40
0.5
100
AcDbArc
 50
90.0
 51
180.0
  0
ARC
  5
818
330
1F
100
AcDbEntity
  8
0
 67
0
100
AcDbCircle
 10
325.5875
 20
-103.0375
 40
0.5
100
AcDbArc
 50
0.0
 51
90.0
  0
ARC
  5
819
330
1F
100
AcDbEntity
  8
0
 67
0
100
AcDbCircle
 10
312.5875
 20
-116.0375
 40
0.5
100
AcDbArc
 50
180.0
 51
270.0
  0
ARC
  5
81A
330
1F
100
AcDbEntity
  8
0
 67
0
100
AcDbCircle
 10
325.5875
 20
-116.0375
 40
0.5
100
AcDbArc
 50
270.0
 51
360.0
  0
LINE
  5
81B
330
1F
100
AcDbEntity
  8
0
 67
0
100
AcDbLine
 10
331.6375
 20
-102.5375
 11
344.6375
 21
-102.5375
  0
LINE
  5
81C
330
1F
100
AcDbEntity
  8
0
 67
0
100
AcDbLine
 10
331.6375
 20
-116.5375
 11
344.6375
 21
-116.5375
  0
LINE
  5
81D
330
1F
100
AcDbEntity
  8
0
 67
0
100
AcDbLine
 10
331.1375
 20
-103.0375
 11
331.1375
 21
-116.0375
  0
LINE
  5
81E
330
1F
100
AcDbEntity
  8
0
 67
0
100
AcDbLine
 10
345.1375
 20
-103.0375
 11
345.1375
 21
-116.0375
  0
ARC
  5
81F
330
1F
100
AcDbEntity
  8
0
 67
0
100
AcDbCircle
 10
331.6375
 20
-103.0375
 40
0.5
100
AcDbArc
 50
90.0
 51
180.0
  0
ARC
  5
820
330
1F
100
AcDbEntity
  8
0
 67
0
100
AcDbCircle
 10
344.6375
 20
-103.0375
 40
0.5
100
AcDbArc
 50
0.0
 51
90.0
  0
ARC
  5
821
330
1F
100
AcDbEntity
  8
0
 67
0
100
AcDbCircle
 10
331.6375
 20
-116.0375
 40
0.5
100
AcDbArc
 50
180.0
 51
270.0
  0
ARC
  5
822
330
1F
100
AcDbEntity
  8
0
 67
0
100
AcDbCircle
 10
344.6375
 20
-116.0375
 40
0.5
100
AcDbArc
 50
270.0
 51
360.0
  0
LINE
  5
823
330
1F
100
AcDbEntity
  8
0
 67
0
100
AcDbLine
 10
350.6875
 20
-102.5375
 11
363.6875
 21
-102.5375
  0
LINE
  5
824
330
1F
100
AcDbEntity
  8
0
 67
0
100
AcDbLine
 10
350.6875
 20
-116.5375
 11
363.6875
 21
-116.5375
  0
LINE
  5
825
330
1F
100
AcDbEntity
  8
0
 67
0
100
AcDbLine
 10
350.1875
 20
-103.0375
 11
350.1875
 21
-116.0375
  0
LINE
  5
826
330
1F
100
AcDbEntity
  8
0
 67
0
100
AcDbLine
 10
364.1875
 20
-103.0375
 11
364.1875
 21
-116.0375
  0
ARC
  5
827
330
1F
100
AcDbEntity
  8
0
 67
0
100
AcDbCircle
 10
350.6875
 20
-103.0375
 40
0.5
100
AcDbArc
 50
90.0
 51
180.0
  0
ARC
  5
828
330
1F
100
AcDbEntity
  8
0
 67
0
100
AcDbCircle
 10
363.6875
 20
-103.0375
 40
0.5
100
AcDbArc
 50
0.0
 51
90.0
  0
ARC
  5
829
330
1F
100
AcDbEntity
  8
0
 67
0
100
AcDbCircle
 10
350.6875
 20
-116.0375
 40
0.5
100
AcDbArc
 50
180.0
 51
270.0
  0
ARC
  5
82A
330
1F
100
AcDbEntity
  8
0
 67
0
100
AcDbCircle
 10
363.6875
 20
-116.0375
 40
0.5
100
AcDbArc
 50
270.0
 51
360.0
  0
LINE
  5
82B
330
1F
100
AcDbEntity
  8
0
 67
0
100
AcDbLine
 10
369.7375
 20
-102.5375
 11
382.7375
 21
-102.5375
  0
LINE
  5
82C
330
1F
100
AcDbEntity
  8
0
 67
0
100
AcDbLine
 10
369.7375
 20
-116.5375
 11
382.7375
 21
-116.5375
  0
LINE
  5
82D
330
1F
100
AcDbEntity
  8
0
 67
0
100
AcDbLine
 10
369.2375
 20
-103.0375
 11
369.2375
 21
-116.0375
  0
LINE
  5
82E
330
1F
100
AcDbEntity
  8
0
 67
0
100
AcDbLine
 10
383.2375
 20
-103.0375
 11
383.2375
 21
-116.0375
  0
ARC
  5
82F
330
1F
100
AcDbEntity
  8
0
 67
0
100
AcDbCircle
 10
369.7375
 20
-103.0375
 40
0.5
100
AcDbArc
 50
90.0
 51
180.0
  0
ARC
  5
830
330
1F
100
AcDbEntity
  8
0
 67
0
100
AcDbCircle
 10
382.7375
 20
-103.0375
 40
0.5
100
AcDbArc
 50
0.0
 51
90.0
  0
ARC
  5
831
330
1F
100
AcDbEntity
  8
0
 67
0
100
AcDbCircle
 10
369.7375
 20
-116.0375
 40
0.5
100
AcDbArc
 50
180.0
 51
270.0
  0
ARC
  5
832
330
1F
100
AcDbEntity
  8
0
 67
0
100
AcDbCircle
 10
382.7375
 20
-116.0375
 40
0.5
100
AcDbArc
 50
270.0
 51
360.0
  0
LINE
  5
833
330
1F
100
AcDbEntity
  8
0
 67
0
100
AcDbLine
 10
388.7875
 20
-102.5375
 11
401.7875
 21
-102.5375
  0
LINE
  5
834
330
1F
100
AcDbEntity
  8
0
 67
0
100
AcDbLine
 10
388.7875
 20
-116.5375
 11
401.7875
 21
-116.5375
  0
LINE
  5
835
330
1F
100
AcDbEntity
  8
0
 67
0
100
AcDbLine
 10
388.2875
 20
-103.0375
 11
388.2875
 21
-116.0375
  0
LINE
  5
836
330
1F
100
AcDbEntity
  8
0
 67
0
100
AcDbLine
 10
402.2875
 20
-103.0375
 11
402.2875
 21
-116.0375
  0
ARC
  5
837
330
1F
100
AcDbEntity
  8
0
 67
0
100
AcDbCircle
 10
388.7875
 20
-103.0375
 40
0.5
100
AcDbArc
 50
90.0
 51
180.0
  0
ARC
  5
838
330
1F
100
AcDbEntity
  8
0
 67
0
100
AcDbCircle
 10
401.7875
 20
-103.0375
 40
0.5
100
AcDbArc
 50
0.0
 51
90.0
  0
ARC
  5
839
330
1F
100
AcDbEntity
  8
0
 67
0
100
AcDbCircle
 10
388.7875
 20
-116.0375
 40
0.5
100
AcDbArc
 50
180.0
 51
270.0
  0
ARC
  5
83A
330
1F
100
AcDbEntity
  8
0
 67
0
100
AcDbCircle
 10
401.7875
 20
-116.0375
 40
0.5
100
AcDbArc
 50
270.0
 51
360.0
  0
LINE
  5
83B
330
1F
100
AcDbEntity
  8
0
 67
0
100
AcDbLine
 10
424.50625
 20
-102.5375
 11
437.50625
 21
-102.5375
  0
LINE
  5
83C
330
1F
100
AcDbEntity
  8
0
 67
0
100
AcDbLine
 10
424.50625
 20
-116.5375
 11
437.50625
 21
-116.5375
  0
LINE
  5
83D
330
1F
100
AcDbEntity
  8
0
 67
0
100
AcDbLine
 10
424.00625
 20
-103.0375
 11
424.00625
 21
-116.0375
  0
LINE
  5
83E
330
1F
100
AcDbEntity
  8
0
 67
0
100
AcDbLine
 10
438.00625
 20
-103.0375
 11
438.00625
 21
-116.0375
  0
ARC
  5
83F
330
1F
100
AcDbEntity
  8
0
 67
0
100
AcDbCircle
 10
424.50625
 20
-103.0375
 40
0.5
100
AcDbArc
 50
90.0
 51
180.0
  0
ARC
  5
840
330
1F
100
AcDbEntity
  8
0
 67
0
100
AcDbCircle
 10
437.50625
 20
-103.0375
 40
0.5
100
AcDbArc
 50
0.0
 51
90.0
  0
ARC
  5
841
330
1F
100
AcDbEntity
  8
0
 67
0
100
AcDbCircle
 10
424.50625
 20
-116.0375
 40
0.5
100
AcDbArc
 50
180.0
 51
270.0
  0
ARC
  5
842
330
1F
100
AcDbEntity
  8
0
 67
0
100
AcDbCircle
 10
437.50625
 20
-116.0375
 40
0.5
100
AcDbArc
 50
270.0
 51
360.0
  0
LINE
  5
843
330
1F
100
AcDbEntity
  8
0
 67
0
100
AcDbLine
 10
440.06925
 20
-103.5375
 11
445.81925
 21
-103.5375
  0
LINE
  5
844
330
1F
100
AcDbEntity
  8
0
 67
0
100
AcDbLine
 10
440.06925
 20
-117.5375
 11
445.81925
 21
-117.5375
  0
LINE
  5
845
330
1F
100
AcDbEntity
  8
0
 67
0
100
AcDbLine
 10
439.56925
 20
-104.0375
 11
439.56925
 21
-117.0375
  0
LINE
  5
846
330
1F
100
AcDbEntity
  8
0
 67
0
100
AcDbLine
 10
446.31925
 20
-104.0375
 11
446.31925
 21
-117.0375
  0
ARC
  5
847
330
1F
100
AcDbEntity
  8
0
 67
0
100
AcDbCircle
 10
440.06925
 20
-104.0375
 40
0.5
100
AcDbArc
 50
90.0
 51
180.0
  0
ARC
  5
848
330
1F
100
AcDbEntity
  8
0
 67
0
100
AcDbCircle
 10
445.81925
 20
-104.0375
 40
0.5
100
AcDbArc
 50
0.0
 51
90.0
  0
ARC
  5
849
330
1F
100
AcDbEntity
  8
0
 67
0
100
AcDbCircle
 10
440.06925
 20
-117.0375
 40
0.5
100
AcDbArc
 50
180.0
 51
270.0
  0
ARC
  5
84A
330
1F
100
AcDbEntity
  8
0
 67
0
100
AcDbCircle
 10
445.81925
 20
-117.0375
 40
0.5
100
AcDbArc
 50
270.0
 51
360.0
  0
LINE
  5
84B
330
1F
100
AcDbEntity
  8
0
 67
0
100
AcDbLine
 10
416.19325
 20
-103.5375
 11
421.94325
 21
-103.5375
  0
LINE
  5
84C
330
1F
100
AcDbEntity
  8
0
 67
0
100
AcDbLine
 10
416.19325
 20
-117.5375
 11
421.94325
 21
-117.5375
  0
LINE
  5
84D
330
1F
100
AcDbEntity
  8
0
 67
0
100
AcDbLine
 10
415.69325
 20
-104.0375
 11
415.69325
 21
-117.0375
  0
LINE
  5
84E
330
1F
100
AcDbEntity
  8
0
 67
0
100
AcDbLine
 10
422.44325
 20
-104.0375
 11
422.44325
 21
-117.0375
  0
ARC
  5
84F
330
1F
100
AcDbEntity
  8
0
 67
0
100
AcDbCircle
 10
416.19325
 20
-104.0375
 40
0.5
100
AcDbArc
 50
90.0
 51
180.0
  0
ARC
  5
850
330
1F
100
AcDbEntity
  8
0
 67
0
100
AcDbCircle
 10
421.94325
 20
-104.0375
 40
0.5
100
AcDbArc
 50
0.0
 51
90.0
  0
ARC
  5
851
330
1F
100
AcDbEntity
  8
0
 67
0
100
AcDbCircle
 10
416.19325
 20
-117.0375
 40
0.5
100
AcDbArc
 50
180.0
 51
270.0
  0
ARC
  5
852
330
1F
100
AcDbEntity
  8
0
 67
0
100
AcDbCircle
 10
421.94325
 20
-117.0375
 40
0.5
100
AcDbArc
 50
270.0
 51
360.0
  0
LINE
  5
853
330
1F
100
AcDbEntity
  8
0
 67
0
100
AcDbLine
 10
464.9875
 20
-102.5375
 11
477.9875
 21
-102.5375
  0
LINE
  5
854
330
1F
100
AcDbEntity
  8
0
 67
0
100
AcDbLine
 10
464.9875
 20
-116.5375
 11
477.9875
 21
-116.5375
  0
LINE
  5
855
330
1F
100
AcDbEntity
  8
0
 67
0
100
AcDbLine
 10
464.4875
 20
-103.0375
 11
464.4875
 21
-116.0375
  0
LINE
  5
856
330
1F
100
AcDbEntity
  8
0
 67
0
100
AcDbLine
 10
478.4875
 20
-103.0375
 11
478.4875
 21
-116.0375
  0
ARC
  5
857
330
1F
100
AcDbEntity
  8
0
 67
0
100
AcDbCircle
 10
464.9875
 20
-103.0375
 40
0.5
100
AcDbArc
 50
90.0
 51
180.0
  0
ARC
  5
858
330
1F
100
AcDbEntity
  8
0
 67
0
100
AcDbCircle
 10
477.9875
 20
-103.0375
 40
0.5
100
AcDbArc
 50
0.0
 51
90.0
  0
ARC
  5
859
330
1F
100
AcDbEntity
  8
0
 67
0
100
AcDbCircle
 10
464.9875
 20
-116.0375
 40
0.5
100
AcDbArc
 50
180.0
 51
270.0
  0
ARC
  5
85A
330
1F
100
AcDbEntity
  8
0
 67
0
100
AcDbCircle
 10
477.9875
 20
-116.0375
 40
0.5
100
AcDbArc
 50
270.0
 51
360.0
  0
LINE
  5
85B
330
1F
100
AcDbEntity
  8
0
 67
0
100
AcDbLine
 10
484.0375
 20
-102.5375
 11
497.0375
 21
-102.5375
  0
LINE
  5
85C
330
1F
100
AcDbEntity
  8
0
 67
0
100
AcDbLine
 10
484.0375
 20
-116.5375
 11
497.0375
 21
-116.5375
  0
LINE
  5
85D
330
1F
100
AcDbEntity
  8
0
 67
0
100
AcDbLine
 10
483.5375
 20
-103.0375
 11
483.5375
 21
-116.0375
  0
LINE
  5
85E
330
1F
100
AcDbEntity
  8
0
 67
0
100
AcDbLine
 10
497.5375
 20
-103.0375
 11
497.5375
 21
-116.0375
  0
ARC
  5
85F
330
1F
100
AcDbEntity
  8
0
 67
0
100
AcDbCircle
 10
484.0375
 20
-103.0375
 40
0.5
100
AcDbArc
 50
90.0
 51
180.0
  0
ARC
  5
860
330
1F
100
AcDbEntity
  8
0
 67
0
100
AcDbCircle
 10
497.0375
 20
-103.0375
 40
0.5
100
AcDbArc
 50
0.0
 51
90.0
  0
ARC
  5
861
330
1F
100
AcDbEntity
  8
0
 67
0
100
AcDbCircle
 10
484.0375
 20
-116.0375
 40
0.5
100
AcDbArc
 50
180.0
 51
270.0
  0
ARC
  5
862
330
1F
100
AcDbEntity
  8
0
 67
0
100
AcDbCircle
 10
497.0375
 20
-116.0375
 40
0.5
100
AcDbArc
 50
270.0
 51
360.0
  0
LINE
  5
863
330
1F
100
AcDbEntity
  8
0
 67
0
100
AcDbLine
 10
503.0875
 20
-102.5375
 11
516.0875
 21
-102.5375
  0
LINE
  5
864
330
1F
100
AcDbEntity
  8
0
 67
0
100
AcDbLine
 10
503.0875
 20
-116.5375
 11
516.0875
 21
-116.5375
  0
LINE
  5
865
330
1F
100
AcDbEntity
  8
0
 67
0
100
AcDbLine
 10
502.5875
 20
-103.0375
 11
502.5875
 21
-116.0375
  0
LINE
  5
866
330
1F
100
AcDbEntity
  8
0
 67
0
100
AcDbLine
 10
516.5875
 20
-103.0375
 11
516.5875
 21
-116.0375
  0
ARC
  5
867
330
1F
100
AcDbEntity
  8
0
 67
0
100
AcDbCircle
 10
503.0875
 20
-103.0375
 40
0.5
100
AcDbArc
 50
90.0
 51
180.0
  0
ARC
  5
868
330
1F
100
AcDbEntity
  8
0
 67
0
100
AcDbCircle
 10
516.0875
 20
-103.0375
 40
0.5
100
AcDbArc
 50
0.0
 51
90.0
  0
ARC
  5
869
330
1F
100
AcDbEntity
  8
0
 67
0
100
AcDbCircle
 10
503.0875
 20
-116.0375
 40
0.5
100
AcDbArc
 50
180.0
 51
270.0
  0
ARC
  5
86A
330
1F
100
AcDbEntity
  8
0
 67
0
100
AcDbCircle
 10
516.0875
 20
-116.0375
 40
0.5
100
AcDbArc
 50
270.0
 51
360.0
  0
LINE
  5
86B
330
1F
100
AcDbEntity
  8
0
 67
0
100
AcDbLine
 10
535.6375
 20
-112.5625
 11
535.6375
 21
-125.5625
  0
LINE
  5
86C
330
1F
100
AcDbEntity
  8
0
 67
0
100
AcDbLine
 10
521.6375
 20
-112.5625
 11
521.6375
 21
-125.5625
  0
LINE
  5
86D
330
1F
100
AcDbEntity
  8
0
 67
0
100
AcDbLine
 10
535.1375
 20
-112.0625
 11
522.1375
 21
-112.0625
  0
LINE
  5
86E
330
1F
100
AcDbEntity
  8
0
 67
0
100
AcDbLine
 10
535.1375
 20
-126.0625
 11
522.1375
 21
-126.0625
  0
ARC
  5
86F
330
1F
100
AcDbEntity
  8
0
 67
0
100
AcDbCircle
 10
535.1375
 20
-112.5625
 40
0.5
100
AcDbArc
 50
0.0
 51
90.0
  0
ARC
  5
870
330
1F
100
AcDbEntity
  8
0
 67
0
100
AcDbCircle
 10
535.1375
 20
-125.5625
 40
0.5
100
AcDbArc
 50
-90.0
 51
0.0
  0
ARC
  5
871
330
1F
100
AcDbEntity
  8
0
 67
0
100
AcDbCircle
 10
522.1375
 20
-112.5625
 40
0.5
100
AcDbArc
 50
90.0
 51
180.0
  0
ARC
  5
872
330
1F
100
AcDbEntity
  8
0
 67
0
100
AcDbCircle
 10
522.1375
 20
-125.5625
 40
0.5
100
AcDbArc
 50
180.0
 51
270.0
  0
LINE
  5
873
330
1F
100
AcDbEntity
  8
0
 67
0
100
AcDbLine
 10
534.6375
 20
-128.1255
 11
534.6375
 21
-133.8755
  0
LINE
  5
874
330
1F
100
AcDbEntity
  8
0
 67
0
100
AcDbLine
 10
520.6375
 20
-128.1255
 11
520.6375
 21
-133.8755
  0
LINE
  5
875
330
1F
100
AcDbEntity
  8
0
 67
0
100
AcDbLine
 10
534.1375
 20
-127.6255
 11
521.1375
 21
-127.6255
  0
LINE
  5
876
330
1F
100
AcDbEntity
  8
0
 67
0
100
AcDbLine
 10
534.1375
 20
-134.3755
 11
521.1375
 21
-134.3755
  0
ARC
  5
877
330
1F
100
AcDbEntity
  8
0
 67
0
100
AcDbCircle
 10
534.1375
 20
-128.1255
 40
0.5
100
AcDbArc
 50
0.0
 51
90.0
  0
ARC
  5
878
330
1F
100
AcDbEntity
  8
0
 67
0
100
AcDbCircle
 10
534.1375
 20
-133.8755
 40
0.5
100
AcDbArc
 50
-90.0
 51
0.0
  0
ARC
  5
879
330
1F
100
AcDbEntity
  8
0
 67
0
100
AcDbCircle
 10
521.1375
 20
-128.1255
 40
0.5
100
AcDbArc
 50
90.0
 51
180.0
  0
ARC
  5
87A
330
1F
100
AcDbEntity
  8
0
 67
0
100
AcDbCircle
 10
521.1375
 20
-133.8755
 40
0.5
100
AcDbArc
 50
180.0
 51
270.0
  0
LINE
  5
87B
330
1F
100
AcDbEntity
  8
0
 67
0
100
AcDbLine
 10
534.6375
 20
-104.2495
 11
534.6375
 21
-109.9995
  0
LINE
  5
87C
330
1F
100
AcDbEntity
  8
0
 67
0
100
AcDbLine
 10
520.6375
 20
-104.2495
 11
520.6375
 21
-109.9995
  0
LINE
  5
87D
330
1F
100
AcDbEntity
  8
0
 67
0
100
AcDbLine
 10
534.1375
 20
-103.7495
 11
521.1375
 21
-103.7495
  0
LINE
  5
87E
330
1F
100
AcDbEntity
  8
0
 67
0
100
AcDbLine
 10
534.1375
 20
-110.4995
 11
521.1375
 21
-110.4995
  0
ARC
  5
87F
330
1F
100
AcDbEntity
  8
0
 67
0
100
AcDbCircle
 10
534.1375
 20
-104.2495
 40
0.5
100
AcDbArc
 50
0.0
 51
90.0
  0
ARC
  5
880
330
1F
100
AcDbEntity
  8
0
 67
0
100
AcDbCircle
 10
534.1375
 20
-109.9995
 40
0.5
100
AcDbArc
 50
-90.0
 51
0.0
  0
ARC
  5
881
330
1F
100
AcDbEntity
  8
0
 67
0
100
AcDbCircle
 10
521.1375
 20
-104.2495
 40
0.5
100
AcDbArc
 50
90.0
 51
180.0
  0
ARC
  5
882
330
1F
100
AcDbEntity
  8
0
 67
0
100
AcDbCircle
 10
521.1375
 20
-109.9995
 40
0.5
100
AcDbArc
 50
180.0
 51
270.0
  0
LINE
  5
883
330
1F
100
AcDbEntity
  8
0
 67
0
100
AcDbLine
 10
176.85625
 20
-121.5875
 11
189.85625
 21
-121.5875
  0
LINE
  5
884
330
1F
100
AcDbEntity
  8
0
 67
0
100
AcDbLine
 10
176.85625
 20
-135.5875
 11
189.85625
 21
-135.5875
  0
LINE
  5
885
330
1F
100
AcDbEntity
  8
0
 67
0
100
AcDbLine
 10
176.35625
 20
-122.0875
 11
176.35625
 21
-135.0875
  0
LINE
  5
886
330
1F
100
AcDbEntity
  8
0
 67
0
100
AcDbLine
 10
190.35625
 20
-122.0875
 11
190.35625
 21
-135.0875
  0
ARC
  5
887
330
1F
100
AcDbEntity
  8
0
 67
0
100
AcDbCircle
 10
176.85625
 20
-122.0875
 40
0.5
100
AcDbArc
 50
90.0
 51
180.0
  0
ARC
  5
888
330
1F
100
AcDbEntity
  8
0
 67
0
100
AcDbCircle
 10
189.85625
 20
-122.0875
 40
0.5
100
AcDbArc
 50
0.0
 51
90.0
  0
ARC
  5
889
330
1F
100
AcDbEntity
  8
0
 67
0
100
AcDbCircle
 10
176.85625
 20
-135.0875
 40
0.5
100
AcDbArc
 50
180.0
 51
270.0
  0
ARC
  5
88A
330
1F
100
AcDbEntity
  8
0
 67
0
100
AcDbCircle
 10
189.85625
 20
-135.0875
 40
0.5
100
AcDbArc
 50
270.0
 51
360.0
  0
LINE
  5
88B
330
1F
100
AcDbEntity
  8
0
 67
0
100
AcDbLine
 10
200.66875
 20
-121.5875
 11
213.66875
 21
-121.5875
  0
LINE
  5
88C
330
1F
100
AcDbEntity
  8
0
 67
0
100
AcDbLine
 10
200.66875
 20
-135.5875
 11
213.66875
 21
-135.5875
  0
LINE
  5
88D
330
1F
100
AcDbEntity
  8
0
 67
0
100
AcDbLine
 10
200.16875
 20
-122.0875
 11
200.16875
 21
-135.0875
  0
LINE
  5
88E
330
1F
100
AcDbEntity
  8
0
 67
0
100
AcDbLine
 10
214.16875
 20
-122.0875
 11
214.16875
 21
-135.0875
  0
ARC
  5
88F
330
1F
100
AcDbEntity
  8
0
 67
0
100
AcDbCircle
 10
200.66875
 20
-122.0875
 40
0.5
100
AcDbArc
 50
90.0
 51
180.0
  0
ARC
  5
890
330
1F
100
AcDbEntity
  8
0
 67
0
100
AcDbCircle
 10
213.66875
 20
-122.0875
 40
0.5
100
AcDbArc
 50
0.0
 51
90.0
  0
ARC
  5
891
330
1F
100
AcDbEntity
  8
0
 67
0
100
AcDbCircle
 10
200.66875
 20
-135.0875
 40
0.5
100
AcDbArc
 50
180.0
 51
270.0
  0
ARC
  5
892
330
1F
100
AcDbEntity
  8
0
 67
0
100
AcDbCircle
 10
213.66875
 20
-135.0875
 40
0.5
100
AcDbArc
 50
270.0
 51
360.0
  0
LINE
  5
893
330
1F
100
AcDbEntity
  8
0
 67
0
100
AcDbLine
 10
224.48125
 20
-121.5875
 11
237.48125
 21
-121.5875
  0
LINE
  5
894
330
1F
100
AcDbEntity
  8
0
 67
0
100
AcDbLine
 10
224.48125
 20
-135.5875
 11
237.48125
 21
-135.5875
  0
LINE
  5
895
330
1F
100
AcDbEntity
  8
0
 67
0
100
AcDbLine
 10
223.98125
 20
-122.0875
 11
223.98125
 21
-135.0875
  0
LINE
  5
896
330
1F
100
AcDbEntity
  8
0
 67
0
100
AcDbLine
 10
237.98125
 20
-122.0875
 11
237.98125
 21
-135.0875
  0
ARC
  5
897
330
1F
100
AcDbEntity
  8
0
 67
0
100
AcDbCircle
 10
224.48125
 20
-122.0875
 40
0.5
100
AcDbArc
 50
90.0
 51
180.0
  0
ARC
  5
898
330
1F
100
AcDbEntity
  8
0
 67
0
100
AcDbCircle
 10
237.48125
 20
-122.0875
 40
0.5
100
AcDbArc
 50
0.0
 51
90.0
  0
ARC
  5
899
330
1F
100
AcDbEntity
  8
0
 67
0
100
AcDbCircle
 10
224.48125
 20
-135.0875
 40
0.5
100
AcDbArc
 50
180.0
 51
270.0
  0
ARC
  5
89A
330
1F
100
AcDbEntity
  8
0
 67
0
100
AcDbCircle
 10
237.48125
 20
-135.0875
 40
0.5
100
AcDbArc
 50
270.0
 51
360.0
  0
LINE
  5
89B
330
1F
100
AcDbEntity
  8
0
 67
0
100
AcDbLine
 10
295.91875
 20
-121.5875
 11
308.91875
 21
-121.5875
  0
LINE
  5
89C
330
1F
100
AcDbEntity
  8
0
 67
0
100
AcDbLine
 10
295.91875
 20
-135.5875
 11
308.91875
 21
-135.5875
  0
LINE
  5
89D
330
1F
100
AcDbEntity
  8
0
 67
0
100
AcDbLine
 10
295.41875
 20
-122.0875
 11
295.41875
 21
-135.0875
  0
LINE
  5
89E
330
1F
100
AcDbEntity
  8
0
 67
0
100
AcDbLine
 10
309.41875
 20
-122.0875
 11
309.41875
 21
-135.0875
  0
ARC
  5
89F
330
1F
100
AcDbEntity
  8
0
 67
0
100
AcDbCircle
 10
295.91875
 20
-122.0875
 40
0.5
100
AcDbArc
 50
90.0
 51
180.0
  0
ARC
  5
8A0
330
1F
100
AcDbEntity
  8
0
 67
0
100
AcDbCircle
 10
308.91875
 20
-122.0875
 40
0.5
100
AcDbArc
 50
0.0
 51
90.0
  0
ARC
  5
8A1
330
1F
100
AcDbEntity
  8
0
 67
0
100
AcDbCircle
 10
295.91875
 20
-135.0875
 40
0.5
100
AcDbArc
 50
180.0
 51
270.0
  0
ARC
  5
8A2
330
1F
100
AcDbEntity
  8
0
 67
0
100
AcDbCircle
 10
308.91875
 20
-135.0875
 40
0.5
100
AcDbArc
 50
270.0
 51
360.0
  0
LINE
  5
8A3
330
1F
100
AcDbEntity
  8
0
 67
0
100
AcDbLine
 10
349.54375
 20
-122.5875
 11
355.29375
 21
-122.5875
  0
LINE
  5
8A4
330
1F
100
AcDbEntity
  8
0
 67
0
100
AcDbLine
 10
349.54375
 20
-136.5875
 11
355.29375
 21
-136.5875
  0
LINE
  5
8A5
330
1F
100
AcDbEntity
  8
0
 67
0
100
AcDbLine
 10
349.04375
 20
-123.0875
 11
349.04375
 21
-136.0875
  0
LINE
  5
8A6
330
1F
100
AcDbEntity
  8
0
 67
0
100
AcDbLine
 10
355.79375
 20
-123.0875
 11
355.79375
 21
-136.0875
  0
ARC
  5
8A7
330
1F
100
AcDbEntity
  8
0
 67
0
100
AcDbCircle
 10
349.54375
 20
-123.0875
 40
0.5
100
AcDbArc
 50
90.0
 51
180.0
  0
ARC
  5
8A8
330
1F
100
AcDbEntity
  8
0
 67
0
100
AcDbCircle
 10
355.29375
 20
-123.0875
 40
0.5
100
AcDbArc
 50
0.0
 51
90.0
  0
ARC
  5
8A9
330
1F
100
AcDbEntity
  8
0
 67
0
100
AcDbCircle
 10
349.54375
 20
-136.0875
 40
0.5
100
AcDbArc
 50
180.0
 51
270.0
  0
ARC
  5
8AA
330
1F
100
AcDbEntity
  8
0
 67
0
100
AcDbCircle
 10
355.29375
 20
-136.0875
 40
0.5
100
AcDbArc
 50
270.0
 51
360.0
  0
LINE
  5
8AB
330
1F
100
AcDbEntity
  8
0
 67
0
100
AcDbLine
 10
249.54375
 20
-122.5875
 11
255.29375
 21
-122.5875
  0
LINE
  5
8AC
330
1F
100
AcDbEntity
  8
0
 67
0
100
AcDbLine
 10
249.54375
 20
-136.5875
 11
255.29375
 21
-136.5875
  0
LINE
  5
8AD
330
1F
100
AcDbEntity
  8
0
 67
0
100
AcDbLine
 10
249.04375
 20
-123.0875
 11
249.04375
 21
-136.0875
  0
LINE
  5
8AE
330
1F
100
AcDbEntity
  8
0
 67
0
100
AcDbLine
 10
255.79375
 20
-123.0875
 11
255.79375
 21
-136.0875
  0
ARC
  5
8AF
330
1F
100
AcDbEntity
  8
0
 67
0
100
AcDbCircle
 10
249.54375
 20
-123.0875
 40
0.5
100
AcDbArc
 50
90.0
 51
180.0
  0
ARC
  5
8B0
330
1F
100
AcDbEntity
  8
0
 67
0
100
AcDbCircle
 10
255.29375
 20
-123.0875
 40
0.5
100
AcDbArc
 50
0.0
 51
90.0
  0
ARC
  5
8B1
330
1F
100
AcDbEntity
  8
0
 67
0
100
AcDbCircle
 10
249.54375
 20
-136.0875
 40
0.5
100
AcDbArc
 50
180.0
 51
270.0
  0
ARC
  5
8B2
330
1F
100
AcDbEntity
  8
0
 67
0
100
AcDbCircle
 10
255.29375
 20
-136.0875
 40
0.5
100
AcDbArc
 50
270.0
 51
360.0
  0
LINE
  5
8B3
330
1F
100
AcDbEntity
  8
0
 67
0
100
AcDbLine
 10
367.35625
 20
-121.5875
 11
380.35625
 21
-121.5875
  0
LINE
  5
8B4
330
1F
100
AcDbEntity
  8
0
 67
0
100
AcDbLine
 10
367.35625
 20
-135.5875
 11
380.35625
 21
-135.5875
  0
LINE
  5
8B5
330
1F
100
AcDbEntity
  8
0
 67
0
100
AcDbLine
 10
366.85625
 20
-122.0875
 11
366.85625
 21
-135.0875
  0
LINE
  5
8B6
330
1F
100
AcDbEntity
  8
0
 67
0
100
AcDbLine
 10
380.85625
 20
-122.0875
 11
380.85625
 21
-135.0875
  0
ARC
  5
8B7
330
1F
100
AcDbEntity
  8
0
 67
0
100
AcDbCircle
 10
367.35625
 20
-122.0875
 40
0.5
100
AcDbArc
 50
90.0
 51
180.0
  0
ARC
  5
8B8
330
1F
100
AcDbEntity
  8
0
 67
0
100
AcDbCircle
 10
380.35625
 20
-122.0875
 40
0.5
100
AcDbArc
 50
0.0
 51
90.0
  0
ARC
  5
8B9
330
1F
100
AcDbEntity
  8
0
 67
0
100
AcDbCircle
 10
367.35625
 20
-135.0875
 40
0.5
100
AcDbArc
 50
180.0
 51
270.0
  0
ARC
  5
8BA
330
1F
100
AcDbEntity
  8
0
 67
0
100
AcDbCircle
 10
380.35625
 20
-135.0875
 40
0.5
100
AcDbArc
 50
270.0
 51
360.0
  0
LINE
  5
8BB
330
1F
100
AcDbEntity
  8
0
 67
0
100
AcDbLine
 10
391.16875
 20
-121.5875
 11
404.16875
 21
-121.5875
  0
LINE
  5
8BC
330
1F
100
AcDbEntity
  8
0
 67
0
100
AcDbLine
 10
391.16875
 20
-135.5875
 11
404.16875
 21
-135.5875
  0
LINE
  5
8BD
330
1F
100
AcDbEntity
  8
0
 67
0
100
AcDbLine
 10
390.66875
 20
-122.0875
 11
390.66875
 21
-135.0875
  0
LINE
  5
8BE
330
1F
100
AcDbEntity
  8
0
 67
0
100
AcDbLine
 10
404.66875
 20
-122.0875
 11
404.66875
 21
-135.0875
  0
ARC
  5
8BF
330
1F
100
AcDbEntity
  8
0
 67
0
100
AcDbCircle
 10
391.16875
 20
-122.0875
 40
0.5
100
AcDbArc
 50
90.0
 51
180.0
  0
ARC
  5
8C0
330
1F
100
AcDbEntity
  8
0
 67
0
100
AcDbCircle
 10
404.16875
 20
-122.0875
 40
0.5
100
AcDbArc
 50
0.0
 51
90.0
  0
ARC
  5
8C1
330
1F
100
AcDbEntity
  8
0
 67
0
100
AcDbCircle
 10
391.16875
 20
-135.0875
 40
0.5
100
AcDbArc
 50
180.0
 51
270.0
  0
ARC
  5
8C2
330
1F
100
AcDbEntity
  8
0
 67
0
100
AcDbCircle
 10
404.16875
 20
-135.0875
 40
0.5
100
AcDbArc
 50
270.0
 51
360.0
  0
LINE
  5
8C3
330
1F
100
AcDbEntity
  8
0
 67
0
100
AcDbLine
 10
414.98125
 20
-121.5875
 11
427.98125
 21
-121.5875
  0
LINE
  5
8C4
330
1F
100
AcDbEntity
  8
0
 67
0
100
AcDbLine
 10
414.98125
 20
-135.5875
 11
427.98125
 21
-135.5875
  0
LINE
  5
8C5
330
1F
100
AcDbEntity
  8
0
 67
0
100
AcDbLine
 10
414.48125
 20
-122.0875
 11
414.48125
 21
-135.0875
  0
LINE
  5
8C6
330
1F
100
AcDbEntity
  8
0
 67
0
100
AcDbLine
 10
428.48125
 20
-122.0875
 11
428.48125
 21
-135.0875
  0
ARC
  5
8C7
330
1F
100
AcDbEntity
  8
0
 67
0
100
AcDbCircle
 10
414.98125
 20
-122.0875
 40
0.5
100
AcDbArc
 50
90.0
 51
180.0
  0
ARC
  5
8C8
330
1F
100
AcDbEntity
  8
0
 67
0
100
AcDbCircle
 10
427.98125
 20
-122.0875
 40
0.5
100
AcDbArc
 50
0.0
 51
90.0
  0
ARC
  5
8C9
330
1F
100
AcDbEntity
  8
0
 67
0
100
AcDbCircle
 10
414.98125
 20
-135.0875
 40
0.5
100
AcDbArc
 50
180.0
 51
270.0
  0
ARC
  5
8CA
330
1F
100
AcDbEntity
  8
0
 67
0
100
AcDbCircle
 10
427.98125
 20
-135.0875
 40
0.5
100
AcDbArc
 50
270.0
 51
360.0
  0
LINE
  5
8CB
330
1F
100
AcDbEntity
  8
0
 67
0
100
AcDbLine
 10
438.79375
 20
-121.5875
 11
451.79375
 21
-121.5875
  0
LINE
  5
8CC
330
1F
100
AcDbEntity
  8
0
 67
0
100
AcDbLine
 10
438.79375
 20
-135.5875
 11
451.79375
 21
-135.5875
  0
LINE
  5
8CD
330
1F
100
AcDbEntity
  8
0
 67
0
100
AcDbLine
 10
438.29375
 20
-122.0875
 11
438.29375
 21
-135.0875
  0
LINE
  5
8CE
330
1F
100
AcDbEntity
  8
0
 67
0
100
AcDbLine
 10
452.29375
 20
-122.0875
 11
452.29375
 21
-135.0875
  0
ARC
  5
8CF
330
1F
100
AcDbEntity
  8
0
 67
0
100
AcDbCircle
 10
438.79375
 20
-122.0875
 40
0.5
100
AcDbArc
 50
90.0
 51
180.0
  0
ARC
  5
8D0
330
1F
100
AcDbEntity
  8
0
 67
0
100
AcDbCircle
 10
451.79375
 20
-122.0875
 40
0.5
100
AcDbArc
 50
0.0
 51
90.0
  0
ARC
  5
8D1
330
1F
100
AcDbEntity
  8
0
 67
0
100
AcDbCircle
 10
438.79375
 20
-135.0875
 40
0.5
100
AcDbArc
 50
180.0
 51
270.0
  0
ARC
  5
8D2
330
1F
100
AcDbEntity
  8
0
 67
0
100
AcDbCircle
 10
451.79375
 20
-135.0875
 40
0.5
100
AcDbArc
 50
270.0
 51
360.0
  0
LINE
  5
8D3
330
1F
100
AcDbEntity
  8
0
 67
0
100
AcDbLine
 10
464.9875
 20
-121.5875
 11
477.9875
 21
-121.5875
  0
LINE
  5
8D4
330
1F
100
AcDbEntity
  8
0
 67
0
100
AcDbLine
 10
464.9875
 20
-135.5875
 11
477.9875
 21
-135.5875
  0
LINE
  5
8D5
330
1F
100
AcDbEntity
  8
0
 67
0
100
AcDbLine
 10
464.4875
 20
-122.0875
 11
464.4875
 21
-135.0875
  0
LINE
  5
8D6
330
1F
100
AcDbEntity
  8
0
 67
0
100
AcDbLine
 10
478.4875
 20
-122.0875
 11
478.4875
 21
-135.0875
  0
ARC
  5
8D7
330
1F
100
AcDbEntity
  8
0
 67
0
100
AcDbCircle
 10
464.9875
 20
-122.0875
 40
0.5
100
AcDbArc
 50
90.0
 51
180.0
  0
ARC
  5
8D8
330
1F
100
AcDbEntity
  8
0
 67
0
100
AcDbCircle
 10
477.9875
 20
-122.0875
 40
0.5
100
AcDbArc
 50
0.0
 51
90.0
  0
ARC
  5
8D9
330
1F
100
AcDbEntity
  8
0
 67
0
100
AcDbCircle
 10
464.9875
 20
-135.0875
 40
0.5
100
AcDbArc
 50
180.0
 51
270.0
  0
ARC
  5
8DA
330
1F
100
AcDbEntity
  8
0
 67
0
100
AcDbCircle
 10
477.9875
 20
-135.0875
 40
0.5
100
AcDbArc
 50
270.0
 51
360.0
  0
LINE
  5
8DB
330
1F
100
AcDbEntity
  8
0
 67
0
100
AcDbLine
 10
484.0375
 20
-121.5875
 11
497.0375
 21
-121.5875
  0
LINE
  5
8DC
330
1F
100
AcDbEntity
  8
0
 67
0
100
AcDbLine
 10
484.0375
 20
-135.5875
 11
497.0375
 21
-135.5875
  0
LINE
  5
8DD
330
1F
100
AcDbEntity
  8
0
 67
0
100
AcDbLine
 10
483.5375
 20
-122.0875
 11
483.5375
 21
-135.0875
  0
LINE
  5
8DE
330
1F
100
AcDbEntity
  8
0
 67
0
100
AcDbLine
 10
497.5375
 20
-122.0875
 11
497.5375
 21
-135.0875
  0
ARC
  5
8DF
330
1F
100
AcDbEntity
  8
0
 67
0
100
AcDbCircle
 10
484.0375
 20
-122.0875
 40
0.5
100
AcDbArc
 50
90.0
 51
180.0
  0
ARC
  5
8E0
330
1F
100
AcDbEntity
  8
0
 67
0
100
AcDbCircle
 10
497.0375
 20
-122.0875
 40
0.5
100
AcDbArc
 50
0.0
 51
90.0
  0
ARC
  5
8E1
330
1F
100
AcDbEntity
  8
0
 67
0
100
AcDbCircle
 10
484.0375
 20
-135.0875
 40
0.5
100
AcDbArc
 50
180.0
 51
270.0
  0
ARC
  5
8E2
330
1F
100
AcDbEntity
  8
0
 67
0
100
AcDbCircle
 10
497.0375
 20
-135.0875
 40
0.5
100
AcDbArc
 50
270.0
 51
360.0
  0
LINE
  5
8E3
330
1F
100
AcDbEntity
  8
0
 67
0
100
AcDbLine
 10
503.0875
 20
-121.5875
 11
516.0875
 21
-121.5875
  0
LINE
  5
8E4
330
1F
100
AcDbEntity
  8
0
 67
0
100
AcDbLine
 10
503.0875
 20
-135.5875
 11
516.0875
 21
-135.5875
  0
LINE
  5
8E5
330
1F
100
AcDbEntity
  8
0
 67
0
100
AcDbLine
 10
502.5875
 20
-122.0875
 11
502.5875
 21
-135.0875
  0
LINE
  5
8E6
330
1F
100
AcDbEntity
  8
0
 67
0
100
AcDbLine
 10
516.5875
 20
-122.0875
 11
516.5875
 21
-135.0875
  0
ARC
  5
8E7
330
1F
100
AcDbEntity
  8
0
 67
0
100
AcDbCircle
 10
503.0875
 20
-122.0875
 40
0.5
100
AcDbArc
 50
90.0
 51
180.0
  0
ARC
  5
8E8
330
1F
100
AcDbEntity
  8
0
 67
0
100
AcDbCircle
 10
516.0875
 20
-122.0875
 40
0.5
100
AcDbArc
 50
0.0
 51
90.0
  0
ARC
  5
8E9
330
1F
100
AcDbEntity
  8
0
 67
0
100
AcDbCircle
 10
503.0875
 20
-135.0875
 40
0.5
100
AcDbArc
 50
180.0
 51
270.0
  0
ARC
  5
8EA
330
1F
100
AcDbEntity
  8
0
 67
0
100
AcDbCircle
 10
516.0875
 20
-135.0875
 40
0.5
100
AcDbArc
 50
270.0
 51
360.0
  0
LINE
  5
8EB
330
1F
100
AcDbEntity
  8
0
 67
0
100
AcDbLine
 10
2.268407535640567
 20
-3.2218903228150233
 11
14.825443277398454
 21
-6.586537909147793
  0
LINE
  5
8EC
330
1F
100
AcDbEntity
  8
0
 67
0
100
AcDbLine
 10
-1.3550590957947237
 20
-16.74485189086198
 11
11.201976645963164
 21
-20.10949947719475
  0
LINE
  5
8ED
330
1F
100
AcDbEntity
  8
0
 67
0
100
AcDbLine
 10
1.6560350999447724
 20
-3.575443713408297
 11
-1.7086124863879975
 21
-16.132479455166184
  0
LINE
  5
8EE
330
1F
100
AcDbEntity
  8
0
 67
0
100
AcDbLine
 10
15.17899666799173
 20
-7.198910344843587
 11
11.814349081658959
 21
-19.755946086601476
  0
ARC
  5
8EF
330
1F
100
AcDbEntity
  8
0
 67
0
100
AcDbCircle
 10
2.1389980130893065
 20
-3.704853235959557
 40
0.5
100
AcDbArc
 50
75.0
 51
165.0
  0
ARC
  5
8F0
330
1F
100
AcDbEntity
  8
0
 67
0
100
AcDbCircle
 10
14.696033754847194
 20
-7.069500822292327
 40
0.5
100
AcDbArc
 50
-15.0
 51
75.0
  0
ARC
  5
8F1
330
1F
100
AcDbEntity
  8
0
 67
0
100
AcDbCircle
 10
-1.2256495732434634
 20
-16.261888977717444
 40
0.5
100
AcDbArc
 50
165.0
 51
255.0
  0
ARC
  5
8F2
330
1F
100
AcDbEntity
  8
0
 67
0
100
AcDbCircle
 10
11.331386168514424
 20
-19.626536564050216
 40
0.5
100
AcDbArc
 50
255.0
 51
345.0
  0
LINE
  5
8F3
330
1F
100
AcDbEntity
  8
0
 67
0
100
AcDbLine
 10
39.07018151725407
 20
-13.082895941221064
 11
51.62721725901196
 21
-16.447543527553833
  0
LINE
  5
8F4
330
1F
100
AcDbEntity
  8
0
 67
0
100
AcDbLine
 10
35.44671488581878
 20
-26.60585750926802
 11
48.003750627576665
 21
-29.97050509560079
  0
LINE
  5
8F5
330
1F
100
AcDbEntity
  8
0
 67
0
100
AcDbLine
 10
38.457809081558274
 20
-13.436449331814337
 11
35.0931614952255
 21
-25.993485073572227
  0
LINE
  5
8F6
330
1F
100
AcDbEntity
  8
0
 67
0
100
AcDbLine
 10
51.98077064960523
 20
-17.05991596324963
 11
48.61612306327246
 21
-29.616951705007516
  0
ARC
  5
8F7
330
1F
100
AcDbEntity
  8
0
 67
0
100
AcDbCircle
 10
38.94077199470281
 20
-13.5658588543656
 40
0.5
100
AcDbArc
 50
75.0
 51
165.0
  0
ARC
  5
8F8
330
1F
100
AcDbEntity
  8
0
 67
0
100
AcDbCircle
 10
51.49780773646069
 20
-16.93050644069837
 40
0.5
100
AcDbArc
 50
-15.0
 51
75.0
  0
ARC
  5
8F9
330
1F
100
AcDbEntity
  8
0
 67
0
100
AcDbCircle
 10
35.576124408370035
 20
-26.122894596123487
 40
0.5
100
AcDbArc
 50
165.0
 51
255.0
  0
ARC
  5
8FA
330
1F
100
AcDbEntity
  8
0
 67
0
100
AcDbCircle
 10
48.13316015012793
 20
-29.487542182456256
 40
0.5
100
AcDbArc
 50
255.0
 51
345.0
  0
LINE
  5
8FB
330
1F
100
AcDbEntity
  8
0
 67
0
100
AcDbLine
 10
94.27284248967433
 20
-27.874404368830128
 11
106.82987823143222
 21
-31.239051955162896
  0
LINE
  5
8FC
330
1F
100
AcDbEntity
  8
0
 67
0
100
AcDbLine
 10
90.64937585823904
 20
-41.39736593687708
 11
103.20641159999693
 21
-44.76201352320985
  0
LINE
  5
8FD
330
1F
100
AcDbEntity
  8
0
 67
0
100
AcDbLine
 10
93.66047005397853
 20
-28.2279577594234
 11
90.29582246764576
 21
-40.78499350118129
  0
LINE
  5
8FE
330
1F
100
AcDbEntity
  8
0
 67
0
100
AcDbLine
 10
107.1834316220255
 20
-31.851424390858693
 11
103.81878403569272
 21
-44.40846013261658
  0
ARC
  5
8FF
330
1F
100
AcDbEntity
  8
0
 67
0
100
AcDbCircle
 10
94.14343296712306
 20
-28.35736728197466
 40
0.5
100
AcDbArc
 50
75.0
 51
165.0
  0
ARC
  5
900
330
1F
100
AcDbEntity
  8
0
 67
0
100
AcDbCircle
 10
106.70046870888095
 20
-31.722014868307433
 40
0.5
100
AcDbArc
 50
-15.0
 51
75.0
  0
ARC
  5
901
330
1F
100
AcDbEntity
  8
0
 67
0
100
AcDbCircle
 10
90.7787853807903
 20
-40.91440302373255
 40
0.5
100
AcDbArc
 50
165.0
 51
255.0
  0
ARC
  5
902
330
1F
100
AcDbEntity
  8
0
 67
0
100
AcDbCircle
 10
103.33582112254818
 20
-44.27905061006532
 40
0.5
100
AcDbArc
 50
255.0
 51
345.0
  0
LINE
  5
903
330
1F
100
AcDbEntity
  8
0
 67
0
100
AcDbLine
 10
167.87639045290132
 20
-47.59641560564221
 11
180.4334261946592
 21
-50.96106319197498
  0
LINE
  5
904
330
1F
100
AcDbEntity
  8
0
 67
0
100
AcDbLine
 10
164.25292382146603
 20
-61.11937717368916
 11
176.8099595632239
 21
-64.48402476002194
  0
LINE
  5
905
330
1F
100
AcDbEntity
  8
0
 67
0
100
AcDbLine
 10
167.26401801720553
 20
-47.949968996235484
 11
163.89937043087275
 21
-60.50700473799337
  0
LINE
  5
906
330
1F
100
AcDbEntity
  8
0
 67
0
100
AcDbLine
 10
180.78697958525248
 20
-51.57343562767077
 11
177.4223319989197
 21
-64.13047136942866
  0
ARC
  5
907
330
1F
100
AcDbEntity
  8
0
 67
0
100
AcDbCircle
 10
167.74698093035005
 20
-48.07937851878674
 40
0.5
100
AcDbArc
 50
75.0
 51
165.0
  0
ARC
  5
908
330
1F
100
AcDbEntity
  8
0
 67
0
100
AcDbCircle
 10
180.30401667210793
 20
-51.44402610511951
 40
0.5
100
AcDbArc
 50
-15.0
 51
75.0
  0
ARC
  5
909
330
1F
100
AcDbEntity
  8
0
 67
0
100
AcDbCircle
 10
164.3823333440173
 20
-60.636414260544626
 40
0.5
100
AcDbArc
 50
165.0
 51
255.0
  0
ARC
  5
90A
330
1F
100
AcDbEntity
  8
0
 67
0
100
AcDbCircle
 10
176.93936908577518
 20
-64.00106184687739
 40
0.5
100
AcDbArc
 50
255.0
 51
345.0
  0
LINE
  5
90B
330
1F
100
AcDbEntity
  8
0
 67
0
100
AcDbLine
 10
259.8808254069351
 20
-72.24892965165732
 11
272.437861148693
 21
-75.61357723799009
  0
LINE
  5
90C
330
1F
100
AcDbEntity
  8
0
 67
0
100
AcDbLine
 10
256.2573587754998
 20
-85.77189121970427
 11
268.8143945172577
 21
-89.13653880603704
  0
LINE
  5
90D
330
1F
100
AcDbEntity
  8
0
 67
0
100
AcDbLine
 10
259.2684529712393
 20
-72.6024830422506
 11
255.90380538490655
 21
-85.15951878400848
  0
LINE
  5
90E
330
1F
100
AcDbEntity
  8
0
 67
0
100
AcDbLine
 10
272.7914145392863
 20
-76.22594967368588
 11
269.42676695295347
 21
-88.78298541544378
  0
ARC
  5
90F
330
1F
100
AcDbEntity
  8
0
 67
0
100
AcDbCircle
 10
259.75141588438385
 20
-72.73189256480185
 40
0.5
100
AcDbArc
 50
75.0
 51
165.0
  0
ARC
  5
910
330
1F
100
AcDbEntity
  8
0
 67
0
100
AcDbCircle
 10
272.30845162614173
 20
-76.09654015113462
 40
0.5
100
AcDbArc
 50
-15.0
 51
75.0
  0
ARC
  5
911
330
1F
100
AcDbEntity
  8
0
 67
0
100
AcDbCircle
 10
256.3867682980511
 20
-85.28892830655974
 40
0.5
100
AcDbArc
 50
165.0
 51
255.0
  0
ARC
  5
912
330
1F
100
AcDbEntity
  8
0
 67
0
100
AcDbCircle
 10
268.943804039809
 20
-88.6535758928925
 40
0.5
100
AcDbArc
 50
255.0
 51
345.0
  0
LINE
  5
913
330
1F
100
AcDbEntity
  8
0
 67
0
100
AcDbLine
 10
2.268407535640567
 20
-3.2218903228150233
 11
14.825443277398454
 21
-6.586537909147793
  0
LINE
  5
914
330
1F
100
AcDbEntity
  8
0
 67
0
100
AcDbLine
 10
-1.3550590957947237
 20
-16.74485189086198
 11
11.201976645963164
 21
-20.10949947719475
  0
LINE
  5
915
330
1F
100
AcDbEntity
  8
0
 67
0
100
AcDbLine
 10
1.6560350999447724
 20
-3.575443713408297
 11
-1.7086124863879975
 21
-16.132479455166184
  0
LINE
  5
916
330
1F
100
AcDbEntity
  8
0
 67
0
100
AcDbLine
 10
15.17899666799173
 20
-7.198910344843587
 11
11.814349081658959
 21
-19.755946086601476
  0
ARC
  5
917
330
1F
100
AcDbEntity
  8
0
 67
0
100
AcDbCircle
 10
2.1389980130893065
 20
-3.704853235959557
 40
0.5
100
AcDbArc
 50
75.0
 51
165.0
  0
ARC
  5
918
330
1F
100
AcDbEntity
  8
0
 67
0
100
AcDbCircle
 10
14.696033754847194
 20
-7.069500822292327
 40
0.5
100
AcDbArc
 50
-15.0
 51
75.0
  0
ARC
  5
919
330
1F
100
AcDbEntity
  8
0
 67
0
100
AcDbCircle
 10
-1.2256495732434634
 20
-16.261888977717444
 40
0.5
100
AcDbArc
 50
165.0
 51
255.0
  0
ARC
  5
91A
330
1F
100
AcDbEntity
  8
0
 67
0
100
AcDbCircle
 10
11.331386168514424
 20
-19.626536564050216
 40
0.5
100
AcDbArc
 50
255.0
 51
345.0
  0
LINE
  5
91B
330
1F
100
AcDbEntity
  8
0
 67
0
100
AcDbLine
 10
39.07018151725407
 20
-13.082895941221064
 11
51.62721725901196
 21
-16.447543527553833
  0
LINE
  5
91C
330
1F
100
AcDbEntity
  8
0
 67
0
100
AcDbLine
 10
35.44671488581878
 20
-26.60585750926802
 11
48.003750627576665
 21
-29.97050509560079
  0
LINE
  5
91D
330
1F
100
AcDbEntity
  8
0
 67
0
100
AcDbLine
 10
38.457809081558274
 20
-13.436449331814337
 11
35.0931614952255
 21
-25.993485073572227
  0
LINE
  5
91E
330
1F
100
AcDbEntity
  8
0
 67
0
100
AcDbLine
 10
51.98077064960523
 20
-17.05991596324963
 11
48.61612306327246
 21
-29.616951705007516
  0
ARC
  5
91F
330
1F
100
AcDbEntity
  8
0
 67
0
100
AcDbCircle
 10
38.94077199470281
 20
-13.5658588543656
 40
0.5
100
AcDbArc
 50
75.0
 51
165.0
  0
ARC
  5
920
330
1F
100
AcDbEntity
  8
0
 67
0
100
AcDbCircle
 10
51.49780773646069
 20
-16.93050644069837
 40
0.5
100
AcDbArc
 50
-15.0
 51
75.0
  0
ARC
  5
921
330
1F
100
AcDbEntity
  8
0
 67
0
100
AcDbCircle
 10
35.576124408370035
 20
-26.122894596123487
 40
0.5
100
AcDbArc
 50
165.0
 51
255.0
  0
ARC
  5
922
330
1F
100
AcDbEntity
  8
0
 67
0
100
AcDbCircle
 10
48.13316015012793
 20
-29.487542182456256
 40
0.5
100
AcDbArc
 50
255.0
 51
345.0
  0
LINE
  5
923
330
1F
100
AcDbEntity
  8
0
 67
0
100
AcDbLine
 10
94.27284248967433
 20
-27.874404368830128
 11
106.82987823143222
 21
-31.239051955162896
  0
LINE
  5
924
330
1F
100
AcDbEntity
  8
0
 67
0
100
AcDbLine
 10
90.64937585823904
 20
-41.39736593687708
 11
103.20641159999693
 21
-44.76201352320985
  0
LINE
  5
925
330
1F
100
AcDbEntity
  8
0
 67
0
100
AcDbLine
 10
93.66047005397853
 20
-28.2279577594234
 11
90.29582246764576
 21
-40.78499350118129
  0
LINE
  5
926
330
1F
100
AcDbEntity
  8
0
 67
0
100
AcDbLine
 10
107.1834316220255
 20
-31.851424390858693
 11
103.81878403569272
 21
-44.40846013261658
  0
ARC
  5
927
330
1F
100
AcDbEntity
  8
0
 67
0
100
AcDbCircle
 10
94.14343296712306
 20
-28.35736728197466
 40
0.5
100
AcDbArc
 50
75.0
 51
165.0
  0
ARC
  5
928
330
1F
100
AcDbEntity
  8
0
 67
0
100
AcDbCircle
 10
106.70046870888095
 20
-31.722014868307433
 40
0.5
100
AcDbArc
 50
-15.0
 51
75.0
  0
ARC
  5
929
330
1F
100
AcDbEntity
  8
0
 67
0
100
AcDbCircle
 10
90.7787853807903
 20
-40.91440302373255
 40
0.5
100
AcDbArc
 50
165.0
 51
255.0
  0
ARC
  5
92A
330
1F
100
AcDbEntity
  8
0
 67
0
100
AcDbCircle
 10
103.33582112254818
 20
-44.27905061006532
 40
0.5
100
AcDbArc
 50
255.0
 51
345.0
  0
LINE
  5
92B
330
1F
100
AcDbEntity
  8
0
 67
0
100
AcDbLine
 10
167.87639045290132
 20
-47.59641560564221
 11
180.4334261946592
 21
-50.96106319197498
  0
LINE
  5
92C
330
1F
100
AcDbEntity
  8
0
 67
0
100
AcDbLine
 10
164.25292382146603
 20
-61.11937717368916
 11
176.8099595632239
 21
-64.48402476002194
  0
LINE
  5
92D
330
1F
100
AcDbEntity
  8
0
 67
0
100
AcDbLine
 10
167.26401801720553
 20
-47.949968996235484
 11
163.89937043087275
 21
-60.50700473799337
  0
LINE
  5
92E
330
1F
100
AcDbEntity
  8
0
 67
0
100
AcDbLine
 10
180.78697958525248
 20
-51.57343562767077
 11
177.4223319989197
 21
-64.13047136942866
  0
ARC
  5
92F
330
1F
100
AcDbEntity
  8
0
 67
0
100
AcDbCircle
 10
167.74698093035005
 20
-48.07937851878674
 40
0.5
100
AcDbArc
 50
75.0
 51
165.0
  0
ARC
  5
930
330
1F
100
AcDbEntity
  8
0
 67
0
100
AcDbCircle
 10
180.30401667210793
 20
-51.44402610511951
 40
0.5
100
AcDbArc
 50
-15.0
 51
75.0
  0
ARC
  5
931
330
1F
100
AcDbEntity
  8
0
 67
0
100
AcDbCircle
 10
164.3823333440173
 20
-60.636414260544626
 40
0.5
100
AcDbArc
 50
165.0
 51
255.0
  0
ARC
  5
932
330
1F
100
AcDbEntity
  8
0
 67
0
100
AcDbCircle
 10
176.93936908577518
 20
-64.00106184687739
 40
0.5
100
AcDbArc
 50
255.0
 51
345.0
  0
LINE
  5
933
330
1F
100
AcDbEntity
  8
0
 67
0
100
AcDbLine
 10
259.8808254069351
 20
-72.24892965165732
 11
272.437861148693
 21
-75.61357723799009
  0
LINE
  5
934
330
1F
100
AcDbEntity
  8
0
 67
0
100
AcDbLine
 10
256.2573587754998
 20
-85.77189121970427
 11
268.8143945172577
 21
-89.13653880603704
  0
LINE
  5
935
330
1F
100
AcDbEntity
  8
0
 67
0
100
AcDbLine
 10
259.2684529712393
 20
-72.6024830422506
 11
255.90380538490655
 21
-85.15951878400848
  0
LINE
  5
936
330
1F
100
AcDbEntity
  8
0
 67
0
100
AcDbLine
 10
272.7914145392863
 20
-76.22594967368588
 11
269.42676695295347
 21
-88.78298541544378
  0
ARC
  5
937
330
1F
100
AcDbEntity
  8
0
 67
0
100
AcDbCircle
 10
259.75141588438385
 20
-72.73189256480185
 40
0.5
100
AcDbArc
 50
75.0
 51
165.0
  0
ARC
  5
938
330
1F
100
AcDbEntity
  8
0
 67
0
100
AcDbCircle
 10
272.30845162614173
 20
-76.09654015113462
 40
0.5
100
AcDbArc
 50
-15.0
 51
75.0
  0
ARC
  5
939
330
1F
100
AcDbEntity
  8
0
 67
0
100
AcDbCircle
 10
256.3867682980511
 20
-85.28892830655974
 40
0.5
100
AcDbArc
 50
165.0
 51
255.0
  0
ARC
  5
93A
330
1F
100
AcDbEntity
  8
0
 67
0
100
AcDbCircle
 10
268.943804039809
 20
-88.6535758928925
 40
0.5
100
AcDbArc
 50
255.0
 51
345.0
  0
LINE
  5
93B
330
1F
100
AcDbEntity
  8
0
 67
0
100
AcDbLine
 10
370.2861473517756
 20
-101.83194650687543
 11
382.84318309353347
 21
-105.19659409320819
  0
LINE
  5
93C
330
1F
100
AcDbEntity
  8
0
 67
0
100
AcDbLine
 10
366.6626807203403
 20
-115.35490807492238
 11
379.2197164620982
 21
-118.71955566125516
  0
LINE
  5
93D
330
1F
100
AcDbEntity
  8
0
 67
0
100
AcDbLine
 10
369.67377491607976
 20
-102.1854998974687
 11
366.309127329747
 21
-114.74253563922659
  0
LINE
  5
93E
330
1F
100
AcDbEntity
  8
0
 67
0
100
AcDbLine
 10
383.19673648412675
 20
-105.808966528904
 11
379.83208889779394
 21
-118.36600227066188
  0
ARC
  5
93F
330
1F
100
AcDbEntity
  8
0
 67
0
100
AcDbCircle
 10
370.1567378292243
 20
-102.31490942001996
 40
0.5
100
AcDbArc
 50
75.0
 51
165.0
  0
ARC
  5
940
330
1F
100
AcDbEntity
  8
0
 67
0
100
AcDbCircle
 10
382.7137735709822
 20
-105.67955700635274
 40
0.5
100
AcDbArc
 50
-15.0
 51
75.0
  0
ARC
  5
941
330
1F
100
AcDbEntity
  8
0
 67
0
100
AcDbCircle
 10
366.7920902428915
 20
-114.87194516177784
 40
0.5
100
AcDbArc
 50
165.0
 51
255.0
  0
ARC
  5
942
330
1F
100
AcDbEntity
  8
0
 67
0
100
AcDbCircle
 10
379.34912598464945
 20
-118.23659274811062
 40
0.5
100
AcDbArc
 50
255.0
 51
345.0
  0
LINE
  5
943
330
1F
100
AcDbEntity
  8
0
 67
0
100
AcDbLine
 10
2.268407535640567
 20
-3.2218903228150233
 11
14.825443277398454
 21
-6.586537909147793
  0
LINE
  5
944
330
1F
100
AcDbEntity
  8
0
 67
0
100
AcDbLine
 10
-1.3550590957947237
 20
-16.74485189086198
 11
11.201976645963164
 21
-20.10949947719475
  0
LINE
  5
945
330
1F
100
AcDbEntity
  8
0
 67
0
100
AcDbLine
 10
1.6560350999447724
 20
-3.575443713408297
 11
-1.7086124863879975
 21
-16.132479455166184
  0
LINE
  5
946
330
1F
100
AcDbEntity
  8
0
 67
0
100
AcDbLine
 10
15.17899666799173
 20
-7.198910344843587
 11
11.814349081658959
 21
-19.755946086601476
  0
ARC
  5
947
330
1F
100
AcDbEntity
  8
0
 67
0
100
AcDbCircle
 10
2.1389980130893065
 20
-3.704853235959557
 40
0.5
100
AcDbArc
 50
75.0
 51
165.0
  0
ARC
  5
948
330
1F
100
AcDbEntity
  8
0
 67
0
100
AcDbCircle
 10
14.696033754847194
 20
-7.069500822292327
 40
0.5
100
AcDbArc
 50
-15.0
 51
75.0
  0
ARC
  5
949
330
1F
100
AcDbEntity
  8
0
 67
0
100
AcDbCircle
 10
-1.2256495732434634
 20
-16.261888977717444
 40
0.5
100
AcDbArc
 50
165.0
 51
255.0
  0
ARC
  5
94A
330
1F
100
AcDbEntity
  8
0
 67
0
100
AcDbCircle
 10
11.331386168514424
 20
-19.626536564050216
 40
0.5
100
AcDbArc
 50
255.0
 51
345.0
  0
LINE
  5
94B
330
1F
100
AcDbEntity
  8
0
 67
0
100
AcDbLine
 10
39.07018151725407
 20
-13.082895941221064
 11
51.62721725901196
 21
-16.447543527553833
  0
LINE
  5
94C
330
1F
100
AcDbEntity
  8
0
 67
0
100
AcDbLine
 10
35.44671488581878
 20
-26.60585750926802
 11
48.003750627576665
 21
-29.97050509560079
  0
LINE
  5
94D
330
1F
100
AcDbEntity
  8
0
 67
0
100
AcDbLine
 10
38.457809081558274
 20
-13.436449331814337
 11
35.0931614952255
 21
-25.993485073572227
  0
LINE
  5
94E
330
1F
100
AcDbEntity
  8
0
 67
0
100
AcDbLine
 10
51.98077064960523
 20
-17.05991596324963
 11
48.61612306327246
 21
-29.616951705007516
  0
ARC
  5
94F
330
1F
100
AcDbEntity
  8
0
 67
0
100
AcDbCircle
 10
38.94077199470281
 20
-13.5658588543656
 40
0.5
100
AcDbArc
 50
75.0
 51
165.0
  0
ARC
  5
950
330
1F
100
AcDbEntity
  8
0
 67
0
100
AcDbCircle
 10
51.49780773646069
 20
-16.93050644069837
 40
0.5
100
AcDbArc
 50
-15.0
 51
75.0
  0
ARC
  5
951
330
1F
100
AcDbEntity
  8
0
 67
0
100
AcDbCircle
 10
35.576124408370035
 20
-26.122894596123487
 40
0.5
100
AcDbArc
 50
165.0
 51
255.0
  0
ARC
  5
952
330
1F
100
AcDbEntity
  8
0
 67
0
100
AcDbCircle
 10
48.13316015012793
 20
-29.487542182456256
 40
0.5
100
AcDbArc
 50
255.0
 51
345.0
  0
LINE
  5
953
330
1F
100
AcDbEntity
  8
0
 67
0
100
AcDbLine
 10
64.37140112961335
 20
-19.862337303875215
 11
76.92843687137123
 21
-23.226984890207987
  0
LINE
  5
954
330
1F
100
AcDbEntity
  8
0
 67
0
100
AcDbLine
 10
60.747934498178054
 20
-33.385298871922174
 11
73.30497023993594
 21
-36.74994645825494
  0
LINE
  5
955
330
1F
100
AcDbEntity
  8
0
 67
0
100
AcDbLine
 10
63.75902869391755
 20
-20.215890694468488
 11
60.39438110758478
 21
-32.77292643622638
  0
LINE
  5
956
330
1F
100
AcDbEntity
  8
0
 67
0
100
AcDbLine
 10
77.28199026196451
 20
-23.83935732590378
 11
73.91734267563173
 21
-36.39639306766167
  0
ARC
  5
957
330
1F
100
AcDbEntity
  8
0
 67
0
100
AcDbCircle
 10
64.24199160706209
 20
-20.34530021701975
 40
0.5
100
AcDbArc
 50
75.0
 51
165.0
  0
ARC
  5
958
330
1F
100
AcDbEntity
  8
0
 67
0
100
AcDbCircle
 10
76.79902734881998
 20
-23.70994780335252
 40
0.5
100
AcDbArc
 50
-15.0
 51
75.0
  0
ARC
  5
959
330
1F
100
AcDbEntity
  8
0
 67
0
100
AcDbCircle
 10
60.87734402072932
 20
-32.90233595877764
 40
0.5
100
AcDbArc
 50
165.0
 51
255.0
  0
ARC
  5
95A
330
1F
100
AcDbEntity
  8
0
 67
0
100
AcDbCircle
 10
73.4343797624872
 20
-36.266983545110406
 40
0.5
100
AcDbArc
 50
255.0
 51
345.0
  0
LINE
  5
95B
330
1F
100
AcDbEntity
  8
0
 67
0
100
AcDbLine
 10
110.37361860663022
 20
-32.188594326882765
 11
122.93065434838812
 21
-35.55324191321554
  0
LINE
  5
95C
330
1F
100
AcDbEntity
  8
0
 67
0
100
AcDbLine
 10
106.75015197519492
 20
-45.711555894929724
 11
119.30718771695282
 21
-49.076203481262496
  0
LINE
  5
95D
330
1F
100
AcDbEntity
  8
0
 67
0
100
AcDbLine
 10
109.76124617093443
 20
-32.54214771747604
 11
106.39659858460166
 21
-45.09918345923393
  0
LINE
  5
95E
330
1F
100
AcDbEntity
  8
0
 67
0
100
AcDbLine
 10
123.28420773898138
 20
-36.16561434891133
 11
119.91956015264861
 21
-48.72265009066922
  0
ARC
  5
95F
330
1F
100
AcDbEntity
  8
0
 67
0
100
AcDbCircle
 10
110.24420908407896
 20
-32.671557240027305
 40
0.5
100
AcDbArc
 50
75.0
 51
165.0
  0
ARC
  5
960
330
1F
100
AcDbEntity
  8
0
 67
0
100
AcDbCircle
 10
122.80124482583685
 20
-36.03620482636007
 40
0.5
100
AcDbArc
 50
-15.0
 51
75.0
  0
ARC
  5
961
330
1F
100
AcDbEntity
  8
0
 67
0
100
AcDbCircle
 10
106.8795614977462
 20
-45.22859298178519
 40
0.5
100
AcDbArc
 50
165.0
 51
255.0
  0
ARC
  5
962
330
1F
100
AcDbEntity
  8
0
 67
0
100
AcDbCircle
 10
119.43659723950408
 20
-48.593240568117956
 40
0.5
100
AcDbArc
 50
255.0
 51
345.0
  0
LINE
  5
963
330
1F
100
AcDbEntity
  8
0
 67
0
100
AcDbLine
 10
179.37694482215554
 20
-50.67797986139409
 11
191.93398056391342
 21
-54.042627447726865
  0
LINE
  5
964
330
1F
100
AcDbEntity
  8
0
 67
0
100
AcDbLine
 10
175.75347819072024
 20
-64.20094142944104
 11
188.31051393247813
 21
-67.56558901577382
  0
LINE
  5
965
330
1F
100
AcDbEntity
  8
0
 67
0
100
AcDbLine
 10
178.76457238645975
 20
-51.03153325198737
 11
175.39992480012697
 21
-63.588568993745255
  0
LINE
  5
966
330
1F
100
AcDbEntity
  8
0
 67
0
100
AcDbLine
 10
192.2875339545067
 20
-54.65499988342266
 11
188.92288636817392
 21
-67.21203562518055
  0
ARC
  5
967
330
1F
100
AcDbEntity
  8
0
 67
0
100
AcDbCircle
 10
179.24753529960427
 20
-51.160942774538626
 40
0.5
100
AcDbArc
 50
75.0
 51
165.0
  0
ARC
  5
968
330
1F
100
AcDbEntity
  8
0
 67
0
100
AcDbCircle
 10
191.80457104136215
 20
-54.5255903608714
 40
0.5
100
AcDbArc
 50
-15.0
 51
75.0
  0
ARC
  5
969
330
1F
100
AcDbEntity
  8
0
 67
0
100
AcDbCircle
 10
175.88288771327151
 20
-63.71797851629652
 40
0.5
100
AcDbArc
 50
165.0
 51
255.0
  0
ARC
  5
96A
330
1F
100
AcDbEntity
  8
0
 67
0
100
AcDbCircle
 10
188.4399234550294
 20
-67.08262610262929
 40
0.5
100
AcDbArc
 50
255.0
 51
345.0
  0
LINE
  5
96B
330
1F
100
AcDbEntity
  8
0
 67
0
100
AcDbLine
 10
200.07794268681315
 20
-56.224795521747495
 11
212.63497842857103
 21
-59.58944310808026
  0
LINE
  5
96C
330
1F
100
AcDbEntity
  8
0
 67
0
100
AcDbLine
 10
196.45447605537785
 20
-69.74775708979445
 11
209.01151179713574
 21
-73.11240467612721
  0
LINE
  5
96D
330
1F
100
AcDbEntity
  8
0
 67
0
100
AcDbLine
 10
199.46557025111736
 20
-56.578348912340765
 11
196.10092266478458
 21
-69.13538465409866
  0
LINE
  5
96E
330
1F
100
AcDbEntity
  8
0
 67
0
100
AcDbLine
 10
212.9885318191643
 20
-60.20181554377606
 11
209.62388423283153
 21
-72.75885128553395
  0
ARC
  5
96F
330
1F
100
AcDbEntity
  8
0
 67
0
100
AcDbCircle
 10
199.94853316426187
 20
-56.70775843489203
 40
0.5
100
AcDbArc
 50
75.0
 51
165.0
  0
ARC
  5
970
330
1F
100
AcDbEntity
  8
0
 67
0
100
AcDbCircle
 10
212.50556890601976
 20
-60.0724060212248
 40
0.5
100
AcDbArc
 50
-15.0
 51
75.0
  0
ARC
  5
971
330
1F
100
AcDbEntity
  8
0
 67
0
100
AcDbCircle
 10
196.5838855779291
 20
-69.26479417664991
 40
0.5
100
AcDbArc
 50
165.0
 51
255.0
  0
ARC
  5
972
330
1F
100
AcDbEntity
  8
0
 67
0
100
AcDbCircle
 10
209.140921319687
 20
-72.62944176298268
 40
0.5
100
AcDbArc
 50
255.0
 51
345.0
  0
LINE
  5
973
330
1F
100
AcDbEntity
  8
0
 67
0
100
AcDbLine
 10
241.47993841612833
 20
-67.31842684245429
 11
254.03697415788622
 21
-70.68307442878707
  0
LINE
  5
974
330
1F
100
AcDbEntity
  8
0
 67
0
100
AcDbLine
 10
237.85647178469304
 20
-80.84138841050125
 11
250.41350752645093
 21
-84.20603599683402
  0
LINE
  5
975
330
1F
100
AcDbEntity
  8
0
 67
0
100
AcDbLine
 10
240.86756598043254
 20
-67.67198023304756
 11
237.50291839409977
 21
-80.22901597480545
  0
LINE
  5
976
330
1F
100
AcDbEntity
  8
0
 67
0
100
AcDbLine
 10
254.3905275484795
 20
-71.29544686448286
 11
251.02587996214672
 21
-83.85248260624074
  0
ARC
  5
977
330
1F
100
AcDbEntity
  8
0
 67
0
100
AcDbCircle
 10
241.3505288935771
 20
-67.80138975559883
 40
0.5
100
AcDbArc
 50
75.0
 51
165.0
  0
ARC
  5
978
330
1F
100
AcDbEntity
  8
0
 67
0
100
AcDbCircle
 10
253.90756463533498
 20
-71.1660373419316
 40
0.5
100
AcDbArc
 50
-15.0
 51
75.0
  0
ARC
  5
979
330
1F
100
AcDbEntity
  8
0
 67
0
100
AcDbCircle
 10
237.9858813072443
 20
-80.35842549735672
 40
0.5
100
AcDbArc
 50
165.0
 51
255.0
  0
ARC
  5
97A
330
1F
100
AcDbEntity
  8
0
 67
0
100
AcDbCircle
 10
250.5429170490022
 20
-83.72307308368948
 40
0.5
100
AcDbArc
 50
255.0
 51
345.0
  0
LINE
  5
97B
330
1F
100
AcDbEntity
  8
0
 67
0
100
AcDbLine
 10
4.568518409491411
 20
-3.838203173965401
 11
17.125554151249297
 21
-7.202850760298171
  0
LINE
  5
97C
330
1F
100
AcDbEntity
  8
0
 67
0
100
AcDbLine
 10
0.9450517780561197
 20
-17.361164742012356
 11
13.502087519814008
 21
-20.72581232834513
  0
LINE
  5
97D
330
1F
100
AcDbEntity
  8
0
 67
0
100
AcDbLine
 10
3.956145973795616
 20
-4.191756564558674
 11
0.591498387462846
 21
-16.748792306316563
  0
LINE
  5
97E
330
1F
100
AcDbEntity
  8
0
 67
0
100
AcDbLine
 10
17.479107541842573
 20
-7.815223195993965
 11
14.114459955509801
 21
-20.37225893775185
  0
ARC
  5
97F
330
1F
100
AcDbEntity
  8
0
 67
0
100
AcDbCircle
 10
4.43910888694015
 20
-4.321166087109935
 40
0.5
100
AcDbArc
 50
75.0
 51
165.0
  0
ARC
  5
980
330
1F
100
AcDbEntity
  8
0
 67
0
100
AcDbCircle
 10
16.996144628698037
 20
-7.685813673442705
 40
0.5
100
AcDbArc
 50
-15.0
 51
75.0
  0
ARC
  5
981
330
1F
100
AcDbEntity
  8
0
 67
0
100
AcDbCircle
 10
1.0744613006073802
 20
-16.878201828867823
 40
0.5
100
AcDbArc
 50
165.0
 51
255.0
  0
ARC
  5
982
330
1F
100
AcDbEntity
  8
0
 67
0
100
AcDbCircle
 10
13.631497042365268
 20
-20.242849415200592
 40
0.5
100
AcDbArc
 50
255.0
 51
345.0
  0
LINE
  5
983
330
1F
100
AcDbEntity
  8
0
 67
0
100
AcDbLine
 10
27.56962714799985
 20
-10.001331685469177
 11
40.12666288975774
 21
-13.365979271801946
  0
LINE
  5
984
330
1F
100
AcDbEntity
  8
0
 67
0
100
AcDbLine
 10
23.946160516564557
 20
-23.52429325351613
 11
36.50319625832245
 21
-26.888940839848903
  0
LINE
  5
985
330
1F
100
AcDbEntity
  8
0
 67
0
100
AcDbLine
 10
26.957254712304053
 20
-10.35488507606245
 11
23.592607125971284
 21
-22.911920817820338
  0
LINE
  5
986
330
1F
100
AcDbEntity
  8
0
 67
0
100
AcDbLine
 10
40.48021628035101
 20
-13.97835170749774
 11
37.11556869401824
 21
-26.53538744925563
  0
ARC
  5
987
330
1F
100
AcDbEntity
  8
0
 67
0
100
AcDbCircle
 10
27.44021762544859
 20
-10.48429459861371
 40
0.5
100
AcDbArc
 50
75.0
 51
165.0
  0
ARC
  5
988
330
1F
100
AcDbEntity
  8
0
 67
0
100
AcDbCircle
 10
39.997253367206476
 20
-13.84894218494648
 40
0.5
100
AcDbArc
 50
-15.0
 51
75.0
  0
ARC
  5
989
330
1F
100
AcDbEntity
  8
0
 67
0
100
AcDbCircle
 10
24.075570039115817
 20
-23.041330340371598
 40
0.5
100
AcDbArc
 50
165.0
 51
255.0
  0
ARC
  5
98A
330
1F
100
AcDbEntity
  8
0
 67
0
100
AcDbCircle
 10
36.6326057808737
 20
-26.405977926704367
 40
0.5
100
AcDbArc
 50
255.0
 51
345.0
  0
LINE
  5
98B
330
1F
100
AcDbEntity
  8
0
 67
0
100
AcDbLine
 10
73.57184462501672
 20
-22.32758870847673
 11
86.12888036677461
 21
-25.692236294809497
  0
LINE
  5
98C
330
1F
100
AcDbEntity
  8
0
 67
0
100
AcDbLine
 10
69.94837799358143
 20
-35.850550276523684
 11
82.50541373533932
 21
-39.215197862856456
  0
LINE
  5
98D
330
1F
100
AcDbEntity
  8
0
 67
0
100
AcDbLine
 10
72.95947218932093
 20
-22.68114209907
 11
69.59482460298817
 21
-35.23817784082789
  0
LINE
  5
98E
330
1F
100
AcDbEntity
  8
0
 67
0
100
AcDbLine
 10
86.48243375736789
 20
-26.304608730505294
 11
83.11778617103512
 21
-38.86164447226318
  0
ARC
  5
98F
330
1F
100
AcDbEntity
  8
0
 67
0
100
AcDbCircle
 10
73.44243510246547
 20
-22.81055162162126
 40
0.5
100
AcDbArc
 50
75.0
 51
165.0
  0
ARC
  5
990
330
1F
100
AcDbEntity
  8
0
 67
0
100
AcDbCircle
 10
85.99947084422335
 20
-26.17519920795403
 40
0.5
100
AcDbArc
 50
-15.0
 51
75.0
  0
ARC
  5
991
330
1F
100
AcDbEntity
  8
0
 67
0
100
AcDbCircle
 10
70.0777875161327
 20
-35.36758736337915
 40
0.5
100
AcDbArc
 50
165.0
 51
255.0
  0
ARC
  5
992
330
1F
100
AcDbEntity
  8
0
 67
0
100
AcDbCircle
 10
82.63482325789059
 20
-38.732234949711916
 40
0.5
100
AcDbArc
 50
255.0
 51
345.0
  0
LINE
  5
993
330
1F
100
AcDbEntity
  8
0
 67
0
100
AcDbLine
 10
142.57517084054203
 20
-40.81697424298805
 11
155.13220658229994
 21
-44.181621829320825
  0
LINE
  5
994
330
1F
100
AcDbEntity
  8
0
 67
0
100
AcDbLine
 10
138.95170420910677
 20
-54.33993581103501
 11
151.50873995086465
 21
-57.70458339736778
  0
LINE
  5
995
330
1F
100
AcDbEntity
  8
0
 67
0
100
AcDbLine
 10
141.96279840484624
 20
-41.17052763358133
 11
138.5981508185135
 21
-53.727563375339216
  0
LINE
  5
996
330
1F
100
AcDbEntity
  8
0
 67
0
100
AcDbLine
 10
155.4857599728932
 20
-44.79399426501662
 11
152.12111238656044
 21
-57.35103000677451
  0
ARC
  5
997
330
1F
100
AcDbEntity
  8
0
 67
0
100
AcDbCircle
 10
142.4457613179908
 20
-41.299937156132586
 40
0.5
100
AcDbArc
 50
75.0
 51
165.0
  0
ARC
  5
998
330
1F
100
AcDbEntity
  8
0
 67
0
100
AcDbCircle
 10
155.00279705974867
 20
-44.66458474246536
 40
0.5
100
AcDbArc
 50
-15.0
 51
75.0
  0
ARC
  5
999
330
1F
100
AcDbEntity
  8
0
 67
0
100
AcDbCircle
 10
139.081113731658
 20
-53.85697289789048
 40
0.5
100
AcDbArc
 50
165.0
 51
255.0
  0
ARC
  5
99A
330
1F
100
AcDbEntity
  8
0
 67
0
100
AcDbCircle
 10
151.6381494734159
 20
-57.221620484223244
 40
0.5
100
AcDbArc
 50
255.0
 51
345.0
  0
LINE
  5
99B
330
1F
100
AcDbEntity
  8
0
 67
0
100
AcDbLine
 10
163.27616870519964
 20
-46.363789903341456
 11
175.83320444695752
 21
-49.72843748967422
  0
LINE
  5
99C
330
1F
100
AcDbEntity
  8
0
 67
0
100
AcDbLine
 10
159.65270207376435
 20
-59.88675147138841
 11
172.20973781552223
 21
-63.25139905772118
  0
LINE
  5
99D
330
1F
100
AcDbEntity
  8
0
 67
0
100
AcDbLine
 10
162.66379626950385
 20
-46.717343293934725
 11
159.29914868317107
 21
-59.27437903569262
  0
LINE
  5
99E
330
1F
100
AcDbEntity
  8
0
 67
0
100
AcDbLine
 10
176.1867578375508
 20
-50.34080992537002
 11
172.82211025121802
 21
-62.8978456671279
  0
ARC
  5
99F
330
1F
100
AcDbEntity
  8
0
 67
0
100
AcDbCircle
 10
163.1467591826484
 20
-46.84675281648599
 40
0.5
100
AcDbArc
 50
75.0
 51
165.0
  0
ARC
  5
9A0
330
1F
100
AcDbEntity
  8
0
 67
0
100
AcDbCircle
 10
175.70379492440628
 20
-50.21140040281876
 40
0.5
100
AcDbArc
 50
-15.0
 51
75.0
  0
ARC
  5
9A1
330
1F
100
AcDbEntity
  8
0
 67
0
100
AcDbCircle
 10
159.78211159631562
 20
-59.403788558243875
 40
0.5
100
AcDbArc
 50
165.0
 51
255.0
  0
ARC
  5
9A2
330
1F
100
AcDbEntity
  8
0
 67
0
100
AcDbCircle
 10
172.3391473380735
 20
-62.76843614457665
 40
0.5
100
AcDbArc
 50
255.0
 51
345.0
  0
LINE
  5
9A3
330
1F
100
AcDbEntity
  8
0
 67
0
100
AcDbLine
 10
204.67816443451483
 20
-57.45742122404825
 11
217.2352001762727
 21
-60.82206881038102
  0
LINE
  5
9A4
330
1F
100
AcDbEntity
  8
0
 67
0
100
AcDbLine
 10
201.05469780307953
 20
-70.9803827920952
 11
213.61173354483742
 21
-74.34503037842798
  0
LINE
  5
9A5
330
1F
100
AcDbEntity
  8
0
 67
0
100
AcDbLine
 10
204.065791998819
 20
-57.810974614641516
 11
200.70114441248626
 21
-70.36801035639941
  0
LINE
  5
9A6
330
1F
100
AcDbEntity
  8
0
 67
0
100
AcDbLine
 10
217.588753566866
 20
-61.43444124607681
 11
214.2241059805332
 21
-73.9914769878347
  0
ARC
  5
9A7
330
1F
100
AcDbEntity
  8
0
 67
0
100
AcDbCircle
 10
204.54875491196356
 20
-57.94038413719278
 40
0.5
100
AcDbArc
 50
75.0
 51
165.0
  0
ARC
  5
9A8
330
1F
100
AcDbEntity
  8
0
 67
0
100
AcDbCircle
 10
217.10579065372144
 20
-61.30503172352555
 40
0.5
100
AcDbArc
 50
-15.0
 51
75.0
  0
ARC
  5
9A9
330
1F
100
AcDbEntity
  8
0
 67
0
100
AcDbCircle
 10
201.18410732563078
 20
-70.49741987895067
 40
0.5
100
AcDbArc
 50
165.0
 51
255.0
  0
ARC
  5
9AA
330
1F
100
AcDbEntity
  8
0
 67
0
100
AcDbCircle
 10
213.74114306738866
 20
-73.86206746528343
 40
0.5
100
AcDbArc
 50
255.0
 51
345.0
  0
LINE
  5
9AB
330
1F
100
AcDbEntity
  8
0
 67
0
100
AcDbLine
 10
4.568518409491411
 20
-3.838203173965401
 11
17.125554151249297
 21
-7.202850760298171
  0
LINE
  5
9AC
330
1F
100
AcDbEntity
  8
0
 67
0
100
AcDbLine
 10
0.9450517780561197
 20
-17.361164742012356
 11
13.502087519814008
 21
-20.72581232834513
  0
LINE
  5
9AD
330
1F
100
AcDbEntity
  8
0
 67
0
100
AcDbLine
 10
3.956145973795616
 20
-4.191756564558674
 11
0.591498387462846
 21
-16.748792306316563
  0
LINE
  5
9AE
330
1F
100
AcDbEntity
  8
0
 67
0
100
AcDbLine
 10
17.479107541842573
 20
-7.815223195993965
 11
14.114459955509801
 21
-20.37225893775185
  0
ARC
  5
9AF
330
1F
100
AcDbEntity
  8
0
 67
0
100
AcDbCircle
 10
4.43910888694015
 20
-4.321166087109935
 40
0.5
100
AcDbArc
 50
75.0
 51
165.0
  0
ARC
  5
9B0
330
1F
100
AcDbEntity
  8
0
 67
0
100
AcDbCircle
 10
16.996144628698037
 20
-7.685813673442705
 40
0.5
100
AcDbArc
 50
-15.0
 51
75.0
  0
ARC
  5
9B1
330
1F
100
AcDbEntity
  8
0
 67
0
100
AcDbCircle
 10
1.0744613006073802
 20
-16.878201828867823
 40
0.5
100
AcDbArc
 50
165.0
 51
255.0
  0
ARC
  5
9B2
330
1F
100
AcDbEntity
  8
0
 67
0
100
AcDbCircle
 10
13.631497042365268
 20
-20.242849415200592
 40
0.5
100
AcDbArc
 50
255.0
 51
345.0
  0
LINE
  5
9B3
330
1F
100
AcDbEntity
  8
0
 67
0
100
AcDbLine
 10
94.27284248967433
 20
-27.874404368830128
 11
106.82987823143222
 21
-31.239051955162896
  0
LINE
  5
9B4
330
1F
100
AcDbEntity
  8
0
 67
0
100
AcDbLine
 10
90.64937585823904
 20
-41.39736593687708
 11
103.20641159999693
 21
-44.76201352320985
  0
LINE
  5
9B5
330
1F
100
AcDbEntity
  8
0
 67
0
100
AcDbLine
 10
93.66047005397853
 20
-28.2279577594234
 11
90.29582246764576
 21
-40.78499350118129
  0
LINE
  5
9B6
330
1F
100
AcDbEntity
  8
0
 67
0
100
AcDbLine
 10
107.1834316220255
 20
-31.851424390858693
 11
103.81878403569272
 21
-44.40846013261658
  0
ARC
  5
9B7
330
1F
100
AcDbEntity
  8
0
 67
0
100
AcDbCircle
 10
94.14343296712306
 20
-28.35736728197466
 40
0.5
100
AcDbArc
 50
75.0
 51
165.0
  0
ARC
  5
9B8
330
1F
100
AcDbEntity
  8
0
 67
0
100
AcDbCircle
 10
106.70046870888095
 20
-31.722014868307433
 40
0.5
100
AcDbArc
 50
-15.0
 51
75.0
  0
ARC
  5
9B9
330
1F
100
AcDbEntity
  8
0
 67
0
100
AcDbCircle
 10
90.7787853807903
 20
-40.91440302373255
 40
0.5
100
AcDbArc
 50
165.0
 51
255.0
  0
ARC
  5
9BA
330
1F
100
AcDbEntity
  8
0
 67
0
100
AcDbCircle
 10
103.33582112254818
 20
-44.27905061006532
 40
0.5
100
AcDbArc
 50
255.0
 51
345.0
  0
LINE
  5
9BB
330
1F
100
AcDbEntity
  8
0
 67
0
100
AcDbLine
 10
2.268407535640567
 20
-3.2218903228150233
 11
14.825443277398454
 21
-6.586537909147793
  0
LINE
  5
9BC
330
1F
100
AcDbEntity
  8
0
 67
0
100
AcDbLine
 10
-1.3550590957947237
 20
-16.74485189086198
 11
11.201976645963164
 21
-20.10949947719475
  0
LINE
  5
9BD
330
1F
100
AcDbEntity
  8
0
 67
0
100
AcDbLine
 10
1.6560350999447724
 20
-3.575443713408297
 11
-1.7086124863879975
 21
-16.132479455166184
  0
LINE
  5
9BE
330
1F
100
AcDbEntity
  8
0
 67
0
100
AcDbLine
 10
15.17899666799173
 20
-7.198910344843587
 11
11.814349081658959
 21
-19.755946086601476
  0
ARC
  5
9BF
330
1F
100
AcDbEntity
  8
0
 67
0
100
AcDbCircle
 10
2.1389980130893065
 20
-3.704853235959557
 40
0.5
100
AcDbArc
 50
75.0
 51
165.0
  0
ARC
  5
9C0
330
1F
100
AcDbEntity
  8
0
 67
0
100
AcDbCircle
 10
14.696033754847194
 20
-7.069500822292327
 40
0.5
100
AcDbArc
 50
-15.0
 51
75.0
  0
ARC
  5
9C1
330
1F
100
AcDbEntity
  8
0
 67
0
100
AcDbCircle
 10
-1.2256495732434634
 20
-16.261888977717444
 40
0.5
100
AcDbArc
 50
165.0
 51
255.0
  0
ARC
  5
9C2
330
1F
100
AcDbEntity
  8
0
 67
0
100
AcDbCircle
 10
11.331386168514424
 20
-19.626536564050216
 40
0.5
100
AcDbArc
 50
255.0
 51
345.0
  0
LINE
  5
9C3
330
1F
100
AcDbEntity
  8
0
 67
0
100
AcDbLine
 10
25.269516274149005
 20
-9.385018834318798
 11
37.82655201590689
 21
-12.749666420651568
  0
LINE
  5
9C4
330
1F
100
AcDbEntity
  8
0
 67
0
100
AcDbLine
 10
21.646049642713713
 20
-22.907980402365755
 11
34.2030853844716
 21
-26.272627988698524
  0
LINE
  5
9C5
330
1F
100
AcDbEntity
  8
0
 67
0
100
AcDbLine
 10
24.65714383845321
 20
-9.738572224912073
 11
21.29249625212044
 21
-22.29560796666996
  0
LINE
  5
9C6
330
1F
100
AcDbEntity
  8
0
 67
0
100
AcDbLine
 10
38.18010540650017
 20
-13.362038856347363
 11
34.815457820167396
 21
-25.91907459810525
  0
ARC
  5
9C7
330
1F
100
AcDbEntity
  8
0
 67
0
100
AcDbCircle
 10
25.14010675159774
 20
-9.867981747463332
 40
0.5
100
AcDbArc
 50
75.0
 51
165.0
  0
ARC
  5
9C8
330
1F
100
AcDbEntity
  8
0
 67
0
100
AcDbCircle
 10
37.69714249335563
 20
-13.232629333796103
 40
0.5
100
AcDbArc
 50
-15.0
 51
75.0
  0
ARC
  5
9C9
330
1F
100
AcDbEntity
  8
0
 67
0
100
AcDbCircle
 10
21.775459165264973
 20
-22.42501748922122
 40
0.5
100
AcDbArc
 50
165.0
 51
255.0
  0
ARC
  5
9CA
330
1F
100
AcDbEntity
  8
0
 67
0
100
AcDbCircle
 10
34.33249490702286
 20
-25.78966507555399
 40
0.5
100
AcDbArc
 50
255.0
 51
345.0
  0
LINE
  5
9CB
330
1F
100
AcDbEntity
  8
0
 67
0
100
AcDbLine
 10
4.568518409491411
 20
-3.838203173965401
 11
17.125554151249297
 21
-7.202850760298171
  0
LINE
  5
9CC
330
1F
100
AcDbEntity
  8
0
 67
0
100
AcDbLine
 10
0.9450517780561197
 20
-17.361164742012356
 11
13.502087519814008
 21
-20.72581232834513
  0
LINE
  5
9CD
330
1F
100
AcDbEntity
  8
0
 67
0
100
AcDbLine
 10
3.956145973795616
 20
-4.191756564558674
 11
0.591498387462846
 21
-16.748792306316563
  0
LINE
  5
9CE
330
1F
100
AcDbEntity
  8
0
 67
0
100
AcDbLine
 10
17.479107541842573
 20
-7.815223195993965
 11
14.114459955509801
 21
-20.37225893775185
  0
ARC
  5
9CF
330
1F
100
AcDbEntity
  8
0
 67
0
100
AcDbCircle
 10
4.43910888694015
 20
-4.321166087109935
 40
0.5
100
AcDbArc
 50
75.0
 51
165.0
  0
ARC
  5
9D0
330
1F
100
AcDbEntity
  8
0
 67
0
100
AcDbCircle
 10
16.996144628698037
 20
-7.685813673442705
 40
0.5
100
AcDbArc
 50
-15.0
 51
75.0
  0
ARC
  5
9D1
330
1F
100
AcDbEntity
  8
0
 67
0
100
AcDbCircle
 10
1.0744613006073802
 20
-16.878201828867823
 40
0.5
100
AcDbArc
 50
165.0
 51
255.0
  0
ARC
  5
9D2
330
1F
100
AcDbEntity
  8
0
 67
0
100
AcDbCircle
 10
13.631497042365268
 20
-20.242849415200592
 40
0.5
100
AcDbArc
 50
255.0
 51
345.0
  0
LINE
  5
9D3
330
1F
100
AcDbEntity
  8
0
 67
0
100
AcDbLine
 10
4.568518409491411
 20
-3.838203173965401
 11
17.125554151249297
 21
-7.202850760298171
  0
LINE
  5
9D4
330
1F
100
AcDbEntity
  8
0
 67
0
100
AcDbLine
 10
0.9450517780561197
 20
-17.361164742012356
 11
13.502087519814008
 21
-20.72581232834513
  0
LINE
  5
9D5
330
1F
100
AcDbEntity
  8
0
 67
0
100
AcDbLine
 10
3.956145973795616
 20
-4.191756564558674
 11
0.591498387462846
 21
-16.748792306316563
  0
LINE
  5
9D6
330
1F
100
AcDbEntity
  8
0
 67
0
100
AcDbLine
 10
17.479107541842573
 20
-7.815223195993965
 11
14.114459955509801
 21
-20.37225893775185
  0
ARC
  5
9D7
330
1F
100
AcDbEntity
  8
0
 67
0
100
AcDbCircle
 10
4.43910888694015
 20
-4.321166087109935
 40
0.5
100
AcDbArc
 50
75.0
 51
165.0
  0
ARC
  5
9D8
330
1F
100
AcDbEntity
  8
0
 67
0
100
AcDbCircle
 10
16.996144628698037
 20
-7.685813673442705
 40
0.5
100
AcDbArc
 50
-15.0
 51
75.0
  0
ARC
  5
9D9
330
1F
100
AcDbEntity
  8
0
 67
0
100
AcDbCircle
 10
1.0744613006073802
 20
-16.878201828867823
 40
0.5
100
AcDbArc
 50
165.0
 51
255.0
  0
ARC
  5
9DA
330
1F
100
AcDbEntity
  8
0
 67
0
100
AcDbCircle
 10
13.631497042365268
 20
-20.242849415200592
 40
0.5
100
AcDbArc
 50
255.0
 51
345.0
  0
LINE
  5
9DB
330
1F
100
AcDbEntity
  8
0
 67
0
100
AcDbLine
 10
52.870846760359136
 20
-16.78077304812333
 11
65.42788250211701
 21
-20.1454206344561
  0
LINE
  5
9DC
330
1F
100
AcDbEntity
  8
0
 67
0
100
AcDbLine
 10
49.247380128923844
 20
-30.303734616170285
 11
61.80441587068173
 21
-33.668382202503054
  0
LINE
  5
9DD
330
1F
100
AcDbEntity
  8
0
 67
0
100
AcDbLine
 10
52.25847432466334
 20
-17.134326438716602
 11
48.89382673833057
 21
-29.691362180474492
  0
LINE
  5
9DE
330
1F
100
AcDbEntity
  8
0
 67
0
100
AcDbLine
 10
65.78143589271029
 20
-20.757793070151894
 11
62.416788306377526
 21
-33.314828811909784
  0
ARC
  5
9DF
330
1F
100
AcDbEntity
  8
0
 67
0
100
AcDbCircle
 10
52.74143723780787
 20
-17.263735961267862
 40
0.5
100
AcDbArc
 50
75.0
 51
165.0
  0
ARC
  5
9E0
330
1F
100
AcDbEntity
  8
0
 67
0
100
AcDbCircle
 10
65.29847297956576
 20
-20.628383547600635
 40
0.5
100
AcDbArc
 50
-15.0
 51
75.0
  0
ARC
  5
9E1
330
1F
100
AcDbEntity
  8
0
 67
0
100
AcDbCircle
 10
49.3767896514751
 20
-29.820771703025752
 40
0.5
100
AcDbArc
 50
165.0
 51
255.0
  0
ARC
  5
9E2
330
1F
100
AcDbEntity
  8
0
 67
0
100
AcDbCircle
 10
61.93382539323299
 20
-33.18541928935852
 40
0.5
100
AcDbArc
 50
255.0
 51
345.0
  0
LINE
  5
9E3
330
1F
100
AcDbEntity
  8
0
 67
0
100
AcDbLine
 10
67.64473134979339
 20
-21.77469967334293
 11
73.19880485095553
 21
-23.262909182682424
  0
LINE
  5
9E4
330
1F
100
AcDbEntity
  8
0
 67
0
100
AcDbLine
 10
64.0212647183581
 20
-35.29766124138988
 11
69.57533821952023
 21
-36.78587075072938
  0
LINE
  5
9E5
330
1F
100
AcDbEntity
  8
0
 67
0
100
AcDbLine
 10
67.03235891409759
 20
-22.128253063936203
 11
63.66771132776482
 21
-34.68528880569409
  0
LINE
  5
9E6
330
1F
100
AcDbEntity
  8
0
 67
0
100
AcDbLine
 10
73.5523582415488
 20
-23.875281618378217
 11
70.18771065521602
 21
-36.4323173601361
  0
ARC
  5
9E7
330
1F
100
AcDbEntity
  8
0
 67
0
100
AcDbCircle
 10
67.51532182724212
 20
-22.257662586487463
 40
0.5
100
AcDbArc
 50
75.0
 51
165.0
  0
ARC
  5
9E8
330
1F
100
AcDbEntity
  8
0
 67
0
100
AcDbCircle
 10
73.06939532840427
 20
-23.745872095826957
 40
0.5
100
AcDbArc
 50
-15.0
 51
75.0
  0
ARC
  5
9E9
330
1F
100
AcDbEntity
  8
0
 67
0
100
AcDbCircle
 10
64.15067424090935
 20
-34.81469832824535
 40
0.5
100
AcDbArc
 50
165.0
 51
255.0
  0
ARC
  5
9EA
330
1F
100
AcDbEntity
  8
0
 67
0
100
AcDbCircle
 10
69.70474774207149
 20
-36.30290783758485
 40
0.5
100
AcDbArc
 50
255.0
 51
345.0
  0
LINE
  5
9EB
330
1F
100
AcDbEntity
  8
0
 67
0
100
AcDbLine
 10
44.582286321315586
 20
-15.595136152475144
 11
50.13635982247773
 21
-17.083345661814636
  0
LINE
  5
9EC
330
1F
100
AcDbEntity
  8
0
 67
0
100
AcDbLine
 10
40.95881968988029
 20
-29.118097720522098
 11
46.51289319104244
 21
-30.606307229861592
  0
LINE
  5
9ED
330
1F
100
AcDbEntity
  8
0
 67
0
100
AcDbLine
 10
43.96991388561979
 20
-15.948689543068417
 11
40.605266299287024
 21
-28.505725284826305
  0
LINE
  5
9EE
330
1F
100
AcDbEntity
  8
0
 67
0
100
AcDbLine
 10
50.489913213071006
 20
-17.695718097510433
 11
47.12526562673823
 21
-30.25275383926832
  0
ARC
  5
9EF
330
1F
100
AcDbEntity
  8
0
 67
0
100
AcDbCircle
 10
44.45287679876433
 20
-16.07809906561968
 40
0.5
100
AcDbArc
 50
75.0
 51
165.0
  0
ARC
  5
9F0
330
1F
100
AcDbEntity
  8
0
 67
0
100
AcDbCircle
 10
50.006950299926466
 20
-17.566308574959173
 40
0.5
100
AcDbArc
 50
-15.0
 51
75.0
  0
ARC
  5
9F1
330
1F
100
AcDbEntity
  8
0
 67
0
100
AcDbCircle
 10
41.08822921243156
 20
-28.635134807377565
 40
0.5
100
AcDbArc
 50
165.0
 51
255.0
  0
ARC
  5
9F2
330
1F
100
AcDbEntity
  8
0
 67
0
100
AcDbCircle
 10
46.6423027135937
 20
-30.12334431671706
 40
0.5
100
AcDbArc
 50
255.0
 51
345.0
  0
LINE
  5
9F3
330
1F
100
AcDbEntity
  8
0
 67
0
100
AcDbLine
 10
0.0
 20
0.0
 11
538.1625
 21
0.0
  0
LINE
  5
9F4
330
1F
100
AcDbEntity
  8
0
 67
0
100
AcDbLine
 10
0.0
 20
-138.1125
 11
538.1625
 21
-138.1125
  0
LINE
  5
9F5
330
1F
100
AcDbEntity
  8
0
 67
0
100
AcDbLine
 10
0.0
 20
0.0
 11
0.0
 21
-138.1125
  0
LINE
  5
9F6
330
1F
100
AcDbEntity
  8
0
 67
0
100
AcDbLine
 10
538.1625
 20
0.0
 11
538.1625
 21
-138.1125
  0
ENDSEC
  0
SECTION
  2
OBJECTS
  0
DICTIONARY
  5
C
330
0
100
AcDbDictionary
281
1
  3
ACAD_COLOR
350
4E1
  3
ACAD_GROUP
350
4E2
  3
ACAD_LAYOUT
350
4E3
  3
ACAD_MATERIAL
350
4E4
  3
ACAD_MLEADERSTYLE
350
4E5
  3
ACAD_MLINESTYLE
350
4E6
  3
ACAD_PLOTSETTINGS
350
4E7
  3
ACAD_PLOTSTYLENAME
350
4E9
  3
ACAD_SCALELIST
350
4EA
  3
ACAD_TABLESTYLE
350
4EB
  3
ACAD_VISUALSTYLE
350
4EC
  0
DICTIONARY
  5
4E1
330
C
100
AcDbDictionary
281
1
  0
DICTIONARY
  5
4E2
330
C
100
AcDbDictionary
281
1
  0
DICTIONARY
  5
4E3
330
C
100
AcDbDictionary
281
1
  3
Model
350
4ED
  3
Layout1
350
4EE
  0
DICTIONARY
  5
4E4
330
C
100
AcDbDictionary
281
1
  0
DICTIONARY
  5
4E5
330
C
100
AcDbDictionary
281
1
  0
DICTIONARY
  5
4E6
330
C
100
AcDbDictionary
281
1
  0
DICTIONARY
  5
4E7
330
C
100
AcDbDictionary
281
1
  0
ACDBPLACEHOLDER
  5
4E8
330
4E9
  0
ACDBDICTIONARYWDFLT
  5
4E9
330
C
100
AcDbDictionary
281
1
  3
Normal
350
4E8
100
AcDbDictionaryWithDefault
340
4E8
  0
DICTIONARY
  5
4EA
330
C
100
AcDbDictionary
281
1
  0
DICTIONARY
  5
4EB
330
C
100
AcDbDictionary
281
1
  0
DICTIONARY
  5
4EC
330
C
100
AcDbDictionary
281
1
  0
LAYOUT
  5
4ED
330
4E3
100
AcDbPlotSettings
  1

  2
DWFx ePlot (XPS Compatible).pc3
  4
ANSI_A_(8.50_x_11.00_Inches)
  6

 40
5.8
 41
17.8
 42
5.8
 43
17.8
 44
215.9
 45
279.4
 46
0.0
 47
0.0
 48
0.0
 49
0.0
140
0.0
141
0.0
142
1.0
143
14.53
 70
11952
 72
0
 73
1
 74
0
  7

 75
0
147
0.069
148
114.98
149
300.29
100
AcDbLayout
  1
Model
 70
1
 71
0
 10
0.0
 20
0.0
 11
12.0
 21
9.0
 12
0.0
 22
0.0
 32
0.0
 14
0.0
 24
0.0
 34
0.0
 15
0.0
 25
0.0
 35
0.0
146
0.0
 13
0.0
 23
0.0
 33
0.0
 16
1.0
 26
0.0
 36
0.0
 17
0.0
 27
1.0
 37
0.0
 76
0
330
1F
  0
LAYOUT
  5
4EE
330
4E3
100
AcDbPlotSettings
  1

  2
DWFx ePlot (XPS Compatible).pc3
  4
ANSI_A_(8.50_x_11.00_Inches)
  6

 40
5.8
 41
17.8
 42
5.8
 43
17.8
 44
215.9
 45
279.4
 46
0.0
 47
0.0
 48
0.0
 49
0.0
140
0.0
141
0.0
142
1.0
143
1.0
 70
688
 72
0
 73
1
 74
5
  7
acad.ctb
 75
16
147
1.0
148
0.0
149
0.0
100
AcDbLayout
  1
Layout1
 70
1
 71
1
 10
-0.7
 20
-0.23
 11
10.3
 21
8.27
 12
0.0
 22
0.0
 32
0.0
 14
0.63
 24
0.8
 34
0.0
 15
9.0
 25
7.2
 35
0.0
146
0.0
 13
0.0
 23
0.0
 33
0.0
 16
1.0
 26
0.0
 36
0.0
 17
0.0
 27
1.0
 37
0.0
 76
0
330
58
  0
ENDSEC
  0
EOF
