G04 #@! TF.GenerationSoftware,KiCad,Pcbnew,(5.1.6)-1*
G04 #@! TF.CreationDate,2020-08-31T15:39:06-04:00*
G04 #@! TF.ProjectId,keyboard,6b657962-6f61-4726-942e-6b696361645f,rev?*
G04 #@! TF.SameCoordinates,Original*
G04 #@! TF.FileFunction,Soldermask,Top*
G04 #@! TF.FilePolarity,Negative*
%FSLAX46Y46*%
G04 Gerber Fmt 4.6, Leading zero omitted, Abs format (unit mm)*
G04 Created by KiCad (PCBNEW (5.1.6)-1) date 2020-08-31 15:39:06*
%MOMM*%
%LPD*%
G01*
G04 APERTURE LIST*
%ADD10C,3.987800*%
%ADD11C,1.750000*%
%ADD12C,3.048000*%
G04 APERTURE END LIST*
D10*
X275469126Y-145415000D03*
D11*
X270389126Y-145415000D03*
X280549126Y-145415000D03*
D10*
X293870013Y-150345503D03*
D11*
X288790013Y-150345503D03*
X298950013Y-150345503D03*
D10*
X367741686Y-150906117D03*
D11*
X362661686Y-150906117D03*
X372821686Y-150906117D03*
D10*
X261338179Y-161350636D03*
D11*
X256258179Y-161350636D03*
X266418179Y-161350636D03*
D10*
X279739066Y-166281138D03*
D11*
X274659066Y-166281138D03*
X284819066Y-166281138D03*
D10*
X298139953Y-171211641D03*
D11*
X293059953Y-171211641D03*
X303219953Y-171211641D03*
D10*
X312270900Y-155276006D03*
D11*
X307190900Y-155276006D03*
X317350900Y-155276006D03*
D10*
X330671787Y-160206508D03*
D11*
X325591787Y-160206508D03*
X335751787Y-160206508D03*
D10*
X349072674Y-165137011D03*
D11*
X343992674Y-165137011D03*
X354152674Y-165137011D03*
D10*
X372504186Y-169956117D03*
D11*
X367424186Y-169956117D03*
X377584186Y-169956117D03*
D10*
X233406568Y-173588394D03*
D11*
X228326568Y-173588394D03*
X238486568Y-173588394D03*
D10*
X251807455Y-178518897D03*
D11*
X246727455Y-178518897D03*
X256887455Y-178518897D03*
D10*
X277189813Y-184682025D03*
D11*
X272109813Y-184682025D03*
X282269813Y-184682025D03*
D10*
X316540840Y-176142144D03*
D11*
X311460840Y-176142144D03*
X321620840Y-176142144D03*
D10*
X334941727Y-181072647D03*
D11*
X329861727Y-181072647D03*
X340021727Y-181072647D03*
D10*
X353342614Y-186003150D03*
D11*
X348262614Y-186003150D03*
X358422614Y-186003150D03*
D10*
X372504186Y-189006117D03*
D11*
X367424186Y-189006117D03*
X377584186Y-189006117D03*
D10*
X244657980Y-195687158D03*
D11*
X239577980Y-195687158D03*
X249737980Y-195687158D03*
D10*
X272259311Y-203082912D03*
D11*
X267179311Y-203082912D03*
X277339311Y-203082912D03*
D10*
X300190922Y-190845154D03*
D11*
X295110922Y-190845154D03*
X305270922Y-190845154D03*
D10*
X295260419Y-209246041D03*
D11*
X290180419Y-209246041D03*
X300340419Y-209246041D03*
D10*
X323192031Y-197008282D03*
D11*
X318112031Y-197008282D03*
X328272031Y-197008282D03*
D10*
X348412111Y-204404037D03*
D11*
X343332111Y-204404037D03*
X353492111Y-204404037D03*
D10*
X366812998Y-209334539D03*
D11*
X361732998Y-209334539D03*
X371892998Y-209334539D03*
D10*
X235127256Y-212855419D03*
D11*
X230047256Y-212855419D03*
X240207256Y-212855419D03*
D10*
X318261528Y-215409169D03*
D11*
X313181528Y-215409169D03*
X323341528Y-215409169D03*
D10*
X343481609Y-222804924D03*
D11*
X338401609Y-222804924D03*
X348561609Y-222804924D03*
D10*
X361882496Y-227735426D03*
D11*
X356802496Y-227735426D03*
X366962496Y-227735426D03*
D10*
X230196753Y-231256306D03*
D11*
X225116753Y-231256306D03*
X235276753Y-231256306D03*
D10*
X329350662Y-238740559D03*
D11*
X324270662Y-238740559D03*
X334430662Y-238740559D03*
D10*
X319735936Y-265109264D03*
D11*
X314655936Y-265109264D03*
X324815936Y-265109264D03*
D10*
X345286298Y-252871506D03*
D11*
X340206298Y-252871506D03*
X350366298Y-252871506D03*
D10*
X368287407Y-259034634D03*
D11*
X363207407Y-259034634D03*
X373367407Y-259034634D03*
D10*
X349880795Y-271272392D03*
D11*
X344800795Y-271272392D03*
X354960795Y-271272392D03*
D12*
X337942795Y-264287392D03*
X361818795Y-264287392D03*
D10*
X337942795Y-279527392D03*
X361818795Y-279527392D03*
M02*
