G04 #@! TF.GenerationSoftware,KiCad,Pcbnew,(5.1.6)-1*
G04 #@! TF.CreationDate,2020-08-31T15:39:06-04:00*
G04 #@! TF.ProjectId,keyboard,6b657962-6f61-4726-942e-6b696361645f,rev?*
G04 #@! TF.SameCoordinates,Original*
G04 #@! TF.FileFunction,Legend,Bot*
G04 #@! TF.FilePolarity,Positive*
%FSLAX46Y46*%
G04 Gerber Fmt 4.6, Leading zero omitted, Abs format (unit mm)*
G04 Created by KiCad (PCBNEW (5.1.6)-1) date 2020-08-31 15:39:06*
%MOMM*%
%LPD*%
G01*
G04 APERTURE LIST*
%ADD10C,0.120000*%
%ADD11C,0.150000*%
G04 APERTURE END LIST*
D10*
X284994126Y-148165000D02*
X282994126Y-148165000D01*
X282994126Y-148165000D02*
X282994126Y-144265000D01*
X284994126Y-148165000D02*
X284994126Y-144265000D01*
X303395013Y-153095503D02*
X301395013Y-153095503D01*
X301395013Y-153095503D02*
X301395013Y-149195503D01*
X303395013Y-153095503D02*
X303395013Y-149195503D01*
X377266686Y-153656117D02*
X375266686Y-153656117D01*
X375266686Y-153656117D02*
X375266686Y-149756117D01*
X377266686Y-153656117D02*
X377266686Y-149756117D01*
X270863179Y-164100636D02*
X268863179Y-164100636D01*
X268863179Y-164100636D02*
X268863179Y-160200636D01*
X270863179Y-164100636D02*
X270863179Y-160200636D01*
X289264066Y-169031138D02*
X287264066Y-169031138D01*
X287264066Y-169031138D02*
X287264066Y-165131138D01*
X289264066Y-169031138D02*
X289264066Y-165131138D01*
X307664953Y-173961641D02*
X305664953Y-173961641D01*
X305664953Y-173961641D02*
X305664953Y-170061641D01*
X307664953Y-173961641D02*
X307664953Y-170061641D01*
X321795900Y-158026006D02*
X319795900Y-158026006D01*
X319795900Y-158026006D02*
X319795900Y-154126006D01*
X321795900Y-158026006D02*
X321795900Y-154126006D01*
X340196787Y-162956508D02*
X338196787Y-162956508D01*
X338196787Y-162956508D02*
X338196787Y-159056508D01*
X340196787Y-162956508D02*
X340196787Y-159056508D01*
X358597674Y-167887011D02*
X356597674Y-167887011D01*
X356597674Y-167887011D02*
X356597674Y-163987011D01*
X358597674Y-167887011D02*
X358597674Y-163987011D01*
X382029186Y-172706117D02*
X380029186Y-172706117D01*
X380029186Y-172706117D02*
X380029186Y-168806117D01*
X382029186Y-172706117D02*
X382029186Y-168806117D01*
X242931568Y-176338394D02*
X240931568Y-176338394D01*
X240931568Y-176338394D02*
X240931568Y-172438394D01*
X242931568Y-176338394D02*
X242931568Y-172438394D01*
X261332455Y-181268897D02*
X259332455Y-181268897D01*
X259332455Y-181268897D02*
X259332455Y-177368897D01*
X261332455Y-181268897D02*
X261332455Y-177368897D01*
X289096063Y-187432025D02*
X287096063Y-187432025D01*
X287096063Y-187432025D02*
X287096063Y-183532025D01*
X289096063Y-187432025D02*
X289096063Y-183532025D01*
X326065840Y-178892144D02*
X324065840Y-178892144D01*
X324065840Y-178892144D02*
X324065840Y-174992144D01*
X326065840Y-178892144D02*
X326065840Y-174992144D01*
X344466727Y-183822647D02*
X342466727Y-183822647D01*
X342466727Y-183822647D02*
X342466727Y-179922647D01*
X344466727Y-183822647D02*
X344466727Y-179922647D01*
X362867614Y-188753150D02*
X360867614Y-188753150D01*
X360867614Y-188753150D02*
X360867614Y-184853150D01*
X362867614Y-188753150D02*
X362867614Y-184853150D01*
X382029186Y-191756117D02*
X380029186Y-191756117D01*
X380029186Y-191756117D02*
X380029186Y-187856117D01*
X382029186Y-191756117D02*
X382029186Y-187856117D01*
X256564230Y-198437158D02*
X254564230Y-198437158D01*
X254564230Y-198437158D02*
X254564230Y-194537158D01*
X256564230Y-198437158D02*
X256564230Y-194537158D01*
X284165561Y-205832912D02*
X282165561Y-205832912D01*
X282165561Y-205832912D02*
X282165561Y-201932912D01*
X284165561Y-205832912D02*
X284165561Y-201932912D01*
X312097172Y-193595154D02*
X310097172Y-193595154D01*
X310097172Y-193595154D02*
X310097172Y-189695154D01*
X312097172Y-193595154D02*
X312097172Y-189695154D01*
X307166669Y-211996041D02*
X305166669Y-211996041D01*
X305166669Y-211996041D02*
X305166669Y-208096041D01*
X307166669Y-211996041D02*
X307166669Y-208096041D01*
X335098281Y-199758282D02*
X333098281Y-199758282D01*
X333098281Y-199758282D02*
X333098281Y-195858282D01*
X335098281Y-199758282D02*
X335098281Y-195858282D01*
X357937111Y-207154037D02*
X355937111Y-207154037D01*
X355937111Y-207154037D02*
X355937111Y-203254037D01*
X357937111Y-207154037D02*
X357937111Y-203254037D01*
X376337998Y-212084539D02*
X374337998Y-212084539D01*
X374337998Y-212084539D02*
X374337998Y-208184539D01*
X376337998Y-212084539D02*
X376337998Y-208184539D01*
X247033506Y-215605419D02*
X245033506Y-215605419D01*
X245033506Y-215605419D02*
X245033506Y-211705419D01*
X247033506Y-215605419D02*
X247033506Y-211705419D01*
X330167778Y-218159169D02*
X328167778Y-218159169D01*
X328167778Y-218159169D02*
X328167778Y-214259169D01*
X330167778Y-218159169D02*
X330167778Y-214259169D01*
X353006609Y-225554924D02*
X351006609Y-225554924D01*
X351006609Y-225554924D02*
X351006609Y-221654924D01*
X353006609Y-225554924D02*
X353006609Y-221654924D01*
X371407496Y-230485426D02*
X369407496Y-230485426D01*
X369407496Y-230485426D02*
X369407496Y-226585426D01*
X371407496Y-230485426D02*
X371407496Y-226585426D01*
X242103003Y-234006306D02*
X240103003Y-234006306D01*
X240103003Y-234006306D02*
X240103003Y-230106306D01*
X242103003Y-234006306D02*
X242103003Y-230106306D01*
X338875662Y-241490559D02*
X336875662Y-241490559D01*
X336875662Y-241490559D02*
X336875662Y-237590559D01*
X338875662Y-241490559D02*
X338875662Y-237590559D01*
X331642186Y-267859264D02*
X329642186Y-267859264D01*
X329642186Y-267859264D02*
X329642186Y-263959264D01*
X331642186Y-267859264D02*
X331642186Y-263959264D01*
X354811298Y-255621506D02*
X352811298Y-255621506D01*
X352811298Y-255621506D02*
X352811298Y-251721506D01*
X354811298Y-255621506D02*
X354811298Y-251721506D01*
X377812407Y-261784634D02*
X375812407Y-261784634D01*
X375812407Y-261784634D02*
X375812407Y-257884634D01*
X377812407Y-261784634D02*
X377812407Y-257884634D01*
X368930795Y-274022392D02*
X366930795Y-274022392D01*
X366930795Y-274022392D02*
X366930795Y-270122392D01*
X368930795Y-274022392D02*
X368930795Y-270122392D01*
D11*
X286446506Y-144795952D02*
X285446506Y-144795952D01*
X285446506Y-145034047D01*
X285494126Y-145176904D01*
X285589364Y-145272142D01*
X285684602Y-145319761D01*
X285875078Y-145367380D01*
X286017935Y-145367380D01*
X286208411Y-145319761D01*
X286303649Y-145272142D01*
X286398887Y-145176904D01*
X286446506Y-145034047D01*
X286446506Y-144795952D01*
X286541745Y-145557857D02*
X286541745Y-146319761D01*
X285446506Y-146462619D02*
X285446506Y-147081666D01*
X285827459Y-146748333D01*
X285827459Y-146891190D01*
X285875078Y-146986428D01*
X285922697Y-147034047D01*
X286017935Y-147081666D01*
X286256030Y-147081666D01*
X286351268Y-147034047D01*
X286398887Y-146986428D01*
X286446506Y-146891190D01*
X286446506Y-146605476D01*
X286398887Y-146510238D01*
X286351268Y-146462619D01*
X304847393Y-149726455D02*
X303847393Y-149726455D01*
X303847393Y-149964550D01*
X303895013Y-150107407D01*
X303990251Y-150202645D01*
X304085489Y-150250264D01*
X304275965Y-150297883D01*
X304418822Y-150297883D01*
X304609298Y-150250264D01*
X304704536Y-150202645D01*
X304799774Y-150107407D01*
X304847393Y-149964550D01*
X304847393Y-149726455D01*
X304942632Y-150488360D02*
X304942632Y-151250264D01*
X304180727Y-151916931D02*
X304847393Y-151916931D01*
X303799774Y-151678836D02*
X304514060Y-151440741D01*
X304514060Y-152059788D01*
X378719066Y-150287069D02*
X377719066Y-150287069D01*
X377719066Y-150525164D01*
X377766686Y-150668021D01*
X377861924Y-150763259D01*
X377957162Y-150810878D01*
X378147638Y-150858497D01*
X378290495Y-150858497D01*
X378480971Y-150810878D01*
X378576209Y-150763259D01*
X378671447Y-150668021D01*
X378719066Y-150525164D01*
X378719066Y-150287069D01*
X378814305Y-151048974D02*
X378814305Y-151810878D01*
X377719066Y-152239450D02*
X377719066Y-152334688D01*
X377766686Y-152429926D01*
X377814305Y-152477545D01*
X377909543Y-152525164D01*
X378100019Y-152572783D01*
X378338114Y-152572783D01*
X378528590Y-152525164D01*
X378623828Y-152477545D01*
X378671447Y-152429926D01*
X378719066Y-152334688D01*
X378719066Y-152239450D01*
X378671447Y-152144212D01*
X378623828Y-152096593D01*
X378528590Y-152048974D01*
X378338114Y-152001355D01*
X378100019Y-152001355D01*
X377909543Y-152048974D01*
X377814305Y-152096593D01*
X377766686Y-152144212D01*
X377719066Y-152239450D01*
X272315559Y-160731588D02*
X271315559Y-160731588D01*
X271315559Y-160969683D01*
X271363179Y-161112540D01*
X271458417Y-161207778D01*
X271553655Y-161255397D01*
X271744131Y-161303016D01*
X271886988Y-161303016D01*
X272077464Y-161255397D01*
X272172702Y-161207778D01*
X272267940Y-161112540D01*
X272315559Y-160969683D01*
X272315559Y-160731588D01*
X272410798Y-161493493D02*
X272410798Y-162255397D01*
X271744131Y-162636350D02*
X271696512Y-162541112D01*
X271648893Y-162493493D01*
X271553655Y-162445874D01*
X271506036Y-162445874D01*
X271410798Y-162493493D01*
X271363179Y-162541112D01*
X271315559Y-162636350D01*
X271315559Y-162826826D01*
X271363179Y-162922064D01*
X271410798Y-162969683D01*
X271506036Y-163017302D01*
X271553655Y-163017302D01*
X271648893Y-162969683D01*
X271696512Y-162922064D01*
X271744131Y-162826826D01*
X271744131Y-162636350D01*
X271791750Y-162541112D01*
X271839369Y-162493493D01*
X271934607Y-162445874D01*
X272125083Y-162445874D01*
X272220321Y-162493493D01*
X272267940Y-162541112D01*
X272315559Y-162636350D01*
X272315559Y-162826826D01*
X272267940Y-162922064D01*
X272220321Y-162969683D01*
X272125083Y-163017302D01*
X271934607Y-163017302D01*
X271839369Y-162969683D01*
X271791750Y-162922064D01*
X271744131Y-162826826D01*
X290716446Y-165662090D02*
X289716446Y-165662090D01*
X289716446Y-165900185D01*
X289764066Y-166043042D01*
X289859304Y-166138280D01*
X289954542Y-166185899D01*
X290145018Y-166233518D01*
X290287875Y-166233518D01*
X290478351Y-166185899D01*
X290573589Y-166138280D01*
X290668827Y-166043042D01*
X290716446Y-165900185D01*
X290716446Y-165662090D01*
X290811685Y-166423995D02*
X290811685Y-167185899D01*
X290716446Y-167471614D02*
X290716446Y-167662090D01*
X290668827Y-167757328D01*
X290621208Y-167804947D01*
X290478351Y-167900185D01*
X290287875Y-167947804D01*
X289906923Y-167947804D01*
X289811685Y-167900185D01*
X289764066Y-167852566D01*
X289716446Y-167757328D01*
X289716446Y-167566852D01*
X289764066Y-167471614D01*
X289811685Y-167423995D01*
X289906923Y-167376376D01*
X290145018Y-167376376D01*
X290240256Y-167423995D01*
X290287875Y-167471614D01*
X290335494Y-167566852D01*
X290335494Y-167757328D01*
X290287875Y-167852566D01*
X290240256Y-167900185D01*
X290145018Y-167947804D01*
X309117333Y-170116402D02*
X308117333Y-170116402D01*
X308117333Y-170354498D01*
X308164953Y-170497355D01*
X308260191Y-170592593D01*
X308355429Y-170640212D01*
X308545905Y-170687831D01*
X308688762Y-170687831D01*
X308879238Y-170640212D01*
X308974476Y-170592593D01*
X309069714Y-170497355D01*
X309117333Y-170354498D01*
X309117333Y-170116402D01*
X309212572Y-170878307D02*
X309212572Y-171640212D01*
X309117333Y-172402117D02*
X309117333Y-171830688D01*
X309117333Y-172116402D02*
X308117333Y-172116402D01*
X308260191Y-172021164D01*
X308355429Y-171925926D01*
X308403048Y-171830688D01*
X308117333Y-173021164D02*
X308117333Y-173116402D01*
X308164953Y-173211641D01*
X308212572Y-173259260D01*
X308307810Y-173306879D01*
X308498286Y-173354498D01*
X308736381Y-173354498D01*
X308926857Y-173306879D01*
X309022095Y-173259260D01*
X309069714Y-173211641D01*
X309117333Y-173116402D01*
X309117333Y-173021164D01*
X309069714Y-172925926D01*
X309022095Y-172878307D01*
X308926857Y-172830688D01*
X308736381Y-172783069D01*
X308498286Y-172783069D01*
X308307810Y-172830688D01*
X308212572Y-172878307D01*
X308164953Y-172925926D01*
X308117333Y-173021164D01*
X323248280Y-154656958D02*
X322248280Y-154656958D01*
X322248280Y-154895053D01*
X322295900Y-155037910D01*
X322391138Y-155133148D01*
X322486376Y-155180767D01*
X322676852Y-155228386D01*
X322819709Y-155228386D01*
X323010185Y-155180767D01*
X323105423Y-155133148D01*
X323200661Y-155037910D01*
X323248280Y-154895053D01*
X323248280Y-154656958D01*
X323343519Y-155418863D02*
X323343519Y-156180767D01*
X322248280Y-156895053D02*
X322248280Y-156418863D01*
X322724471Y-156371244D01*
X322676852Y-156418863D01*
X322629233Y-156514101D01*
X322629233Y-156752196D01*
X322676852Y-156847434D01*
X322724471Y-156895053D01*
X322819709Y-156942672D01*
X323057804Y-156942672D01*
X323153042Y-156895053D01*
X323200661Y-156847434D01*
X323248280Y-156752196D01*
X323248280Y-156514101D01*
X323200661Y-156418863D01*
X323153042Y-156371244D01*
X341649167Y-159587460D02*
X340649167Y-159587460D01*
X340649167Y-159825555D01*
X340696787Y-159968412D01*
X340792025Y-160063650D01*
X340887263Y-160111269D01*
X341077739Y-160158888D01*
X341220596Y-160158888D01*
X341411072Y-160111269D01*
X341506310Y-160063650D01*
X341601548Y-159968412D01*
X341649167Y-159825555D01*
X341649167Y-159587460D01*
X341744406Y-160349365D02*
X341744406Y-161111269D01*
X340649167Y-161777936D02*
X340649167Y-161587460D01*
X340696787Y-161492222D01*
X340744406Y-161444603D01*
X340887263Y-161349365D01*
X341077739Y-161301746D01*
X341458691Y-161301746D01*
X341553929Y-161349365D01*
X341601548Y-161396984D01*
X341649167Y-161492222D01*
X341649167Y-161682698D01*
X341601548Y-161777936D01*
X341553929Y-161825555D01*
X341458691Y-161873174D01*
X341220596Y-161873174D01*
X341125358Y-161825555D01*
X341077739Y-161777936D01*
X341030120Y-161682698D01*
X341030120Y-161492222D01*
X341077739Y-161396984D01*
X341125358Y-161349365D01*
X341220596Y-161301746D01*
X360050054Y-164517963D02*
X359050054Y-164517963D01*
X359050054Y-164756058D01*
X359097674Y-164898915D01*
X359192912Y-164994153D01*
X359288150Y-165041772D01*
X359478626Y-165089391D01*
X359621483Y-165089391D01*
X359811959Y-165041772D01*
X359907197Y-164994153D01*
X360002435Y-164898915D01*
X360050054Y-164756058D01*
X360050054Y-164517963D01*
X360145293Y-165279868D02*
X360145293Y-166041772D01*
X359050054Y-166184630D02*
X359050054Y-166851296D01*
X360050054Y-166422725D01*
X383481566Y-169337069D02*
X382481566Y-169337069D01*
X382481566Y-169575164D01*
X382529186Y-169718021D01*
X382624424Y-169813259D01*
X382719662Y-169860878D01*
X382910138Y-169908497D01*
X383052995Y-169908497D01*
X383243471Y-169860878D01*
X383338709Y-169813259D01*
X383433947Y-169718021D01*
X383481566Y-169575164D01*
X383481566Y-169337069D01*
X383576805Y-170098974D02*
X383576805Y-170860878D01*
X383481566Y-171622783D02*
X383481566Y-171051355D01*
X383481566Y-171337069D02*
X382481566Y-171337069D01*
X382624424Y-171241831D01*
X382719662Y-171146593D01*
X382767281Y-171051355D01*
X244383948Y-172493155D02*
X243383948Y-172493155D01*
X243383948Y-172731251D01*
X243431568Y-172874108D01*
X243526806Y-172969346D01*
X243622044Y-173016965D01*
X243812520Y-173064584D01*
X243955377Y-173064584D01*
X244145853Y-173016965D01*
X244241091Y-172969346D01*
X244336329Y-172874108D01*
X244383948Y-172731251D01*
X244383948Y-172493155D01*
X244479187Y-173255060D02*
X244479187Y-174016965D01*
X244383948Y-174778870D02*
X244383948Y-174207441D01*
X244383948Y-174493155D02*
X243383948Y-174493155D01*
X243526806Y-174397917D01*
X243622044Y-174302679D01*
X243669663Y-174207441D01*
X243717282Y-175636013D02*
X244383948Y-175636013D01*
X243336329Y-175397917D02*
X244050615Y-175159822D01*
X244050615Y-175778870D01*
X262784835Y-177423658D02*
X261784835Y-177423658D01*
X261784835Y-177661754D01*
X261832455Y-177804611D01*
X261927693Y-177899849D01*
X262022931Y-177947468D01*
X262213407Y-177995087D01*
X262356264Y-177995087D01*
X262546740Y-177947468D01*
X262641978Y-177899849D01*
X262737216Y-177804611D01*
X262784835Y-177661754D01*
X262784835Y-177423658D01*
X262880074Y-178185563D02*
X262880074Y-178947468D01*
X262784835Y-179709373D02*
X262784835Y-179137944D01*
X262784835Y-179423658D02*
X261784835Y-179423658D01*
X261927693Y-179328420D01*
X262022931Y-179233182D01*
X262070550Y-179137944D01*
X261784835Y-180614135D02*
X261784835Y-180137944D01*
X262261026Y-180090325D01*
X262213407Y-180137944D01*
X262165788Y-180233182D01*
X262165788Y-180471277D01*
X262213407Y-180566516D01*
X262261026Y-180614135D01*
X262356264Y-180661754D01*
X262594359Y-180661754D01*
X262689597Y-180614135D01*
X262737216Y-180566516D01*
X262784835Y-180471277D01*
X262784835Y-180233182D01*
X262737216Y-180137944D01*
X262689597Y-180090325D01*
X290548443Y-183586786D02*
X289548443Y-183586786D01*
X289548443Y-183824882D01*
X289596063Y-183967739D01*
X289691301Y-184062977D01*
X289786539Y-184110596D01*
X289977015Y-184158215D01*
X290119872Y-184158215D01*
X290310348Y-184110596D01*
X290405586Y-184062977D01*
X290500824Y-183967739D01*
X290548443Y-183824882D01*
X290548443Y-183586786D01*
X290643682Y-184348691D02*
X290643682Y-185110596D01*
X290548443Y-185872501D02*
X290548443Y-185301072D01*
X290548443Y-185586786D02*
X289548443Y-185586786D01*
X289691301Y-185491548D01*
X289786539Y-185396310D01*
X289834158Y-185301072D01*
X289548443Y-186729644D02*
X289548443Y-186539167D01*
X289596063Y-186443929D01*
X289643682Y-186396310D01*
X289786539Y-186301072D01*
X289977015Y-186253453D01*
X290357967Y-186253453D01*
X290453205Y-186301072D01*
X290500824Y-186348691D01*
X290548443Y-186443929D01*
X290548443Y-186634405D01*
X290500824Y-186729644D01*
X290453205Y-186777263D01*
X290357967Y-186824882D01*
X290119872Y-186824882D01*
X290024634Y-186777263D01*
X289977015Y-186729644D01*
X289929396Y-186634405D01*
X289929396Y-186443929D01*
X289977015Y-186348691D01*
X290024634Y-186301072D01*
X290119872Y-186253453D01*
X327518220Y-175046905D02*
X326518220Y-175046905D01*
X326518220Y-175285001D01*
X326565840Y-175427858D01*
X326661078Y-175523096D01*
X326756316Y-175570715D01*
X326946792Y-175618334D01*
X327089649Y-175618334D01*
X327280125Y-175570715D01*
X327375363Y-175523096D01*
X327470601Y-175427858D01*
X327518220Y-175285001D01*
X327518220Y-175046905D01*
X327613459Y-175808810D02*
X327613459Y-176570715D01*
X327518220Y-177332620D02*
X327518220Y-176761191D01*
X327518220Y-177046905D02*
X326518220Y-177046905D01*
X326661078Y-176951667D01*
X326756316Y-176856429D01*
X326803935Y-176761191D01*
X327518220Y-178285001D02*
X327518220Y-177713572D01*
X327518220Y-177999286D02*
X326518220Y-177999286D01*
X326661078Y-177904048D01*
X326756316Y-177808810D01*
X326803935Y-177713572D01*
X345919107Y-179977408D02*
X344919107Y-179977408D01*
X344919107Y-180215504D01*
X344966727Y-180358361D01*
X345061965Y-180453599D01*
X345157203Y-180501218D01*
X345347679Y-180548837D01*
X345490536Y-180548837D01*
X345681012Y-180501218D01*
X345776250Y-180453599D01*
X345871488Y-180358361D01*
X345919107Y-180215504D01*
X345919107Y-179977408D01*
X346014346Y-180739313D02*
X346014346Y-181501218D01*
X345919107Y-182263123D02*
X345919107Y-181691694D01*
X345919107Y-181977408D02*
X344919107Y-181977408D01*
X345061965Y-181882170D01*
X345157203Y-181786932D01*
X345204822Y-181691694D01*
X345014346Y-182644075D02*
X344966727Y-182691694D01*
X344919107Y-182786932D01*
X344919107Y-183025027D01*
X344966727Y-183120266D01*
X345014346Y-183167885D01*
X345109584Y-183215504D01*
X345204822Y-183215504D01*
X345347679Y-183167885D01*
X345919107Y-182596456D01*
X345919107Y-183215504D01*
X364319994Y-184907911D02*
X363319994Y-184907911D01*
X363319994Y-185146007D01*
X363367614Y-185288864D01*
X363462852Y-185384102D01*
X363558090Y-185431721D01*
X363748566Y-185479340D01*
X363891423Y-185479340D01*
X364081899Y-185431721D01*
X364177137Y-185384102D01*
X364272375Y-185288864D01*
X364319994Y-185146007D01*
X364319994Y-184907911D01*
X364415233Y-185669816D02*
X364415233Y-186431721D01*
X364319994Y-187193626D02*
X364319994Y-186622197D01*
X364319994Y-186907911D02*
X363319994Y-186907911D01*
X363462852Y-186812673D01*
X363558090Y-186717435D01*
X363605709Y-186622197D01*
X363319994Y-187526959D02*
X363319994Y-188146007D01*
X363700947Y-187812673D01*
X363700947Y-187955530D01*
X363748566Y-188050769D01*
X363796185Y-188098388D01*
X363891423Y-188146007D01*
X364129518Y-188146007D01*
X364224756Y-188098388D01*
X364272375Y-188050769D01*
X364319994Y-187955530D01*
X364319994Y-187669816D01*
X364272375Y-187574578D01*
X364224756Y-187526959D01*
X383481566Y-188387069D02*
X382481566Y-188387069D01*
X382481566Y-188625164D01*
X382529186Y-188768021D01*
X382624424Y-188863259D01*
X382719662Y-188910878D01*
X382910138Y-188958497D01*
X383052995Y-188958497D01*
X383243471Y-188910878D01*
X383338709Y-188863259D01*
X383433947Y-188768021D01*
X383481566Y-188625164D01*
X383481566Y-188387069D01*
X383576805Y-189148974D02*
X383576805Y-189910878D01*
X382576805Y-190101355D02*
X382529186Y-190148974D01*
X382481566Y-190244212D01*
X382481566Y-190482307D01*
X382529186Y-190577545D01*
X382576805Y-190625164D01*
X382672043Y-190672783D01*
X382767281Y-190672783D01*
X382910138Y-190625164D01*
X383481566Y-190053736D01*
X383481566Y-190672783D01*
X258016610Y-194591919D02*
X257016610Y-194591919D01*
X257016610Y-194830015D01*
X257064230Y-194972872D01*
X257159468Y-195068110D01*
X257254706Y-195115729D01*
X257445182Y-195163348D01*
X257588039Y-195163348D01*
X257778515Y-195115729D01*
X257873753Y-195068110D01*
X257968991Y-194972872D01*
X258016610Y-194830015D01*
X258016610Y-194591919D01*
X258111849Y-195353824D02*
X258111849Y-196115729D01*
X257111849Y-196306205D02*
X257064230Y-196353824D01*
X257016610Y-196449062D01*
X257016610Y-196687158D01*
X257064230Y-196782396D01*
X257111849Y-196830015D01*
X257207087Y-196877634D01*
X257302325Y-196877634D01*
X257445182Y-196830015D01*
X258016610Y-196258586D01*
X258016610Y-196877634D01*
X258016610Y-197830015D02*
X258016610Y-197258586D01*
X258016610Y-197544300D02*
X257016610Y-197544300D01*
X257159468Y-197449062D01*
X257254706Y-197353824D01*
X257302325Y-197258586D01*
X285617941Y-201987673D02*
X284617941Y-201987673D01*
X284617941Y-202225769D01*
X284665561Y-202368626D01*
X284760799Y-202463864D01*
X284856037Y-202511483D01*
X285046513Y-202559102D01*
X285189370Y-202559102D01*
X285379846Y-202511483D01*
X285475084Y-202463864D01*
X285570322Y-202368626D01*
X285617941Y-202225769D01*
X285617941Y-201987673D01*
X285713180Y-202749578D02*
X285713180Y-203511483D01*
X284713180Y-203701959D02*
X284665561Y-203749578D01*
X284617941Y-203844816D01*
X284617941Y-204082912D01*
X284665561Y-204178150D01*
X284713180Y-204225769D01*
X284808418Y-204273388D01*
X284903656Y-204273388D01*
X285046513Y-204225769D01*
X285617941Y-203654340D01*
X285617941Y-204273388D01*
X284713180Y-204654340D02*
X284665561Y-204701959D01*
X284617941Y-204797197D01*
X284617941Y-205035292D01*
X284665561Y-205130531D01*
X284713180Y-205178150D01*
X284808418Y-205225769D01*
X284903656Y-205225769D01*
X285046513Y-205178150D01*
X285617941Y-204606721D01*
X285617941Y-205225769D01*
X313549552Y-189749915D02*
X312549552Y-189749915D01*
X312549552Y-189988011D01*
X312597172Y-190130868D01*
X312692410Y-190226106D01*
X312787648Y-190273725D01*
X312978124Y-190321344D01*
X313120981Y-190321344D01*
X313311457Y-190273725D01*
X313406695Y-190226106D01*
X313501933Y-190130868D01*
X313549552Y-189988011D01*
X313549552Y-189749915D01*
X313644791Y-190511820D02*
X313644791Y-191273725D01*
X313549552Y-192035630D02*
X313549552Y-191464201D01*
X313549552Y-191749915D02*
X312549552Y-191749915D01*
X312692410Y-191654677D01*
X312787648Y-191559439D01*
X312835267Y-191464201D01*
X312549552Y-192368963D02*
X312549552Y-193035630D01*
X313549552Y-192607058D01*
X308619049Y-208150802D02*
X307619049Y-208150802D01*
X307619049Y-208388898D01*
X307666669Y-208531755D01*
X307761907Y-208626993D01*
X307857145Y-208674612D01*
X308047621Y-208722231D01*
X308190478Y-208722231D01*
X308380954Y-208674612D01*
X308476192Y-208626993D01*
X308571430Y-208531755D01*
X308619049Y-208388898D01*
X308619049Y-208150802D01*
X308714288Y-208912707D02*
X308714288Y-209674612D01*
X307714288Y-209865088D02*
X307666669Y-209912707D01*
X307619049Y-210007945D01*
X307619049Y-210246041D01*
X307666669Y-210341279D01*
X307714288Y-210388898D01*
X307809526Y-210436517D01*
X307904764Y-210436517D01*
X308047621Y-210388898D01*
X308619049Y-209817469D01*
X308619049Y-210436517D01*
X307619049Y-210769850D02*
X307619049Y-211388898D01*
X308000002Y-211055564D01*
X308000002Y-211198421D01*
X308047621Y-211293660D01*
X308095240Y-211341279D01*
X308190478Y-211388898D01*
X308428573Y-211388898D01*
X308523811Y-211341279D01*
X308571430Y-211293660D01*
X308619049Y-211198421D01*
X308619049Y-210912707D01*
X308571430Y-210817469D01*
X308523811Y-210769850D01*
X336550661Y-195913043D02*
X335550661Y-195913043D01*
X335550661Y-196151139D01*
X335598281Y-196293996D01*
X335693519Y-196389234D01*
X335788757Y-196436853D01*
X335979233Y-196484472D01*
X336122090Y-196484472D01*
X336312566Y-196436853D01*
X336407804Y-196389234D01*
X336503042Y-196293996D01*
X336550661Y-196151139D01*
X336550661Y-195913043D01*
X336645900Y-196674948D02*
X336645900Y-197436853D01*
X336550661Y-198198758D02*
X336550661Y-197627329D01*
X336550661Y-197913043D02*
X335550661Y-197913043D01*
X335693519Y-197817805D01*
X335788757Y-197722567D01*
X335836376Y-197627329D01*
X335979233Y-198770186D02*
X335931614Y-198674948D01*
X335883995Y-198627329D01*
X335788757Y-198579710D01*
X335741138Y-198579710D01*
X335645900Y-198627329D01*
X335598281Y-198674948D01*
X335550661Y-198770186D01*
X335550661Y-198960662D01*
X335598281Y-199055901D01*
X335645900Y-199103520D01*
X335741138Y-199151139D01*
X335788757Y-199151139D01*
X335883995Y-199103520D01*
X335931614Y-199055901D01*
X335979233Y-198960662D01*
X335979233Y-198770186D01*
X336026852Y-198674948D01*
X336074471Y-198627329D01*
X336169709Y-198579710D01*
X336360185Y-198579710D01*
X336455423Y-198627329D01*
X336503042Y-198674948D01*
X336550661Y-198770186D01*
X336550661Y-198960662D01*
X336503042Y-199055901D01*
X336455423Y-199103520D01*
X336360185Y-199151139D01*
X336169709Y-199151139D01*
X336074471Y-199103520D01*
X336026852Y-199055901D01*
X335979233Y-198960662D01*
X359389491Y-203308798D02*
X358389491Y-203308798D01*
X358389491Y-203546894D01*
X358437111Y-203689751D01*
X358532349Y-203784989D01*
X358627587Y-203832608D01*
X358818063Y-203880227D01*
X358960920Y-203880227D01*
X359151396Y-203832608D01*
X359246634Y-203784989D01*
X359341872Y-203689751D01*
X359389491Y-203546894D01*
X359389491Y-203308798D01*
X359484730Y-204070703D02*
X359484730Y-204832608D01*
X359389491Y-205594513D02*
X359389491Y-205023084D01*
X359389491Y-205308798D02*
X358389491Y-205308798D01*
X358532349Y-205213560D01*
X358627587Y-205118322D01*
X358675206Y-205023084D01*
X359389491Y-206070703D02*
X359389491Y-206261179D01*
X359341872Y-206356417D01*
X359294253Y-206404037D01*
X359151396Y-206499275D01*
X358960920Y-206546894D01*
X358579968Y-206546894D01*
X358484730Y-206499275D01*
X358437111Y-206451656D01*
X358389491Y-206356417D01*
X358389491Y-206165941D01*
X358437111Y-206070703D01*
X358484730Y-206023084D01*
X358579968Y-205975465D01*
X358818063Y-205975465D01*
X358913301Y-206023084D01*
X358960920Y-206070703D01*
X359008539Y-206165941D01*
X359008539Y-206356417D01*
X358960920Y-206451656D01*
X358913301Y-206499275D01*
X358818063Y-206546894D01*
X377790378Y-208239300D02*
X376790378Y-208239300D01*
X376790378Y-208477396D01*
X376837998Y-208620253D01*
X376933236Y-208715491D01*
X377028474Y-208763110D01*
X377218950Y-208810729D01*
X377361807Y-208810729D01*
X377552283Y-208763110D01*
X377647521Y-208715491D01*
X377742759Y-208620253D01*
X377790378Y-208477396D01*
X377790378Y-208239300D01*
X377885617Y-209001205D02*
X377885617Y-209763110D01*
X376885617Y-209953586D02*
X376837998Y-210001205D01*
X376790378Y-210096443D01*
X376790378Y-210334539D01*
X376837998Y-210429777D01*
X376885617Y-210477396D01*
X376980855Y-210525015D01*
X377076093Y-210525015D01*
X377218950Y-210477396D01*
X377790378Y-209905967D01*
X377790378Y-210525015D01*
X376790378Y-211144062D02*
X376790378Y-211239300D01*
X376837998Y-211334539D01*
X376885617Y-211382158D01*
X376980855Y-211429777D01*
X377171331Y-211477396D01*
X377409426Y-211477396D01*
X377599902Y-211429777D01*
X377695140Y-211382158D01*
X377742759Y-211334539D01*
X377790378Y-211239300D01*
X377790378Y-211144062D01*
X377742759Y-211048824D01*
X377695140Y-211001205D01*
X377599902Y-210953586D01*
X377409426Y-210905967D01*
X377171331Y-210905967D01*
X376980855Y-210953586D01*
X376885617Y-211001205D01*
X376837998Y-211048824D01*
X376790378Y-211144062D01*
X248485886Y-211760180D02*
X247485886Y-211760180D01*
X247485886Y-211998276D01*
X247533506Y-212141133D01*
X247628744Y-212236371D01*
X247723982Y-212283990D01*
X247914458Y-212331609D01*
X248057315Y-212331609D01*
X248247791Y-212283990D01*
X248343029Y-212236371D01*
X248438267Y-212141133D01*
X248485886Y-211998276D01*
X248485886Y-211760180D01*
X248581125Y-212522085D02*
X248581125Y-213283990D01*
X247581125Y-213474466D02*
X247533506Y-213522085D01*
X247485886Y-213617323D01*
X247485886Y-213855419D01*
X247533506Y-213950657D01*
X247581125Y-213998276D01*
X247676363Y-214045895D01*
X247771601Y-214045895D01*
X247914458Y-213998276D01*
X248485886Y-213426847D01*
X248485886Y-214045895D01*
X247485886Y-214379228D02*
X247485886Y-215045895D01*
X248485886Y-214617323D01*
X331620158Y-214313930D02*
X330620158Y-214313930D01*
X330620158Y-214552026D01*
X330667778Y-214694883D01*
X330763016Y-214790121D01*
X330858254Y-214837740D01*
X331048730Y-214885359D01*
X331191587Y-214885359D01*
X331382063Y-214837740D01*
X331477301Y-214790121D01*
X331572539Y-214694883D01*
X331620158Y-214552026D01*
X331620158Y-214313930D01*
X331715397Y-215075835D02*
X331715397Y-215837740D01*
X330715397Y-216028216D02*
X330667778Y-216075835D01*
X330620158Y-216171073D01*
X330620158Y-216409169D01*
X330667778Y-216504407D01*
X330715397Y-216552026D01*
X330810635Y-216599645D01*
X330905873Y-216599645D01*
X331048730Y-216552026D01*
X331620158Y-215980597D01*
X331620158Y-216599645D01*
X330953492Y-217456788D02*
X331620158Y-217456788D01*
X330572539Y-217218692D02*
X331286825Y-216980597D01*
X331286825Y-217599645D01*
X354458989Y-221709685D02*
X353458989Y-221709685D01*
X353458989Y-221947781D01*
X353506609Y-222090638D01*
X353601847Y-222185876D01*
X353697085Y-222233495D01*
X353887561Y-222281114D01*
X354030418Y-222281114D01*
X354220894Y-222233495D01*
X354316132Y-222185876D01*
X354411370Y-222090638D01*
X354458989Y-221947781D01*
X354458989Y-221709685D01*
X354554228Y-222471590D02*
X354554228Y-223233495D01*
X353554228Y-223423971D02*
X353506609Y-223471590D01*
X353458989Y-223566828D01*
X353458989Y-223804924D01*
X353506609Y-223900162D01*
X353554228Y-223947781D01*
X353649466Y-223995400D01*
X353744704Y-223995400D01*
X353887561Y-223947781D01*
X354458989Y-223376352D01*
X354458989Y-223995400D01*
X353458989Y-224900162D02*
X353458989Y-224423971D01*
X353935180Y-224376352D01*
X353887561Y-224423971D01*
X353839942Y-224519209D01*
X353839942Y-224757304D01*
X353887561Y-224852543D01*
X353935180Y-224900162D01*
X354030418Y-224947781D01*
X354268513Y-224947781D01*
X354363751Y-224900162D01*
X354411370Y-224852543D01*
X354458989Y-224757304D01*
X354458989Y-224519209D01*
X354411370Y-224423971D01*
X354363751Y-224376352D01*
X372859876Y-226640187D02*
X371859876Y-226640187D01*
X371859876Y-226878283D01*
X371907496Y-227021140D01*
X372002734Y-227116378D01*
X372097972Y-227163997D01*
X372288448Y-227211616D01*
X372431305Y-227211616D01*
X372621781Y-227163997D01*
X372717019Y-227116378D01*
X372812257Y-227021140D01*
X372859876Y-226878283D01*
X372859876Y-226640187D01*
X372955115Y-227402092D02*
X372955115Y-228163997D01*
X371955115Y-228354473D02*
X371907496Y-228402092D01*
X371859876Y-228497330D01*
X371859876Y-228735426D01*
X371907496Y-228830664D01*
X371955115Y-228878283D01*
X372050353Y-228925902D01*
X372145591Y-228925902D01*
X372288448Y-228878283D01*
X372859876Y-228306854D01*
X372859876Y-228925902D01*
X371859876Y-229783045D02*
X371859876Y-229592568D01*
X371907496Y-229497330D01*
X371955115Y-229449711D01*
X372097972Y-229354473D01*
X372288448Y-229306854D01*
X372669400Y-229306854D01*
X372764638Y-229354473D01*
X372812257Y-229402092D01*
X372859876Y-229497330D01*
X372859876Y-229687806D01*
X372812257Y-229783045D01*
X372764638Y-229830664D01*
X372669400Y-229878283D01*
X372431305Y-229878283D01*
X372336067Y-229830664D01*
X372288448Y-229783045D01*
X372240829Y-229687806D01*
X372240829Y-229497330D01*
X372288448Y-229402092D01*
X372336067Y-229354473D01*
X372431305Y-229306854D01*
X243555383Y-230161067D02*
X242555383Y-230161067D01*
X242555383Y-230399163D01*
X242603003Y-230542020D01*
X242698241Y-230637258D01*
X242793479Y-230684877D01*
X242983955Y-230732496D01*
X243126812Y-230732496D01*
X243317288Y-230684877D01*
X243412526Y-230637258D01*
X243507764Y-230542020D01*
X243555383Y-230399163D01*
X243555383Y-230161067D01*
X243650622Y-230922972D02*
X243650622Y-231684877D01*
X242555383Y-231827734D02*
X242555383Y-232446782D01*
X242936336Y-232113448D01*
X242936336Y-232256306D01*
X242983955Y-232351544D01*
X243031574Y-232399163D01*
X243126812Y-232446782D01*
X243364907Y-232446782D01*
X243460145Y-232399163D01*
X243507764Y-232351544D01*
X243555383Y-232256306D01*
X243555383Y-231970591D01*
X243507764Y-231875353D01*
X243460145Y-231827734D01*
X243555383Y-233399163D02*
X243555383Y-232827734D01*
X243555383Y-233113448D02*
X242555383Y-233113448D01*
X242698241Y-233018210D01*
X242793479Y-232922972D01*
X242841098Y-232827734D01*
X340328042Y-237645320D02*
X339328042Y-237645320D01*
X339328042Y-237883416D01*
X339375662Y-238026273D01*
X339470900Y-238121511D01*
X339566138Y-238169130D01*
X339756614Y-238216749D01*
X339899471Y-238216749D01*
X340089947Y-238169130D01*
X340185185Y-238121511D01*
X340280423Y-238026273D01*
X340328042Y-237883416D01*
X340328042Y-237645320D01*
X340423281Y-238407225D02*
X340423281Y-239169130D01*
X339423281Y-239359606D02*
X339375662Y-239407225D01*
X339328042Y-239502463D01*
X339328042Y-239740559D01*
X339375662Y-239835797D01*
X339423281Y-239883416D01*
X339518519Y-239931035D01*
X339613757Y-239931035D01*
X339756614Y-239883416D01*
X340328042Y-239311987D01*
X340328042Y-239931035D01*
X339756614Y-240502463D02*
X339708995Y-240407225D01*
X339661376Y-240359606D01*
X339566138Y-240311987D01*
X339518519Y-240311987D01*
X339423281Y-240359606D01*
X339375662Y-240407225D01*
X339328042Y-240502463D01*
X339328042Y-240692939D01*
X339375662Y-240788178D01*
X339423281Y-240835797D01*
X339518519Y-240883416D01*
X339566138Y-240883416D01*
X339661376Y-240835797D01*
X339708995Y-240788178D01*
X339756614Y-240692939D01*
X339756614Y-240502463D01*
X339804233Y-240407225D01*
X339851852Y-240359606D01*
X339947090Y-240311987D01*
X340137566Y-240311987D01*
X340232804Y-240359606D01*
X340280423Y-240407225D01*
X340328042Y-240502463D01*
X340328042Y-240692939D01*
X340280423Y-240788178D01*
X340232804Y-240835797D01*
X340137566Y-240883416D01*
X339947090Y-240883416D01*
X339851852Y-240835797D01*
X339804233Y-240788178D01*
X339756614Y-240692939D01*
X333094566Y-264014025D02*
X332094566Y-264014025D01*
X332094566Y-264252121D01*
X332142186Y-264394978D01*
X332237424Y-264490216D01*
X332332662Y-264537835D01*
X332523138Y-264585454D01*
X332665995Y-264585454D01*
X332856471Y-264537835D01*
X332951709Y-264490216D01*
X333046947Y-264394978D01*
X333094566Y-264252121D01*
X333094566Y-264014025D01*
X333189805Y-264775930D02*
X333189805Y-265537835D01*
X332094566Y-265680692D02*
X332094566Y-266299740D01*
X332475519Y-265966406D01*
X332475519Y-266109264D01*
X332523138Y-266204502D01*
X332570757Y-266252121D01*
X332665995Y-266299740D01*
X332904090Y-266299740D01*
X332999328Y-266252121D01*
X333046947Y-266204502D01*
X333094566Y-266109264D01*
X333094566Y-265823549D01*
X333046947Y-265728311D01*
X332999328Y-265680692D01*
X332189805Y-266680692D02*
X332142186Y-266728311D01*
X332094566Y-266823549D01*
X332094566Y-267061644D01*
X332142186Y-267156883D01*
X332189805Y-267204502D01*
X332285043Y-267252121D01*
X332380281Y-267252121D01*
X332523138Y-267204502D01*
X333094566Y-266633073D01*
X333094566Y-267252121D01*
X356263678Y-251776267D02*
X355263678Y-251776267D01*
X355263678Y-252014363D01*
X355311298Y-252157220D01*
X355406536Y-252252458D01*
X355501774Y-252300077D01*
X355692250Y-252347696D01*
X355835107Y-252347696D01*
X356025583Y-252300077D01*
X356120821Y-252252458D01*
X356216059Y-252157220D01*
X356263678Y-252014363D01*
X356263678Y-251776267D01*
X356358917Y-252538172D02*
X356358917Y-253300077D01*
X355358917Y-253490553D02*
X355311298Y-253538172D01*
X355263678Y-253633410D01*
X355263678Y-253871506D01*
X355311298Y-253966744D01*
X355358917Y-254014363D01*
X355454155Y-254061982D01*
X355549393Y-254061982D01*
X355692250Y-254014363D01*
X356263678Y-253442934D01*
X356263678Y-254061982D01*
X356263678Y-254538172D02*
X356263678Y-254728648D01*
X356216059Y-254823886D01*
X356168440Y-254871506D01*
X356025583Y-254966744D01*
X355835107Y-255014363D01*
X355454155Y-255014363D01*
X355358917Y-254966744D01*
X355311298Y-254919125D01*
X355263678Y-254823886D01*
X355263678Y-254633410D01*
X355311298Y-254538172D01*
X355358917Y-254490553D01*
X355454155Y-254442934D01*
X355692250Y-254442934D01*
X355787488Y-254490553D01*
X355835107Y-254538172D01*
X355882726Y-254633410D01*
X355882726Y-254823886D01*
X355835107Y-254919125D01*
X355787488Y-254966744D01*
X355692250Y-255014363D01*
X379264787Y-257939395D02*
X378264787Y-257939395D01*
X378264787Y-258177491D01*
X378312407Y-258320348D01*
X378407645Y-258415586D01*
X378502883Y-258463205D01*
X378693359Y-258510824D01*
X378836216Y-258510824D01*
X379026692Y-258463205D01*
X379121930Y-258415586D01*
X379217168Y-258320348D01*
X379264787Y-258177491D01*
X379264787Y-257939395D01*
X379360026Y-258701300D02*
X379360026Y-259463205D01*
X378264787Y-259606062D02*
X378264787Y-260225110D01*
X378645740Y-259891776D01*
X378645740Y-260034634D01*
X378693359Y-260129872D01*
X378740978Y-260177491D01*
X378836216Y-260225110D01*
X379074311Y-260225110D01*
X379169549Y-260177491D01*
X379217168Y-260129872D01*
X379264787Y-260034634D01*
X379264787Y-259748919D01*
X379217168Y-259653681D01*
X379169549Y-259606062D01*
X378264787Y-260844157D02*
X378264787Y-260939395D01*
X378312407Y-261034634D01*
X378360026Y-261082253D01*
X378455264Y-261129872D01*
X378645740Y-261177491D01*
X378883835Y-261177491D01*
X379074311Y-261129872D01*
X379169549Y-261082253D01*
X379217168Y-261034634D01*
X379264787Y-260939395D01*
X379264787Y-260844157D01*
X379217168Y-260748919D01*
X379169549Y-260701300D01*
X379074311Y-260653681D01*
X378883835Y-260606062D01*
X378645740Y-260606062D01*
X378455264Y-260653681D01*
X378360026Y-260701300D01*
X378312407Y-260748919D01*
X378264787Y-260844157D01*
X370383175Y-270177153D02*
X369383175Y-270177153D01*
X369383175Y-270415249D01*
X369430795Y-270558106D01*
X369526033Y-270653344D01*
X369621271Y-270700963D01*
X369811747Y-270748582D01*
X369954604Y-270748582D01*
X370145080Y-270700963D01*
X370240318Y-270653344D01*
X370335556Y-270558106D01*
X370383175Y-270415249D01*
X370383175Y-270177153D01*
X370478414Y-270939058D02*
X370478414Y-271700963D01*
X369383175Y-271843820D02*
X369383175Y-272462868D01*
X369764128Y-272129534D01*
X369764128Y-272272392D01*
X369811747Y-272367630D01*
X369859366Y-272415249D01*
X369954604Y-272462868D01*
X370192699Y-272462868D01*
X370287937Y-272415249D01*
X370335556Y-272367630D01*
X370383175Y-272272392D01*
X370383175Y-271986677D01*
X370335556Y-271891439D01*
X370287937Y-271843820D01*
X369383175Y-272796201D02*
X369383175Y-273415249D01*
X369764128Y-273081915D01*
X369764128Y-273224772D01*
X369811747Y-273320011D01*
X369859366Y-273367630D01*
X369954604Y-273415249D01*
X370192699Y-273415249D01*
X370287937Y-273367630D01*
X370335556Y-273320011D01*
X370383175Y-273224772D01*
X370383175Y-272939058D01*
X370335556Y-272843820D01*
X370287937Y-272796201D01*
M02*
