G04 #@! TF.GenerationSoftware,KiCad,Pcbnew,(5.1.6)-1*
G04 #@! TF.CreationDate,2020-08-31T15:39:06-04:00*
G04 #@! TF.ProjectId,keyboard,6b657962-6f61-4726-942e-6b696361645f,rev?*
G04 #@! TF.SameCoordinates,Original*
G04 #@! TF.FileFunction,Copper,L1,Top*
G04 #@! TF.FilePolarity,Positive*
%FSLAX46Y46*%
G04 Gerber Fmt 4.6, Leading zero omitted, Abs format (unit mm)*
G04 Created by KiCad (PCBNEW (5.1.6)-1) date 2020-08-31 15:39:06*
%MOMM*%
%LPD*%
G01*
G04 APERTURE LIST*
G04 #@! TA.AperFunction,ComponentPad*
%ADD10C,2.250000*%
G04 #@! TD*
G04 APERTURE END LIST*
D10*
X272969126Y-141415000D03*
G04 #@! TA.AperFunction,ComponentPad*
G36*
G01*
X270907809Y-143712345D02*
X270907809Y-143712345D01*
G75*
G02*
X270821781Y-142123683I751317J837345D01*
G01*
X272131783Y-140663683D01*
G75*
G02*
X273720445Y-140577655I837345J-751317D01*
G01*
X273720445Y-140577655D01*
G75*
G02*
X273806473Y-142166317I-751317J-837345D01*
G01*
X272496471Y-143626317D01*
G75*
G02*
X270907809Y-143712345I-837345J751317D01*
G01*
G37*
G04 #@! TD.AperFunction*
G04 #@! TA.AperFunction,ComponentPad*
G36*
G01*
X277891723Y-142037334D02*
X277891723Y-142037334D01*
G75*
G02*
X276846792Y-140837597I77403J1122334D01*
G01*
X276886792Y-140257597D01*
G75*
G02*
X278086529Y-139212666I1122334J-77403D01*
G01*
X278086529Y-139212666D01*
G75*
G02*
X279131460Y-140412403I-77403J-1122334D01*
G01*
X279091460Y-140992403D01*
G75*
G02*
X277891723Y-142037334I-1122334J77403D01*
G01*
G37*
G04 #@! TD.AperFunction*
X278009126Y-140335000D03*
X291370013Y-146345503D03*
G04 #@! TA.AperFunction,ComponentPad*
G36*
G01*
X289308696Y-148642848D02*
X289308696Y-148642848D01*
G75*
G02*
X289222668Y-147054186I751317J837345D01*
G01*
X290532670Y-145594186D01*
G75*
G02*
X292121332Y-145508158I837345J-751317D01*
G01*
X292121332Y-145508158D01*
G75*
G02*
X292207360Y-147096820I-751317J-837345D01*
G01*
X290897358Y-148556820D01*
G75*
G02*
X289308696Y-148642848I-837345J751317D01*
G01*
G37*
G04 #@! TD.AperFunction*
G04 #@! TA.AperFunction,ComponentPad*
G36*
G01*
X296292610Y-146967837D02*
X296292610Y-146967837D01*
G75*
G02*
X295247679Y-145768100I77403J1122334D01*
G01*
X295287679Y-145188100D01*
G75*
G02*
X296487416Y-144143169I1122334J-77403D01*
G01*
X296487416Y-144143169D01*
G75*
G02*
X297532347Y-145342906I-77403J-1122334D01*
G01*
X297492347Y-145922906D01*
G75*
G02*
X296292610Y-146967837I-1122334J77403D01*
G01*
G37*
G04 #@! TD.AperFunction*
X296410013Y-145265503D03*
X365241686Y-146906117D03*
G04 #@! TA.AperFunction,ComponentPad*
G36*
G01*
X363180369Y-149203462D02*
X363180369Y-149203462D01*
G75*
G02*
X363094341Y-147614800I751317J837345D01*
G01*
X364404343Y-146154800D01*
G75*
G02*
X365993005Y-146068772I837345J-751317D01*
G01*
X365993005Y-146068772D01*
G75*
G02*
X366079033Y-147657434I-751317J-837345D01*
G01*
X364769031Y-149117434D01*
G75*
G02*
X363180369Y-149203462I-837345J751317D01*
G01*
G37*
G04 #@! TD.AperFunction*
G04 #@! TA.AperFunction,ComponentPad*
G36*
G01*
X370164283Y-147528451D02*
X370164283Y-147528451D01*
G75*
G02*
X369119352Y-146328714I77403J1122334D01*
G01*
X369159352Y-145748714D01*
G75*
G02*
X370359089Y-144703783I1122334J-77403D01*
G01*
X370359089Y-144703783D01*
G75*
G02*
X371404020Y-145903520I-77403J-1122334D01*
G01*
X371364020Y-146483520D01*
G75*
G02*
X370164283Y-147528451I-1122334J77403D01*
G01*
G37*
G04 #@! TD.AperFunction*
X370281686Y-145826117D03*
X258838179Y-157350636D03*
G04 #@! TA.AperFunction,ComponentPad*
G36*
G01*
X256776862Y-159647981D02*
X256776862Y-159647981D01*
G75*
G02*
X256690834Y-158059319I751317J837345D01*
G01*
X258000836Y-156599319D01*
G75*
G02*
X259589498Y-156513291I837345J-751317D01*
G01*
X259589498Y-156513291D01*
G75*
G02*
X259675526Y-158101953I-751317J-837345D01*
G01*
X258365524Y-159561953D01*
G75*
G02*
X256776862Y-159647981I-837345J751317D01*
G01*
G37*
G04 #@! TD.AperFunction*
G04 #@! TA.AperFunction,ComponentPad*
G36*
G01*
X263760776Y-157972970D02*
X263760776Y-157972970D01*
G75*
G02*
X262715845Y-156773233I77403J1122334D01*
G01*
X262755845Y-156193233D01*
G75*
G02*
X263955582Y-155148302I1122334J-77403D01*
G01*
X263955582Y-155148302D01*
G75*
G02*
X265000513Y-156348039I-77403J-1122334D01*
G01*
X264960513Y-156928039D01*
G75*
G02*
X263760776Y-157972970I-1122334J77403D01*
G01*
G37*
G04 #@! TD.AperFunction*
X263878179Y-156270636D03*
X277239066Y-162281138D03*
G04 #@! TA.AperFunction,ComponentPad*
G36*
G01*
X275177749Y-164578483D02*
X275177749Y-164578483D01*
G75*
G02*
X275091721Y-162989821I751317J837345D01*
G01*
X276401723Y-161529821D01*
G75*
G02*
X277990385Y-161443793I837345J-751317D01*
G01*
X277990385Y-161443793D01*
G75*
G02*
X278076413Y-163032455I-751317J-837345D01*
G01*
X276766411Y-164492455D01*
G75*
G02*
X275177749Y-164578483I-837345J751317D01*
G01*
G37*
G04 #@! TD.AperFunction*
G04 #@! TA.AperFunction,ComponentPad*
G36*
G01*
X282161663Y-162903472D02*
X282161663Y-162903472D01*
G75*
G02*
X281116732Y-161703735I77403J1122334D01*
G01*
X281156732Y-161123735D01*
G75*
G02*
X282356469Y-160078804I1122334J-77403D01*
G01*
X282356469Y-160078804D01*
G75*
G02*
X283401400Y-161278541I-77403J-1122334D01*
G01*
X283361400Y-161858541D01*
G75*
G02*
X282161663Y-162903472I-1122334J77403D01*
G01*
G37*
G04 #@! TD.AperFunction*
X282279066Y-161201138D03*
X295639953Y-167211641D03*
G04 #@! TA.AperFunction,ComponentPad*
G36*
G01*
X293578636Y-169508986D02*
X293578636Y-169508986D01*
G75*
G02*
X293492608Y-167920324I751317J837345D01*
G01*
X294802610Y-166460324D01*
G75*
G02*
X296391272Y-166374296I837345J-751317D01*
G01*
X296391272Y-166374296D01*
G75*
G02*
X296477300Y-167962958I-751317J-837345D01*
G01*
X295167298Y-169422958D01*
G75*
G02*
X293578636Y-169508986I-837345J751317D01*
G01*
G37*
G04 #@! TD.AperFunction*
G04 #@! TA.AperFunction,ComponentPad*
G36*
G01*
X300562550Y-167833975D02*
X300562550Y-167833975D01*
G75*
G02*
X299517619Y-166634238I77403J1122334D01*
G01*
X299557619Y-166054238D01*
G75*
G02*
X300757356Y-165009307I1122334J-77403D01*
G01*
X300757356Y-165009307D01*
G75*
G02*
X301802287Y-166209044I-77403J-1122334D01*
G01*
X301762287Y-166789044D01*
G75*
G02*
X300562550Y-167833975I-1122334J77403D01*
G01*
G37*
G04 #@! TD.AperFunction*
X300679953Y-166131641D03*
X309770900Y-151276006D03*
G04 #@! TA.AperFunction,ComponentPad*
G36*
G01*
X307709583Y-153573351D02*
X307709583Y-153573351D01*
G75*
G02*
X307623555Y-151984689I751317J837345D01*
G01*
X308933557Y-150524689D01*
G75*
G02*
X310522219Y-150438661I837345J-751317D01*
G01*
X310522219Y-150438661D01*
G75*
G02*
X310608247Y-152027323I-751317J-837345D01*
G01*
X309298245Y-153487323D01*
G75*
G02*
X307709583Y-153573351I-837345J751317D01*
G01*
G37*
G04 #@! TD.AperFunction*
G04 #@! TA.AperFunction,ComponentPad*
G36*
G01*
X314693497Y-151898340D02*
X314693497Y-151898340D01*
G75*
G02*
X313648566Y-150698603I77403J1122334D01*
G01*
X313688566Y-150118603D01*
G75*
G02*
X314888303Y-149073672I1122334J-77403D01*
G01*
X314888303Y-149073672D01*
G75*
G02*
X315933234Y-150273409I-77403J-1122334D01*
G01*
X315893234Y-150853409D01*
G75*
G02*
X314693497Y-151898340I-1122334J77403D01*
G01*
G37*
G04 #@! TD.AperFunction*
X314810900Y-150196006D03*
X328171787Y-156206508D03*
G04 #@! TA.AperFunction,ComponentPad*
G36*
G01*
X326110470Y-158503853D02*
X326110470Y-158503853D01*
G75*
G02*
X326024442Y-156915191I751317J837345D01*
G01*
X327334444Y-155455191D01*
G75*
G02*
X328923106Y-155369163I837345J-751317D01*
G01*
X328923106Y-155369163D01*
G75*
G02*
X329009134Y-156957825I-751317J-837345D01*
G01*
X327699132Y-158417825D01*
G75*
G02*
X326110470Y-158503853I-837345J751317D01*
G01*
G37*
G04 #@! TD.AperFunction*
G04 #@! TA.AperFunction,ComponentPad*
G36*
G01*
X333094384Y-156828842D02*
X333094384Y-156828842D01*
G75*
G02*
X332049453Y-155629105I77403J1122334D01*
G01*
X332089453Y-155049105D01*
G75*
G02*
X333289190Y-154004174I1122334J-77403D01*
G01*
X333289190Y-154004174D01*
G75*
G02*
X334334121Y-155203911I-77403J-1122334D01*
G01*
X334294121Y-155783911D01*
G75*
G02*
X333094384Y-156828842I-1122334J77403D01*
G01*
G37*
G04 #@! TD.AperFunction*
X333211787Y-155126508D03*
X346572674Y-161137011D03*
G04 #@! TA.AperFunction,ComponentPad*
G36*
G01*
X344511357Y-163434356D02*
X344511357Y-163434356D01*
G75*
G02*
X344425329Y-161845694I751317J837345D01*
G01*
X345735331Y-160385694D01*
G75*
G02*
X347323993Y-160299666I837345J-751317D01*
G01*
X347323993Y-160299666D01*
G75*
G02*
X347410021Y-161888328I-751317J-837345D01*
G01*
X346100019Y-163348328D01*
G75*
G02*
X344511357Y-163434356I-837345J751317D01*
G01*
G37*
G04 #@! TD.AperFunction*
G04 #@! TA.AperFunction,ComponentPad*
G36*
G01*
X351495271Y-161759345D02*
X351495271Y-161759345D01*
G75*
G02*
X350450340Y-160559608I77403J1122334D01*
G01*
X350490340Y-159979608D01*
G75*
G02*
X351690077Y-158934677I1122334J-77403D01*
G01*
X351690077Y-158934677D01*
G75*
G02*
X352735008Y-160134414I-77403J-1122334D01*
G01*
X352695008Y-160714414D01*
G75*
G02*
X351495271Y-161759345I-1122334J77403D01*
G01*
G37*
G04 #@! TD.AperFunction*
X351612674Y-160057011D03*
X370004186Y-165956117D03*
G04 #@! TA.AperFunction,ComponentPad*
G36*
G01*
X367942869Y-168253462D02*
X367942869Y-168253462D01*
G75*
G02*
X367856841Y-166664800I751317J837345D01*
G01*
X369166843Y-165204800D01*
G75*
G02*
X370755505Y-165118772I837345J-751317D01*
G01*
X370755505Y-165118772D01*
G75*
G02*
X370841533Y-166707434I-751317J-837345D01*
G01*
X369531531Y-168167434D01*
G75*
G02*
X367942869Y-168253462I-837345J751317D01*
G01*
G37*
G04 #@! TD.AperFunction*
G04 #@! TA.AperFunction,ComponentPad*
G36*
G01*
X374926783Y-166578451D02*
X374926783Y-166578451D01*
G75*
G02*
X373881852Y-165378714I77403J1122334D01*
G01*
X373921852Y-164798714D01*
G75*
G02*
X375121589Y-163753783I1122334J-77403D01*
G01*
X375121589Y-163753783D01*
G75*
G02*
X376166520Y-164953520I-77403J-1122334D01*
G01*
X376126520Y-165533520D01*
G75*
G02*
X374926783Y-166578451I-1122334J77403D01*
G01*
G37*
G04 #@! TD.AperFunction*
X375044186Y-164876117D03*
X230906568Y-169588394D03*
G04 #@! TA.AperFunction,ComponentPad*
G36*
G01*
X228845251Y-171885739D02*
X228845251Y-171885739D01*
G75*
G02*
X228759223Y-170297077I751317J837345D01*
G01*
X230069225Y-168837077D01*
G75*
G02*
X231657887Y-168751049I837345J-751317D01*
G01*
X231657887Y-168751049D01*
G75*
G02*
X231743915Y-170339711I-751317J-837345D01*
G01*
X230433913Y-171799711D01*
G75*
G02*
X228845251Y-171885739I-837345J751317D01*
G01*
G37*
G04 #@! TD.AperFunction*
G04 #@! TA.AperFunction,ComponentPad*
G36*
G01*
X235829165Y-170210728D02*
X235829165Y-170210728D01*
G75*
G02*
X234784234Y-169010991I77403J1122334D01*
G01*
X234824234Y-168430991D01*
G75*
G02*
X236023971Y-167386060I1122334J-77403D01*
G01*
X236023971Y-167386060D01*
G75*
G02*
X237068902Y-168585797I-77403J-1122334D01*
G01*
X237028902Y-169165797D01*
G75*
G02*
X235829165Y-170210728I-1122334J77403D01*
G01*
G37*
G04 #@! TD.AperFunction*
X235946568Y-168508394D03*
X249307455Y-174518897D03*
G04 #@! TA.AperFunction,ComponentPad*
G36*
G01*
X247246138Y-176816242D02*
X247246138Y-176816242D01*
G75*
G02*
X247160110Y-175227580I751317J837345D01*
G01*
X248470112Y-173767580D01*
G75*
G02*
X250058774Y-173681552I837345J-751317D01*
G01*
X250058774Y-173681552D01*
G75*
G02*
X250144802Y-175270214I-751317J-837345D01*
G01*
X248834800Y-176730214D01*
G75*
G02*
X247246138Y-176816242I-837345J751317D01*
G01*
G37*
G04 #@! TD.AperFunction*
G04 #@! TA.AperFunction,ComponentPad*
G36*
G01*
X254230052Y-175141231D02*
X254230052Y-175141231D01*
G75*
G02*
X253185121Y-173941494I77403J1122334D01*
G01*
X253225121Y-173361494D01*
G75*
G02*
X254424858Y-172316563I1122334J-77403D01*
G01*
X254424858Y-172316563D01*
G75*
G02*
X255469789Y-173516300I-77403J-1122334D01*
G01*
X255429789Y-174096300D01*
G75*
G02*
X254230052Y-175141231I-1122334J77403D01*
G01*
G37*
G04 #@! TD.AperFunction*
X254347455Y-173438897D03*
X274689813Y-180682025D03*
G04 #@! TA.AperFunction,ComponentPad*
G36*
G01*
X272628496Y-182979370D02*
X272628496Y-182979370D01*
G75*
G02*
X272542468Y-181390708I751317J837345D01*
G01*
X273852470Y-179930708D01*
G75*
G02*
X275441132Y-179844680I837345J-751317D01*
G01*
X275441132Y-179844680D01*
G75*
G02*
X275527160Y-181433342I-751317J-837345D01*
G01*
X274217158Y-182893342D01*
G75*
G02*
X272628496Y-182979370I-837345J751317D01*
G01*
G37*
G04 #@! TD.AperFunction*
G04 #@! TA.AperFunction,ComponentPad*
G36*
G01*
X279612410Y-181304359D02*
X279612410Y-181304359D01*
G75*
G02*
X278567479Y-180104622I77403J1122334D01*
G01*
X278607479Y-179524622D01*
G75*
G02*
X279807216Y-178479691I1122334J-77403D01*
G01*
X279807216Y-178479691D01*
G75*
G02*
X280852147Y-179679428I-77403J-1122334D01*
G01*
X280812147Y-180259428D01*
G75*
G02*
X279612410Y-181304359I-1122334J77403D01*
G01*
G37*
G04 #@! TD.AperFunction*
X279729813Y-179602025D03*
X314040840Y-172142144D03*
G04 #@! TA.AperFunction,ComponentPad*
G36*
G01*
X311979523Y-174439489D02*
X311979523Y-174439489D01*
G75*
G02*
X311893495Y-172850827I751317J837345D01*
G01*
X313203497Y-171390827D01*
G75*
G02*
X314792159Y-171304799I837345J-751317D01*
G01*
X314792159Y-171304799D01*
G75*
G02*
X314878187Y-172893461I-751317J-837345D01*
G01*
X313568185Y-174353461D01*
G75*
G02*
X311979523Y-174439489I-837345J751317D01*
G01*
G37*
G04 #@! TD.AperFunction*
G04 #@! TA.AperFunction,ComponentPad*
G36*
G01*
X318963437Y-172764478D02*
X318963437Y-172764478D01*
G75*
G02*
X317918506Y-171564741I77403J1122334D01*
G01*
X317958506Y-170984741D01*
G75*
G02*
X319158243Y-169939810I1122334J-77403D01*
G01*
X319158243Y-169939810D01*
G75*
G02*
X320203174Y-171139547I-77403J-1122334D01*
G01*
X320163174Y-171719547D01*
G75*
G02*
X318963437Y-172764478I-1122334J77403D01*
G01*
G37*
G04 #@! TD.AperFunction*
X319080840Y-171062144D03*
X332441727Y-177072647D03*
G04 #@! TA.AperFunction,ComponentPad*
G36*
G01*
X330380410Y-179369992D02*
X330380410Y-179369992D01*
G75*
G02*
X330294382Y-177781330I751317J837345D01*
G01*
X331604384Y-176321330D01*
G75*
G02*
X333193046Y-176235302I837345J-751317D01*
G01*
X333193046Y-176235302D01*
G75*
G02*
X333279074Y-177823964I-751317J-837345D01*
G01*
X331969072Y-179283964D01*
G75*
G02*
X330380410Y-179369992I-837345J751317D01*
G01*
G37*
G04 #@! TD.AperFunction*
G04 #@! TA.AperFunction,ComponentPad*
G36*
G01*
X337364324Y-177694981D02*
X337364324Y-177694981D01*
G75*
G02*
X336319393Y-176495244I77403J1122334D01*
G01*
X336359393Y-175915244D01*
G75*
G02*
X337559130Y-174870313I1122334J-77403D01*
G01*
X337559130Y-174870313D01*
G75*
G02*
X338604061Y-176070050I-77403J-1122334D01*
G01*
X338564061Y-176650050D01*
G75*
G02*
X337364324Y-177694981I-1122334J77403D01*
G01*
G37*
G04 #@! TD.AperFunction*
X337481727Y-175992647D03*
X350842614Y-182003150D03*
G04 #@! TA.AperFunction,ComponentPad*
G36*
G01*
X348781297Y-184300495D02*
X348781297Y-184300495D01*
G75*
G02*
X348695269Y-182711833I751317J837345D01*
G01*
X350005271Y-181251833D01*
G75*
G02*
X351593933Y-181165805I837345J-751317D01*
G01*
X351593933Y-181165805D01*
G75*
G02*
X351679961Y-182754467I-751317J-837345D01*
G01*
X350369959Y-184214467D01*
G75*
G02*
X348781297Y-184300495I-837345J751317D01*
G01*
G37*
G04 #@! TD.AperFunction*
G04 #@! TA.AperFunction,ComponentPad*
G36*
G01*
X355765211Y-182625484D02*
X355765211Y-182625484D01*
G75*
G02*
X354720280Y-181425747I77403J1122334D01*
G01*
X354760280Y-180845747D01*
G75*
G02*
X355960017Y-179800816I1122334J-77403D01*
G01*
X355960017Y-179800816D01*
G75*
G02*
X357004948Y-181000553I-77403J-1122334D01*
G01*
X356964948Y-181580553D01*
G75*
G02*
X355765211Y-182625484I-1122334J77403D01*
G01*
G37*
G04 #@! TD.AperFunction*
X355882614Y-180923150D03*
X370004186Y-185006117D03*
G04 #@! TA.AperFunction,ComponentPad*
G36*
G01*
X367942869Y-187303462D02*
X367942869Y-187303462D01*
G75*
G02*
X367856841Y-185714800I751317J837345D01*
G01*
X369166843Y-184254800D01*
G75*
G02*
X370755505Y-184168772I837345J-751317D01*
G01*
X370755505Y-184168772D01*
G75*
G02*
X370841533Y-185757434I-751317J-837345D01*
G01*
X369531531Y-187217434D01*
G75*
G02*
X367942869Y-187303462I-837345J751317D01*
G01*
G37*
G04 #@! TD.AperFunction*
G04 #@! TA.AperFunction,ComponentPad*
G36*
G01*
X374926783Y-185628451D02*
X374926783Y-185628451D01*
G75*
G02*
X373881852Y-184428714I77403J1122334D01*
G01*
X373921852Y-183848714D01*
G75*
G02*
X375121589Y-182803783I1122334J-77403D01*
G01*
X375121589Y-182803783D01*
G75*
G02*
X376166520Y-184003520I-77403J-1122334D01*
G01*
X376126520Y-184583520D01*
G75*
G02*
X374926783Y-185628451I-1122334J77403D01*
G01*
G37*
G04 #@! TD.AperFunction*
X375044186Y-183926117D03*
X242157980Y-191687158D03*
G04 #@! TA.AperFunction,ComponentPad*
G36*
G01*
X240096663Y-193984503D02*
X240096663Y-193984503D01*
G75*
G02*
X240010635Y-192395841I751317J837345D01*
G01*
X241320637Y-190935841D01*
G75*
G02*
X242909299Y-190849813I837345J-751317D01*
G01*
X242909299Y-190849813D01*
G75*
G02*
X242995327Y-192438475I-751317J-837345D01*
G01*
X241685325Y-193898475D01*
G75*
G02*
X240096663Y-193984503I-837345J751317D01*
G01*
G37*
G04 #@! TD.AperFunction*
G04 #@! TA.AperFunction,ComponentPad*
G36*
G01*
X247080577Y-192309492D02*
X247080577Y-192309492D01*
G75*
G02*
X246035646Y-191109755I77403J1122334D01*
G01*
X246075646Y-190529755D01*
G75*
G02*
X247275383Y-189484824I1122334J-77403D01*
G01*
X247275383Y-189484824D01*
G75*
G02*
X248320314Y-190684561I-77403J-1122334D01*
G01*
X248280314Y-191264561D01*
G75*
G02*
X247080577Y-192309492I-1122334J77403D01*
G01*
G37*
G04 #@! TD.AperFunction*
X247197980Y-190607158D03*
X269759311Y-199082912D03*
G04 #@! TA.AperFunction,ComponentPad*
G36*
G01*
X267697994Y-201380257D02*
X267697994Y-201380257D01*
G75*
G02*
X267611966Y-199791595I751317J837345D01*
G01*
X268921968Y-198331595D01*
G75*
G02*
X270510630Y-198245567I837345J-751317D01*
G01*
X270510630Y-198245567D01*
G75*
G02*
X270596658Y-199834229I-751317J-837345D01*
G01*
X269286656Y-201294229D01*
G75*
G02*
X267697994Y-201380257I-837345J751317D01*
G01*
G37*
G04 #@! TD.AperFunction*
G04 #@! TA.AperFunction,ComponentPad*
G36*
G01*
X274681908Y-199705246D02*
X274681908Y-199705246D01*
G75*
G02*
X273636977Y-198505509I77403J1122334D01*
G01*
X273676977Y-197925509D01*
G75*
G02*
X274876714Y-196880578I1122334J-77403D01*
G01*
X274876714Y-196880578D01*
G75*
G02*
X275921645Y-198080315I-77403J-1122334D01*
G01*
X275881645Y-198660315D01*
G75*
G02*
X274681908Y-199705246I-1122334J77403D01*
G01*
G37*
G04 #@! TD.AperFunction*
X274799311Y-198002912D03*
X297690922Y-186845154D03*
G04 #@! TA.AperFunction,ComponentPad*
G36*
G01*
X295629605Y-189142499D02*
X295629605Y-189142499D01*
G75*
G02*
X295543577Y-187553837I751317J837345D01*
G01*
X296853579Y-186093837D01*
G75*
G02*
X298442241Y-186007809I837345J-751317D01*
G01*
X298442241Y-186007809D01*
G75*
G02*
X298528269Y-187596471I-751317J-837345D01*
G01*
X297218267Y-189056471D01*
G75*
G02*
X295629605Y-189142499I-837345J751317D01*
G01*
G37*
G04 #@! TD.AperFunction*
G04 #@! TA.AperFunction,ComponentPad*
G36*
G01*
X302613519Y-187467488D02*
X302613519Y-187467488D01*
G75*
G02*
X301568588Y-186267751I77403J1122334D01*
G01*
X301608588Y-185687751D01*
G75*
G02*
X302808325Y-184642820I1122334J-77403D01*
G01*
X302808325Y-184642820D01*
G75*
G02*
X303853256Y-185842557I-77403J-1122334D01*
G01*
X303813256Y-186422557D01*
G75*
G02*
X302613519Y-187467488I-1122334J77403D01*
G01*
G37*
G04 #@! TD.AperFunction*
X302730922Y-185765154D03*
X292760419Y-205246041D03*
G04 #@! TA.AperFunction,ComponentPad*
G36*
G01*
X290699102Y-207543386D02*
X290699102Y-207543386D01*
G75*
G02*
X290613074Y-205954724I751317J837345D01*
G01*
X291923076Y-204494724D01*
G75*
G02*
X293511738Y-204408696I837345J-751317D01*
G01*
X293511738Y-204408696D01*
G75*
G02*
X293597766Y-205997358I-751317J-837345D01*
G01*
X292287764Y-207457358D01*
G75*
G02*
X290699102Y-207543386I-837345J751317D01*
G01*
G37*
G04 #@! TD.AperFunction*
G04 #@! TA.AperFunction,ComponentPad*
G36*
G01*
X297683016Y-205868375D02*
X297683016Y-205868375D01*
G75*
G02*
X296638085Y-204668638I77403J1122334D01*
G01*
X296678085Y-204088638D01*
G75*
G02*
X297877822Y-203043707I1122334J-77403D01*
G01*
X297877822Y-203043707D01*
G75*
G02*
X298922753Y-204243444I-77403J-1122334D01*
G01*
X298882753Y-204823444D01*
G75*
G02*
X297683016Y-205868375I-1122334J77403D01*
G01*
G37*
G04 #@! TD.AperFunction*
X297800419Y-204166041D03*
X320692031Y-193008282D03*
G04 #@! TA.AperFunction,ComponentPad*
G36*
G01*
X318630714Y-195305627D02*
X318630714Y-195305627D01*
G75*
G02*
X318544686Y-193716965I751317J837345D01*
G01*
X319854688Y-192256965D01*
G75*
G02*
X321443350Y-192170937I837345J-751317D01*
G01*
X321443350Y-192170937D01*
G75*
G02*
X321529378Y-193759599I-751317J-837345D01*
G01*
X320219376Y-195219599D01*
G75*
G02*
X318630714Y-195305627I-837345J751317D01*
G01*
G37*
G04 #@! TD.AperFunction*
G04 #@! TA.AperFunction,ComponentPad*
G36*
G01*
X325614628Y-193630616D02*
X325614628Y-193630616D01*
G75*
G02*
X324569697Y-192430879I77403J1122334D01*
G01*
X324609697Y-191850879D01*
G75*
G02*
X325809434Y-190805948I1122334J-77403D01*
G01*
X325809434Y-190805948D01*
G75*
G02*
X326854365Y-192005685I-77403J-1122334D01*
G01*
X326814365Y-192585685D01*
G75*
G02*
X325614628Y-193630616I-1122334J77403D01*
G01*
G37*
G04 #@! TD.AperFunction*
X325732031Y-191928282D03*
X345912111Y-200404037D03*
G04 #@! TA.AperFunction,ComponentPad*
G36*
G01*
X343850794Y-202701382D02*
X343850794Y-202701382D01*
G75*
G02*
X343764766Y-201112720I751317J837345D01*
G01*
X345074768Y-199652720D01*
G75*
G02*
X346663430Y-199566692I837345J-751317D01*
G01*
X346663430Y-199566692D01*
G75*
G02*
X346749458Y-201155354I-751317J-837345D01*
G01*
X345439456Y-202615354D01*
G75*
G02*
X343850794Y-202701382I-837345J751317D01*
G01*
G37*
G04 #@! TD.AperFunction*
G04 #@! TA.AperFunction,ComponentPad*
G36*
G01*
X350834708Y-201026371D02*
X350834708Y-201026371D01*
G75*
G02*
X349789777Y-199826634I77403J1122334D01*
G01*
X349829777Y-199246634D01*
G75*
G02*
X351029514Y-198201703I1122334J-77403D01*
G01*
X351029514Y-198201703D01*
G75*
G02*
X352074445Y-199401440I-77403J-1122334D01*
G01*
X352034445Y-199981440D01*
G75*
G02*
X350834708Y-201026371I-1122334J77403D01*
G01*
G37*
G04 #@! TD.AperFunction*
X350952111Y-199324037D03*
X364312998Y-205334539D03*
G04 #@! TA.AperFunction,ComponentPad*
G36*
G01*
X362251681Y-207631884D02*
X362251681Y-207631884D01*
G75*
G02*
X362165653Y-206043222I751317J837345D01*
G01*
X363475655Y-204583222D01*
G75*
G02*
X365064317Y-204497194I837345J-751317D01*
G01*
X365064317Y-204497194D01*
G75*
G02*
X365150345Y-206085856I-751317J-837345D01*
G01*
X363840343Y-207545856D01*
G75*
G02*
X362251681Y-207631884I-837345J751317D01*
G01*
G37*
G04 #@! TD.AperFunction*
G04 #@! TA.AperFunction,ComponentPad*
G36*
G01*
X369235595Y-205956873D02*
X369235595Y-205956873D01*
G75*
G02*
X368190664Y-204757136I77403J1122334D01*
G01*
X368230664Y-204177136D01*
G75*
G02*
X369430401Y-203132205I1122334J-77403D01*
G01*
X369430401Y-203132205D01*
G75*
G02*
X370475332Y-204331942I-77403J-1122334D01*
G01*
X370435332Y-204911942D01*
G75*
G02*
X369235595Y-205956873I-1122334J77403D01*
G01*
G37*
G04 #@! TD.AperFunction*
X369352998Y-204254539D03*
X232627256Y-208855419D03*
G04 #@! TA.AperFunction,ComponentPad*
G36*
G01*
X230565939Y-211152764D02*
X230565939Y-211152764D01*
G75*
G02*
X230479911Y-209564102I751317J837345D01*
G01*
X231789913Y-208104102D01*
G75*
G02*
X233378575Y-208018074I837345J-751317D01*
G01*
X233378575Y-208018074D01*
G75*
G02*
X233464603Y-209606736I-751317J-837345D01*
G01*
X232154601Y-211066736D01*
G75*
G02*
X230565939Y-211152764I-837345J751317D01*
G01*
G37*
G04 #@! TD.AperFunction*
G04 #@! TA.AperFunction,ComponentPad*
G36*
G01*
X237549853Y-209477753D02*
X237549853Y-209477753D01*
G75*
G02*
X236504922Y-208278016I77403J1122334D01*
G01*
X236544922Y-207698016D01*
G75*
G02*
X237744659Y-206653085I1122334J-77403D01*
G01*
X237744659Y-206653085D01*
G75*
G02*
X238789590Y-207852822I-77403J-1122334D01*
G01*
X238749590Y-208432822D01*
G75*
G02*
X237549853Y-209477753I-1122334J77403D01*
G01*
G37*
G04 #@! TD.AperFunction*
X237667256Y-207775419D03*
X315761528Y-211409169D03*
G04 #@! TA.AperFunction,ComponentPad*
G36*
G01*
X313700211Y-213706514D02*
X313700211Y-213706514D01*
G75*
G02*
X313614183Y-212117852I751317J837345D01*
G01*
X314924185Y-210657852D01*
G75*
G02*
X316512847Y-210571824I837345J-751317D01*
G01*
X316512847Y-210571824D01*
G75*
G02*
X316598875Y-212160486I-751317J-837345D01*
G01*
X315288873Y-213620486D01*
G75*
G02*
X313700211Y-213706514I-837345J751317D01*
G01*
G37*
G04 #@! TD.AperFunction*
G04 #@! TA.AperFunction,ComponentPad*
G36*
G01*
X320684125Y-212031503D02*
X320684125Y-212031503D01*
G75*
G02*
X319639194Y-210831766I77403J1122334D01*
G01*
X319679194Y-210251766D01*
G75*
G02*
X320878931Y-209206835I1122334J-77403D01*
G01*
X320878931Y-209206835D01*
G75*
G02*
X321923862Y-210406572I-77403J-1122334D01*
G01*
X321883862Y-210986572D01*
G75*
G02*
X320684125Y-212031503I-1122334J77403D01*
G01*
G37*
G04 #@! TD.AperFunction*
X320801528Y-210329169D03*
X340981609Y-218804924D03*
G04 #@! TA.AperFunction,ComponentPad*
G36*
G01*
X338920292Y-221102269D02*
X338920292Y-221102269D01*
G75*
G02*
X338834264Y-219513607I751317J837345D01*
G01*
X340144266Y-218053607D01*
G75*
G02*
X341732928Y-217967579I837345J-751317D01*
G01*
X341732928Y-217967579D01*
G75*
G02*
X341818956Y-219556241I-751317J-837345D01*
G01*
X340508954Y-221016241D01*
G75*
G02*
X338920292Y-221102269I-837345J751317D01*
G01*
G37*
G04 #@! TD.AperFunction*
G04 #@! TA.AperFunction,ComponentPad*
G36*
G01*
X345904206Y-219427258D02*
X345904206Y-219427258D01*
G75*
G02*
X344859275Y-218227521I77403J1122334D01*
G01*
X344899275Y-217647521D01*
G75*
G02*
X346099012Y-216602590I1122334J-77403D01*
G01*
X346099012Y-216602590D01*
G75*
G02*
X347143943Y-217802327I-77403J-1122334D01*
G01*
X347103943Y-218382327D01*
G75*
G02*
X345904206Y-219427258I-1122334J77403D01*
G01*
G37*
G04 #@! TD.AperFunction*
X346021609Y-217724924D03*
X359382496Y-223735426D03*
G04 #@! TA.AperFunction,ComponentPad*
G36*
G01*
X357321179Y-226032771D02*
X357321179Y-226032771D01*
G75*
G02*
X357235151Y-224444109I751317J837345D01*
G01*
X358545153Y-222984109D01*
G75*
G02*
X360133815Y-222898081I837345J-751317D01*
G01*
X360133815Y-222898081D01*
G75*
G02*
X360219843Y-224486743I-751317J-837345D01*
G01*
X358909841Y-225946743D01*
G75*
G02*
X357321179Y-226032771I-837345J751317D01*
G01*
G37*
G04 #@! TD.AperFunction*
G04 #@! TA.AperFunction,ComponentPad*
G36*
G01*
X364305093Y-224357760D02*
X364305093Y-224357760D01*
G75*
G02*
X363260162Y-223158023I77403J1122334D01*
G01*
X363300162Y-222578023D01*
G75*
G02*
X364499899Y-221533092I1122334J-77403D01*
G01*
X364499899Y-221533092D01*
G75*
G02*
X365544830Y-222732829I-77403J-1122334D01*
G01*
X365504830Y-223312829D01*
G75*
G02*
X364305093Y-224357760I-1122334J77403D01*
G01*
G37*
G04 #@! TD.AperFunction*
X364422496Y-222655426D03*
X227696753Y-227256306D03*
G04 #@! TA.AperFunction,ComponentPad*
G36*
G01*
X225635436Y-229553651D02*
X225635436Y-229553651D01*
G75*
G02*
X225549408Y-227964989I751317J837345D01*
G01*
X226859410Y-226504989D01*
G75*
G02*
X228448072Y-226418961I837345J-751317D01*
G01*
X228448072Y-226418961D01*
G75*
G02*
X228534100Y-228007623I-751317J-837345D01*
G01*
X227224098Y-229467623D01*
G75*
G02*
X225635436Y-229553651I-837345J751317D01*
G01*
G37*
G04 #@! TD.AperFunction*
G04 #@! TA.AperFunction,ComponentPad*
G36*
G01*
X232619350Y-227878640D02*
X232619350Y-227878640D01*
G75*
G02*
X231574419Y-226678903I77403J1122334D01*
G01*
X231614419Y-226098903D01*
G75*
G02*
X232814156Y-225053972I1122334J-77403D01*
G01*
X232814156Y-225053972D01*
G75*
G02*
X233859087Y-226253709I-77403J-1122334D01*
G01*
X233819087Y-226833709D01*
G75*
G02*
X232619350Y-227878640I-1122334J77403D01*
G01*
G37*
G04 #@! TD.AperFunction*
X232736753Y-226176306D03*
X326850662Y-234740559D03*
G04 #@! TA.AperFunction,ComponentPad*
G36*
G01*
X324789345Y-237037904D02*
X324789345Y-237037904D01*
G75*
G02*
X324703317Y-235449242I751317J837345D01*
G01*
X326013319Y-233989242D01*
G75*
G02*
X327601981Y-233903214I837345J-751317D01*
G01*
X327601981Y-233903214D01*
G75*
G02*
X327688009Y-235491876I-751317J-837345D01*
G01*
X326378007Y-236951876D01*
G75*
G02*
X324789345Y-237037904I-837345J751317D01*
G01*
G37*
G04 #@! TD.AperFunction*
G04 #@! TA.AperFunction,ComponentPad*
G36*
G01*
X331773259Y-235362893D02*
X331773259Y-235362893D01*
G75*
G02*
X330728328Y-234163156I77403J1122334D01*
G01*
X330768328Y-233583156D01*
G75*
G02*
X331968065Y-232538225I1122334J-77403D01*
G01*
X331968065Y-232538225D01*
G75*
G02*
X333012996Y-233737962I-77403J-1122334D01*
G01*
X332972996Y-234317962D01*
G75*
G02*
X331773259Y-235362893I-1122334J77403D01*
G01*
G37*
G04 #@! TD.AperFunction*
X331890662Y-233660559D03*
X317235936Y-261109264D03*
G04 #@! TA.AperFunction,ComponentPad*
G36*
G01*
X315174619Y-263406609D02*
X315174619Y-263406609D01*
G75*
G02*
X315088591Y-261817947I751317J837345D01*
G01*
X316398593Y-260357947D01*
G75*
G02*
X317987255Y-260271919I837345J-751317D01*
G01*
X317987255Y-260271919D01*
G75*
G02*
X318073283Y-261860581I-751317J-837345D01*
G01*
X316763281Y-263320581D01*
G75*
G02*
X315174619Y-263406609I-837345J751317D01*
G01*
G37*
G04 #@! TD.AperFunction*
G04 #@! TA.AperFunction,ComponentPad*
G36*
G01*
X322158533Y-261731598D02*
X322158533Y-261731598D01*
G75*
G02*
X321113602Y-260531861I77403J1122334D01*
G01*
X321153602Y-259951861D01*
G75*
G02*
X322353339Y-258906930I1122334J-77403D01*
G01*
X322353339Y-258906930D01*
G75*
G02*
X323398270Y-260106667I-77403J-1122334D01*
G01*
X323358270Y-260686667D01*
G75*
G02*
X322158533Y-261731598I-1122334J77403D01*
G01*
G37*
G04 #@! TD.AperFunction*
X322275936Y-260029264D03*
X342786298Y-248871506D03*
G04 #@! TA.AperFunction,ComponentPad*
G36*
G01*
X340724981Y-251168851D02*
X340724981Y-251168851D01*
G75*
G02*
X340638953Y-249580189I751317J837345D01*
G01*
X341948955Y-248120189D01*
G75*
G02*
X343537617Y-248034161I837345J-751317D01*
G01*
X343537617Y-248034161D01*
G75*
G02*
X343623645Y-249622823I-751317J-837345D01*
G01*
X342313643Y-251082823D01*
G75*
G02*
X340724981Y-251168851I-837345J751317D01*
G01*
G37*
G04 #@! TD.AperFunction*
G04 #@! TA.AperFunction,ComponentPad*
G36*
G01*
X347708895Y-249493840D02*
X347708895Y-249493840D01*
G75*
G02*
X346663964Y-248294103I77403J1122334D01*
G01*
X346703964Y-247714103D01*
G75*
G02*
X347903701Y-246669172I1122334J-77403D01*
G01*
X347903701Y-246669172D01*
G75*
G02*
X348948632Y-247868909I-77403J-1122334D01*
G01*
X348908632Y-248448909D01*
G75*
G02*
X347708895Y-249493840I-1122334J77403D01*
G01*
G37*
G04 #@! TD.AperFunction*
X347826298Y-247791506D03*
X365787407Y-255034634D03*
G04 #@! TA.AperFunction,ComponentPad*
G36*
G01*
X363726090Y-257331979D02*
X363726090Y-257331979D01*
G75*
G02*
X363640062Y-255743317I751317J837345D01*
G01*
X364950064Y-254283317D01*
G75*
G02*
X366538726Y-254197289I837345J-751317D01*
G01*
X366538726Y-254197289D01*
G75*
G02*
X366624754Y-255785951I-751317J-837345D01*
G01*
X365314752Y-257245951D01*
G75*
G02*
X363726090Y-257331979I-837345J751317D01*
G01*
G37*
G04 #@! TD.AperFunction*
G04 #@! TA.AperFunction,ComponentPad*
G36*
G01*
X370710004Y-255656968D02*
X370710004Y-255656968D01*
G75*
G02*
X369665073Y-254457231I77403J1122334D01*
G01*
X369705073Y-253877231D01*
G75*
G02*
X370904810Y-252832300I1122334J-77403D01*
G01*
X370904810Y-252832300D01*
G75*
G02*
X371949741Y-254032037I-77403J-1122334D01*
G01*
X371909741Y-254612037D01*
G75*
G02*
X370710004Y-255656968I-1122334J77403D01*
G01*
G37*
G04 #@! TD.AperFunction*
X370827407Y-253954634D03*
X347380795Y-267272392D03*
G04 #@! TA.AperFunction,ComponentPad*
G36*
G01*
X345319478Y-269569737D02*
X345319478Y-269569737D01*
G75*
G02*
X345233450Y-267981075I751317J837345D01*
G01*
X346543452Y-266521075D01*
G75*
G02*
X348132114Y-266435047I837345J-751317D01*
G01*
X348132114Y-266435047D01*
G75*
G02*
X348218142Y-268023709I-751317J-837345D01*
G01*
X346908140Y-269483709D01*
G75*
G02*
X345319478Y-269569737I-837345J751317D01*
G01*
G37*
G04 #@! TD.AperFunction*
G04 #@! TA.AperFunction,ComponentPad*
G36*
G01*
X352303392Y-267894726D02*
X352303392Y-267894726D01*
G75*
G02*
X351258461Y-266694989I77403J1122334D01*
G01*
X351298461Y-266114989D01*
G75*
G02*
X352498198Y-265070058I1122334J-77403D01*
G01*
X352498198Y-265070058D01*
G75*
G02*
X353543129Y-266269795I-77403J-1122334D01*
G01*
X353503129Y-266849795D01*
G75*
G02*
X352303392Y-267894726I-1122334J77403D01*
G01*
G37*
G04 #@! TD.AperFunction*
X352420795Y-266192392D03*
M02*
