M48
; DRILL file {KiCad (5.1.6)-1} date 08/31/20 15:39:09
; FORMAT={-:-/ absolute / inch / decimal}
; #@! TF.CreationDate,2020-08-31T15:39:09-04:00
; #@! TF.GenerationSoftware,Kicad,Pcbnew,(5.1.6)-1
FMAT,2
INCH
T1C0.0579
T2C0.0689
T3C0.1200
T4C0.1570
%
G90
G05
T1
X9.7637Y-6.9283
X9.8153Y-6.8708
X10.0121Y-6.8511
X10.0137Y-6.8283
X12.8166Y-9.2992
X12.8681Y-9.2418
X13.065Y-9.2221
X13.0666Y-9.1992
X9.4822Y-7.6042
X9.5338Y-7.5467
X9.7306Y-7.5271
X9.7322Y-7.5042
X14.5155Y-7.3412
X14.5671Y-7.2837
X14.7639Y-7.264
X14.7655Y-7.2412
X12.38Y-8.3807
X12.4316Y-8.3232
X12.6284Y-8.3035
X12.63Y-8.2807
X14.0973Y-8.866
X14.1489Y-8.8085
X14.3458Y-8.7888
X14.3473Y-8.766
X9.107Y-8.2801
X9.1586Y-8.2227
X9.3554Y-8.203
X9.357Y-8.1801
X14.2915Y-8.1415
X14.343Y-8.084
X14.5399Y-8.0644
X14.5415Y-8.0415
X10.8633Y-6.4465
X10.9149Y-6.389
X11.1118Y-6.3693
X11.1133Y-6.3465
X11.5878Y-6.6406
X11.6394Y-6.5831
X11.8362Y-6.5635
X11.8378Y-6.5406
X12.438Y-10.3374
X12.4896Y-10.2799
X12.6865Y-10.2602
X12.688Y-10.2374
X8.9129Y-9.0046
X8.9644Y-8.9471
X9.1613Y-8.9274
X9.1629Y-8.9046
X11.6685Y-7.4136
X11.7201Y-7.3561
X11.917Y-7.3364
X11.9185Y-7.3136
X14.5155Y-6.5912
X14.5671Y-6.5337
X14.7639Y-6.514
X14.7655Y-6.4912
X13.7611Y-7.223
X13.8127Y-7.1655
X14.0096Y-7.1458
X14.0111Y-7.123
X13.593Y-6.4015
X13.6446Y-6.344
X13.8414Y-6.3243
X13.843Y-6.3015
X10.6952Y-5.625
X10.7468Y-5.5675
X10.9437Y-5.5478
X10.9452Y-5.525
X10.1389Y-6.2524
X10.1905Y-6.1949
X10.3873Y-6.1752
X10.3889Y-6.1524
X13.3729Y-8.6718
X13.4245Y-8.6144
X13.6213Y-8.5947
X13.6229Y-8.5718
X12.5741Y-7.6562
X12.6257Y-7.5988
X12.8225Y-7.5791
X12.8241Y-7.5562
X13.0367Y-7.0288
X13.0883Y-6.9714
X13.2851Y-6.9517
X13.2867Y-6.9288
X12.3122Y-6.8347
X12.3638Y-6.7772
X12.5607Y-6.7576
X12.5622Y-6.7347
X12.1441Y-6.0132
X12.1957Y-5.9557
X12.3926Y-5.9361
X12.3941Y-5.9132
X14.328Y-5.8412
X14.3796Y-5.7837
X14.5764Y-5.764
X14.578Y-5.7412
X13.6248Y-10.58
X13.6764Y-10.5225
X13.8733Y-10.5029
X13.8748Y-10.48
X11.4744Y-8.138
X11.526Y-8.0806
X11.7229Y-8.0609
X11.7244Y-8.038
X10.763Y-7.1709
X10.8146Y-7.1135
X11.0114Y-7.0938
X11.013Y-7.0709
X12.8686Y-6.2073
X12.9201Y-6.1499
X13.117Y-6.1302
X13.1186Y-6.1073
X11.4197Y-5.8191
X11.4713Y-5.7616
X11.6681Y-5.7419
X11.6697Y-5.7191
X10.5689Y-7.8954
X10.6204Y-7.8379
X10.8173Y-7.8182
X10.8189Y-7.7954
X9.0392Y-6.7342
X9.0908Y-6.6767
X9.2877Y-6.657
X9.2892Y-6.6342
X14.3495Y-10.0982
X14.4011Y-10.0407
X14.5979Y-10.021
X14.5995Y-9.9982
X13.4439Y-9.8556
X13.4955Y-9.7981
X13.6924Y-9.7784
X13.6939Y-9.7556
X13.567Y-7.9474
X13.6186Y-7.8899
X13.8154Y-7.8702
X13.817Y-7.8474
T2
X12.7666Y-9.3992
X13.1666Y-9.3992
X9.4322Y-7.7042
X9.8322Y-7.7042
X14.4655Y-7.4412
X14.8655Y-7.4412
X12.33Y-8.4807
X12.73Y-8.4807
X14.0473Y-8.966
X14.4473Y-8.966
X9.057Y-8.3801
X9.457Y-8.3801
X14.2415Y-8.2415
X14.6415Y-8.2415
X10.8133Y-6.5465
X11.2133Y-6.5465
X11.5378Y-6.7406
X11.9378Y-6.7406
X12.388Y-10.4374
X12.788Y-10.4374
X8.8629Y-9.1046
X9.2629Y-9.1046
X11.6185Y-7.5136
X12.0185Y-7.5136
X14.4655Y-6.6912
X14.8655Y-6.6912
X13.7111Y-7.323
X14.1111Y-7.323
X13.543Y-6.5015
X13.943Y-6.5015
X10.6452Y-5.725
X11.0452Y-5.725
X10.0889Y-6.3524
X10.4889Y-6.3524
X13.3229Y-8.7718
X13.7229Y-8.7718
X12.5241Y-7.7562
X12.9241Y-7.7562
X12.9867Y-7.1288
X13.3867Y-7.1288
X12.2622Y-6.9347
X12.6622Y-6.9347
X12.0941Y-6.1132
X12.4941Y-6.1132
X14.278Y-5.9412
X14.678Y-5.9412
X13.5748Y-10.68
X13.9748Y-10.68
X11.4244Y-8.238
X11.8244Y-8.238
X10.713Y-7.2709
X11.113Y-7.2709
X12.8186Y-6.3073
X13.2186Y-6.3073
X11.3697Y-5.9191
X11.7697Y-5.9191
X10.5189Y-7.9954
X10.9189Y-7.9954
X8.9892Y-6.8342
X9.3892Y-6.8342
X14.2995Y-10.1982
X14.6995Y-10.1982
X13.3939Y-9.9556
X13.7939Y-9.9556
X13.517Y-8.0474
X13.917Y-8.0474
X9.7137Y-7.0283
X10.1137Y-7.0283
T3
X13.3048Y-10.405
X14.2448Y-10.405
T4
X11.5697Y-5.9191
X10.7189Y-7.9954
X9.1892Y-6.8342
X14.4995Y-10.1982
X13.5939Y-9.9556
X13.717Y-8.0474
X9.9137Y-7.0283
X12.9666Y-9.3992
X9.6322Y-7.7042
X14.6655Y-7.4412
X12.53Y-8.4807
X14.2473Y-8.966
X9.257Y-8.3801
X14.4415Y-8.2415
X11.0133Y-6.5465
X11.7378Y-6.7406
X12.588Y-10.4374
X9.0629Y-9.1046
X11.8185Y-7.5136
X14.6655Y-6.6912
X13.9111Y-7.323
X13.743Y-6.5015
X10.8452Y-5.725
X10.2889Y-6.3524
X13.5229Y-8.7718
X12.7241Y-7.7562
X13.1867Y-7.1288
X12.4622Y-6.9347
X12.2941Y-6.1132
X14.478Y-5.9412
X13.3048Y-11.005
X13.7748Y-10.68
X14.2448Y-11.005
X11.6244Y-8.238
X10.913Y-7.2709
X13.0186Y-6.3073
T0
M30
