G04 #@! TF.GenerationSoftware,KiCad,Pcbnew,(5.1.6)-1*
G04 #@! TF.CreationDate,2020-08-31T15:39:06-04:00*
G04 #@! TF.ProjectId,keyboard,6b657962-6f61-4726-942e-6b696361645f,rev?*
G04 #@! TF.SameCoordinates,Original*
G04 #@! TF.FileFunction,Paste,Bot*
G04 #@! TF.FilePolarity,Positive*
%FSLAX46Y46*%
G04 Gerber Fmt 4.6, Leading zero omitted, Abs format (unit mm)*
G04 Created by KiCad (PCBNEW (5.1.6)-1) date 2020-08-31 15:39:06*
%MOMM*%
%LPD*%
G01*
G04 APERTURE LIST*
%ADD10R,1.200000X0.900000*%
G04 APERTURE END LIST*
D10*
X283994126Y-144265000D03*
X283994126Y-147565000D03*
X302395013Y-149195503D03*
X302395013Y-152495503D03*
X376266686Y-149756117D03*
X376266686Y-153056117D03*
X269863179Y-160200636D03*
X269863179Y-163500636D03*
X288264066Y-165131138D03*
X288264066Y-168431138D03*
X306664953Y-170061641D03*
X306664953Y-173361641D03*
X320795900Y-154126006D03*
X320795900Y-157426006D03*
X339196787Y-159056508D03*
X339196787Y-162356508D03*
X357597674Y-163987011D03*
X357597674Y-167287011D03*
X381029186Y-168806117D03*
X381029186Y-172106117D03*
X241931568Y-172438394D03*
X241931568Y-175738394D03*
X260332455Y-177368897D03*
X260332455Y-180668897D03*
X288096063Y-183532025D03*
X288096063Y-186832025D03*
X325065840Y-174992144D03*
X325065840Y-178292144D03*
X343466727Y-179922647D03*
X343466727Y-183222647D03*
X361867614Y-184853150D03*
X361867614Y-188153150D03*
X381029186Y-187856117D03*
X381029186Y-191156117D03*
X255564230Y-194537158D03*
X255564230Y-197837158D03*
X283165561Y-201932912D03*
X283165561Y-205232912D03*
X311097172Y-189695154D03*
X311097172Y-192995154D03*
X306166669Y-208096041D03*
X306166669Y-211396041D03*
X334098281Y-195858282D03*
X334098281Y-199158282D03*
X356937111Y-203254037D03*
X356937111Y-206554037D03*
X375337998Y-208184539D03*
X375337998Y-211484539D03*
X246033506Y-211705419D03*
X246033506Y-215005419D03*
X329167778Y-214259169D03*
X329167778Y-217559169D03*
X352006609Y-221654924D03*
X352006609Y-224954924D03*
X370407496Y-226585426D03*
X370407496Y-229885426D03*
X241103003Y-230106306D03*
X241103003Y-233406306D03*
X337875662Y-237590559D03*
X337875662Y-240890559D03*
X330642186Y-263959264D03*
X330642186Y-267259264D03*
X353811298Y-251721506D03*
X353811298Y-255021506D03*
X376812407Y-257884634D03*
X376812407Y-261184634D03*
X367930795Y-270122392D03*
X367930795Y-273422392D03*
M02*
